<svg width="100" height="100" viewBox="0 0 100 100" fill="none" xmlns="http://www.w3.org/2000/svg">
<path d="M100 49.9165C100 57.7854 98.1823 65.2478 94.9295 71.873C94.8099 72.1361 94.6663 72.3992 94.5467 72.6623C94.4272 72.9254 94.2837 73.1646 94.1402 73.4277C92.8247 75.8912 91.3179 78.2112 89.6436 80.4117C89.2609 80.89 88.9022 81.3684 88.4955 81.8468C88.2803 82.1098 88.065 82.349 87.8498 82.6121C87.6345 82.8513 87.4193 83.1144 87.1801 83.3536C86.9409 83.6167 86.7017 83.8798 86.4625 84.1429C84.7883 85.9367 82.9706 87.6109 81.0332 89.1417C80.818 89.3091 80.6027 89.4765 80.3636 89.6679C80.1483 89.8353 79.9091 90.0027 79.6938 90.1702C71.3944 96.317 61.1098 99.9525 49.988 99.9525C38.5315 99.9525 27.9837 96.1018 19.5647 89.62C18.5362 88.8308 17.5556 88.0175 16.5989 87.1565C15.2356 85.9367 13.944 84.6212 12.7242 83.2579C12.509 83.0187 12.2937 82.7556 12.0545 82.5165C11.8393 82.2534 11.624 81.9903 11.4087 81.7511C10.7869 80.9857 10.165 80.1964 9.56709 79.3832C7.9646 77.1828 6.52953 74.8388 5.28581 72.3753C5.16622 72.1361 5.04663 71.8969 4.92705 71.6578C4.80746 71.4186 4.68786 71.1794 4.59219 70.9163C1.65031 64.5542 0 57.4506 0 49.9882C0 22.3871 22.387 0 49.988 0C77.5891 0 100 22.3153 100 49.9165Z" fill="url(#paint0_linear_1145_40602)"/>
<path d="M87.8508 82.5893C87.6356 82.8285 87.4203 83.0916 87.1811 83.3308C86.9419 83.5939 86.7028 83.857 86.4636 84.1201C84.7893 85.9139 82.9716 87.5881 81.0343 89.1189C80.819 89.2863 80.6038 89.4537 80.3646 89.6451C80.1493 89.8125 79.9101 89.9799 79.6949 90.1473C78.786 90.8409 77.8293 91.4867 76.8487 92.1086C69.0993 97.0596 59.8671 99.9297 49.9891 99.9297C38.5325 99.9297 27.9848 96.0789 19.5658 89.5972C18.5373 88.8079 17.5567 87.9947 16.6 87.1337C15.2367 85.9139 13.9451 84.5984 12.7253 83.2351C12.5101 82.9959 12.2948 82.7328 12.0557 82.4936C12.8449 78.308 13.8016 74.0746 14.6148 69.9607C14.854 68.7648 15.0693 67.5929 15.2846 66.4209C15.3324 66.1339 15.3802 65.823 15.4281 65.5359C15.4759 65.2489 15.5237 64.9619 15.5716 64.6749C16.0977 61.3981 16.4326 58.241 16.4326 55.323C16.4326 37.576 28.511 27.3392 41.4266 23.8951C41.7136 23.8233 42.0245 23.7516 42.3115 23.6798C42.5986 23.6081 42.9095 23.5363 43.1965 23.4885C45.3969 23.0101 47.5974 22.7231 49.7499 22.6274H50.611C52.9788 22.7231 55.3706 23.058 57.7385 23.6081C58.0255 23.6798 58.3364 23.7516 58.6234 23.8233C58.9104 23.8951 59.1735 23.9668 59.4605 24.0625C64.9377 25.6172 70.1996 28.4395 74.3852 32.5772C79.8145 37.9348 83.426 45.4689 83.426 55.3469C83.426 57.1408 83.5456 59.0064 83.7609 60.9437C83.7848 61.2307 83.8327 61.5177 83.8566 61.8048C83.9044 62.0918 83.9283 62.3788 83.9762 62.6897C84.0958 63.6225 84.2393 64.5553 84.4067 65.4881C85.3634 70.9414 86.7506 76.8251 87.8508 82.5893Z" fill="#F4D93B"/>
<path d="M87.1789 75.3878C86.4375 71.8958 85.7439 68.4995 85.1938 65.2467C85.0742 64.6009 84.9786 63.979 84.9068 63.3332C84.835 62.9266 84.7872 62.52 84.7394 62.1134C84.6915 61.7068 84.6437 61.3242 84.5959 60.9176C84.3806 58.9563 84.2371 57.0907 84.2371 55.273C84.2371 45.1797 80.482 36.6171 73.3545 30.4702C69.5995 27.2413 64.9833 24.7778 59.9845 23.3188C59.7215 23.2471 59.4584 23.1753 59.1953 23.1035C58.9083 23.0318 58.6452 22.96 58.3821 22.8883C55.8707 22.2664 53.2876 21.8837 50.6806 21.7642H50.6327H49.7717H49.7478C47.667 21.8598 45.5861 22.099 43.5292 22.5295C43.2183 22.6013 42.9312 22.6491 42.6203 22.7209C42.3094 22.7926 42.0224 22.8644 41.7115 22.9361C36.1626 24.3473 30.9724 26.9304 26.8107 30.4463C19.5158 36.5932 15.6651 45.1797 15.6651 55.2491C15.6651 58.2627 15.3063 61.4916 14.7562 64.8879C14.7084 65.1749 14.6605 65.4859 14.6127 65.7729C14.5649 66.0599 14.517 66.3708 14.4453 66.6817C14.254 67.7102 14.0626 68.7387 13.8713 69.791C13.5125 71.6088 13.1298 73.4744 12.7232 75.3639C12.2927 77.4447 11.8382 79.5495 11.4316 81.6543C11.6469 81.9173 11.8622 82.1805 12.0774 82.4196C12.2927 82.6827 12.5079 82.9219 12.7471 83.1611C13.2015 80.6736 13.7278 78.1623 14.2539 75.6748C14.6605 73.7614 15.0432 71.8719 15.4259 70.0302C15.689 68.6908 15.9282 67.3753 16.1674 66.0838C16.2152 65.7968 16.263 65.5098 16.3109 65.2228C16.3587 64.9357 16.4065 64.6487 16.4544 64.3617C16.9566 61.1807 17.2676 58.1192 17.2676 55.2491C17.2676 38.7697 28.3176 28.2698 41.2331 24.6821C41.5201 24.6104 41.8071 24.5147 42.0941 24.4429C42.3811 24.3712 42.6682 24.2994 42.9552 24.2277C45.2034 23.7254 47.4995 23.4145 49.7956 23.3188H50.6327C52.7614 23.4145 54.9379 23.6776 57.0666 24.1559C57.3775 24.2277 57.7124 24.2994 58.0233 24.3712C58.3103 24.4429 58.6213 24.5147 58.9322 24.6104C71.489 28.0067 82.6824 38.0282 82.6824 55.273C82.6824 57.2342 82.826 59.2672 83.0891 61.3481C83.113 61.6351 83.1608 61.9221 83.1847 62.233C83.2325 62.52 83.2565 62.8071 83.3043 63.0941C83.4239 63.9073 83.5435 64.7444 83.687 65.5815C84.2371 68.8343 84.9307 72.2068 85.6722 75.6988C86.1984 78.234 86.7485 80.7932 87.2029 83.3285C87.4181 83.0893 87.6573 82.8262 87.8726 82.5871C88.0879 82.324 88.3031 82.0848 88.5184 81.8217C88.0878 79.6691 87.6334 77.5165 87.1789 75.3878ZM15.2824 66.3947C15.0672 67.5667 14.8519 68.7387 14.6127 69.9345C13.7995 74.0484 12.8428 78.2819 12.0535 82.4675C12.2688 82.7306 12.484 82.9697 12.7232 83.2089C13.1776 80.7215 13.7038 78.2101 14.23 75.7227C14.6366 73.8092 15.0193 71.9197 15.402 70.0781C15.6651 68.7387 15.9043 67.4232 16.1434 66.1316C15.8564 66.2034 15.5694 66.2751 15.2824 66.3947ZM50.6327 22.5534H49.7717C47.6191 22.6491 45.4187 22.9361 43.2183 23.4145C43.1226 23.6776 43.0269 23.9646 42.9552 24.2755C45.2034 23.7733 47.4995 23.4623 49.7956 23.3666H50.6327C52.7614 23.4623 54.9379 23.7254 57.0666 24.2038C57.3297 23.9885 57.5689 23.7972 57.7841 23.5819C55.3924 22.984 52.9767 22.6491 50.6327 22.5534Z" fill="#232323"/>
<path d="M87.8505 82.5843C87.6352 82.8235 87.42 83.0866 87.1808 83.3258C86.9416 83.5889 86.7024 83.852 86.4633 84.1151C84.789 85.9089 82.9713 87.5832 81.034 89.1139C80.8187 89.2813 80.6035 89.4488 80.3643 89.6401C80.149 89.8075 79.9098 89.9749 79.6946 90.1424C78.7857 90.836 77.829 91.4818 76.8484 92.1036C81.4166 78.7575 74.624 64.4786 74.624 64.4786C74.624 64.4786 68.525 63.7132 61.6846 56.8488L74.3849 32.5483C79.8142 37.9059 83.4257 45.44 83.4257 55.3181C83.4257 57.1119 83.5453 58.9775 83.7606 60.9148C83.7845 61.2018 83.8323 61.4889 83.8563 61.7759C83.9041 62.0629 83.928 62.3499 83.9759 62.6608C84.0954 63.5936 84.239 64.5264 84.4064 65.4592C85.3631 70.9364 86.7503 76.8202 87.8505 82.5843Z" fill="#F2B53D"/>
<path d="M79.5004 58.0459C77.4674 58.9548 72.2055 60.0789 66.9915 58.9787C65.963 58.7634 64.9106 58.4525 63.9061 58.0459C61.0838 56.8739 58.6203 54.1712 55.7741 52.2578C54.5064 51.3968 53.1431 50.7031 51.6363 50.3922C50.5122 50.153 49.3163 50.1291 48.0247 50.4161C46.6614 50.7031 45.1785 51.325 43.576 52.3774C33.6741 58.7874 25.0159 60.0789 20.0889 57.4001L21.3326 54.3626L22.5285 50.3204L26.5227 45.6087L32.1912 43.5756L40.8255 41.9971L42.2127 42.0449L46.2787 42.1645L48.7901 42.2362L54.4347 42.4037L56.2524 42.595L65.5325 43.5996L73.0666 45.7282L77.6109 50.6314L79.5004 58.0459Z" fill="#F4A651"/>
<path d="M51.6614 50.3966C50.5372 50.1575 49.3413 50.1335 48.0498 50.4205L42.2139 42.0493L46.2799 42.1689L51.6614 50.3966Z" fill="white"/>
<path d="M37.7672 52.3777C37.7707 50.9379 36.6063 49.7679 35.1665 49.7644C33.7267 49.7609 32.5566 50.9253 32.5532 52.3651C32.5497 53.805 33.7141 54.975 35.1539 54.9785C36.5937 54.9819 37.7637 53.8175 37.7672 52.3777Z" fill="#232323"/>
<path d="M64.8883 54.988C66.3281 54.988 67.4953 53.8208 67.4953 52.381C67.4953 50.9411 66.3281 49.7739 64.8883 49.7739C63.4484 49.7739 62.2812 50.9411 62.2812 52.381C62.2812 53.8208 63.4484 54.988 64.8883 54.988Z" fill="#232323"/>
<path d="M42.7654 53.1669C48.7927 49.7706 51.7585 49.651 57.6183 53.7888C58.9816 54.7455 58.5033 56.1327 57.2595 56.5872C54.2938 57.6635 46.0421 57.4721 42.8133 56.2284C41.3304 55.6544 41.1151 54.0758 42.7654 53.1669Z" fill="#FF814A"/>
<path d="M58.0717 53.1113C52.1162 48.9257 48.8873 48.7822 42.3817 52.4416C41.3293 53.0395 40.7792 53.9245 40.851 54.8812C40.9227 55.7901 41.5446 56.5316 42.5491 56.9142C44.4386 57.6318 47.8828 58.0145 51.1117 58.0145C53.6948 58.0145 56.1344 57.7753 57.5455 57.2491C58.4783 56.9142 59.1241 56.1728 59.2198 55.3356C59.3154 54.5464 58.9088 53.7093 58.0717 53.1113ZM43.0753 55.4792C42.6687 55.3357 42.4056 55.0726 42.3817 54.7856C42.3578 54.4746 42.6448 54.1159 43.1231 53.8288C49.1026 50.4804 51.7096 50.576 57.1389 54.4029C57.3303 54.5464 57.6651 54.8334 57.6173 55.1682C57.5934 55.4313 57.3303 55.6944 56.9476 55.814C54.1731 56.8425 46.1129 56.6272 43.0753 55.4792Z" fill="#232323"/>
<path d="M41.5918 19.7106C43.3378 9.76077 49.0541 7.56034 49.939 13.7072C49.939 13.7072 52.1395 8.89975 57.9276 10.287C63.7156 11.6742 58.7168 21.1696 48.6236 20.3085L41.5918 19.7106Z" fill="#F4D93B"/>
<path d="M49.9625 21.1181C49.5081 21.1181 49.0536 21.0942 48.5753 21.0464C48.1448 20.9985 47.8338 20.6397 47.8578 20.1853C47.9056 19.7548 48.2643 19.4439 48.7188 19.4678C54.9852 20.0179 59.123 16.2867 59.5774 13.5123C59.7209 12.6034 59.5296 11.4075 57.7836 11.0009C52.737 9.80501 50.7757 13.8232 50.704 13.9906C50.5605 14.3016 50.2256 14.4929 49.8668 14.445C49.532 14.3972 49.245 14.1341 49.1971 13.7754C48.958 12.0772 48.2883 11.0487 47.4512 11.0248C45.9922 11.0009 43.4808 13.7036 42.4045 19.8026C42.3328 20.2331 41.9262 20.5202 41.4957 20.4484C41.0651 20.3767 40.7781 19.9701 40.8499 19.5395C42.0697 12.5555 45.1311 9.42232 47.4512 9.47016C48.7188 9.49408 49.6994 10.3551 50.2973 11.8141C51.565 10.3551 54.0764 8.51345 58.1185 9.47016C60.3189 9.99635 61.443 11.6467 61.1082 13.7514C60.5581 17.0282 56.4442 21.1181 49.9625 21.1181Z" fill="#232323"/>
<path d="M87.8499 65.3425L84.9319 66.1318C82.7076 66.7298 80.4832 65.2468 80.1723 62.9747L79.1199 55.1536C78.3546 49.509 74.0255 45.0124 68.4287 44.0557C51.4232 41.1616 39.1535 42.0705 31.6194 43.4817C26.3096 44.4623 22.148 48.6001 21.1674 53.9098L19.3018 63.9075C18.8952 66.0122 16.8382 67.3755 14.7335 66.9211L13.2984 66.6102L11.4089 66.1796C11.4089 66.1796 7.07982 14.8999 48.4574 13.9432C55.4892 13.7758 61.2773 15.0674 66.037 17.3635C90.0742 28.8201 87.8499 65.3425 87.8499 65.3425Z" fill="#EAEAEA"/>
<path d="M66.0369 17.3378C65.439 17.2421 64.841 17.1464 64.2431 17.0269C18.4646 9.20574 14.7335 43.6473 13.2984 66.5606L11.4089 66.1301C11.4089 66.1301 7.07982 14.8503 48.4574 13.8936C55.4892 13.7501 61.2773 15.0417 66.0369 17.3378Z" fill="white"/>
<path d="M13.7526 63.0915C13.657 63.0915 13.5613 63.0915 13.4656 63.0676L11.3848 62.8284L11.4087 62.5892L13.4895 62.8284C14.0636 62.9002 14.6137 62.7327 15.0681 62.374C15.5225 62.0152 15.7856 61.489 15.8574 60.915C16.24 57.0642 17.2924 49.9128 20.2821 45.3206C22.5304 41.8525 25.4962 39.676 29.8732 38.2409C34.561 36.7102 41.0188 35.9927 50.2271 35.9927C68.2611 35.9927 77.6129 39.4129 80.6026 47.1144C82.5399 52.1133 83.401 57.0403 83.7358 59.5278C83.9032 60.6758 84.9556 61.489 86.1036 61.3455L87.8496 61.1303L87.8736 61.3694L86.1276 61.5847C84.836 61.7521 83.6641 60.8433 83.4966 59.5756C83.1618 57.0882 82.3008 52.2089 80.3634 47.234C77.4215 39.6521 68.1415 36.2797 50.2271 36.2797C41.0427 36.2797 34.5849 36.9972 29.9449 38.528C25.5919 39.963 22.6739 42.1156 20.4735 45.5119C17.5077 50.0563 16.4553 57.1599 16.0726 60.9868C16.0009 61.6325 15.69 62.2066 15.2116 62.5892C14.805 62.9241 14.3027 63.0915 13.7526 63.0915Z" fill="#232323"/>
<path d="M25.7827 28.1961L21.334 26.761L21.4057 26.5458L25.7348 27.933L33.9386 22.5037L32.4557 17.5288L32.671 17.457L34.2017 22.5994L25.7827 28.1961Z" fill="#232323"/>
<path d="M66.9933 59.0037C65.9649 58.7884 64.9125 58.4775 63.908 58.0709C61.0857 56.8989 58.6222 54.1962 55.7759 52.2828L48.792 42.2373L54.4366 42.4047L56.2543 42.5961L66.9933 59.0037Z" fill="white"/>
<path d="M70.4604 60.3916C64.8398 60.3916 61.6587 57.7128 58.7168 55.2253C56.1576 53.0727 53.9572 51.2311 50.4891 51.2311C46.758 51.2311 43.6008 53.0727 40.2284 55.0101C35.0622 57.9998 29.2263 61.3961 20.2093 58.5021C19.8984 58.4064 19.731 58.0716 19.8267 57.7606C19.9223 57.4497 20.2572 57.2822 20.5681 57.3779C29.0828 60.1045 34.4404 56.9952 39.6305 54.0055C43.1225 51.9725 46.447 50.0591 50.4891 50.0591C54.4116 50.0591 56.8752 52.1399 59.4822 54.3404C63.6678 57.8563 68.0208 61.5157 79.2621 57.3779C79.5731 57.2583 79.9079 57.4257 80.0275 57.7367C80.1471 58.0476 79.9797 58.3825 79.6687 58.5021C76.0093 59.8415 72.9957 60.3916 70.4604 60.3916Z" fill="#232323"/>
<path d="M15.5468 67.7541C15.2119 67.7541 14.877 67.7063 14.5422 67.6345L11.2416 66.8931C10.9067 66.8213 10.6675 66.5343 10.6197 66.1995C10.5958 65.9364 10.0696 59.5025 11.2416 51.0834C12.3179 43.2862 15.1162 32.2841 22.3633 24.2238C28.7493 17.0963 37.5271 13.3651 48.4336 13.1259C59.7227 12.8628 68.8593 16.2831 75.628 23.3149C83.2099 31.1839 86.3431 42.2099 87.6347 50.0789C89.0219 58.5697 88.6632 65.0992 88.6392 65.3862C88.6153 65.7211 88.3762 66.0081 88.0652 66.1038L85.1472 66.8931C83.8796 67.2279 82.5163 67.0127 81.4161 66.2951C80.3159 65.5537 79.5744 64.4056 79.407 63.0901L78.3546 55.269C77.6371 49.9354 73.595 45.7498 68.3092 44.8409C51.2559 41.9229 39.0339 42.9036 31.7629 44.2669C26.812 45.1757 22.8656 49.1222 21.9328 54.0492L20.0672 64.0229C19.828 65.2667 19.1344 66.3191 18.082 67.0127C17.3167 67.491 16.4317 67.7541 15.5468 67.7541ZM12.1504 65.5058L14.877 66.1038C15.6902 66.2712 16.5035 66.1277 17.1971 65.6733C17.8907 65.2188 18.3451 64.5252 18.5126 63.712L20.3781 53.7383C21.4305 48.1655 25.8792 43.7407 31.4759 42.6883C38.8665 41.325 51.2798 40.3204 68.5723 43.2623C74.5517 44.2908 79.0961 49.0026 79.9093 55.0299L80.9617 62.851C81.0812 63.712 81.5596 64.4774 82.2771 64.9557C82.9947 65.4341 83.9035 65.5776 84.7406 65.3623L87.1085 64.7166C87.1564 62.9467 87.2281 57.2064 86.1039 50.2702C84.8363 42.6405 81.8227 31.9492 74.5278 24.3673C68.0939 17.6703 59.34 14.4175 48.5053 14.6567C38.0533 14.8958 29.6582 18.4596 23.5831 25.2283C16.623 32.9777 13.8964 43.645 12.844 51.203C11.8634 58.1153 12.0547 63.7359 12.1504 65.5058Z" fill="#232323"/>
<defs>
<linearGradient id="paint0_linear_1145_40602" x1="50" y1="0" x2="50" y2="99.9525" gradientUnits="userSpaceOnUse">
<stop stop-color="#71E256"/>
<stop offset="1" stop-color="#3BD117"/>
</linearGradient>
</defs>
</svg>
