<svg width="194" height="194" viewBox="0 0 194 194" fill="none" xmlns="http://www.w3.org/2000/svg">
<path d="M93.939 97.7469L92.8644 104.322C81.4726 105.397 60.9023 101.612 44.074 97.8217C39.9204 96.8808 36.002 95.94 32.5006 95.0793C23.3754 92.8234 17.1102 91.054 17.1102 91.054L16.891 89.9956C16.3564 87.3922 17.4792 84.7247 19.7137 83.2813L19.4357 81.4745C19.1149 79.3416 20.3605 77.2834 22.3972 76.5832L23.4181 76.2303L24.2842 74.5357C25.1181 72.9053 26.7379 71.8789 28.502 71.7613C28.9403 71.7346 29.3946 71.7613 29.8436 71.8522L31.966 72.2745C34.5213 72.7824 37.2103 73.4559 39.9794 74.2578C64.0351 81.2072 93.939 97.7469 93.939 97.7469Z" fill="#565656"/>
<path d="M25.1449 75.5253C29.4535 72.227 56.1659 83.2232 65.847 87.5853C75.5281 91.9474 85.0007 96.0636 85.0007 96.0636L85.6903 93.8718L53.2953 79.2246C53.2953 79.2246 37.0445 74.253 34.2326 73.51C31.4208 72.7669 26.759 71.7566 26.759 71.7566L25.1394 74.9747V75.5307L25.1449 75.5253Z" fill="#848484"/>
<path d="M39.9791 74.2578C39.0756 76.4014 36.9532 77.9036 34.4728 77.9036C31.1745 77.9036 28.4962 75.2307 28.4962 71.927C28.4962 71.8736 28.4964 71.8148 28.5017 71.7613C28.94 71.7346 29.3943 71.7613 29.8433 71.8522L31.9657 72.2745C34.521 72.7824 37.21 73.4559 39.9791 74.2578Z" fill="#727272"/>
<path d="M44.3946 95.8919C44.3946 96.5654 44.2823 97.2176 44.0738 97.8217C39.9202 96.8808 36.0018 95.94 32.5004 95.0793C32.8959 92.1659 35.3977 89.9153 38.418 89.9153C41.7163 89.9153 44.3946 92.5936 44.3946 95.8919Z" fill="#727272"/>
<path d="M62.6823 101.366C65.983 101.366 68.6589 98.6905 68.6589 95.3898C68.6589 92.089 65.983 89.4133 62.6823 89.4133C59.3816 89.4133 56.7057 92.089 56.7057 95.3898C56.7057 98.6905 59.3816 101.366 62.6823 101.366Z" fill="#727272"/>
<path d="M88.4756 106.263C64.8529 106.263 18.7141 93.3317 16.6292 92.7437C15.9984 92.5673 15.5174 92.0487 15.3891 91.4073L15.1699 90.3488C14.5658 87.398 15.592 84.4418 17.8158 82.5173L17.6984 81.7422C17.2493 78.7753 18.9813 75.91 21.8199 74.9318L22.1728 74.8088L22.7181 73.745C24.1133 71.0187 27.1816 69.5379 30.1859 70.1366L32.3028 70.559C57.0909 75.4663 93.2601 95.3738 94.7889 96.2184C95.4358 96.5766 95.7885 97.3036 95.6709 98.0359L94.5966 104.611C94.4683 105.397 93.8267 106.001 93.0302 106.076C91.6349 106.21 90.1114 106.268 88.4756 106.268V106.263ZM18.6125 89.6539C26.0056 91.6852 71.2678 103.841 91.357 102.681L92.0091 98.6988C85.7225 95.3096 53.5306 78.3423 31.6239 74.0016L29.5018 73.5793C28.0317 73.2853 26.5295 74.0123 25.8506 75.3434L24.9845 77.038C24.7761 77.4442 24.4232 77.749 23.9955 77.8986L22.9747 78.2515C21.7398 78.6791 20.9805 79.9247 21.1783 81.2183L21.4511 83.0305C21.5527 83.7148 21.248 84.3937 20.6706 84.7679C19.0295 85.8263 18.2275 87.7401 18.6177 89.6539H18.6125Z" fill="#232323"/>
<path d="M177.84 89.9962L177.621 91.0546C177.621 91.0546 175.745 91.5839 172.543 92.4338C169.699 93.1929 165.807 94.2033 161.269 95.3205C154.64 96.9403 146.638 98.7899 138.475 100.404C135.032 101.083 131.557 101.725 128.152 102.286C117.995 103.954 108.415 104.943 101.867 104.323L100.793 97.7475C100.793 97.7475 117.904 88.2855 136.652 80.6679C139.971 79.3154 143.35 78.0218 146.686 76.8511C152.277 74.8892 157.773 73.2641 162.766 72.2751L163.445 72.1415L164.888 71.8528C167.133 71.4038 169.405 72.4996 170.447 74.5364L171.169 75.9423L171.313 76.231L172.334 76.5838C174.371 77.2841 175.617 79.3422 175.296 81.4751L175.018 83.282C177.252 84.7253 178.375 87.3928 177.84 89.9962Z" fill="#565656"/>
<path d="M115.215 93.5091C135.117 84.4855 164.46 73.5589 169.186 74.0293C173.911 74.4997 164.701 71.3939 164.701 71.3939L131.83 83.1651L114.707 90.9485L115.215 93.5037V93.5091Z" fill="#848484"/>
<path d="M138.774 98.5341C138.774 99.1862 138.667 99.817 138.475 100.405C135.032 101.084 131.557 101.725 128.152 102.287C127.318 101.26 126.821 99.9507 126.821 98.5341C126.821 95.2304 129.499 92.5576 132.798 92.5576C136.096 92.5576 138.774 95.2304 138.774 98.5341Z" fill="#727272"/>
<path d="M148.578 81.2133C148.578 84.5116 145.9 87.1898 142.602 87.1898C139.303 87.1898 136.625 84.5116 136.625 81.2133C136.625 81.0315 136.636 80.8444 136.652 80.668C139.972 79.3156 143.35 78.0219 146.686 76.8512C147.851 77.9417 148.578 79.492 148.578 81.2133Z" fill="#727272"/>
<path d="M172.543 92.4347C169.699 93.1938 165.807 94.2042 161.269 95.3214C160.836 94.4928 160.59 93.552 160.59 92.5577C160.59 89.254 163.263 86.5812 166.566 86.5812C169.87 86.5812 172.479 89.1899 172.543 92.4347Z" fill="#727272"/>
<path d="M171.169 75.9423C170.538 76.1775 169.854 76.3004 169.138 76.3004C166.47 76.3004 164.209 74.5524 163.445 72.1415L164.888 71.8528C167.133 71.4038 169.405 72.4996 170.447 74.5364L171.169 75.9423Z" fill="#727272"/>
<path d="M106.251 106.264C104.62 106.264 103.097 106.199 101.696 106.071C100.899 105.996 100.258 105.398 100.13 104.606L99.0552 98.0312C98.9376 97.2988 99.2904 96.5718 99.9372 96.2136C101.466 95.369 137.635 75.4669 162.423 70.5542L164.54 70.1319C167.545 69.5332 170.613 71.0139 172.008 73.7402L172.554 74.804L172.906 74.927C175.745 75.9053 177.477 78.7706 177.028 81.7374L176.91 82.5126C179.134 84.437 180.16 87.3932 179.556 90.344L179.337 91.4025C179.204 92.044 178.728 92.5625 178.097 92.7389C176.012 93.3269 129.879 106.258 106.251 106.258V106.264ZM103.375 102.677C123.453 103.837 168.721 91.6805 176.119 89.6491C176.509 87.73 175.707 85.8162 174.066 84.7578C173.489 84.3836 173.179 83.7047 173.286 83.0204L173.559 81.2082C173.756 79.9146 173.002 78.669 171.762 78.2413L170.741 77.8885C170.314 77.7388 169.955 77.4341 169.752 77.0279L168.886 75.3333C168.202 74.0022 166.7 73.2698 165.23 73.5692L163.113 73.9915C141.206 78.3322 109.014 95.2995 102.728 98.6887L103.38 102.671L103.375 102.677Z" fill="#232323"/>
<path d="M118.925 137.076L116.087 148.906L99.0502 145.319L99.2746 110.369L108.496 110.898L113.815 124.246L118.156 135.146L118.925 137.076Z" fill="#565656"/>
<path d="M118.156 135.146C117.225 135.744 116.119 136.092 114.927 136.092C111.628 136.092 108.95 133.414 108.95 130.115C108.95 127.191 111.046 124.764 113.815 124.246L118.156 135.146Z" fill="#727272"/>
<path d="M116.087 150.664C115.969 150.664 115.846 150.654 115.723 150.627L98.6866 147.04C97.8687 146.869 97.2861 146.147 97.2914 145.313L97.5104 110.363C97.5104 109.882 97.7136 109.422 98.0664 109.096C98.4192 108.765 98.8844 108.599 99.3655 108.626L108.587 109.155C109.266 109.192 109.864 109.625 110.116 110.256L120.545 136.434C120.679 136.771 120.705 137.14 120.62 137.493L117.781 149.328C117.589 150.13 116.873 150.675 116.076 150.675L116.087 150.664ZM100.814 143.902L114.777 146.842L117.086 137.209L107.277 112.587L101.012 112.229L100.809 143.902H100.814Z" fill="#232323"/>
<path d="M104.218 157.63L99.3106 161.815H99.3054L92.0296 168.033L82.7603 151.653C82.7603 151.653 82.9314 146.81 83.7814 139.535C84.1716 136.156 84.7168 132.243 85.4545 128.047C86.5344 121.931 88.0364 115.206 90.1158 108.626L102.042 110.898L103.929 151.445L104.218 157.63Z" fill="#565656"/>
<path d="M104.218 157.63L99.3107 161.816H99.3055C96.2905 161.511 93.9384 158.967 93.9384 155.872C93.9384 152.573 96.6164 149.895 99.9147 149.895C101.46 149.895 102.866 150.483 103.929 151.445L104.218 157.63Z" fill="#727272"/>
<path d="M92.0082 133.997C92.0082 137.301 89.3302 139.973 86.0319 139.973C85.2354 139.973 84.4763 139.818 83.7814 139.535C84.1716 136.157 84.7168 132.244 85.4545 128.047C85.6416 128.031 85.8341 128.02 86.0319 128.02C89.3302 128.02 92.0082 130.699 92.0082 133.997Z" fill="#727272"/>
<path d="M92.0245 169.786C91.9229 169.786 91.8212 169.776 91.7196 169.759C91.2064 169.669 90.7576 169.353 90.4957 168.893L81.226 152.52C81.0656 152.236 80.9855 151.915 81.0015 151.595C81.0069 151.37 81.8676 128.881 88.4375 108.097C88.7048 107.252 89.5653 106.739 90.4367 106.905L102.363 109.176C103.16 109.326 103.748 110.005 103.785 110.818L105.966 157.555C105.993 158.095 105.763 158.619 105.351 158.972L93.1578 169.369C92.8371 169.642 92.4306 169.786 92.019 169.786H92.0245ZM84.535 151.231L92.5107 165.317L102.432 156.855L100.358 112.357L91.3348 110.641C85.8394 128.849 84.7008 147.96 84.5405 151.231H84.535Z" fill="#232323"/>
<path d="M116.615 110.01C116.022 111.491 114.958 112.726 113.632 113.56C112.782 114.1 111.82 114.479 110.805 114.661V115.372C110.805 117.222 109.297 118.729 107.442 118.729C105.844 118.729 104.502 117.607 104.165 116.104C103.828 117.607 102.487 118.729 100.888 118.729C99.29 118.729 97.9426 117.607 97.6112 116.104C97.2744 117.607 95.9328 118.729 94.3291 118.729C92.4795 118.729 90.9719 117.222 90.9719 115.372V114.747C88.0959 114.501 85.5408 112.667 84.4824 110.026C83.6645 107.99 83.2527 105.835 83.2527 103.622C83.2527 98.0038 85.9576 93.0055 90.1379 89.8569C93.0353 87.6758 96.6436 86.3768 100.541 86.3768C100.92 86.3768 101.311 86.3875 101.69 86.4142C110.398 86.9755 117.326 93.9464 117.813 102.633C117.957 105.188 117.551 107.669 116.615 110.01Z" fill="#D1D1D1"/>
<path d="M116.615 110.01C116.022 111.491 114.958 112.726 113.632 113.56C113.493 113.159 113.456 112.715 113.552 112.223C114.638 106.562 116.412 85.3772 90.4321 91.8615L90.1379 89.8569C93.0353 87.6758 96.6437 86.3768 100.541 86.3768C100.92 86.3768 101.311 86.3875 101.69 86.4142C110.398 86.9755 117.326 93.9464 117.813 102.633C117.957 105.188 117.551 107.669 116.615 110.01Z" fill="white"/>
<path d="M100.541 88.1306C100.883 88.1306 101.23 88.1413 101.572 88.1626C109.334 88.6651 115.626 94.9891 116.054 102.73C116.188 105.082 115.792 107.327 114.98 109.358C114.087 111.593 111.863 113.02 109.447 113.02H109.041V115.367C109.041 116.254 108.324 116.971 107.437 116.971C106.549 116.971 105.833 116.254 105.833 115.367V113.02H102.487V115.367C102.487 116.254 101.77 116.971 100.883 116.971C99.9954 116.971 99.2791 116.254 99.2791 115.367V113.02H95.9328V115.367C95.9328 116.254 95.2165 116.971 94.3291 116.971C93.4417 116.971 92.7254 116.254 92.7254 115.367V113.02H91.6348C89.2239 113.02 87.0053 111.604 86.1072 109.374C85.3962 107.594 85.0007 105.654 85.0007 103.617C85.0007 95.064 91.9555 88.1252 100.535 88.1252M100.541 84.6238C90.0363 84.6238 81.4939 93.1448 81.4939 103.622C81.4939 106.06 81.9483 108.439 82.8517 110.684C83.985 113.507 86.3908 115.538 89.2935 116.249C89.7104 118.655 91.8113 120.488 94.3291 120.488C95.5746 120.488 96.7186 120.039 97.606 119.296C98.4933 120.039 99.6373 120.488 100.883 120.488C102.128 120.488 103.272 120.039 104.16 119.296C105.047 120.039 106.191 120.488 107.437 120.488C110.029 120.488 112.178 118.548 112.505 116.046C115.087 115.191 117.198 113.261 118.235 110.668C119.267 108.086 119.711 105.349 119.556 102.543C119.299 97.94 117.342 93.5779 114.044 90.2635C110.751 86.9492 106.4 84.9659 101.792 84.6665C101.375 84.6398 100.947 84.6238 100.53 84.6238H100.541Z" fill="#232323"/>
<path d="M99.0492 101.618C99.0492 99.8349 97.6048 98.3893 95.823 98.3893C94.0413 98.3893 92.5968 99.8349 92.5968 101.618V106.338C92.5968 108.122 94.0413 109.567 95.823 109.567C97.6048 109.567 99.0492 108.122 99.0492 106.338V101.618Z" fill="#232323"/>
<path d="M108.49 101.618C108.49 99.8349 107.045 98.3893 105.264 98.3893C103.482 98.3893 102.037 99.8349 102.037 101.618V106.338C102.037 108.122 103.482 109.567 105.264 109.567C107.045 109.567 108.49 108.122 108.49 106.338V101.618Z" fill="#232323"/>
<path d="M24.4446 75.1722C27.8873 76.931 31.3565 78.6202 34.8419 80.2774L40.0702 82.7632C41.8075 83.5971 43.5608 84.4043 45.3089 85.2168C45.5387 85.3238 45.6403 85.5964 45.5333 85.8263C45.4318 86.0454 45.1806 86.1417 44.9614 86.0615C43.1492 85.3986 41.3423 84.7304 39.5194 84.0942C34.2271 82.2125 28.4272 80.1277 23.1082 78.4171C20.7614 77.5511 22.1619 74.1298 24.4499 75.1776L24.4446 75.1722Z" fill="#232323"/>
<path d="M175.643 84.6074C168.966 85.9117 158.852 87.6438 152.063 88.8572C151.63 88.9374 151.47 88.2692 151.913 88.1569C155.789 87.2108 165.631 84.7998 169.373 83.9018C171.318 83.4474 173.259 82.9716 175.205 82.5439C175.772 82.421 176.338 82.7792 176.461 83.3458C176.589 83.9231 176.215 84.4898 175.638 84.6074H175.643Z" fill="#232323"/>
<path d="M106.331 118.734C105.374 130.741 109.757 147.558 109.757 147.558L104.219 146.847L102.428 119.189L106.331 118.74V118.734Z" fill="#232323"/>
</svg>
