<svg width="194" height="194" viewBox="0 0 194 194" fill="none" xmlns="http://www.w3.org/2000/svg">
<path d="M38.5217 142.282C37.556 142.282 36.7717 141.498 36.7717 140.532V135.4C36.7717 134.434 37.556 133.65 38.5217 133.65C39.4874 133.65 40.2717 134.434 40.2717 135.4V140.532C40.2717 141.498 39.4874 142.282 38.5217 142.282Z" fill="#232323"/>
<path d="M46.2736 143.771C45.4039 143.771 44.6463 143.12 44.5396 142.234L43.8247 136.451C43.7073 135.491 44.3902 134.616 45.3452 134.498C46.3109 134.381 47.1805 135.064 47.2979 136.019L48.0129 141.802C48.1302 142.762 47.4473 143.637 46.4923 143.755C46.4176 143.766 46.3483 143.771 46.2736 143.771Z" fill="#232323"/>
<path d="M55.9412 145.142C55.2369 145.142 54.57 144.71 54.3032 144.011L51.4382 136.467C51.0967 135.566 51.5503 134.552 52.4519 134.21C53.3536 133.869 54.3673 134.322 54.7087 135.224L57.5737 142.768C57.9151 143.67 57.4617 144.683 56.56 145.025C56.3573 145.105 56.1439 145.137 55.9412 145.137V145.142Z" fill="#232323"/>
<path d="M60.1078 131.554L54.586 135.843H39.5513L38.0521 134.525L37.5079 134.045L34.4881 131.394H24.5166L25.2902 124.218L25.3489 123.684L25.7384 120.072L25.7918 119.544L28.6621 92.8999L53.8177 91.4647L57.4562 114.673L57.547 115.228L58.6887 122.494L58.774 123.039L59.2969 126.389L59.3823 126.933L60.1078 131.554Z" fill="#00D459"/>
<path d="M59.3823 126.932L59.2968 126.388L49.2187 125.583L49.1599 122.173L58.774 123.038L58.6887 122.493L49.1494 121.64L49.0213 113.872L57.547 115.227L57.4562 114.672L49.016 113.328L48.8132 101.393L36.8784 96.9964L37.1238 111.439L32.0179 110.628L32.29 94.841L31.7565 94.8303L31.4844 110.543L27.2323 109.87L27.1469 110.393L31.4737 111.081L31.319 120.039L25.7918 119.543L25.7384 120.071L31.3136 120.573L31.2497 124.153L25.3489 123.683L25.2902 124.217L31.239 124.692L31.127 131.393H31.6552L31.7725 124.734L37.3585 125.177L37.5079 134.044L38.0521 134.524L37.892 125.22L48.6905 126.079L48.8559 135.842H49.3894L49.224 126.121L59.3823 126.932ZM32.0073 111.167L37.1345 111.983L37.2785 120.573L31.8525 120.087L32.0073 111.167ZM31.7832 124.195L31.8418 120.621L37.2891 121.106L37.3478 124.638L31.7832 124.195ZM37.4224 97.7647L48.2904 101.766L48.4771 113.248L37.6573 111.524L37.4224 97.7647ZM37.668 112.068L48.4878 113.786L48.6159 121.592L37.812 120.621L37.668 112.068ZM37.8813 124.681L37.8226 121.16L48.6264 122.125L48.6798 125.54L37.8813 124.681Z" fill="#17E269"/>
<path d="M54.5859 137.598H39.5513C39.1245 137.598 38.7136 137.443 38.3935 137.161L33.8265 133.143H24.5166C24.0204 133.143 23.5456 132.93 23.2148 132.562C22.884 132.194 22.7239 131.697 22.7773 131.207L26.9174 92.7129C27.0081 91.8593 27.7018 91.203 28.5607 91.1497L53.7162 89.7198C54.6126 89.6718 55.4076 90.3067 55.5463 91.1977L61.8364 131.281C61.9325 131.911 61.6817 132.546 61.1802 132.935L55.6583 137.23C55.3489 137.47 54.9701 137.598 54.5859 137.598ZM40.2129 134.098H53.983L58.2193 130.806L52.3345 93.3104L30.2413 94.5696L26.4694 129.649H34.4934C34.9202 129.649 35.3311 129.803 35.6513 130.086L40.2182 134.104L40.2129 134.098Z" fill="#232323"/>
<path d="M176.986 82.9165C176.901 83.3913 176.794 83.8395 176.661 84.261C176.437 84.9972 176.143 85.6535 175.797 86.219C175.583 86.5658 175.22 87.0513 174.708 87.6649C173.961 88.5452 172.9 89.6816 171.528 90.994C170.237 92.2318 168.663 93.6296 166.817 95.1182C166.54 95.3476 166.257 95.5716 165.969 95.7957C162.955 98.1752 159.273 100.757 154.947 103.308C154.637 103.489 154.328 103.665 154.018 103.847C150.188 106.045 145.877 108.205 141.091 110.169C140.76 110.308 140.429 110.441 140.093 110.574C134.513 112.804 128.308 114.757 121.495 116.187C121.148 116.262 120.801 116.336 120.449 116.4C114.314 117.638 107.698 118.449 100.607 118.668H100.522C100.164 118.684 99.807 118.689 99.4549 118.694C92.0816 118.865 85.2099 118.46 78.8397 117.633C78.4822 117.59 78.1194 117.542 77.7673 117.489C69.6471 116.368 62.3485 114.57 55.8608 112.431C55.5194 112.319 55.1833 112.207 54.8472 112.095C46.5616 109.278 39.6258 105.922 34.0185 102.748C33.693 102.571 33.3782 102.39 33.0635 102.209C26.4478 98.394 21.7742 94.9101 18.9946 93.0588C18.8612 92.9734 18.7331 92.8827 18.6104 92.792C18.2957 92.5733 17.9968 92.3492 17.7194 92.1198C15.6333 90.4232 14.5662 88.6305 14.0967 86.9606C13.9527 86.4538 13.862 85.9629 13.8193 85.4827C13.5152 82.3723 15.0092 79.9875 15.0092 79.9875C14.0702 78.1788 14.2195 76.3222 14.9451 74.5722C15.0838 74.2361 15.2491 73.9 15.4252 73.5745C16.7857 71.0776 19.1706 68.8742 20.9686 67.439C22.0089 66.6067 22.8572 66.0305 23.1986 65.8065C23.3053 65.7371 23.3641 65.6998 23.3641 65.6998C25.1194 67.0976 26.912 68.41 28.7367 69.6531C32.6207 72.2994 36.6381 74.5989 40.7356 76.5836C41.0557 76.7437 41.381 76.8984 41.7065 77.0478C47.9434 79.9928 54.3616 82.2229 60.7906 83.8715C61.1374 83.9569 61.4789 84.0476 61.8257 84.1276C66.8462 85.3707 71.8612 86.251 76.7962 86.8432C77.1537 86.8859 77.5112 86.9286 77.8686 86.9659C84.9645 87.7609 91.879 87.953 98.3666 87.7235C98.7188 87.7129 99.0762 87.6969 99.4283 87.6809C105.142 87.4408 110.504 86.8752 115.349 86.107C115.701 86.0536 116.053 85.9949 116.4 85.9362C123.341 84.7838 129.156 83.2313 133.312 81.6574C133.659 81.5293 133.99 81.4013 134.315 81.2733C134.433 81.2252 134.545 81.1772 134.662 81.1292C137.106 80.1155 139.362 78.9098 141.433 77.5866C141.737 77.3946 142.041 77.2025 142.334 76.9997C146.063 74.4975 149.169 71.6325 151.681 68.8529C151.943 68.5701 152.194 68.2873 152.439 68.0046C155.155 64.8835 157.113 61.9384 158.366 59.831C158.58 59.4682 158.777 59.1321 158.948 58.8227C159.716 57.4675 160.084 56.6512 160.084 56.6512C160.084 56.6512 162.203 51.4014 167.298 55.0186C167.559 55.2054 167.826 55.4134 168.103 55.6482C169.843 57.1207 170.776 58.5879 171.235 59.9164C171.374 60.3165 171.464 60.7006 171.523 61.0688C171.918 63.491 170.862 65.2196 170.862 65.2196C172.323 66.7348 173.508 68.362 174.436 70.0213C174.623 70.3467 174.794 70.6722 174.959 71.003C177.072 75.2391 177.595 79.6087 176.986 82.9165Z" fill="#00D459"/>
<path d="M170.163 75.5809L176.661 84.2613C176.794 83.8398 176.901 83.3916 176.986 82.9168L170.952 74.8553C172.361 73.5535 173.695 72.2624 174.959 71.0032C174.794 70.6725 174.623 70.347 174.436 70.0216C173.14 71.318 171.763 72.6465 170.312 73.9963L164.699 66.5057C167.196 64.6116 169.474 62.7817 171.523 61.0691C171.464 60.7009 171.374 60.3168 171.235 59.9167C169.101 61.7093 166.7 63.646 164.059 65.652L158.948 58.8229C158.777 59.1324 158.58 59.4685 158.367 59.8313L163.211 66.2976C160.597 68.2609 157.753 70.283 154.717 72.2997L152.439 68.0048C152.194 68.2876 151.943 68.5704 151.682 68.8531L153.826 72.8919C150.662 74.962 147.168 77.1014 143.385 79.1928L142.334 77C142.041 77.2028 141.737 77.3948 141.433 77.5869L142.452 79.7103C140.029 81.0281 137.49 82.3246 134.854 83.5677L134.315 81.2735C133.99 81.4016 133.659 81.5296 133.312 81.6577L133.867 84.0319C128.649 86.4434 123.042 88.6468 117.157 90.4234L116.4 85.9365C116.053 85.9952 115.701 86.0539 115.349 86.1073L116.128 90.7276C110.84 92.2641 105.329 93.4485 99.6578 94.1208L99.4284 87.6811C99.0763 87.6971 98.7188 87.7132 98.3667 87.7238L98.5961 94.2435C94.8294 94.6436 90.9987 94.8197 87.12 94.7236C84.0789 94.6489 81.0699 94.4089 78.0928 94.0087L77.8687 86.9662C77.5112 86.9289 77.1538 86.8862 76.7963 86.8435L77.0205 93.8593C71.4452 93.027 65.9925 91.6292 60.6626 89.6552L61.8258 84.1279C61.479 84.0479 61.1374 83.9572 60.7906 83.8718L59.6543 89.271C53.252 86.8115 47.0312 83.5197 41.0024 79.4062L41.7065 77.048C41.3811 76.8987 41.0557 76.7439 40.7356 76.5839L40.0794 78.7713C36.2167 76.0664 32.434 73.0306 28.7367 69.6534C26.9121 68.4103 25.1194 67.0979 23.3641 65.7C23.3641 65.7 23.3054 65.7374 23.1987 65.8067C24.1484 66.7671 25.1034 67.7061 26.0691 68.6237L22.1851 79.5449C19.9016 77.6563 17.65 75.6662 15.4252 73.5748C15.2492 73.9003 15.0838 74.2364 14.9451 74.5725C17.2019 76.6746 19.4907 78.6806 21.8168 80.5853L18.8985 88.8015C17.1912 87.7345 15.4946 86.6301 13.8193 85.483C13.862 85.9632 13.9527 86.454 14.0968 86.9609C15.564 87.9479 17.0419 88.9082 18.5304 89.8366L17.7194 92.12C17.9968 92.3495 18.2957 92.5735 18.6105 92.7923L19.4587 90.4074C24.2657 93.3632 29.1849 96.0361 34.2 98.4156L33.0635 102.209C33.3783 102.39 33.6931 102.572 34.0185 102.748L35.1762 98.8744C41.9466 102.033 48.8931 104.674 55.9676 106.776L54.8473 112.095C55.1834 112.207 55.5194 112.319 55.8609 112.431L56.992 107.075C63.7517 109.033 70.6234 110.5 77.5752 111.471L77.7673 117.489C78.1195 117.542 78.4823 117.59 78.8397 117.633L78.6476 111.62C85.4553 112.522 92.3378 112.949 99.2523 112.895L99.455 118.695C99.8071 118.689 100.165 118.684 100.522 118.668L100.319 112.879C106.722 112.783 113.156 112.271 119.595 111.343L120.449 116.401C120.801 116.337 121.148 116.262 121.495 116.187L120.652 111.183C122.455 110.911 124.264 110.601 126.067 110.265C130.517 109.422 134.913 108.238 139.208 106.803L140.093 110.575C140.43 110.441 140.76 110.308 141.091 110.169L140.221 106.456C144.548 104.962 148.763 103.223 152.813 101.329L154.018 103.847C154.328 103.665 154.637 103.489 154.947 103.308L153.778 100.87C157.838 98.9331 161.733 96.8524 165.398 94.7236L165.969 95.796C166.257 95.5719 166.54 95.3479 166.817 95.1184L166.321 94.1848C168.114 93.1284 169.853 92.0614 171.528 90.9943C172.9 89.6818 173.961 88.5455 174.708 87.6651C171.945 89.5058 168.968 91.3891 165.82 93.2458L160.671 83.5303C163.147 81.6417 165.425 79.7637 167.506 77.955C168.418 77.1601 169.304 76.3705 170.163 75.5809ZM60.4386 90.7115C65.8485 92.7016 71.3917 94.1154 77.0524 94.9424L77.3672 104.834C70.9009 103.879 64.584 102.342 58.4378 100.23L60.4386 90.7115ZM40.6822 80.4839C46.7377 84.5867 52.9959 87.8732 59.4301 90.3327L57.4189 99.8721C50.6378 97.4659 44.0541 94.3502 37.6732 90.5355L40.6822 80.4839ZM26.9173 69.424C31.0895 73.3294 35.3737 76.808 39.7592 79.849L36.7289 89.9646C32.0606 87.1103 27.5042 83.8771 23.0653 80.2652L26.9173 69.424ZM34.5093 97.3806C29.5156 95.0011 24.6125 92.3335 19.8268 89.3831L22.6972 81.3002C27.1575 84.8908 31.7404 88.1186 36.4301 90.9623L34.5093 97.3806ZM56.1864 105.725C49.1439 103.628 42.2294 100.998 35.4857 97.8394L37.3744 91.5278C39.151 92.5842 40.9437 93.5872 42.747 94.5316C47.4633 97.0071 52.2863 99.1145 57.2107 100.854L56.1864 105.725ZM57.2161 106.024L58.2297 101.206C64.4666 103.345 70.8636 104.898 77.3992 105.869L77.5433 110.388C70.6769 109.417 63.8904 107.96 57.2161 106.024ZM78.1248 95.0918C81.0858 95.4812 84.0789 95.716 87.0986 95.7907C91.004 95.8867 94.8508 95.7107 98.6334 95.3105L99.0015 105.89C91.9857 106.21 85.13 105.906 78.4396 104.989L78.1248 95.0918ZM78.6157 110.537L78.4716 106.024C85.1887 106.947 92.0445 107.261 99.0389 106.952L99.2149 111.828C92.2951 111.887 85.4181 111.45 78.6157 110.537ZM154.328 73.8362L159.306 83.2316C156.099 85.6484 152.578 88.0813 148.763 90.4074L143.849 80.1585C147.643 78.0617 151.153 75.917 154.328 73.8362ZM142.91 80.6707L147.846 90.9623C144.698 92.8456 141.363 94.6489 137.842 96.3135L135.105 84.6294C137.815 83.3543 140.424 82.0258 142.91 80.6707ZM134.118 85.0882L136.855 96.7724C131.402 99.2852 125.528 101.446 119.281 103.031L117.333 91.4798C123.245 89.7085 128.873 87.5051 134.118 85.0882ZM99.6951 95.1931C105.415 94.5156 110.974 93.3311 116.304 91.7839L118.24 103.287C114.41 104.21 110.44 104.914 106.348 105.341C104.241 105.559 102.149 105.73 100.069 105.842L99.6951 95.1931ZM100.282 111.812L100.106 106.904C102.213 106.792 104.331 106.627 106.46 106.402C110.579 105.97 114.564 105.266 118.422 104.343L119.419 110.286C113.028 111.215 106.636 111.722 100.282 111.812ZM125.87 109.214C124.072 109.556 122.274 109.86 120.476 110.132L119.457 104.087C125.731 102.502 131.626 100.342 137.106 97.8341L138.962 105.757C134.689 107.192 130.303 108.376 125.87 109.214ZM139.981 105.41L138.093 97.3752C141.689 95.684 145.098 93.8487 148.31 91.928L152.348 100.368C148.368 102.23 144.228 103.943 139.981 105.41ZM164.897 93.7846C161.248 95.9027 157.369 97.9835 153.314 99.9095L149.227 91.3784C153.053 89.047 156.59 86.6088 159.812 84.1866L164.897 93.7846ZM160.164 82.5753L155.219 73.2494C158.308 71.2006 161.194 69.1466 163.851 67.1512L169.522 74.7272C168.637 75.5382 167.725 76.3545 166.78 77.1708C164.763 78.926 162.555 80.7454 160.164 82.5753Z" fill="#17E269"/>
<path d="M167.298 55.0186C165.857 57.3928 163.702 60.5299 160.522 64.398C152.493 74.1774 138.573 90.4818 101.509 91.9117C64.6589 93.3415 41.328 83.1192 20.9688 67.439C22.3346 66.3453 23.3643 65.6997 23.3643 65.6997C62.0233 96.3986 117.019 88.4438 134.662 81.1292C152.3 73.8093 160.085 56.6512 160.085 56.6512C160.085 56.6512 162.203 51.4014 167.298 55.0186Z" fill="white"/>
<path d="M96.2432 120.487C55.4821 120.487 30.0812 102.86 20.3017 96.0785C19.4374 95.4756 18.6745 94.9527 18.0236 94.5152C10.773 89.6815 11.4292 83.2793 13.0565 79.9074C10.1328 72.07 21.9076 64.5473 22.4305 64.2219C23.06 63.827 23.871 63.8697 24.4526 64.3339C45.1746 80.7877 69.8873 85.1573 86.9706 85.9255C106.642 86.8112 124.76 83.3433 133.99 79.5179C150.524 72.6568 158.164 56.6352 158.479 55.9576C158.681 55.4721 159.908 52.8418 162.677 52.1589C164.731 51.6467 166.94 52.3777 169.234 54.3197C173.753 58.1397 173.791 62.3865 172.932 64.8941C179.505 72.3687 180.369 82.1162 177.291 87.142C174.287 92.0397 147.403 118.983 100.661 120.428C99.1722 120.476 97.6944 120.498 96.2432 120.498V120.487ZM23.3001 67.8711C20.7552 69.7278 14.369 74.9456 16.5617 79.1765C16.8445 79.726 16.8178 80.3876 16.4923 80.9104C16.1295 81.5133 13.0671 86.9979 19.9709 91.5969C20.6378 92.0397 21.4168 92.5839 22.3025 93.1974C33.0956 100.683 58.3845 118.214 100.554 116.912C124.632 116.171 142.75 108.392 153.709 102.001C166.017 94.8193 173.118 87.2487 174.308 85.3013C176.453 81.8067 176.01 73.073 169.608 66.436C169.053 65.8651 168.957 64.9901 169.373 64.3072C169.576 63.9604 171.299 60.6419 166.978 56.982C166.028 56.1763 164.657 55.2747 163.536 55.5414C162.373 55.8189 161.712 57.3021 161.706 57.3181C161.701 57.3341 161.69 57.3608 161.685 57.3714C161.354 58.097 153.41 75.2444 135.34 82.7404C116.304 90.6365 61.9751 97.695 23.3107 67.8658L23.3001 67.8711Z" fill="#232323"/>
<path d="M32.7383 131.393C32.7756 128.154 33.021 123.459 33.181 120.178C33.3891 116.881 33.6558 112.213 33.9706 108.963C34.024 108.35 34.9524 108.345 35.0057 108.963C35.1818 110.831 35.3151 112.703 35.4485 114.571C35.7846 119.778 36.1474 126.202 36.2381 131.393C36.2007 133.74 32.7756 133.751 32.7383 131.393Z" fill="#232323"/>
<path d="M15.98 78.5312C27.088 86.4167 38.9269 93.71 51.8168 98.2662C52.1102 98.3516 52.2809 98.661 52.1849 98.9545C52.0942 99.2266 51.8061 99.3813 51.534 99.3066C49.8267 98.8424 48.1995 98.2876 46.5669 97.6954C40.8742 95.6413 35.3203 93.1071 29.921 90.3701C24.6392 87.6918 19.1279 84.5334 14.0434 81.4496C12.016 80.1372 13.9687 77.1654 15.9854 78.5366L15.98 78.5312Z" fill="#232323"/>
<path d="M26.2343 139.716C26.2076 139.716 26.1757 139.716 26.1436 139.716C25.178 139.668 24.4311 138.847 24.4791 137.881L24.7778 131.858C24.8258 130.892 25.6422 130.15 26.6132 130.193C27.5789 130.241 28.3257 131.063 28.2777 132.028L27.9789 138.052C27.9309 138.986 27.1573 139.716 26.2343 139.716Z" fill="#232323"/>
<path d="M32.8823 139.059C31.9166 139.059 31.1323 138.275 31.1323 137.309V131.942C31.1323 130.976 31.9166 130.192 32.8823 130.192C33.848 130.192 34.6321 130.976 34.6321 131.942V137.309C34.6321 138.275 33.848 139.059 32.8823 139.059Z" fill="#232323"/>
<path d="M60.1082 140.254C59.4467 140.254 58.8171 139.881 58.5183 139.241L56.1495 134.135C55.7441 133.26 56.1229 132.214 57.0032 131.809C57.8782 131.398 58.9185 131.782 59.3293 132.662L61.6981 137.768C62.1036 138.643 61.7249 139.689 60.8446 140.094C60.6045 140.206 60.3537 140.26 60.1082 140.26V140.254Z" fill="#232323"/>
</svg>
