<svg width="194" height="194" viewBox="0 0 194 194" fill="none" xmlns="http://www.w3.org/2000/svg">
<g clip-path="url(#clip0_66_3589)">
<path d="M143.199 71.2576L57.7839 151.026L36.606 171.596L33.4672 169.191L26.159 163.597L128.971 58.0726L140.065 68.353L143.199 71.2576Z" fill="#494949"/>
<path d="M143.198 71.2572L57.7834 151.025L36.6056 171.595L33.4667 169.191L140.065 68.3526L143.198 71.2572Z" fill="#7C7C7C"/>
<path d="M35.8695 172.659C35.8533 172.648 35.8337 172.634 35.8175 172.623L25.3738 164.627C25.0779 164.402 24.8968 164.061 24.8694 163.692C24.8421 163.322 24.9744 162.958 25.2329 162.696L128.045 57.1715C128.535 56.6658 129.334 56.6481 129.854 57.1236L144.081 70.3087C144.344 70.5531 144.495 70.8973 144.495 71.2573C144.495 71.6174 144.348 71.9617 144.083 72.2055L58.6782 151.966L37.5102 172.529C37.0669 172.961 36.3765 173.015 35.8705 172.665L35.8695 172.659ZM28.1045 163.456L36.5031 169.887L56.8781 150.095C56.8781 150.095 56.8872 150.082 56.8949 150.078L141.291 71.2606L129.011 59.8799L28.0991 163.457L28.1045 163.456Z" fill="#232323"/>
<path d="M131.23 60.2361L139.56 51.6117L148.33 60.369L140.303 68.6463L131.23 60.2361Z" fill="white"/>
<path d="M139.565 69.7093C139.517 69.6756 139.467 69.6364 139.42 69.5939L130.347 61.1837C130.092 60.9493 129.943 60.6161 129.934 60.269C129.925 59.9219 130.054 59.5838 130.298 59.3354L138.628 50.7111C138.869 50.4603 139.201 50.3207 139.549 50.317C139.897 50.3133 140.23 50.4484 140.477 50.6958L149.25 59.4552C149.752 59.9567 149.757 60.7667 149.262 61.2734L141.234 69.5452C140.787 70.0035 140.081 70.0665 139.569 69.7115L139.565 69.7093ZM133.08 60.1826L140.257 66.8333L146.515 60.383L139.577 53.4564L133.08 60.1826Z" fill="#232323"/>
<path d="M152.791 37.3878L150.561 34.5715L153.53 31.6364L166.593 44.2502L163.17 47.4947L152.791 37.3878Z" fill="#494949"/>
<path d="M162.432 48.5583C162.374 48.5179 162.32 48.471 162.265 48.4186L151.89 38.3139C151.849 38.276 151.812 38.2317 151.779 38.1895L149.549 35.3732C149.14 34.8548 149.184 34.1124 149.653 33.6501L152.62 30.7181C153.12 30.2246 153.925 30.2203 154.427 30.7075L167.489 43.3159C167.743 43.559 167.887 43.8987 167.886 44.2533C167.885 44.6079 167.739 44.9434 167.483 45.1884L164.058 48.4362C163.608 48.8638 162.926 48.9053 162.43 48.5616L162.432 48.5583ZM153.756 36.5205L163.184 45.6998L164.722 44.2408L153.541 33.4488L152.296 34.6787L153.754 36.5237L153.756 36.5205Z" fill="#232323"/>
<path d="M140.62 51.7179L153.106 38.3067L160.192 45.0531L147.119 58.7581L140.62 51.7179Z" fill="#7C7C7C"/>
<path d="M146.382 59.8214C146.304 59.7675 146.233 59.7039 146.17 59.636L139.675 52.598C139.216 52.1029 139.215 51.3346 139.678 50.8393L152.158 37.4292C152.396 37.1762 152.72 37.0265 153.067 37.0173C153.411 37.0059 153.749 37.1345 154 37.3754L161.092 44.1208C161.342 44.3562 161.484 44.6848 161.495 45.0287C161.503 45.3703 161.377 45.7051 161.138 45.9526L148.062 59.6554C147.815 59.9159 147.472 60.0575 147.114 60.0545C146.852 60.0509 146.6 59.972 146.386 59.8237L146.382 59.8214ZM142.388 51.7225L147.135 56.8633L158.362 45.0956L153.162 40.1448L142.39 51.7193L142.388 51.7225Z" fill="#232323"/>
<path d="M125.358 43.3398L138.364 60.2769L156.364 72.9411L160.483 69.7374L128.253 39.6863L125.358 43.3398Z" fill="#B2B2B2"/>
<path d="M127.028 40.6432L158.092 70.9373L159.879 69.5977L128.067 39.8364L127.028 40.6432Z" fill="white"/>
<path d="M155.627 74.0054L155.62 74.0009L137.62 61.3367C137.513 61.2625 137.417 61.1722 137.338 61.0646L124.332 44.1275C123.972 43.6571 123.974 43.0015 124.346 42.5342L127.241 38.8807C127.465 38.5991 127.799 38.4223 128.16 38.3937C128.52 38.3651 128.878 38.4928 129.141 38.7372L161.371 68.7883C161.648 69.0471 161.797 69.4142 161.784 69.7938C161.767 70.1711 161.585 70.5246 161.284 70.7579L157.164 73.9616C156.717 74.3094 156.096 74.3257 155.632 74.0045L155.627 74.0054ZM139.269 59.3302L156.323 71.3298L158.487 69.6465L128.394 41.5893L126.996 43.3518L139.263 59.3312L139.269 59.3302Z" fill="#232323"/>
<path d="M143.799 48.971C143.342 48.6542 143.123 48.0616 143.306 47.5067C143.528 46.8255 144.258 46.4575 144.94 46.6798L151.674 48.8822L148.982 42.3331C148.712 41.6705 149.025 40.9132 149.687 40.6426C150.347 40.3697 151.107 40.6853 151.378 41.3479L155.139 50.4902C155.329 50.9576 155.236 51.4934 154.889 51.8626C154.546 52.2341 154.02 52.3692 153.538 52.2129L144.135 49.1367C144.014 49.0963 143.899 49.0406 143.799 48.971Z" fill="#232323"/>
</g>
<defs>
<clipPath id="clip0_66_3589">
<rect width="193.507" height="193.507" rx="24" fill="white"/>
</clipPath>
</defs>
</svg>
