<svg width="194" height="194" viewBox="0 0 194 194" fill="none" xmlns="http://www.w3.org/2000/svg">
<path d="M65.7685 172.495C62.7601 174.095 59.1504 173.886 56.3618 172.037C56.0322 171.818 55.7149 171.576 55.4111 171.314L46.5931 156.579L31.2912 150.352C28.216 147.679 27.27 143.306 28.9549 139.595C34.9931 126.294 51.1654 94.9326 78.0413 72.6294C112.995 43.6269 151.758 28.504 151.758 28.504C151.747 28.923 151.735 29.3421 151.721 29.759C148.811 121.165 85.4015 162.006 65.7685 172.495Z" fill="#00B1E9"/>
<path d="M65.7688 172.495C62.7604 174.095 59.1507 173.886 56.3622 172.037C69.9678 167.171 91.3914 156.067 110.097 131.299C140.302 91.293 146.222 61.6939 150.744 29.9608L151.721 29.7588C148.811 121.165 85.4019 162.006 65.7688 172.495Z" fill="#33D9FF"/>
<path d="M55.5698 172.669C55.2943 172.474 55.0309 172.269 54.7723 172.044C54.6967 171.976 54.6278 171.899 54.5764 171.811L45.9262 157.356L30.9233 151.25C30.8244 151.209 30.7344 151.155 30.6525 151.083C27.2829 148.154 26.2173 143.265 28.0656 139.195C33.8377 126.48 50.2036 94.4673 77.4181 71.886C112.089 43.1157 151.011 27.754 151.399 27.6009C151.701 27.482 152.042 27.5234 152.308 27.7111C152.571 27.8966 152.727 28.2061 152.719 28.5274C150.338 121.314 85.9086 162.834 66.2136 173.35C62.8265 175.158 58.6653 174.863 55.5621 172.673L55.5698 172.669ZM56.1614 170.681C58.7164 172.821 62.3709 173.209 65.3096 171.64C84.6633 161.305 147.744 120.654 150.744 29.961C143.568 32.9422 109.429 47.8463 78.6592 73.374C51.7515 95.7021 35.5509 127.4 29.8335 139.997C28.3338 143.298 29.1315 147.101 31.8093 149.518L46.9589 155.685C47.1536 155.765 47.3166 155.904 47.4257 156.085L56.1614 170.681Z" fill="#232323"/>
<path d="M133.88 59.6347L77.668 94.2836L95.6638 107.972L53.2418 136.015L122.592 105.127L102.356 92.4008L133.88 59.6347Z" fill="white"/>
<path d="M46.3702 156.896C46.3702 156.896 46.3544 156.885 46.348 156.881C46.1828 156.745 46.1603 156.501 46.2959 156.336L151.46 28.2557C151.595 28.0905 151.836 28.0657 152.004 28.2035C152.169 28.3391 152.192 28.5827 152.056 28.7479L46.8925 156.829C46.7614 156.987 46.5326 157.016 46.368 156.9L46.3702 156.896Z" fill="#232323"/>
<path d="M50.0189 123.597C40.34 120.48 27.7743 125.506 27.7743 125.506L44.2493 133.633L50.0189 123.597Z" fill="#006FE9"/>
<path d="M27.2158 126.298C26.9498 126.11 26.7935 125.801 26.8056 125.468C26.8201 125.084 27.057 124.748 27.4135 124.606C27.9417 124.396 40.4161 119.485 50.3135 122.676C50.5929 122.764 50.8131 122.976 50.921 123.247C51.0288 123.518 51.0012 123.825 50.8558 124.079L45.0862 134.115C44.8314 134.556 44.2741 134.728 43.8178 134.5L27.3428 126.373C27.2972 126.351 27.2538 126.325 27.2126 126.296L27.2158 126.298ZM48.5613 124.191C41.8782 122.529 34.0059 124.501 30.2854 125.665L43.8639 132.365L48.5613 124.191Z" fill="#232323"/>
<path d="M77.9565 145.541C84.1354 153.617 83.6088 167.14 83.6088 167.14L70.4326 154.339L77.9565 145.541Z" fill="#006FE9"/>
<path d="M83.0535 167.934C83.0123 167.905 82.9712 167.876 82.9367 167.837L69.7605 155.036C69.3958 154.679 69.3682 154.1 69.699 153.712L77.2228 144.914C77.4126 144.692 77.6945 144.569 77.9847 144.574C78.278 144.582 78.5495 144.721 78.7261 144.955C85.0476 153.212 84.5974 166.614 84.578 167.179C84.5635 167.562 84.3266 167.898 83.9701 168.04C83.6635 168.165 83.3163 168.12 83.0503 167.932L83.0535 167.934ZM71.7603 154.28L82.621 164.83C82.4752 160.937 81.6934 152.856 77.889 147.116L71.7603 154.28Z" fill="#232323"/>
</svg>
