<svg width="194" height="194" viewBox="0 0 194 194" fill="none" xmlns="http://www.w3.org/2000/svg">
<path d="M58.8542 110.874C40.0465 120.518 -6.03722 123.322 15.4826 130.672C25.9078 134.231 38.4501 132.426 50.2428 130.979C59.043 129.895 66.2297 118.423 70.7156 117.612C81.2095 115.71 58.86 110.874 58.86 110.874H58.8542Z" fill="#4794D8"/>
<path d="M29.8787 134.617C24.6604 134.617 19.5909 134.055 14.8703 132.437C11.3972 131.251 7.8668 129.662 8.00413 126.892C8.19295 123.106 14.6815 121.42 29.3466 117.963C39.4056 115.596 50.8036 112.911 57.9902 109.222C58.3793 109.023 58.8256 108.967 59.2547 109.057C75.4533 112.56 75.4132 115.085 75.3903 116.3C75.3502 118.661 72.3348 119.206 71.0474 119.445C69.7599 119.677 67.4598 121.8 65.234 123.855C61.2459 127.533 56.285 132.114 50.4659 132.829L48.7322 133.045C42.4553 133.822 36.0583 134.617 29.8787 134.617ZM11.9808 127.028C12.4271 127.374 13.5201 128.038 16.0949 128.918C25.5989 132.165 37.1227 130.734 48.2745 129.35L50.0139 129.134C54.6257 128.566 59.0945 124.44 62.6821 121.125C65.4286 118.588 67.6429 116.544 69.8287 115.908C67.3225 114.926 63.0254 113.712 59.1059 112.838C51.5016 116.573 40.2124 119.235 30.2164 121.585C23.2987 123.214 13.9834 125.405 11.9808 127.028Z" fill="#232323"/>
<path d="M93.5742 62.6104C136.345 57.9446 162.58 61.918 175.03 80.5186C191.275 104.795 182.961 133.375 182.961 133.375C167.438 125.105 90.164 114.059 49.2343 132.055C49.1853 131.849 46.789 121.788 46.4492 112.912C46.1059 103.944 50.1571 67.3499 93.5742 62.6104ZM49.2353 132.058H49.2295C49.2311 132.057 49.2327 132.055 49.2343 132.055C49.2347 132.056 49.2352 132.057 49.2353 132.058ZM104.843 97.0957L103.599 98.5772V108.701L130.731 108.207L131.229 105.244V97.8369C128.325 96.6023 122.467 94.1328 122.268 94.1328H111.315L104.843 97.0957Z" fill="#4794D8"/>
<mask id="mask0_66_4201" style="mask-type:alpha" maskUnits="userSpaceOnUse" x="46" y="60" width="140" height="74">
<path d="M49.2299 132.058C90.1583 114.059 167.437 125.105 182.961 133.375C182.961 133.375 191.275 104.796 175.03 80.5191C162.58 61.9185 136.345 57.9452 93.5742 62.611C50.1569 67.3505 46.1058 103.944 46.4491 112.913C46.7924 121.881 49.2357 132.058 49.2357 132.058H49.2299Z" fill="#4794D8"/>
</mask>
<g mask="url(#mask0_66_4201)">
<path d="M179.367 131.597C179.367 59.4944 120.928 62.293 85.288 66.4085C82.4895 65.6676 74.4727 60.9266 64.7932 47.8889C52.6938 31.5917 51.953 28.8755 54.9161 17.0231C57.2866 7.54108 64.6285 -7.8341 68.0032 -14.3364C102.984 -14.748 176.453 -14.9291 190.479 -12.361C208.01 -9.15099 231.715 87.8911 232.95 103.941C234.185 119.992 183.071 150.857 179.367 131.597Z" fill="white"/>
</g>
<path d="M182.955 135.236C182.646 135.236 182.342 135.162 182.068 135.015C174.933 131.217 152.686 126.319 125.507 124.724C107.392 123.662 73.4901 123.424 49.9905 133.76C49.4813 133.987 48.8976 133.97 48.3941 133.726C47.8963 133.482 47.5301 133.028 47.3985 132.489C47.2955 132.069 44.9095 122.033 44.5605 112.986C44.5033 111.527 44.2401 98.3583 51.9703 85.2408C60.1868 71.2889 74.5028 62.8202 93.3563 60.7654C139.532 55.725 164.422 61.3273 176.581 79.4966C193.122 104.205 185.1 132.699 184.751 133.896C184.597 134.436 184.202 134.878 183.676 135.094C183.441 135.191 183.195 135.242 182.949 135.242L182.955 135.236ZM108.988 120.512C115.322 120.512 121.044 120.734 125.73 121.006C148.28 122.329 171.391 126.387 181.661 130.707C183.138 123.725 186.502 101.037 173.456 81.5513C162.184 64.7103 138.353 59.6018 93.7683 64.4662C75.8876 66.4188 62.9161 74.0418 55.2145 87.1196C48.0221 99.3289 48.2624 111.499 48.3139 112.849C48.5542 119.105 49.8532 126.041 50.5742 129.469C68.3634 122.266 91.0962 120.518 108.983 120.518L108.988 120.512Z" fill="#232323"/>
<path d="M138.597 124.755C138.386 124.755 138.174 124.721 137.962 124.648C136.984 124.301 136.48 123.234 136.829 122.264C138.243 118.341 138.34 115.611 137.133 113.914C134.461 110.162 124.951 110.196 112.929 110.236C109.742 110.247 106.452 110.259 102.962 110.202C101.938 110.185 101.114 109.356 101.114 108.34V100.734C101.114 98.3785 102.058 96.1819 103.769 94.5528C105.479 92.9181 107.728 92.0724 110.103 92.1689L124.785 92.7478C129.483 92.9351 133.127 96.7325 133.087 101.393L133.03 107.631C136.269 108.391 138.7 109.663 140.2 111.763C142.168 114.527 142.219 118.37 140.366 123.518C140.091 124.279 139.37 124.755 138.597 124.755ZM116.568 106.501C121.403 106.501 125.678 106.569 129.277 106.995L129.328 101.358C129.351 98.7191 127.291 96.5735 124.63 96.4657L109.948 95.8867C108.615 95.83 107.333 96.3124 106.366 97.2376C105.399 98.1628 104.867 99.4059 104.867 100.734V106.501C107.648 106.529 110.314 106.518 112.912 106.507C114.165 106.507 115.384 106.495 116.568 106.495V106.501Z" fill="#232323"/>
<path d="M130.577 119.009C131.806 119.009 132.803 118.021 132.803 116.801C132.803 115.582 131.806 114.593 130.577 114.593C129.348 114.593 128.351 115.582 128.351 116.801C128.351 118.021 129.348 119.009 130.577 119.009Z" fill="#232323"/>
</svg>
