<svg width="194" height="194" viewBox="0 0 194 194" fill="none" xmlns="http://www.w3.org/2000/svg">
<path d="M65.6174 129.331C80.1559 129.331 91.9416 117.545 91.9416 103.006C91.9416 88.4679 80.1559 76.6822 65.6174 76.6822C51.079 76.6822 39.2932 88.4679 39.2932 103.006C39.2932 117.545 51.079 129.331 65.6174 129.331Z" fill="#232323"/>
<path d="M81.8413 100.307C81.8413 113.354 71.2689 123.932 58.222 123.932C45.1752 123.932 34.5972 113.354 34.5972 100.307C34.5972 92.7376 38.1569 86.0005 43.6906 81.6816C47.6946 78.5492 52.739 76.6822 58.222 76.6822C69.8967 76.6822 79.5862 85.1514 81.4983 96.2749C81.7232 97.5908 81.8413 98.9349 81.8413 100.307Z" fill="#5D6CF9"/>
<path d="M81.4979 96.2749C75.7955 83.886 62.7993 76.1198 45.8665 83.8579L43.6902 81.6816C47.6942 78.5492 52.7386 76.6822 58.2216 76.6822C69.8963 76.6822 79.5858 85.1514 81.4979 96.2749Z" fill="white"/>
<path d="M58.2167 125.776C44.1745 125.776 32.7473 114.349 32.7473 100.307C32.7473 86.2648 44.1745 74.8376 58.2167 74.8376C72.2589 74.8376 83.6862 86.2648 83.6862 100.307C83.6862 114.349 72.2589 125.776 58.2167 125.776ZM58.2167 78.5323C46.2103 78.5323 36.4364 88.3005 36.4364 100.313C36.4364 112.325 46.2046 122.093 58.2167 122.093C70.2288 122.093 79.997 112.325 79.997 100.313C79.997 88.3005 70.2288 78.5323 58.2167 78.5323Z" fill="#232323"/>
<path d="M54.1959 116.447C43.078 116.447 34.0352 107.404 34.0352 96.2865C34.0352 85.1685 43.078 76.1257 54.1959 76.1257C65.3138 76.1257 74.3566 85.1685 74.3566 96.2865C74.3566 107.404 65.3138 116.447 54.1959 116.447ZM54.1959 77.2448C43.6966 77.2448 35.1599 85.7871 35.1599 96.2808C35.1599 106.775 43.7022 115.317 54.1959 115.317C64.6896 115.317 73.2319 106.775 73.2319 96.2808C73.2319 85.7871 64.6896 77.2448 54.1959 77.2448Z" fill="#232323"/>
<path d="M56.4949 96.0832C56.5567 97.326 56.3374 98.6026 55.82 99.8229C53.7674 104.659 47.9076 106.521 43.4199 103.793C35.4794 98.9681 25.1825 89.9197 25.8855 75.6863C26.4928 63.348 40.8331 59.8557 40.8331 59.8557L39.2978 73.3581C39.2978 73.3581 39.0223 74.5672 39.5959 76.5242C40.4619 79.4878 43.285 84.1498 51.9622 88.8849C54.7066 90.3752 56.3599 93.1476 56.4949 96.0832Z" fill="#495287"/>
<path d="M56.495 96.0831C48.6163 92.3153 40.119 86.6748 37.7459 76.6816L37.7346 75.6468L39.596 76.5241C40.4621 79.4878 43.2851 84.1497 51.9624 88.8848C54.7067 90.3751 56.3601 93.1476 56.495 96.0831Z" fill="white"/>
<path d="M47.9085 106.897C46.0077 106.897 44.1238 106.38 42.4592 105.368C33.647 100.014 23.3051 90.5043 24.0362 75.5904C24.7054 62.0375 39.7486 58.2134 40.3897 58.056C40.9746 57.9154 41.5931 58.0672 42.0487 58.4665C42.4986 58.8658 42.7291 59.4619 42.6616 60.058L41.1264 73.5659C41.1208 73.6334 41.1095 73.7009 41.0927 73.7684C41.0927 73.7965 40.0748 80.303 52.846 87.2651C57.6205 89.8688 59.6281 95.5768 57.5193 100.548C56.3327 103.337 53.9989 105.469 51.1196 106.397C50.0736 106.734 48.9882 106.903 47.9141 106.903L47.9085 106.897ZM38.6689 62.5267C34.8392 64.0845 28.1133 67.9198 27.7253 75.776C27.0786 88.8735 36.425 97.382 44.3769 102.213C46.0639 103.242 48.1109 103.484 49.9892 102.876C51.8506 102.275 53.3578 100.902 54.1226 99.0972C55.4892 95.8861 54.1788 92.1858 51.0802 90.4987C36.515 82.5581 37.263 74.3195 37.4654 73.0935L38.6689 62.5211V62.5267Z" fill="#232323"/>
<path d="M136.382 129.332C150.92 129.332 162.706 117.546 162.706 103.007C162.706 88.4689 150.92 76.6831 136.382 76.6831C121.843 76.6831 110.058 88.4689 110.058 103.007C110.058 117.546 121.843 129.332 136.382 129.332Z" fill="#232323"/>
<path d="M167.408 100.308C167.408 113.355 156.836 123.933 143.789 123.933C130.742 123.933 120.164 113.355 120.164 100.308C120.164 98.6548 120.333 97.0408 120.659 95.4775C122.886 84.7476 132.395 76.6833 143.789 76.6833C151.538 76.6833 158.416 80.4174 162.724 86.1872C165.665 90.1238 167.408 95.0107 167.408 100.308Z" fill="#5D6CF9"/>
<path d="M162.723 86.1872C161.289 86.4009 159.298 85.8498 156.525 84.0277C145.042 76.4865 127.103 80.5073 122.165 97.6819L120.658 95.4775C122.885 84.7476 132.394 76.6833 143.788 76.6833C151.537 76.6833 158.415 80.4174 162.723 86.1872Z" fill="white"/>
<path d="M143.782 125.778C129.74 125.778 118.313 114.35 118.313 100.308C118.313 86.2659 129.74 74.8387 143.782 74.8387C157.825 74.8387 169.252 86.2659 169.252 100.308C169.252 114.35 157.825 125.778 143.782 125.778ZM143.782 78.5334C131.776 78.5334 122.002 88.3016 122.002 100.314C122.002 112.326 131.77 122.094 143.782 122.094C155.794 122.094 165.563 112.326 165.563 100.314C165.563 88.3016 155.794 78.5334 143.782 78.5334Z" fill="#232323"/>
<path d="M147.808 116.447C136.691 116.447 127.648 107.404 127.648 96.2862C127.648 85.1683 136.691 76.1255 147.808 76.1255C158.926 76.1255 167.969 85.1683 167.969 96.2862C167.969 107.404 158.926 116.447 147.808 116.447ZM147.808 77.2446C137.309 77.2446 128.772 85.7869 128.772 96.2806C128.772 106.774 137.315 115.317 147.808 115.317C158.302 115.317 166.844 106.774 166.844 96.2806C166.844 85.7869 158.302 77.2446 147.808 77.2446Z" fill="#232323"/>
<path d="M163.267 100.582C161.682 101.808 160.09 102.876 158.583 103.793C154.095 106.52 148.235 104.659 146.183 99.8226C144.44 95.7286 146.132 91.0103 150.041 88.8846C164.448 81.0284 162.705 73.3578 162.705 73.3578L161.17 59.8554C161.17 59.8554 161.715 59.9904 162.604 60.2941C166.248 61.5594 175.628 65.7602 176.117 75.686C176.685 87.22 170.033 95.3462 163.267 100.582Z" fill="#495287"/>
<path d="M163.268 100.583L160.822 100.96C160.822 100.96 185.448 72.5439 161.89 64.0747L162.604 60.2956C166.249 61.5609 175.629 65.7618 176.118 75.6875C176.686 87.2216 170.033 95.3477 163.268 100.583Z" fill="white"/>
<path d="M154.09 106.898C153.01 106.898 151.93 106.729 150.884 106.392C147.999 105.464 145.671 103.333 144.485 100.543C142.37 95.5721 144.378 89.8641 149.158 87.2603C161.923 80.2983 160.911 73.7918 160.9 73.7243C160.883 73.6568 160.883 73.6287 160.872 73.5612L159.337 60.0532C159.269 59.4515 159.5 58.861 159.95 58.4617C160.399 58.0625 161.024 57.9106 161.609 58.0512C162.25 58.2087 177.293 62.0327 177.962 75.5857C178.699 90.4939 168.351 100.009 159.545 105.363C157.88 106.375 155.996 106.892 154.095 106.892L154.09 106.898ZM147.881 99.1037C148.646 100.903 150.153 102.281 152.015 102.883C153.887 103.485 155.934 103.243 157.627 102.219C165.579 97.3885 174.925 88.8799 174.279 75.7825C173.89 67.9263 167.165 64.0854 163.335 62.5332L164.538 73.1057C164.741 74.3316 165.494 82.5702 150.924 90.5108C147.825 92.1979 146.515 95.8982 147.881 99.1093V99.1037Z" fill="#232323"/>
<path d="M113.067 129.798C108.18 129.798 104.693 129.264 104.266 129.196C103.259 129.033 102.579 128.088 102.736 127.082C102.899 126.075 103.844 125.394 104.851 125.552C105.149 125.603 134.796 130.113 143.828 111.234C144.267 110.318 145.369 109.924 146.291 110.368C147.208 110.807 147.601 111.909 147.157 112.831C140.195 127.374 123.465 129.803 113.061 129.803L113.067 129.798Z" fill="#232323"/>
<path d="M101.667 135.381C105.789 135.381 109.13 132.04 109.13 127.919C109.13 123.797 105.789 120.456 101.667 120.456C97.5457 120.456 94.2046 123.797 94.2046 127.919C94.2046 132.04 97.5457 135.381 101.667 135.381Z" fill="#232323"/>
</svg>
