<svg width="194" height="194" viewBox="0 0 194 194" fill="none" xmlns="http://www.w3.org/2000/svg">
<path d="M117.043 56.3402L123.547 103.294L138.922 105.239L145.116 134.674C145.45 138.503 148.647 141.439 152.5 141.439C156.811 141.439 160.206 137.772 159.883 133.473L155.597 76.4348C155.56 75.9516 155.51 75.4684 155.448 74.9977C153.342 58.4339 135.601 48.7087 120.153 55.0641L117.031 56.3526L117.043 56.3402Z" fill="#DBDBDB"/>
<path d="M152.512 145.488C146.602 145.488 141.746 141.115 141.114 135.28L135.564 108.892L123.064 107.318C121.242 107.083 119.793 105.658 119.545 103.837L113.041 56.8837C112.781 55.0502 113.809 53.2662 115.519 52.5724L118.641 51.284C127.375 47.6912 137.088 48.3602 145.264 53.1299C153.181 57.7385 158.372 65.5187 159.511 74.4758C159.586 75.0209 159.635 75.566 159.685 76.1235L163.971 133.161C164.207 136.333 163.104 139.492 160.936 141.821C158.768 144.15 155.708 145.488 152.524 145.488H152.512ZM127.152 99.6498L139.442 101.198C141.164 101.409 142.551 102.697 142.91 104.395L149.105 133.83C149.142 133.991 149.167 134.153 149.179 134.314C149.328 136.048 150.765 137.361 152.512 137.361C153.453 137.361 154.32 136.977 154.965 136.296C155.609 135.602 155.919 134.71 155.844 133.768L151.558 76.7305C151.533 76.3217 151.483 75.9005 151.434 75.4916C150.616 69.0619 146.875 63.4745 141.164 60.1543C135.18 56.6731 128.093 56.1775 121.713 58.804L121.503 58.8907L127.152 99.6374V99.6498Z" fill="#232323"/>
<path d="M136.664 107.766C136.045 107.766 135.5 107.295 135.438 106.663L129.801 54.3952C129.727 53.7138 130.222 53.1068 130.903 53.0325C131.61 52.9705 132.192 53.4537 132.266 54.1351L137.903 106.403C137.977 107.085 137.482 107.692 136.801 107.766C136.751 107.766 136.714 107.766 136.664 107.766Z" fill="#232323"/>
<path d="M85.959 56.3402L79.4549 103.294L64.0804 105.239L57.886 134.674C57.5515 138.503 54.3553 141.439 50.5024 141.439C46.1911 141.439 42.7964 137.772 43.1185 133.473L47.4052 76.4348C47.4423 75.9516 47.4919 75.4684 47.5538 74.9977C49.6599 58.4339 67.4006 48.7087 82.8494 55.0641L85.9714 56.3526L85.959 56.3402Z" fill="#DBDBDB"/>
<path d="M50.4903 145.488C56.3997 145.488 61.2561 141.115 61.8879 135.28L67.4381 108.892L79.9384 107.318C81.7596 107.083 83.209 105.658 83.4568 103.837L89.9609 56.8837C90.2211 55.0502 89.1928 53.2662 87.4832 52.5724L84.3612 51.284C75.6271 47.6912 65.9143 48.3602 57.7377 53.1299C49.8213 57.7385 44.6304 65.5187 43.4906 74.4758C43.4163 75.0209 43.3667 75.566 43.3171 76.1235L39.0307 133.161C38.7953 136.333 39.8978 139.492 42.0659 141.821C44.2339 144.15 47.294 145.488 50.4779 145.488H50.4903ZM75.8501 99.6498L63.5604 101.198C61.8383 101.409 60.4509 102.697 60.0916 104.395L53.8972 133.83C53.86 133.991 53.8352 134.153 53.8228 134.314C53.6741 136.048 52.2371 137.361 50.4903 137.361C49.5488 137.361 48.6816 136.977 48.0373 136.296C47.3931 135.602 47.0833 134.71 47.1576 133.768L51.4443 76.7305C51.469 76.3217 51.5186 75.9005 51.5681 75.4916C52.3858 69.0619 56.1271 63.4745 61.8383 60.1543C67.8221 56.6731 74.9086 56.1775 81.2888 58.804L81.4993 58.8907L75.8501 99.6374V99.6498Z" fill="#232323"/>
<path d="M66.3377 107.766C66.9571 107.766 67.5022 107.295 67.5642 106.663L73.2011 54.3952C73.2754 53.7138 72.7799 53.1068 72.0985 53.0325C71.3923 52.9705 70.8101 53.4537 70.7358 54.1351L65.0988 106.403C65.0245 107.085 65.52 107.692 66.2014 107.766C66.251 107.766 66.2881 107.766 66.3377 107.766Z" fill="#232323"/>
</svg>
