<svg width="194" height="194" viewBox="0 0 194 194" fill="none" xmlns="http://www.w3.org/2000/svg">
<path d="M73.209 62.8116C73.8138 51.6584 84.8163 39.5334 90.7847 45.5938C90.7847 45.5938 98.3381 41.3019 100.949 46.6199C100.949 46.6199 110.463 45.2226 112.139 51.0036C112.139 51.0036 120.276 49.5104 122.037 54.453C122.037 54.453 131.538 55.8211 132.376 62.1777C132.376 62.1777 140.755 62.3737 138.34 72.0754C135.925 81.7771 108.502 72.5467 108.502 72.5467L73.2048 62.8075L73.209 62.8116Z" fill="#FF669D"/>
<path d="M129.064 77.8648C120.28 77.8648 109.053 74.1735 108.106 73.8565L72.8459 64.1298C72.2245 63.9588 71.8075 63.379 71.845 62.7367C72.2829 54.6366 78.0678 45.4896 84.2197 43.1622C86.7347 42.2112 89.1037 42.499 91.0014 43.9589C92.5446 43.2456 95.8104 42.0319 98.6131 42.8953C99.8977 43.2915 100.932 44.0548 101.691 45.1685C104.169 44.9724 110.784 44.9099 113.032 49.5105C115.438 49.2811 120.969 49.2268 123.008 53.2393C125.323 53.7148 132.055 55.5501 133.527 60.9431C134.861 61.1851 137.105 61.8816 138.624 63.8712C140.213 65.9567 140.567 68.8305 139.675 72.4134C139.241 74.1527 138.165 75.5041 136.476 76.43C134.57 77.4728 131.95 77.869 129.068 77.869L129.064 77.8648ZM74.6686 61.794L108.869 71.2288C108.894 71.2371 108.919 71.2413 108.94 71.2496C114.329 73.064 129.54 77.0974 135.154 74.0234C136.159 73.4728 136.768 72.7262 137.014 71.746C137.694 69.0098 137.502 66.9202 136.442 65.5271C135.02 63.6585 132.376 63.5458 132.347 63.5458C131.671 63.5292 131.112 63.0245 131.02 62.3571C130.328 57.11 121.924 55.817 121.84 55.8045C121.34 55.7294 120.919 55.3874 120.748 54.9077C119.4 51.1246 112.456 52.3342 112.385 52.3426C111.693 52.4677 111.021 52.0506 110.825 51.3791C109.499 46.816 101.228 47.9547 101.145 47.9672C100.557 48.0506 99.9812 47.7503 99.7184 47.2164C99.2805 46.328 98.6549 45.7649 97.804 45.5021C95.6435 44.8348 92.4863 46.1945 91.4561 46.7785C90.918 47.083 90.2382 46.987 89.8086 46.5491C88.5616 45.2811 87.0475 45.01 85.1832 45.7149C80.7371 47.3958 75.5111 54.4781 74.6645 61.7857L74.6686 61.794Z" fill="#232323"/>
<path d="M136.516 71.0874C102.32 52.5599 77.3244 59.0249 58.5474 69.223C39.7747 79.4211 25.5982 100.309 25.5982 100.309L24.105 123.442C24.105 123.442 37.8894 146.803 71.0014 149.556C130.831 154.528 140.775 138.299 157.654 123.688V92.4763C157.654 92.4763 153.829 82.5284 136.516 71.0874ZM91.7302 140.601C62.9893 140.601 55.8155 126.799 55.8155 113.99C55.8155 101.181 67.3812 91.7463 90.7543 91.9799C103.313 92.105 129.676 96.4554 129.676 113.865C129.676 131.275 120.475 140.601 91.7302 140.601Z" fill="#FFA3C8"/>
<path d="M156.237 95.4648C135.815 69.89 101.079 49.8503 53.9373 75.234L50.1201 73.7079L56.2275 70.4633L70.9235 63.2108L85.047 60.1571H94.3989L105.278 61.3022L115.012 63.2108L127.226 67.6005L137.533 72.5628L148.03 81.1513L156.237 91.0759V95.4648Z" fill="#FFD5E6"/>
<path d="M135.811 72.2595C122.118 64.8101 106.615 59.7591 90.8831 60.7142C80.4269 61.2648 70.2669 64.4931 60.9911 69.3023C50.4556 74.6829 41.6094 82.833 33.8559 91.6796C31.3033 94.6536 28.7883 97.7651 26.5528 100.956L26.7489 100.38L25.2307 123.513L25.0764 122.866C31.854 133.056 42.3476 140.589 53.7964 144.73C59.5897 146.824 65.6499 148.017 71.7935 148.484C84.1641 149.448 96.6389 149.819 108.968 148.297C118.102 147.175 127.194 144.814 135.219 140.23C143.402 135.663 149.762 128.939 156.832 122.741L156.398 123.688L156.34 92.4763L156.427 92.9476C155.71 91.3376 154.696 89.8069 153.662 88.372C148.891 81.9154 142.451 76.7141 135.811 72.2637V72.2595ZM137.217 69.9154C141.417 72.7517 145.729 75.9967 149.358 79.5296C152.152 82.224 154.784 85.1646 156.911 88.4388C157.453 89.2688 157.966 90.1322 158.421 91.0248C158.625 91.4419 158.938 91.9591 158.963 92.4763L158.905 123.688C158.905 124.063 158.734 124.405 158.471 124.635C151.472 130.733 144.707 137.748 136.399 142.315C128.087 147.024 118.682 149.477 109.26 150.612C103.003 151.396 96.7098 151.633 90.4119 151.613C80.9734 151.417 71.4932 151.22 62.2007 149.419C49.7592 146.841 38.0308 140.651 29.1637 131.508C26.9282 129.185 24.8595 126.762 23.1286 124.017C23.0076 123.817 22.9576 123.592 22.9743 123.371L24.4424 100.239C24.455 100.026 24.5258 99.8256 24.6385 99.6629C26.9658 96.322 29.464 93.2312 32.0874 90.1531C39.9953 81.0728 49.096 72.7016 59.8733 67.1459C69.4036 62.1574 79.9307 58.7747 90.733 58.1699C106.995 57.123 123.04 62.245 137.217 69.9154Z" fill="#232323"/>
<path d="M91.7301 141.969C76.8696 142.011 59.3731 137.856 55.4484 121.314C49.8345 96.6011 73.7958 89.8525 93.557 90.9661C107.525 91.7628 130.99 96.5719 130.861 114.299C130.827 119.679 129.91 125.272 126.852 129.844C119.462 140.772 103.755 141.777 91.7301 141.969ZM91.7301 139.233C101.402 139.129 112.793 138.615 120.805 132.684C125.639 129.068 127.891 123.279 128.337 117.302C128.483 115.354 128.596 113.306 128.275 111.383C126.456 101.127 114.611 96.8681 105.598 94.8159C92.9689 92.0881 75.1721 91.8086 64.3322 99.6543C59.4649 103.17 56.6913 108.822 57.025 114.824C57.5255 134.294 75.1637 139.395 91.7301 139.233Z" fill="#232323"/>
<path d="M27.6261 99.5955C20.9695 97.4641 14.5924 104.35 18.6964 110.507C18.6964 110.507 11.4893 123.191 22.5043 125.055C33.5194 126.92 36.6475 102.486 27.6261 99.5955Z" fill="#FF669D"/>
<path d="M27.2093 100.897C23.5557 99.5917 18.9595 102.215 18.7843 106.19C18.7176 107.417 19.1138 108.651 19.8354 109.744C20.119 110.194 20.1231 110.745 19.8895 111.183C17.2869 116.326 15.7522 123.154 23.5098 123.871C27.9434 123.942 30.7753 119.049 31.5844 115.058C32.5145 110.574 31.9181 103.012 27.2093 100.897ZM28.0434 98.2904C36.7604 101.068 34.2454 117.464 29.8911 123.179C28.4522 125.16 25.9413 126.511 23.4263 126.432C19.5016 126.265 15.677 124.151 15.114 119.946C14.6844 116.943 15.5478 114.073 16.724 111.387C16.9617 110.862 17.1994 110.378 17.508 109.832C17.508 109.832 17.5623 111.279 17.5581 111.266C12.7325 104.071 20.2149 95.7503 28.0476 98.2946L28.0434 98.2904Z" fill="#232323"/>
<path d="M19.2171 109.245C20.948 110.192 22.6288 111.23 24.2721 112.34C24.4764 112.482 24.5265 112.757 24.3847 112.961C24.2804 113.112 24.1053 113.178 23.9343 113.149C21.9907 112.774 20.0638 112.327 18.1702 111.777C16.2892 111.114 17.4112 108.386 19.2129 109.245H19.2171Z" fill="#232323"/>
<path d="M49.0953 97.1722C55.6371 97.1722 60.9404 91.8687 60.9404 85.3266C60.9404 78.7844 55.6371 73.481 49.0953 73.481C42.5534 73.481 37.2502 78.7844 37.2502 85.3266C37.2502 91.8687 42.5534 97.1722 49.0953 97.1722Z" fill="white"/>
<path d="M62.2794 85.3268C62.2627 92.2298 55.8855 98.09 49.0997 98.0692C37.6467 98.0358 31.8409 84.3133 39.8489 76.0756C48.107 67.7503 62.3169 73.5688 62.2794 85.3268ZM59.6017 85.3268C59.4807 76.038 48.2864 71.3248 41.5964 77.8274C36.1327 83.1204 37.8969 92.455 44.9163 95.4206C52.2861 98.4112 59.756 93.2809 59.6017 85.3268Z" fill="#232323"/>
<path d="M49.0966 89.6987C51.5106 89.6987 53.4676 87.7417 53.4676 85.3275C53.4676 82.9134 51.5106 80.9563 49.0966 80.9563C46.6825 80.9563 44.7256 82.9134 44.7256 85.3275C44.7256 87.7417 46.6825 89.6987 49.0966 89.6987Z" fill="#232323"/>
<path d="M157.653 92.4766C157.653 92.4766 179.104 78.9835 177.239 89.0564C177.239 89.0564 180.038 95.6799 176.213 99.5965C176.213 99.5965 181.994 106.962 175.746 110.508C175.746 110.508 180.221 116.393 176.864 119.646C176.864 119.646 180.13 127.2 174.345 129.344C174.345 129.344 178.728 134.474 174.253 134.662C169.778 134.85 157.653 123.688 157.653 123.688V92.4766Z" fill="#FF669D"/>
<path d="M156.452 91.8129C156.569 91.6086 156.757 91.4084 156.969 91.2916C157.14 91.204 157.436 91.0455 157.607 90.9537C162.158 88.5971 170.758 83.2165 175.85 84.1675C178.29 84.6639 179.041 87.0872 178.582 89.302C178.582 89.3104 178.499 88.522 178.499 88.522C179.608 91.4626 180.055 94.6993 178.97 97.7316C178.582 98.7743 177.948 99.7253 177.189 100.551L177.285 98.7493C178.003 99.7045 178.557 100.672 179.045 101.752C180.789 105.465 180.276 109.59 176.418 111.696L176.831 109.677C179.041 112.71 180.964 117.535 177.815 120.63L178.119 119.104C179.854 123.258 179.754 128.876 174.824 130.628C174.812 130.641 175.387 128.455 175.383 128.459C176.643 130.115 178.399 132.455 177.21 134.624C176.167 136.167 174.103 136.192 172.539 135.746C168.552 134.395 165.277 131.663 162.024 129.152C160.222 127.704 158.508 126.199 156.727 124.701C156.452 124.434 156.231 124.071 156.281 123.692C156.527 121.035 156.661 118.407 156.752 115.775C157.007 107.788 156.961 99.8296 156.452 91.8171V91.8129ZM158.85 93.1393C158.316 100.639 158.308 108.451 158.55 115.996C158.642 118.57 158.775 121.139 159.021 123.688C159.021 123.688 158.571 122.666 158.583 122.682C160.881 124.997 172.397 134.762 174.916 133.139C174.77 132.142 174.007 131.12 173.306 130.236C172.697 129.531 173.006 128.388 173.869 128.063C175.304 127.529 176.151 126.507 176.351 124.981C176.564 123.437 176.184 121.656 175.609 120.188C175.383 119.65 175.521 119.049 175.913 118.662C177.861 116.609 175.98 113.285 174.658 111.333C174.17 110.678 174.366 109.723 175.07 109.314C177.673 107.942 177.686 105.298 176.547 102.862C176.263 102.22 175.909 101.581 175.521 100.989C175.396 100.797 175.246 100.58 175.133 100.439C174.724 99.9005 174.766 99.1622 175.196 98.6742C177.49 96.2801 177.052 92.4678 175.976 89.5856C175.688 88.8307 176.184 87.9756 175.926 87.2624C175.471 86.0194 172.539 86.8453 171.475 87.1248C168.685 87.9464 166.037 89.2311 163.434 90.5783C161.745 91.4626 160.077 92.4177 158.521 93.5272L158.446 93.5814L158.408 93.6065L158.391 93.619C158.554 93.5481 158.746 93.3062 158.846 93.1351L158.85 93.1393Z" fill="#232323"/>
<path d="M45.401 141.657C48.4123 140.297 49.872 136.889 50.8647 133.886C51.2025 132.793 51.5028 131.671 51.7113 130.541C51.7447 130.32 52.0993 130.353 52.0826 130.578C51.9158 134.149 51.1775 137.815 49.0379 140.777C48.5165 141.54 45.7054 144.355 44.9588 142.758C44.7753 142.332 44.9756 141.836 45.4052 141.657H45.401Z" fill="#232323"/>
<path d="M87.173 75.1567C95.6605 79.5404 91.9276 91.4778 91.9276 91.4778Z" fill="#FFA3C8"/>
<path d="M87.3066 74.9023C93.5628 77.8053 94.2468 85.7635 92.7286 91.728C92.6119 92.1743 92.1531 92.4413 91.711 92.3245C91.2397 92.2035 90.9727 91.6905 91.1395 91.2317C91.3606 90.5727 91.5441 89.8261 91.6901 89.1045C92.7745 84.0951 91.9987 78.0472 87.048 75.4153C86.7268 75.2443 86.9771 74.7396 87.3108 74.9023H87.3066Z" fill="#232323"/>
<path d="M95.2124 59.3186C101.135 68.0777 92.7433 79.6397 92.7433 79.6397Z" fill="#FFA3C8"/>
<path d="M95.9048 58.847C99.5626 64.6155 97.6649 71.9647 94.4408 77.4788C93.9862 78.2754 93.5066 79.0471 92.9644 79.7978C92.8768 79.9188 92.7058 79.948 92.5848 79.8562C92.4639 79.7686 92.4389 79.5976 92.5265 79.4767C93.515 78.0001 94.3491 76.3943 95.029 74.7426C96.6764 70.7343 97.5314 66.0795 95.788 61.9794C95.4502 61.1827 94.9956 60.4528 94.5035 59.7521C93.8778 58.8053 95.2875 57.8793 95.9048 58.847Z" fill="#232323"/>
<path d="M106.358 77.1186C119.976 85.5607 109.808 93.9986 109.808 93.9986Z" fill="#FFA3C8"/>
<path d="M106.546 76.8181C113.286 80.6429 116.994 86.8744 111.334 93.6189C110.821 94.1653 109.983 95.4124 109.165 94.5782C108.84 94.2195 108.894 93.6522 109.278 93.3603C109.857 92.8764 110.454 92.2341 110.921 91.6126C115.309 85.9067 111.313 80.7055 106.175 77.4187C105.799 77.181 106.154 76.5887 106.546 76.8223V76.8181Z" fill="#232323"/>
<path d="M122.774 64.7534C127.157 80.2945 114.102 83.3227 114.102 83.3227Z" fill="#FFA3C8"/>
<path d="M123.574 64.5244C125.538 71.6818 124.112 79.1103 116.946 82.5764C116.054 83.0102 115.145 83.3647 114.16 83.5983C114.006 83.6358 113.852 83.5399 113.814 83.3856C113.777 83.2313 113.877 83.0769 114.031 83.0394C114.911 82.7766 115.791 82.3846 116.609 81.9299C123.048 78.3887 124.07 71.5066 121.964 64.9748C121.664 63.8987 123.257 63.4358 123.57 64.5202L123.574 64.5244Z" fill="#232323"/>
<path d="M126.027 81.5237C132.992 87.6217 137.176 97.8865 129.064 104.956C128.392 105.428 127.183 106.892 126.411 105.816C126.157 105.411 126.303 104.873 126.72 104.643C127.579 104.105 128.45 103.342 129.147 102.575C133.268 98.1326 132.555 92.3265 129.597 87.4465C128.434 85.5153 127.053 83.7093 125.673 81.8615C125.493 81.6446 125.819 81.3277 126.027 81.5279V81.5237Z" fill="#232323"/>
<path d="M146.017 77.2902C146.572 78.8209 147.139 80.4435 147.36 82.066C147.46 82.7917 147.589 83.8386 147.56 84.5644C147.627 88.7145 145.825 93.0732 142.28 95.409C141.925 95.6342 141.533 95.142 141.846 94.8542C144.053 92.7687 145.533 89.8741 145.925 86.8626C146.1 84.994 146.004 83.0336 145.512 81.2151C145.279 80.0889 144.82 78.9169 144.44 77.8408C144.107 76.798 145.625 76.26 146.013 77.2944L146.017 77.2902Z" fill="#232323"/>
<path d="M132.817 120.143C140.057 122.504 143.294 129.419 141.984 136.693C141.892 137.144 141.45 137.436 140.996 137.34C140.52 137.244 140.228 136.752 140.366 136.289C140.549 135.584 140.67 134.754 140.737 133.97C141.125 129.974 139.932 125.72 136.908 122.963C135.703 121.857 134.289 120.956 132.767 120.272C132.692 120.243 132.733 120.114 132.817 120.147V120.143Z" fill="#232323"/>
<path d="M142.402 102.228C147.452 107.275 148.954 115.121 145.021 121.307C144.491 122.141 143.916 122.921 143.186 123.626C143.04 123.767 142.81 123.763 142.673 123.617C142.539 123.484 142.539 123.275 142.652 123.133C145.805 118.65 146.552 112.685 144.354 107.634C143.678 105.945 142.769 104.331 141.755 102.75C141.488 102.345 142.06 101.878 142.402 102.233V102.228Z" fill="#232323"/>
<path d="M128.367 64.3346C128.283 64.3346 128.204 64.2846 128.171 64.2011C128.129 64.0927 128.183 63.9717 128.292 63.9342L132.717 62.2575C132.825 62.2158 132.946 62.27 132.988 62.3784C133.03 62.4869 132.975 62.6078 132.867 62.6454L128.442 64.3221C128.417 64.3304 128.392 64.3346 128.367 64.3346Z" fill="#232323"/>
<path d="M175.247 129.928C175.213 129.928 175.176 129.92 175.142 129.899L165.224 124.239C165.124 124.18 165.091 124.055 165.145 123.955C165.203 123.855 165.329 123.822 165.429 123.876L175.347 129.536C175.447 129.594 175.48 129.719 175.426 129.819C175.389 129.886 175.318 129.924 175.247 129.924V129.928Z" fill="#232323"/>
<path d="M176.99 120.172C176.99 120.172 176.948 120.172 176.927 120.164C176.919 120.164 176.91 120.156 176.902 120.156C176.418 120.06 170.633 119.63 166.809 119.359C166.692 119.351 166.608 119.25 166.617 119.138C166.625 119.025 166.738 118.938 166.838 118.946C177.031 119.659 177.085 119.738 177.161 119.847C177.198 119.901 177.206 119.968 177.19 120.03C177.161 120.118 177.081 120.176 176.99 120.176V120.172Z" fill="#232323"/>
<path d="M176.056 110.203L168.152 110.066C168.035 110.066 167.944 109.97 167.948 109.853C167.952 109.736 168.056 109.64 168.161 109.649L176.064 109.786C176.181 109.786 176.273 109.882 176.269 109.999C176.269 110.112 176.173 110.203 176.06 110.203H176.056Z" fill="#232323"/>
<path d="M165.67 101.607C165.57 101.607 165.482 101.536 165.466 101.432C165.445 101.319 165.524 101.211 165.637 101.19L176.176 99.3882C176.285 99.3673 176.397 99.4466 176.418 99.5592C176.439 99.6718 176.36 99.7802 176.247 99.8011L165.708 101.603C165.708 101.603 165.683 101.603 165.674 101.603L165.67 101.607Z" fill="#232323"/>
<path d="M167.755 93.7323C167.676 93.7323 167.601 93.6864 167.568 93.6114C167.518 93.5071 167.563 93.382 167.668 93.3319L177.148 88.8648C177.252 88.8147 177.377 88.8606 177.427 88.9649C177.477 89.0692 177.432 89.1943 177.327 89.2443L167.847 93.7115C167.818 93.724 167.789 93.7323 167.76 93.7323H167.755Z" fill="#232323"/>
</svg>
