<svg width="194" height="194" viewBox="0 0 194 194" fill="none" xmlns="http://www.w3.org/2000/svg">
<path d="M42.9265 106.829C34.1088 93.596 18.6719 90.6141 18.6719 90.6141C18.6719 90.6141 22.0772 114.464 40.6757 109.997L42.9323 106.829H42.9265Z" fill="#58BF43"/>
<path d="M36.2084 112.461C32.8785 112.461 29.8445 111.545 27.1586 109.717C18.7469 104.003 16.8616 91.4138 16.7862 90.8801C16.6991 90.271 16.9138 89.656 17.3605 89.2325C17.8072 88.809 18.4337 88.6234 19.037 88.7394C19.6983 88.867 35.3614 92.0288 44.5156 105.767C44.9507 106.422 44.9391 107.281 44.4808 107.925L42.2242 111.092C41.9573 111.469 41.5628 111.73 41.1161 111.841C39.4164 112.247 37.7805 112.45 36.2084 112.45V112.461ZM21.2008 93.2819C22.1986 97.0064 24.5191 103.324 29.305 106.573C32.1708 108.516 35.6109 109.097 39.544 108.296L40.5998 106.817C34.5783 98.538 25.7257 94.7613 21.2008 93.2877V93.2819Z" fill="#232323"/>
<path d="M43.4275 104.608C28.1241 107.468 14.9091 122 14.9091 122C14.9091 122 33.4147 129.757 43.9206 108.431L43.4275 104.602V104.608Z" fill="#58BF43"/>
<path d="M22.768 125.233C17.8254 125.233 14.2577 123.794 14.1707 123.759C13.6022 123.521 13.1845 123.017 13.0453 122.413C12.9119 121.81 13.0801 121.178 13.4978 120.719C14.0547 120.104 27.3219 105.676 43.072 102.735C43.5883 102.636 44.1162 102.758 44.5397 103.066C44.9632 103.373 45.2416 103.843 45.3054 104.359L45.7985 108.188C45.8449 108.56 45.7811 108.937 45.6187 109.273C39.1272 122.448 29.6192 125.233 22.7622 125.233H22.768ZM18.5216 121.073C23.702 122.129 34.6836 122.338 41.9524 108.101L41.8015 106.918C31.6438 109.528 22.5592 117.244 18.5216 121.073Z" fill="#232323"/>
<path d="M34.7956 107.563L29.2265 101.669C28.9887 101.425 29.3309 101.025 29.6036 101.228L36.2749 105.84C37.6034 106.838 35.9907 108.729 34.7956 107.563Z" fill="#232323"/>
<path d="M42.4104 112.601C58.6187 94.9876 156.687 93.5431 179.514 119.348L180.06 115.455C180.263 113.987 179.828 112.508 178.865 111.382L178.302 110.727L179.103 108.023C179.468 106.793 179.19 105.471 178.372 104.485L176.225 101.909L176.272 101.787C177.136 99.5185 176.62 96.9601 174.955 95.1965C169.786 89.7257 156.983 78.4884 135.757 74.1142C108.015 68.3998 69.084 69.3454 51.0425 85.5139C50.0679 86.3899 49.4529 87.6024 49.2847 88.9019L48.7742 92.8759L46.5466 93.9202C44.2551 94.9992 42.7874 97.3024 42.7874 99.8376C40.0899 103.011 39.446 107.449 41.1225 111.261L42.0971 113.471" fill="#58BF43"/>
<mask id="mask0_66_4330" style="mask-type:alpha" maskUnits="userSpaceOnUse" x="40" y="70" width="141" height="50">
<path d="M42.4108 112.601C58.6191 94.9875 156.687 93.543 179.515 119.348L180.06 115.455C180.263 113.987 179.828 112.508 178.865 111.382L178.302 110.727L179.103 108.023C179.468 106.793 179.19 105.471 178.372 104.484L176.226 101.909L176.272 101.787C177.136 99.5184 176.62 96.96 174.955 95.1964C169.786 89.7256 156.983 78.4883 135.757 74.1141C108.016 68.3997 69.0844 69.3453 51.0429 85.5138C50.0683 86.3898 49.4533 87.6023 49.2851 88.9018L48.7746 92.8758L46.547 93.9201C44.2555 94.9991 42.7878 97.3023 42.7878 99.8375C40.0903 103.011 39.4464 107.449 41.1229 111.26L42.0975 113.471" fill="#58BF43"/>
</mask>
<g mask="url(#mask0_66_4330)">
<path d="M177.165 103.508C154.664 77.6203 107.566 73.6686 90.3079 73.5073C88.6143 71.8943 93.3563 67.5555 92.9692 66.0071C92.4853 64.0716 92.2434 64.0716 85.7109 49.0712C79.1785 34.0709 83.7754 39.3935 88.6142 35.0385C93.4531 30.6836 114.26 34.071 116.679 33.5871C119.099 33.1032 168.697 40.6034 170.148 41.5711C171.31 42.3454 195.794 52.2166 207.891 57.0554C207.811 69.8783 205.23 105.927 177.165 103.508Z" fill="white"/>
</g>
<path d="M179.513 121.244C178.973 121.244 178.451 121.017 178.086 120.6C166.008 106.955 132.616 101.803 105.392 101.542C76.3164 101.258 51.1743 106.247 43.9809 113.702C43.8997 114.34 43.4936 114.92 42.8613 115.199C41.8983 115.622 40.7728 115.187 40.3552 114.224L39.3806 112.014C37.5184 107.773 38.1275 102.784 40.9179 99.1172C41.1731 96.1411 43.0063 93.4666 45.7386 92.1845L47.0207 91.5811L47.3977 88.6456C47.624 86.8704 48.471 85.2518 49.7704 84.0857C68.247 67.5227 107.492 66.3334 136.138 72.2393C157.48 76.6367 170.486 87.6826 176.34 93.8785C178.26 95.909 179.002 98.8039 178.353 101.484L179.832 103.259C181.062 104.733 181.468 106.717 180.923 108.556L180.412 110.273C181.654 111.793 182.205 113.766 181.932 115.715L181.387 119.608C181.282 120.345 180.76 120.954 180.052 121.168C179.873 121.221 179.687 121.25 179.501 121.25L179.513 121.244ZM103.216 97.7248C103.959 97.7248 104.696 97.7248 105.432 97.7364C131.648 97.9917 163.566 102.807 178.15 115.344L178.173 115.187C178.3 114.265 178.028 113.325 177.419 112.617L176.856 111.961C176.438 111.468 176.293 110.801 176.473 110.18L177.274 107.477C177.459 106.856 177.32 106.195 176.908 105.696L174.762 103.12C174.321 102.592 174.199 101.867 174.449 101.223L174.495 101.101C175.104 99.5059 174.75 97.7422 173.573 96.4949C168.027 90.6297 155.693 80.1582 135.372 75.9696C120.805 72.9702 104.249 72.0652 89.9491 73.4924C73.2708 75.1574 60.2531 79.8043 52.3113 86.9226C51.6906 87.4796 51.2845 88.2627 51.1743 89.133L50.6638 93.1069C50.5826 93.7509 50.1765 94.3136 49.5848 94.5863L47.3571 95.6305C45.7386 96.3905 44.6944 98.0323 44.6944 99.8191C44.6944 100.272 44.532 100.707 44.2419 101.049C42.1883 103.462 41.5792 106.827 42.606 109.798C52.7928 101.415 79.4897 97.7132 103.216 97.7132V97.7248Z" fill="#232323"/>
<path d="M48.7788 92.8634C64.0706 85.5536 80.3312 83.3491 80.3312 83.3491Z" fill="#6B6B6B"/>
<path d="M47.9569 91.1455C55.7362 88.0128 63.8114 85.6806 72.0432 84.1374C74.7756 83.6327 77.5021 83.1802 80.2693 82.8669C80.5361 82.8379 80.774 83.0294 80.803 83.2962C80.832 83.5573 80.6521 83.7893 80.3969 83.83C77.7168 84.3289 75.0308 84.9554 72.3913 85.6806C64.5134 87.8445 56.7572 90.6524 49.5986 94.58C47.2028 95.8331 45.4624 92.2362 47.9569 91.1455Z" fill="#232323"/>
<path d="M175.884 102.811C169.27 99.957 161.613 97.3637 161.613 97.3637Z" fill="#6B6B6B"/>
<path d="M175.379 103.987C170.628 102.2 166.045 100.036 161.416 97.942C161.108 97.7969 160.969 97.4314 161.114 97.1182C161.242 96.8513 161.532 96.7121 161.81 96.7759C163.069 97.0602 164.305 97.3792 165.54 97.7331C169.236 98.8006 172.931 99.9203 176.394 101.626C177.027 101.945 177.288 102.717 176.969 103.349C176.673 103.941 175.982 104.202 175.379 103.981V103.987Z" fill="#232323"/>
</svg>
