<svg width="194" height="194" viewBox="0 0 194 194" fill="none" xmlns="http://www.w3.org/2000/svg">
<path d="M39.2245 130.909C38.7246 141.975 32.5962 155.982 32.3373 160.437C32.0784 164.892 45.112 162.334 49.0043 149.559C52.8965 136.783 52.2003 106.34 52.3967 100.051C52.5931 93.7613 66.3677 90.3688 83.0392 90.1679C99.7107 89.9671 112.584 90.2661 124.359 91.3642C136.133 92.4623 141.128 91.8642 142.025 106.135C142.923 120.406 143.222 131.186 143.222 139.872C143.222 148.559 143.521 156.143 151.903 159.634C160.286 163.124 160.545 158.236 158.268 149.853C155.992 141.47 155.269 125.262 155.269 125.262L153.899 93.6586L130.398 77.888L108.187 72.8975L80.8385 72.7993L51.794 78.8879L41.7152 85.6729L38.1265 104.738L39.2201 130.905L39.2245 130.909Z" fill="#AF6734"/>
<mask id="mask0_66_4355" style="mask-type:alpha" maskUnits="userSpaceOnUse" x="32" y="72" width="128" height="91">
<path d="M39.2238 130.909C38.7239 141.975 32.5955 155.982 32.3367 160.437C32.0778 164.892 45.1114 162.334 49.0036 149.559C52.8959 136.784 52.1996 106.34 52.396 100.051C52.5924 93.7615 66.367 90.369 83.0385 90.1681C99.71 89.9673 112.583 90.2663 124.358 91.3644C136.133 92.4625 141.128 91.8644 142.025 106.135C142.922 120.406 143.221 131.186 143.221 139.872C143.221 148.559 143.52 156.143 151.903 159.634C160.285 163.124 160.544 158.237 158.268 149.854C155.991 141.47 155.268 125.262 155.268 125.262L153.898 93.6588L130.397 77.8882L108.186 72.8977L80.8379 72.7995L51.7934 78.8881L41.7146 85.6731L38.1258 104.738L39.2195 130.905L39.2238 130.909Z" fill="#AF6734"/>
</mask>
<g mask="url(#mask0_66_4355)">
<path d="M150.221 158.817C159.93 158.817 150.998 138.816 152.163 130.466L157.406 127.941L171.776 136.291C172.682 139.916 175.193 149.846 177.99 160.565C180.786 171.284 168.669 171.504 162.261 170.274C155.788 168.268 142.888 158.817 150.221 158.817Z" fill="white"/>
</g>
<path d="M40.5766 130.913C40.1704 138.073 38.0323 145.055 35.9389 151.84C35.1845 154.339 34.3455 156.781 33.8143 159.307C33.7116 159.723 33.6937 160.075 33.6402 160.45C33.6312 160.709 33.6581 160.74 33.7027 160.812C33.7518 160.874 33.8812 160.995 34.1491 161.066C35.1534 161.316 36.2334 161.115 37.2823 160.794C41.9467 159.258 45.5624 155.228 47.3299 150.701C50.566 140.881 50.6062 130.119 51.1329 119.803C51.2802 114.737 51.3829 109.108 51.4097 104.01C51.441 103.189 51.432 100.841 51.4766 100.033C51.8516 95.3815 57.0071 93.3996 60.8011 92.1586C67.6661 90.1232 74.7854 89.5696 81.887 89.3866C92.4612 89.2706 103.009 89.2795 113.574 89.7884C118.676 90.0026 124.278 90.5338 129.388 90.9668C132.95 91.3195 137.155 91.7435 139.668 94.6941C140.927 96.1537 141.641 97.975 142.096 99.7917C142.976 103.305 143.025 106.871 143.284 110.433C143.962 120.923 144.359 131.569 144.417 142.095C144.498 145.456 144.65 148.938 145.873 152.045C147.288 155.902 150.948 158.308 154.813 159.267C157.241 159.843 158.277 159.406 158.183 156.611C158.121 153.817 157.009 150.612 156.42 147.822C154.907 140.39 154.327 132.895 153.871 125.351C153.559 118.647 152.746 100.662 152.443 93.7344L153.09 94.886L129.589 79.1154L130.085 79.3297L107.874 74.3392C109.548 74.4329 80.4319 74.2499 80.8426 74.2767C82.3825 74.0222 51.7713 80.3921 52.1061 80.3341L52.6237 80.1153L42.5495 86.9003C42.5495 86.9003 43.1698 85.9584 43.1654 85.9584L39.5276 105.014C39.5499 103.332 40.572 131.315 40.5809 130.922L40.5766 130.913ZM37.876 130.909L36.72 104.805C36.72 104.693 36.7199 104.586 36.7422 104.483L40.2819 85.4094C40.3578 85.0121 40.5854 84.6818 40.8978 84.472C40.9068 84.4631 50.9767 77.6915 50.9856 77.6781C51.1463 77.571 51.3249 77.4995 51.5034 77.4594L80.5479 71.3708C80.6461 71.3484 80.7532 71.3395 80.8559 71.3395L108.204 71.4377C108.311 71.4377 108.419 71.4511 108.521 71.4734L130.732 76.4639C130.911 76.5041 131.08 76.58 131.228 76.6782L154.728 92.4488C155.13 92.7166 155.358 93.163 155.376 93.6138C156.005 105.778 156.335 123.7 157.429 135.667C157.857 139.997 158.348 144.3 159.326 148.514C160.094 151.956 162.397 158.575 159.116 161.24C155.951 163.664 149.162 160.227 146.712 157.781C141.217 152.393 142.181 143.863 142.07 136.855C142.047 128.083 141.748 119.321 141.297 110.554C140.896 105.635 141.32 99.8632 138.289 95.8814C136.124 93.3415 132.424 93.0514 129.223 92.6675L123.979 92.1765C113.503 91.2079 102.977 90.8954 92.4523 90.9088C82.0521 90.9802 71.3485 90.7347 61.3277 93.8102C58.3282 94.8235 53.6014 96.5733 53.3336 100.091C53.2487 113.737 53.5075 127.423 51.8783 141.019C51.5435 143.595 51.0793 146.443 50.4008 148.947C48.8609 155.272 44.3841 161.133 38.0547 163.236C35.8318 163.95 32.3636 164.311 31.2299 161.615C31.0915 161.191 31.0468 160.812 31.0557 160.379C31.3994 157.169 32.5599 154.125 33.4392 151.067C35.4434 144.452 37.4744 137.823 37.8806 130.909H37.876Z" fill="#232323"/>
<path d="M166.128 85.8839C163.187 57.6638 140.074 34.2378 97.2281 34.6484C54.3822 34.2378 31.2698 57.6638 28.3282 85.8839C23.1505 135.521 40.8217 130.915 40.8217 130.915C45.3701 126.741 47.8118 116.626 47.8118 102.253C47.8118 87.8792 58.81 81.5986 97.2281 81.4959C135.646 81.6031 146.645 88.1336 146.645 102.253C146.645 116.372 149.082 126.741 153.635 130.915C153.635 130.915 171.306 135.526 166.128 85.8839Z" fill="#E5E5E5"/>
<path d="M154.773 132.486C153.889 132.486 153.322 132.343 153.264 132.33C153.032 132.267 152.818 132.151 152.644 131.991C147.761 127.509 145.181 117.229 145.181 102.248C145.181 95.3072 142.27 90.897 135.74 87.9464C128.313 84.5897 116.074 83.005 97.2238 82.9515C78.3785 83.005 66.1394 84.5897 58.712 87.9464C52.1818 90.897 49.2716 95.3072 49.2716 102.248C49.2716 117.224 46.6915 127.509 41.8084 131.991C41.6343 132.151 41.42 132.267 41.1879 132.33C41.0272 132.37 37.2467 133.308 33.4527 130.053C26.6278 124.188 24.4093 109.274 26.8643 85.7324C28.4355 70.6582 35.3585 57.7444 46.8835 48.3928C59.386 38.2466 76.803 32.9882 97.2373 33.1846C97.6033 33.1846 97.9693 33.1802 98.3353 33.1802C118.274 33.1802 135.285 38.4296 147.564 48.3928C159.089 57.7444 166.012 70.6582 167.583 85.7324C170.038 109.274 167.824 124.188 160.995 130.053C158.62 132.093 156.25 132.491 154.769 132.491L154.773 132.486ZM154.322 129.545C155.085 129.62 157.076 129.603 159.17 127.759C162.54 124.791 167.735 115.426 164.669 86.0359C162.142 61.8199 143.386 36.1084 98.38 36.1084C98.0006 36.1084 97.6212 36.1084 97.2373 36.1129C96.8579 36.1129 96.4695 36.1084 96.0946 36.1084C51.057 36.1084 32.3055 61.8199 29.7791 86.0359C26.7126 115.426 31.9082 124.791 35.2782 127.759C37.3627 129.598 39.358 129.62 40.1302 129.545C44.1385 125.505 46.3434 115.85 46.3434 102.253C46.3434 86.1565 60.1314 80.1303 97.2238 80.0321C134.321 80.1348 148.109 86.1565 148.109 102.253C148.109 115.85 150.314 125.505 154.322 129.545Z" fill="#232323"/>
<path d="M158.273 130.365C158.211 130.365 158.148 130.338 158.108 130.289C158.05 130.222 152.082 123.348 151.489 110.403C151.444 109.435 151.404 108.466 151.364 107.502C150.886 95.7039 150.435 84.5623 139.928 78.987C128.461 72.9029 115.32 72.6484 76.0673 74.9205C62.6409 75.6972 53.2405 79.0138 48.1252 84.7721C42.4877 91.1196 42.9654 99.0741 43.3136 104.881C43.4029 106.372 43.4788 107.658 43.4431 108.743C43.0012 121.384 40.3809 128.294 35.4308 129.865C35.3103 129.906 35.1898 129.839 35.1497 129.718C35.114 129.602 35.1765 129.477 35.297 129.437C40.0463 127.928 42.5637 121.152 42.9967 108.72C43.0324 107.658 42.9565 106.377 42.8672 104.899C42.5146 99.0116 42.028 90.9544 47.7905 84.4685C52.9861 78.621 62.4935 75.2553 76.0405 74.4696C115.387 72.1886 128.573 72.452 140.133 78.5853C150.868 84.2811 151.324 95.5477 151.806 107.475C151.846 108.435 151.881 109.403 151.926 110.372C152.515 123.161 158.376 129.914 158.434 129.981C158.514 130.075 158.505 130.214 158.416 130.298C158.372 130.334 158.322 130.356 158.269 130.356L158.273 130.365Z" fill="#232323"/>
<path d="M27.713 92.9556C32.739 74.2076 50.7853 64.3471 50.7853 64.3471L50.3034 50.8486C28.347 59.5307 28.3067 72.6096 28.3067 72.6096L25.5438 87.6883C25.3563 88.7105 25.5749 89.764 26.1507 90.6255L27.713 92.9556Z" fill="#AF6734"/>
<path d="M27.477 91.5094C27.3163 91.1881 27.0485 91.0184 26.9458 90.947C26.8923 90.9068 26.8833 90.8711 26.9011 90.8131L27.111 90.273C30.1641 81.948 35.7927 74.7658 42.5193 69.0833C44.9207 66.8648 47.7328 65.3427 50.0896 63.0617L49.3263 64.4008L48.8442 50.9023L50.8482 52.2102C43.7467 55.1206 36.4888 59.2362 32.2797 65.8292C30.9852 67.9674 29.9141 70.3555 29.7534 72.8686C29.2357 75.6987 27.6198 84.5147 27.1243 87.2108L27.0038 87.8625C26.8476 88.5455 27.0216 89.3266 27.4144 89.8712C27.6912 90.3801 27.3609 90.8533 27.477 91.505V91.5094ZM27.9545 94.3975C25.6781 92.9111 23.4508 90.2462 24.1203 87.3358C24.3346 86.1797 24.7408 83.9522 24.9551 82.7738L26.8654 72.3419L26.8432 72.6008C26.8566 72.1187 26.9057 71.8063 26.9726 71.3688C27.91 66.0078 31.3781 61.3431 35.3998 57.8748C38.5645 55.067 42.2024 52.9824 45.9607 51.1344L49.7681 49.4828C50.6831 49.0632 51.7857 49.7908 51.7723 50.7907C51.7723 50.8487 52.2542 64.2937 52.2542 64.3428C52.2721 64.9008 51.9597 65.3918 51.491 65.6239C50.7634 65.7489 50.0269 66.0881 49.3618 66.4542C44.8045 69.311 40.7294 72.9981 37.3326 77.1583C34.4402 80.7294 31.9986 84.662 30.414 88.974C30.2132 89.4963 29.847 90.5944 29.6952 91.13L29.5257 91.7014C29.298 92.6566 28.5571 93.7637 27.9545 94.3931V94.3975Z" fill="#232323"/>
<path d="M167.286 92.954C162.26 74.206 144.213 64.3455 144.213 64.3455L144.696 50.847C166.652 59.5291 166.692 72.608 166.692 72.608L169.455 87.6867C169.643 88.7089 169.424 89.7624 168.848 90.6239L167.286 92.954Z" fill="#AF6734"/>
<mask id="mask1_66_4355" style="mask-type:alpha" maskUnits="userSpaceOnUse" x="144" y="50" width="26" height="43">
<path d="M167.286 92.9542C162.26 74.2063 144.214 64.3458 144.214 64.3458L144.696 50.8472C166.652 59.5293 166.692 72.6082 166.692 72.6082L169.455 87.6869C169.643 88.7091 169.424 89.7626 168.848 90.6241L167.286 92.9542Z" fill="#AF6734"/>
</mask>
<g mask="url(#mask1_66_4355)">
<path d="M146.144 54.3448C138.531 38.0331 121.741 37.0622 114.297 38.6157L113.326 37.8389L110.413 39.3924C109.248 39.7808 106.801 40.1692 106.335 38.6157C105.869 37.0622 104.846 27.8707 104.393 23.4691L109.248 12.2062C110.543 12.1415 115.035 11.546 122.647 9.68185C132.162 7.3516 133.327 11.8179 138.376 12.983C143.425 14.1482 167.892 27.9354 170.223 30.6541C172.553 33.3727 182.845 68.1322 183.622 70.4624C184.398 72.7927 185.175 91.8229 169.446 90.2695C167.31 59.7821 146.48 54.9274 146.144 54.3448Z" fill="white"/>
</g>
<path d="M167.045 94.3959C166.451 93.7352 165.764 92.6416 165.554 91.6774L165.402 91.1016C165.125 90.066 164.737 88.8295 164.326 87.8475C162.742 83.9461 160.39 80.3796 157.662 77.1701C154.672 73.666 151.172 70.5949 147.405 67.9524C146.182 67.1043 144.847 66.2338 143.513 65.6312C143.008 65.3589 142.727 64.8322 142.75 64.2921L143.232 50.7936C143.232 49.9856 143.906 49.3339 144.713 49.3651C144.896 49.3696 145.075 49.4142 145.231 49.4812L149.039 51.1328C150.28 51.7533 151.511 52.3961 152.739 53.0433C158.787 56.5563 164.585 61.4174 167.143 68.1532C167.683 69.5817 168.085 71.0458 168.156 72.5992L168.134 72.3403L170.044 82.7722C170.259 83.9461 170.669 86.1736 170.879 87.3342C171.549 90.2401 169.326 92.9094 167.045 94.3959ZM167.522 91.5078C167.638 90.8561 167.308 90.3785 167.585 89.8741C167.978 89.3295 168.152 88.5483 167.996 87.8654L167.875 87.2136C167.393 84.5755 165.759 75.6569 165.246 72.8715C165.085 70.3584 164.014 67.9702 162.72 65.8321C158.51 59.2391 151.253 55.119 144.151 52.213L146.155 50.9051L145.673 64.4037L144.91 63.0645C147.61 64.8947 150.195 66.7561 152.627 68.9121C159.274 74.7329 164.559 82.0714 167.79 90.3071L168.018 90.8427C168.045 90.9052 168.045 90.9454 168.005 90.9855C167.929 91.057 167.679 91.2132 167.522 91.5123V91.5078Z" fill="#232323"/>
<path d="M85.3741 57.7433H109.692L110.187 43.5618H85.9364L85.3741 57.7433Z" fill="#AF6734"/>
<path d="M86.4319 56.7303C94.02 56.833 102.037 56.8285 109.692 56.2795L108.228 57.6945L108.727 43.513L110.192 45.0307H85.9408L87.4048 43.6246C87.2441 48.0482 86.8737 52.3022 86.4362 56.7348L86.4319 56.7303ZM84.316 58.7613C84.2446 53.744 84.2536 48.5437 84.4723 43.5041C84.5035 42.7185 85.1551 42.098 85.9363 42.098H110.187C111.013 42.098 111.682 42.7899 111.651 43.6157L111.151 57.7972C111.173 58.6006 110.495 59.2702 109.687 59.2122C107.571 59.0604 105.478 58.9533 103.385 58.8908C96.9793 58.6944 90.8418 58.6631 84.316 58.7613Z" fill="#232323"/>
<path d="M72.4373 66.2184C83.974 62.3648 91.1744 52.7978 88.5199 44.85C85.8653 36.9021 74.3609 33.583 62.8243 37.4366C51.2876 41.2902 44.0874 50.8571 46.742 58.805C49.3965 66.7528 60.9007 70.072 72.4373 66.2184Z" fill="#AF6734"/>
<path d="M62.8858 69.3811C60.4397 69.3811 58.0785 69.0642 55.8824 68.4348C50.5529 66.8948 46.8258 63.6719 45.3841 59.3599C43.9423 55.0434 44.9867 50.227 48.3255 45.7945C51.5393 41.5226 56.5385 38.0944 62.3947 36.1393C74.6785 32.037 87.0383 35.7777 89.9441 44.4776C92.8499 53.1776 85.217 63.5961 72.9332 67.6983C69.5811 68.8187 66.162 69.3811 62.8901 69.3811H62.8858ZM72.4825 37.3802C69.5678 37.3802 66.4476 37.8757 63.3186 38.9202C58.0159 40.6923 53.5211 43.759 50.66 47.5621C47.9193 51.2001 47.031 55.0613 48.1603 58.4359C49.2851 61.8105 52.316 64.3638 56.6947 65.6226C61.2654 66.9394 66.702 66.6939 72.0048 64.9218C82.7575 61.3285 89.56 52.575 87.1631 45.4061C85.4669 40.3218 79.593 37.3802 72.4825 37.3802Z" fill="#232323"/>
<path d="M69.8213 59.0554C77.0791 56.6311 81.6091 50.6131 79.9393 45.6138C78.2696 40.6145 71.0324 38.5271 63.7747 40.9514C56.5169 43.3757 51.9869 49.3937 53.6567 54.393C55.3264 59.3923 62.5636 61.4797 69.8213 59.0554Z" fill="#232323"/>
<mask id="mask2_66_4355" style="mask-type:alpha" maskUnits="userSpaceOnUse" x="54" y="40" width="26" height="20">
<path d="M69.549 58.2429C76.1552 56.0362 80.2785 50.5585 78.7586 46.008C77.2388 41.4575 70.6513 39.5575 64.0451 41.7642C57.4389 43.9708 53.3156 49.4486 54.8355 53.999C56.3553 58.5495 62.9428 60.4495 69.549 58.2429Z" fill="#232323"/>
</mask>
<g mask="url(#mask2_66_4355)">
<path d="M67.554 62.3946L72.7051 39.8436C74.4002 39.3949 76.8389 39.3925 78.3695 39.391L78.4285 39.3909L73.2775 62.3946C71.7512 62.9358 68.8259 62.6201 67.554 62.3946Z" fill="white"/>
</g>
<path d="M147.185 58.9293C149.84 50.9814 142.639 41.4143 131.103 37.5608C119.566 33.7072 108.062 37.0264 105.407 44.9743C102.753 52.9221 109.953 62.489 121.49 66.3426C133.026 70.1961 144.531 66.8771 147.185 58.9293Z" fill="#AF6734"/>
<mask id="mask3_66_4355" style="mask-type:alpha" maskUnits="userSpaceOnUse" x="104" y="35" width="44" height="33">
<path d="M147.185 58.9294C149.839 50.9815 142.639 41.4145 131.103 37.5609C119.566 33.7073 108.062 37.0265 105.407 44.9744C102.752 52.9223 109.953 62.4891 121.489 66.3427C133.026 70.1963 144.53 66.8773 147.185 58.9294Z" fill="#AF6734"/>
</mask>
<g mask="url(#mask3_66_4355)">
<path d="M146.143 54.3448C139.346 38.6156 121.287 36.6738 111.966 39.3924L113.325 37.8389L110.412 39.3924C109.247 39.7808 106.8 40.1691 106.334 38.6156C105.868 37.0621 104.846 27.8706 104.393 23.469L109.247 12.2062C110.542 12.1415 115.034 11.546 122.646 9.68179C132.161 7.35154 133.326 11.8178 138.375 12.983C143.424 14.1481 167.892 27.9354 170.222 30.654C172.552 33.3726 182.844 68.1321 183.621 70.4623C184.398 72.7926 183.621 91.2404 167.892 89.6869C166.532 58.6169 146.479 54.9273 146.143 54.3448Z" fill="white"/>
</g>
<path d="M130.899 69.3628C127.703 69.3628 124.315 68.8271 120.927 67.6978C115.066 65.7426 110.072 62.31 106.858 58.0426C103.523 53.61 102.479 48.7936 103.916 44.4771C105.358 40.1606 109.085 36.9378 114.415 35.4022C119.552 33.9202 125.605 34.1836 131.465 36.1387C143.749 40.241 151.382 50.6595 148.476 59.3594C146.37 65.6623 139.304 69.3628 130.899 69.3628ZM121.427 37.3797C119.258 37.3797 117.169 37.6564 115.232 38.2144C110.857 39.4777 107.826 42.031 106.697 45.4011C105.572 48.7757 106.461 52.6369 109.197 56.2749C112.058 60.0781 116.553 63.1447 121.855 64.9168C132.608 68.5057 143.303 65.5953 145.7 58.4265C148.092 51.2576 141.294 42.5041 130.542 38.9108C127.484 37.8886 124.382 37.3752 121.427 37.3752V37.3797Z" fill="#232323"/>
<path d="M140.268 54.5221C141.938 49.5228 137.408 43.5049 130.15 41.0806C122.892 38.6563 115.655 40.7437 113.985 45.743C112.316 50.7422 116.846 56.7602 124.103 59.1845C131.361 61.6088 138.598 59.5214 140.268 54.5221Z" fill="#232323"/>
<mask id="mask4_66_4355" style="mask-type:alpha" maskUnits="userSpaceOnUse" x="114" y="41" width="26" height="19">
<path d="M139.051 54.1176C140.566 49.5818 136.456 44.1218 129.871 41.9223C123.287 39.7228 116.72 41.6166 115.205 46.1524C113.691 50.6882 117.801 56.1482 124.385 58.3477C130.97 60.5472 137.536 58.6534 139.051 54.1176Z" fill="#232323"/>
</mask>
<g mask="url(#mask4_66_4355)">
<rect x="132.066" y="37.0644" width="5.66704" height="24.0792" transform="rotate(18.091 132.066 37.0644)" fill="white"/>
<rect x="137.836" y="40.1684" width="1.74482" height="24.0792" transform="rotate(18.091 137.836 40.1684)" fill="white"/>
</g>
</svg>
