<svg width="194" height="194" viewBox="0 0 194 194" fill="none" xmlns="http://www.w3.org/2000/svg">
<path d="M33.9834 110.602C42.9429 110.602 50.206 103.338 50.206 94.3784C50.206 85.4186 42.9429 78.1551 33.9834 78.1551C25.024 78.1551 17.7609 85.4186 17.7609 94.3784C17.7609 103.338 25.024 110.602 33.9834 110.602Z" fill="#ECC7D0"/>
<path d="M33.9525 112.359C29.7441 112.359 25.7125 110.901 22.4476 108.167C18.7646 105.084 16.5022 100.752 16.0733 95.9698C15.6498 91.1875 17.108 86.5232 20.1906 82.8346C23.2733 79.1514 27.605 76.8889 32.3871 76.46C37.1691 76.0365 41.8332 77.4948 45.5216 80.5775C49.2047 83.6603 51.4671 87.9922 51.896 92.7745C52.3195 97.5568 50.8612 102.221 47.7786 105.91C44.696 109.593 40.3643 111.855 35.5822 112.284C35.0408 112.333 34.4939 112.359 33.9578 112.359H33.9525ZM34.0115 79.9127C33.5772 79.9127 33.1429 79.9342 32.7033 79.9717C28.8541 80.3148 25.3695 82.1376 22.8926 85.0971C20.4158 88.0619 19.2364 91.8094 19.5795 95.6589C19.9226 99.5083 21.7454 102.993 24.7047 105.47C27.6693 107.947 31.4167 109.126 35.2659 108.783C39.1152 108.44 42.5999 106.617 45.0767 103.658C47.5535 100.693 48.7329 96.9456 48.3898 93.0962C48.0467 89.2467 46.224 85.7619 43.2647 83.285C40.6377 81.0868 37.3943 79.9127 34.0115 79.9127Z" fill="#232323"/>
<path d="M39.4711 88.8023C56.8194 77.7151 77.2773 58.9559 77.2773 58.9559L84.5039 76.927C84.5039 76.927 59.4517 93.6382 47.6735 95.4717C35.8953 97.3053 31.8047 93.6972 39.4657 88.8023H39.4711Z" fill="#BB1C4D"/>
<path d="M42.0336 97.7162C38.4632 97.7162 34.9945 97.0086 34.0349 94.4673C33.4398 92.8964 33.74 90.382 38.5275 87.3207C55.5488 76.4426 75.8887 57.8496 76.0924 57.6619C76.516 57.2706 77.1056 57.1151 77.6686 57.2438C78.2315 57.3724 78.6979 57.7692 78.9124 58.3053L86.1391 76.2764C86.45 77.0484 86.1766 77.933 85.485 78.3941C84.4503 79.0857 59.9717 95.3412 47.9469 97.2123C46.2635 97.475 44.1298 97.7216 42.0283 97.7216L42.0336 97.7162ZM76.5856 61.9456C71.1066 66.8351 54.6428 81.1927 40.4199 90.2801C37.4499 92.178 37.332 93.2449 37.332 93.2556C37.5357 93.5934 40.0018 94.8801 47.4108 93.7274C57.2483 92.1941 77.2557 79.5361 82.3434 76.2389L76.591 61.9403L76.5856 61.9456Z" fill="#232323"/>
<path d="M35.814 119.677C39.17 108.338 82.0852 32.8722 104.264 47.7123C104.264 47.7123 113.496 40.7104 124.041 51.0738C134.591 61.4318 148.857 78.0948 155.805 90.2757C162.758 102.457 168.152 124.154 168.152 124.154L98.9833 105.255L35.8086 119.677H35.814Z" fill="#BB1C4D"/>
<path d="M135.097 70.4554C125.866 58.0729 116.186 45.4652 106.505 47.7165L111.458 45.6913L120.463 47.7165L135.097 62.3515L144.778 75.6346L156.935 93.1954L159.412 101.751H154.909L151.307 97.6981C148.981 92.7448 142.482 80.3615 135.097 70.4554Z" fill="#E63B70"/>
<path d="M168.152 125.912C167.997 125.912 167.841 125.89 167.686 125.848L98.9463 107.067L36.2005 121.387C35.5947 121.526 34.9567 121.333 34.5278 120.878C34.0989 120.422 33.9488 119.773 34.1257 119.173C37.0529 109.281 68.3454 53.6575 91.8375 45.1706C96.4909 43.4871 100.662 43.648 104.259 45.6478C107.208 44.0233 115.898 40.6081 125.269 49.8135C135.648 60.0053 150.107 76.738 157.334 89.4014C164.324 101.652 169.637 122.829 169.862 123.724C170.012 124.33 169.83 124.968 169.385 125.408C169.053 125.735 168.608 125.906 168.158 125.912H168.152ZM98.9838 103.502C99.1393 103.502 99.2947 103.523 99.4448 103.566L165.665 121.655C163.944 115.361 159.526 100.36 154.272 91.1545C147.528 79.3328 133.332 62.6806 122.803 52.3333C113.523 43.2191 105.642 48.8806 105.31 49.1272C104.709 49.5722 103.895 49.5937 103.278 49.1809C100.41 47.2615 97.0592 47.0363 93.0277 48.4892C72.7093 55.8289 44.9765 102.697 38.629 117.232L98.5925 103.544C98.7211 103.518 98.8551 103.502 98.9838 103.502Z" fill="#232323"/>
<path d="M175.557 129.552C175.557 129.552 178.736 125.177 174.78 122.716C174.78 122.716 180.296 117.264 170.464 112.647C170.464 112.647 173.761 108.09 165.43 107.79C165.43 107.79 165.012 100.118 154.762 101.614C154.762 101.614 155.303 95.3787 146.248 97.7752C146.248 97.7752 141.874 90.8806 134.679 93.4593C134.679 93.4593 132.342 88.1838 127.179 93.2181C127.179 93.2181 119.759 85.3048 113.106 91.1808C113.106 91.1808 108.849 85.9053 105.016 91.2398C105.016 91.2398 97.4626 83.9859 92.5518 91.8992C92.5518 91.8992 86.081 84.4041 80.2053 92.1405C80.2053 92.1405 73.4343 85.1868 68.7595 92.9178C68.7595 92.9178 63.4842 89.0202 60.0102 95.6146C60.0102 95.6146 52.5154 93.0358 51.261 99.6892C51.261 99.6892 43.5303 97.5929 43.8895 104.005C43.8895 104.005 36.2178 103.464 39.1557 109.157C39.1557 109.157 31.484 109.575 32.3204 115.993C32.3204 115.993 26.0854 117.853 28.0047 123.123C28.0047 123.123 22.5525 126.598 28.1227 130.308C28.1227 130.308 24.1662 133.01 28.5408 135.84C28.5408 135.84 28.841 140.564 32.0147 139.186L32.2775 137.947C33.5373 140.596 35.0438 142.376 35.0438 142.376C32.3739 130.656 47.4493 119.944 65.1622 119.145C82.8751 118.347 108.292 119.145 124.595 119.145C140.898 119.145 161.881 123.719 167.135 139.492L168.191 148.767C168.191 148.767 168.598 148.45 169.177 147.828C169.177 147.828 178.259 145.893 175.445 140.741C175.445 140.741 178.559 140.923 176.522 134.688C176.522 134.688 178.677 133.728 175.563 129.536L175.557 129.552Z" fill="#ECC7D0"/>
<path d="M106.507 91.3918C106.76 91.2074 107.029 91.0948 107.307 91.0421L110.109 89.8171H115.062L119.565 88.9166L124.743 91.3918L131.497 92.0685L141.628 93.4193L147.032 97.4718H152.435L156.487 101.749L162.116 102.65L165.943 106.702L170.896 108.954L171.572 112.331C170.896 111.881 169.14 110.935 167.519 110.755C165.493 110.53 163.467 111.205 162.116 106.702C161.035 103.1 155.662 104.001 153.11 104.901C153.335 104.526 153.516 103.235 152.435 101.074C151.354 98.9127 146.882 100.624 144.78 101.749C144.705 101.224 143.79 99.6331 140.728 97.4718C137.666 95.3105 135.249 96.5712 134.424 97.4718C134.499 97.0966 134.289 95.9856 132.848 94.5437C131.407 93.1018 127.595 95.1445 125.869 96.3461C124.968 95.2204 122.447 92.7889 119.565 92.0685C116.683 91.348 113.711 93.4184 112.586 94.5437C111.538 93.104 109.202 90.6826 107.307 91.0421L106.507 91.3918Z" fill="white"/>
<path d="M168.185 150.545C167.954 150.545 167.724 150.502 167.504 150.405C166.919 150.159 166.507 149.617 166.437 148.984L165.402 139.897C159.376 122.296 132.657 120.923 124.588 120.923C119.485 120.923 113.486 120.843 107.133 120.763C93.178 120.58 77.3629 120.377 65.2362 120.923C54.305 121.417 44.1083 125.856 39.2458 132.236C36.8708 135.356 36.0077 138.734 36.7475 142.004C36.9298 142.798 36.5438 143.607 35.8201 143.972C35.091 144.331 34.2117 144.154 33.6917 143.532C33.6434 143.478 32.8768 142.562 31.9654 141.082C30.6841 141.42 29.7192 141.087 29.108 140.712C27.6284 139.806 27.0869 137.983 26.8832 136.852C25.4571 135.747 24.728 134.471 24.7119 133.056C24.7012 132.037 25.0711 131.169 25.5322 130.493C24.3956 129.346 23.8327 128.086 23.8434 126.724C23.8649 124.81 25.0604 123.341 25.9878 122.484C25.7198 121.057 25.8968 119.69 26.5133 118.468C27.4729 116.559 29.2527 115.433 30.4911 114.844C30.534 113.23 31.0594 111.788 32.0298 110.619C33.3807 108.995 35.3054 108.19 36.8011 107.799C36.5438 106.357 36.9191 105.317 37.3694 104.63C38.4792 102.942 40.6343 102.427 42.2158 102.288C42.5106 100.615 43.3362 99.5908 44.076 98.9903C45.8613 97.5428 48.3488 97.5052 50.0054 97.6929C50.7184 95.9076 51.8657 94.9157 52.8039 94.3689C55.0019 93.0929 57.5859 93.2913 59.1621 93.5968C60.4058 91.7472 61.9499 90.6052 63.7565 90.1924C65.5096 89.7903 67.0911 90.1817 68.1955 90.6428C69.643 88.8253 71.3692 87.7959 73.3528 87.5707C76.0655 87.2598 78.5155 88.6162 80.0005 89.6938C81.7643 87.9031 83.7372 86.9649 85.887 86.9006C88.5729 86.8094 90.8674 88.1712 92.2988 89.2971C93.7195 87.6941 95.4028 86.7612 97.3167 86.5199C100.362 86.1393 103.176 87.678 104.795 88.8306C106.227 87.4903 107.647 87.1418 108.688 87.1097C110.585 87.0561 112.21 88.0211 113.239 88.8735C118.429 85.4477 124.042 88.1605 127.226 90.8626C128.942 89.5705 130.625 89.0719 132.239 89.3829C133.75 89.6724 134.796 90.5999 135.445 91.4148C140.752 90.2031 144.912 93.2752 146.976 95.8057C150.284 95.1302 152.82 95.5055 154.519 96.9369C155.522 97.7787 156.026 98.8027 156.278 99.698C159.516 99.5157 162.132 100.218 164.078 101.81C165.751 103.177 166.523 104.904 166.876 106.132C169.83 106.443 171.669 107.397 172.468 109.037C172.956 110.035 172.918 111.026 172.72 111.836C175.803 113.578 177.572 115.659 177.985 118.039C178.29 119.824 177.743 121.363 177.143 122.425C177.797 123.154 178.226 124.006 178.413 124.95C178.762 126.73 178.167 128.413 177.636 129.475C178.826 131.335 179.234 132.911 178.875 134.262C178.783 134.605 178.649 134.911 178.489 135.174C179.234 137.908 179.1 139.886 178.092 141.2C177.952 141.382 177.797 141.543 177.636 141.688C177.883 142.932 177.625 143.956 177.293 144.674C175.915 147.676 171.648 149.038 170.072 149.446C169.616 149.896 169.305 150.143 169.262 150.175C168.946 150.421 168.565 150.545 168.179 150.545H168.185ZM84.8201 117.047C92.2666 117.047 99.9705 117.149 107.181 117.24C113.523 117.321 119.506 117.401 124.588 117.401C133.279 117.401 162.143 118.956 168.796 138.953C168.833 139.071 168.86 139.189 168.876 139.307L169.627 145.912C171.208 145.441 173.524 144.449 174.098 143.2C174.237 142.889 174.344 142.433 173.889 141.602C173.583 141.039 173.605 140.358 173.948 139.817C174.253 139.334 174.768 139.034 175.331 139.002C175.422 138.798 175.701 137.881 174.843 135.249C174.602 134.509 174.875 133.715 175.481 133.276C175.481 133.029 175.347 132.22 174.141 130.595C173.685 129.979 173.68 129.142 174.125 128.52C174.436 128.086 175.181 126.714 174.961 125.615C174.891 125.266 174.698 124.741 173.846 124.21C173.39 123.926 173.085 123.449 173.026 122.912C172.967 122.376 173.154 121.846 173.535 121.465C173.535 121.465 174.795 120.151 174.511 118.607C174.237 117.095 172.575 115.584 169.707 114.238C169.235 114.013 168.881 113.595 168.753 113.085C168.619 112.576 168.726 112.04 169.032 111.616C169.214 111.353 169.423 110.801 169.31 110.576C169.155 110.265 168.126 109.649 165.359 109.547C164.448 109.515 163.713 108.791 163.665 107.885C163.665 107.82 163.494 105.842 161.816 104.496C160.32 103.295 158.025 102.909 155.007 103.354C154.476 103.435 153.935 103.263 153.544 102.893C153.152 102.523 152.954 101.998 152.997 101.462C152.997 101.462 153.05 100.277 152.23 99.6069C151.281 98.8295 149.308 98.7866 146.687 99.4782C145.947 99.6766 145.164 99.3656 144.751 98.7223C144.607 98.4971 141.009 93.0607 135.262 95.1195C134.394 95.4304 133.434 95.0176 133.059 94.1759C133.059 94.1759 132.48 92.9964 131.552 92.8248C130.764 92.6801 129.639 93.2698 128.395 94.4815C128.057 94.8139 127.601 94.9961 127.13 94.9801C126.658 94.9693 126.207 94.771 125.886 94.4225C125.634 94.1544 119.538 87.8388 114.258 92.4978C113.898 92.8141 113.427 92.9749 112.944 92.932C112.467 92.8892 112.027 92.6586 111.722 92.2833C111.331 91.8115 110.022 90.5623 108.768 90.6106C107.985 90.6374 107.197 91.195 106.431 92.2619C106.13 92.6747 105.669 92.9428 105.16 92.9857C104.651 93.0285 104.147 92.857 103.782 92.5031C102.935 91.6989 100.19 89.6777 97.7349 89.9887C96.3089 90.171 95.0973 91.0985 94.0304 92.8195C93.7355 93.2966 93.2316 93.6022 92.674 93.6451C92.1165 93.688 91.5697 93.4628 91.2051 93.0393C91.1837 93.0178 88.7605 90.2943 85.9727 90.3908C84.4395 90.4444 82.9652 91.388 81.5928 93.1947C81.2818 93.6022 80.81 93.8542 80.3007 93.8864C79.7861 93.9185 79.2928 93.7255 78.9337 93.3556C78.2153 92.6265 75.8779 90.7875 73.7388 91.0395C72.4468 91.1896 71.2727 92.1279 70.2488 93.8167C69.9914 94.2402 69.5679 94.5351 69.0854 94.6316C68.6029 94.7281 68.0936 94.6155 67.6969 94.3206C67.6969 94.3206 66.1314 93.2216 64.5124 93.6022C63.3919 93.8649 62.3948 94.8139 61.5478 96.4223C61.1457 97.1889 60.2396 97.5481 59.4194 97.264C58.6045 96.9906 56.1224 96.4759 54.5516 97.3927C53.726 97.8752 53.206 98.7276 52.9647 100.004C52.8736 100.486 52.5841 100.91 52.1713 101.167C51.7585 101.43 51.2491 101.499 50.7774 101.376C49.9786 101.162 47.4268 100.765 46.2795 101.698C46.0972 101.848 45.5343 102.304 45.6254 103.891C45.6522 104.395 45.4646 104.888 45.1054 105.242C44.7462 105.595 44.253 105.778 43.749 105.746C42.4302 105.654 40.6665 105.976 40.3019 106.534C40.1572 106.753 40.1893 107.343 40.6986 108.335C40.972 108.866 40.9559 109.498 40.661 110.013C40.3662 110.533 39.8248 110.866 39.2297 110.898C38.3826 110.951 35.9058 111.402 34.721 112.839C34.1099 113.584 33.8847 114.533 34.0455 115.744C34.1581 116.602 33.6327 117.412 32.8018 117.658C32.1585 117.857 30.3142 118.677 29.6441 120.028C29.2903 120.736 29.2903 121.545 29.6387 122.505C29.9229 123.282 29.628 124.146 28.9311 124.591C28.4218 124.923 27.3603 125.888 27.3549 126.73C27.3549 127.341 27.9661 128.086 29.0812 128.826C29.569 129.148 29.8639 129.695 29.8639 130.279C29.8639 130.863 29.5798 131.41 29.0973 131.743C28.7971 131.957 28.2127 132.547 28.2234 132.976C28.2288 133.249 28.5611 133.753 29.4779 134.348C29.9443 134.648 30.2445 135.158 30.2767 135.715C30.3142 136.262 30.4751 136.841 30.6466 137.233C30.8932 136.664 31.424 136.257 32.0566 136.182C32.5176 136.128 32.9626 136.257 33.3164 136.519C33.8257 134.305 34.8711 132.134 36.4419 130.07C41.9048 122.896 53.1416 117.91 65.07 117.374C71.0047 117.106 77.7972 117.015 84.8148 117.015L84.8201 117.047ZM175.454 139.002C175.481 139.002 175.513 139.002 175.54 139.002C175.508 139.002 175.476 139.002 175.454 139.002Z" fill="#232323"/>
</svg>
