<svg width="194" height="194" viewBox="0 0 194 194" fill="none" xmlns="http://www.w3.org/2000/svg">
<path d="M61.0446 115.232C90.6597 115.232 102.462 105.775 102.279 54.7579C102.279 54.7579 103.84 48.0386 112.053 45.0503C120.266 42.0621 127.954 41.8284 128.338 47.2957C128.722 52.763 128.338 69.6823 128.338 83.3714C128.338 97.0604 136.385 106.017 143.905 106.017V128.044L127.228 151.257H101.102L88.4144 136.25H56.9796C53.4488 136.25 50.7027 133.161 51.1284 129.655L52.2719 120.098C52.6642 116.851 55.6274 114.539 58.8744 114.948L61.0446 115.223V115.232Z" fill="#F5F5F5"/>
<path d="M127.236 153.353H101.11C100.492 153.353 99.9165 153.086 99.5159 152.61L87.4461 138.345H56.9796C54.7009 138.345 52.5223 137.368 51.0115 135.657C49.5007 133.946 48.7829 131.676 49.0583 129.413L50.2019 119.848C50.4523 117.719 51.529 115.825 53.2151 114.506C54.9095 113.187 57.0047 112.611 59.1331 112.878L61.1698 113.137C75.4265 113.12 83.5314 110.816 89.1406 105.191C96.9784 97.3193 100.284 82.2363 100.192 54.758C100.192 54.5994 100.209 54.4325 100.25 54.2739C100.326 53.9567 102.179 46.411 111.344 43.0806C115.55 41.5531 123.255 39.4079 127.62 42.2459C129.306 43.3393 130.275 45.0338 130.425 47.1372C130.684 50.7848 130.608 59.0066 130.525 68.5305C130.483 73.4803 130.433 78.6054 130.433 83.3548C130.433 95.6499 137.403 103.913 143.914 103.913C145.065 103.913 146 104.848 146 106V128.028C146 128.462 145.867 128.888 145.608 129.247L128.939 152.468C128.547 153.01 127.912 153.336 127.245 153.336L127.236 153.353ZM102.078 149.179H126.168L141.827 127.377V107.928C133.989 106.534 126.26 97.4111 126.26 83.3798C126.26 78.6054 126.31 73.472 126.351 68.5138C126.435 59.4741 126.51 50.9351 126.268 47.4544C126.193 46.4361 125.742 46.0187 125.358 45.7683C123.363 44.4745 118.43 44.967 112.779 47.0287C106.486 49.3158 104.708 53.9984 104.374 55.0585C104.449 83.5718 100.776 99.4645 92.1038 108.162C84.0489 116.242 71.8873 117.335 61.0446 117.335C60.9528 117.335 60.8693 117.335 60.7775 117.319L58.6073 117.043C57.5973 116.91 56.5873 117.185 55.786 117.82C54.9763 118.446 54.4672 119.355 54.3503 120.374L53.2068 129.939C53.0732 131.033 53.4071 132.093 54.1417 132.919C54.8762 133.746 55.8862 134.196 56.988 134.196H88.4227C89.0404 134.196 89.6164 134.463 90.017 134.939L102.087 149.204L102.078 149.179Z" fill="#232323"/>
<path d="M116.034 136.508C124.761 136.508 131.835 129.434 131.835 120.707C131.835 111.981 124.761 104.907 116.034 104.907C107.307 104.907 100.233 111.981 100.233 120.707C100.233 129.434 107.307 136.508 116.034 136.508Z" fill="#232323"/>
<path d="M116.194 125.996C119.19 125.996 121.619 123.567 121.619 120.571C121.619 117.574 119.19 115.145 116.194 115.145C113.197 115.145 110.768 117.574 110.768 120.571C110.768 123.567 113.197 125.996 116.194 125.996Z" fill="#FF4343"/>
<path d="M79.1489 136.099C78.815 136.099 78.4978 135.891 78.3726 135.557L75.5931 128.228L52.088 128.053C51.6289 128.053 51.2533 127.669 51.2616 127.21C51.2616 126.751 51.6372 126.383 52.0963 126.383L76.169 126.567C76.5112 126.567 76.8201 126.784 76.9453 127.11L79.9335 134.972C80.1004 135.407 79.8834 135.882 79.4494 136.049C79.3492 136.083 79.249 136.108 79.1489 136.108V136.099Z" fill="#232323"/>
<path d="M112.37 85.3332H101.168C100.709 85.3332 100.333 84.9576 100.333 84.4985C100.333 84.0395 100.709 83.6638 101.168 83.6638H111.535V45.7685C111.535 45.3094 111.911 44.9338 112.37 44.9338C112.829 44.9338 113.204 45.3094 113.204 45.7685V84.4985C113.204 84.9576 112.829 85.3332 112.37 85.3332Z" fill="#232323"/>
<path d="M115.45 144.872H106.21C105.751 144.872 105.375 144.497 105.375 144.038C105.375 143.579 105.751 143.203 106.21 143.203H114.615V133.863C114.615 133.404 114.991 133.028 115.45 133.028C115.909 133.028 116.285 133.404 116.285 133.863V144.038C116.285 144.497 115.909 144.872 115.45 144.872Z" fill="#232323"/>
</svg>
