<svg width="194" height="194" viewBox="0 0 194 194" fill="none" xmlns="http://www.w3.org/2000/svg">
<path d="M20.999 82.3941V94.2293H26.836V99.8076H33.0757V106.139H38.6654V111.815H79.9159V106.059H85.8279V100.141H91.5037V88.3117H98.1461V82.3941H20.999Z" fill="#232323"/>
<path d="M39.5744 88.3117H33.6396V94.2466H39.5744V88.3117Z" fill="white"/>
<path d="M45.5087 94.2465H39.574V100.181H45.5087V94.2465Z" fill="white"/>
<path d="M57.3842 94.2465H51.4492V100.181H57.3842V94.2465Z" fill="white"/>
<path d="M51.4494 88.3117H45.5146V94.2466H51.4494V88.3117Z" fill="white"/>
<path d="M51.4494 100.181H45.5146V106.116H51.4494V100.181Z" fill="white"/>
<path d="M63.3188 100.181H57.384V106.116H63.3188V100.181Z" fill="white"/>
<path d="M174.001 82.3941V94.2293H168.164V99.8076H161.924V106.139H156.334V111.815H115.083V106.059H109.172V100.141H103.496V88.3117H96.8535V82.3941H174.001Z" fill="#232323"/>
<path d="M161.36 88.3117H155.425V94.2466H161.36V88.3117Z" fill="white"/>
<path d="M155.419 94.2465H149.485V100.181H155.419V94.2465Z" fill="white"/>
<path d="M143.55 94.2465H137.615V100.181H143.55V94.2465Z" fill="white"/>
<path d="M149.485 88.3117H143.55V94.2466H149.485V88.3117Z" fill="white"/>
<path d="M149.485 100.181H143.55V106.116H149.485V100.181Z" fill="white"/>
<path d="M137.615 100.181H131.681V106.116H137.615V100.181Z" fill="white"/>
</svg>
