<svg width="194" height="194" viewBox="0 0 194 194" fill="none" xmlns="http://www.w3.org/2000/svg">
<g clip-path="url(#clip0_66_3955)">
<path d="M147.567 91.0319L152.654 77.0217L159.312 75.8842L159.193 81.6617L160.079 75.7455L172.71 73.9422L170.749 88.0981L178.502 96.643L165.111 98.2868L161.782 95.8731L161.531 99.4589L154.322 100.458L147.567 91.0319Z" fill="#39BF7B"/>
<path d="M173.079 71.0202C173.787 70.9142 174.502 71.1608 175.009 71.686C175.517 72.2114 175.758 72.9551 175.661 73.6933L173.853 87.3668L180.862 95.4613C181.431 96.1185 181.601 97.0514 181.304 97.8806C181.007 98.7096 180.292 99.2979 179.448 99.4064L166.117 101.121C165.542 101.195 164.962 101.038 164.495 100.683L164.458 100.655C164.211 101.536 163.49 102.208 162.589 102.339L155.412 103.381C154.571 103.503 153.734 103.128 153.242 102.407L146.517 92.5742C146.083 91.9399 145.975 91.1246 146.229 90.3921L151.293 75.7764L151.35 75.6285C151.656 74.9018 152.293 74.3785 153.051 74.2428L159.678 73.0563C159.801 73.0343 159.925 73.0238 160.048 73.0229C160.194 72.9676 160.346 72.9251 160.505 72.9014L173.079 71.0202ZM162.832 77.3479L162.2 81.7718C162.023 83.0102 160.953 83.8926 159.755 83.7874C158.557 83.6821 157.644 82.6256 157.668 81.3739L157.729 78.2207L155.13 78.686L150.921 90.833L156.152 98.4809L160.129 97.9037L160.251 96.0828L160.266 95.9228C160.372 95.128 160.858 94.4378 161.562 94.0962C162.314 93.7318 163.197 93.8217 163.867 94.3308L166.452 96.2949L174.545 95.2544L169.759 89.7262C169.309 89.2066 169.102 88.5066 169.194 87.8135L170.733 76.1659L162.832 77.3479Z" fill="#232323"/>
<path d="M119.947 92.7483C134.023 90.1026 148.224 88.0563 162.509 87.2012C163.95 87.1354 164.277 89.3353 162.864 89.7153C148.962 93.2891 134.816 95.6935 120.621 97.4987C117.734 97.7764 117.101 93.3914 119.947 92.7556V92.7483Z" fill="#232323"/>
<path d="M72.9256 97.7197C73.9241 91.0551 83.2572 91.8463 84.1239 97.0782C84.8104 101.198 81.808 112.025 80.5044 116.43C80.1854 117.514 79.1176 118.163 78.0429 117.934C76.8987 117.699 76.1568 116.559 76.3718 115.376L78.2231 105.347L76.3718 105.133C73.7923 104.833 72.0103 102.324 72.5303 99.7084L72.9256 97.7126V97.7197Z" fill="#232323"/>
<path d="M60.6552 99.9774L49.6226 89.9915L29.7205 104.898L52.1147 110.615L60.6552 99.9774Z" fill="white"/>
<path d="M47.6892 87.3788C48.5331 86.8592 49.6181 86.9507 50.3699 87.6256L61.3486 97.4825C62.2803 98.3189 62.3926 99.7641 61.6017 100.741L53.1027 111.241C52.5431 111.932 51.6476 112.235 50.7969 112.019L28.5117 106.377C27.6481 106.158 26.9868 105.445 26.8167 104.55C26.6466 103.655 26.9982 102.74 27.7183 102.205L47.5239 87.4911L47.6892 87.3788ZM34.3862 103.037L50.5011 107.118L56.6641 99.5046L48.7294 92.3811L34.3862 103.037Z" fill="#232323"/>
<path d="M77.7233 101.283C68.9111 102.033 60.0353 101.728 51.2019 101.637C50.1322 101.604 50.026 99.7745 51.0885 99.585C59.8369 98.1507 68.5995 96.4856 77.4187 95.8838C80.4009 95.8344 80.6843 100.871 77.7233 101.283Z" fill="#232323"/>
<path d="M120.83 91.9038C114.728 90.4843 114.41 94.6598 114.229 98.1013C114.084 100.864 112.752 108.904 112.231 111.964C112.115 112.636 112.578 113.266 113.273 113.405C113.99 113.543 114.685 113.1 114.83 112.421L116.979 102.284C117.095 101.744 117.645 101.397 118.203 101.508C118.753 101.612 119.115 102.125 119.021 102.651L114.54 127.503C114.345 128.604 115.097 129.657 116.241 129.878C117.435 130.107 118.586 129.359 118.796 128.216C119.896 122.24 123.009 105.199 123.704 100.677C124.551 95.1722 123.559 92.5409 120.83 91.9038Z" fill="#232323"/>
</g>
<defs>
<clipPath id="clip0_66_3955">
<rect width="193.507" height="193.507" rx="24" fill="white"/>
</clipPath>
</defs>
</svg>
