<svg width="194" height="194" viewBox="0 0 194 194" fill="none" xmlns="http://www.w3.org/2000/svg">
<path d="M97.7944 97.7971C102.854 97.7971 110.145 100.481 113.999 103.765L121.072 109.786C121.072 109.786 156.741 110.314 173.386 108.1L175.262 106.223C176.248 105.237 176.687 103.83 176.432 102.458L174.181 90.2854C173.92 88.8663 172.952 87.6846 171.616 87.1323C168.778 85.9626 162.709 84.3712 150.631 84.3712H44.3342C32.2621 84.3712 26.1874 85.9566 23.3491 87.1323C22.013 87.6846 21.0451 88.8603 20.7838 90.2854L18.5332 102.458C18.2779 103.83 18.7174 105.237 19.7032 106.223L21.5795 108.1C38.2179 110.314 73.8938 109.786 73.8938 109.786L85.2235 101.645C89.0535 98.3849 92.1473 97.7971 97.1709 97.7971H97.7766" fill="#E5E5E5"/>
<path d="M130.198 111.318C124.783 111.318 121.166 111.265 121.054 111.265C120.709 111.265 120.377 111.134 120.115 110.908L113.043 104.887C109.468 101.847 102.491 99.2757 97.8002 99.2757H97.1945C92.4322 99.2757 89.7185 99.7804 86.2091 102.767C86.1794 102.791 86.1437 102.821 86.114 102.844L74.7843 110.986C74.5349 111.164 74.2439 111.259 73.941 111.265C73.5847 111.265 37.9683 111.769 21.4071 109.566C21.0865 109.525 20.7837 109.376 20.5521 109.145L18.6757 107.268C17.3456 105.938 16.7517 104.038 17.0961 102.185L19.3466 90.0124C19.697 88.0944 20.9915 86.5089 22.8026 85.7607C25.9735 84.4484 32.2916 82.8926 44.3518 82.8926H150.649C162.709 82.8926 169.027 84.4543 172.198 85.7607C174.009 86.5089 175.304 88.1003 175.654 90.0124L177.904 102.185C178.249 104.038 177.655 105.938 176.325 107.268L174.448 109.145C174.217 109.376 173.92 109.525 173.593 109.566C162.252 111.075 141.979 111.318 130.204 111.318H130.198ZM22.2859 106.692C37.7902 108.664 69.2203 108.361 73.4185 108.307L84.3207 100.475C88.4714 96.9599 91.9156 96.3126 97.1886 96.3126H97.7943C103.168 96.3126 110.87 99.1451 114.967 102.631L121.63 108.307C126.083 108.361 157.27 108.652 172.697 106.692L174.217 105.172C174.858 104.531 175.143 103.622 174.977 102.732L172.726 90.5587C172.554 89.6383 171.931 88.8723 171.052 88.51C168.659 87.5243 162.822 85.8617 150.637 85.8617H44.3399C32.1551 85.8617 26.3179 87.5184 23.9249 88.51C23.046 88.8723 22.4225 89.6383 22.2503 90.5587L19.9999 102.732C19.8336 103.622 20.1185 104.537 20.7598 105.172L22.28 106.692H22.2859Z" fill="#232323"/>
<path d="M26.5665 95.5525L26.3588 98.9668C26.2935 100.083 27.1664 101.033 28.2827 101.063L67.9844 101.948C70.2884 102.001 72.5567 101.396 74.5282 100.208L82.6575 95.3209C83.8272 94.6202 83.3105 92.821 81.9507 92.8447L28.5023 93.6998C27.4691 93.7176 26.6259 94.5252 26.5606 95.5525H26.5665Z" fill="#232323"/>
<path d="M168.403 95.2139L168.896 99.1211C169.027 100.136 168.249 101.039 167.222 101.063L127.383 101.954C125.079 102.007 122.811 101.401 120.839 100.214L112.71 95.3267C111.54 94.626 112.057 92.8268 113.417 92.8505L166.723 93.7115C167.578 93.7234 168.296 94.3707 168.403 95.2198V95.2139Z" fill="#232323"/>
</svg>
