<svg width="194" height="194" viewBox="0 0 194 194" fill="none" xmlns="http://www.w3.org/2000/svg">
<path d="M169.556 76.1112L122.085 72.1969C117.666 71.833 113.236 71.6511 108.805 71.6511H86.2171C81.7863 71.6511 77.3557 71.833 72.9367 72.1969L25.4662 76.1112L16.9392 110.624L28.8817 119.151L70.4778 122.566L85.1724 104.327H109.855L124.55 122.566L166.146 119.151L178.089 110.624L169.562 76.1112H169.556Z" fill="#E5E5E5"/>
<path d="M124.545 124.487C123.964 124.487 123.413 124.223 123.043 123.771L108.923 106.247H86.083L71.9633 123.771C71.5643 124.27 70.9482 124.534 70.3085 124.481L28.7124 121.065C28.3662 121.036 28.0317 120.913 27.75 120.713L15.8076 112.186C15.1679 111.729 14.8686 110.925 15.0564 110.156L23.5833 75.6431C23.7829 74.8391 24.4694 74.2523 25.2969 74.1877L72.7674 70.2734C77.2157 69.9037 81.7403 69.7218 86.2062 69.7218H108.794C113.26 69.7218 117.785 69.9096 122.233 70.2734L169.703 74.1877C170.525 74.2581 171.218 74.845 171.417 75.6431L179.944 110.156C180.132 110.925 179.839 111.729 179.193 112.186L167.25 120.713C166.969 120.913 166.634 121.036 166.288 121.065L124.692 124.481C124.639 124.481 124.586 124.487 124.534 124.487H124.545ZM85.1675 102.398H109.851C110.431 102.398 110.983 102.662 111.353 103.114L125.408 120.561L165.461 117.274L175.907 109.815L168.025 77.9201L121.934 74.1173C117.591 73.7593 113.172 73.5774 108.812 73.5774H86.2239C81.8636 73.5774 77.4446 73.7593 73.1019 74.1173L27.0106 77.9201L19.1292 109.815L29.5751 117.274L69.6277 120.561L83.6829 103.114C84.0467 102.662 84.5983 102.398 85.1851 102.398H85.1675Z" fill="#232323"/>
<path d="M23.847 107.868L31.4528 113.202L66.8868 116.177L81.3175 98.2432H92.5145H96.018L97.3561 77.5098H81.3175L30.5782 80.9252L23.847 107.868Z" fill="#232323"/>
<path d="M171.177 107.868L163.566 113.202L128.132 116.177L113.701 98.2432H102.504H98.3784L97.6683 77.5098H113.701L164.44 80.9252L171.177 107.868Z" fill="#232323"/>
<path d="M37.0598 83.7179L50.264 112.145L63.9141 113.982L67.2358 111.012L53.1514 81.8811L37.0598 83.7179Z" fill="#606060"/>
<path d="M149.026 82.6705L166.872 107.166L168.363 106.274L161.538 83.4569L149.026 82.6705Z" fill="#606060"/>
</svg>
