<svg width="194" height="194" viewBox="0 0 194 194" fill="none" xmlns="http://www.w3.org/2000/svg">
<path d="M113.423 93.1587C110.359 95.0562 106.815 96.0638 103.209 96.0638H94.7185C91.1126 96.0638 87.5733 95.0613 84.5045 93.1587C55.0951 74.9351 27.2815 82.6071 27.2815 82.6071C41.1218 138.255 89.8698 103.419 89.8698 103.419H108.063C108.063 103.419 153.885 136.654 167.72 81.0062C167.72 81.0062 142.832 74.9351 113.423 93.1587Z" fill="#FF659D"/>
<path d="M59.1152 115.484C55.5451 115.484 51.924 114.953 48.4102 113.653C37.654 109.69 30.1252 99.3476 26.0386 82.9193C25.8698 82.2442 26.2687 81.5639 26.9388 81.3798C27.2303 81.298 34.2067 79.4158 44.9066 79.7738C54.7626 80.1062 69.7486 82.5101 85.1796 92.0746C88.0438 93.8494 91.3428 94.7854 94.7184 94.7854H103.209C106.584 94.7854 109.883 93.8494 112.748 92.0746C142.275 73.7794 166.984 79.5129 168.022 79.7687C168.354 79.8505 168.636 80.0602 168.815 80.3466C168.989 80.6382 169.045 80.986 168.963 81.3184C164.743 98.294 157.123 108.897 146.315 112.84C129.324 119.039 110.518 106.687 107.659 104.703H90.2738C87.8494 106.37 73.9017 115.49 59.1203 115.49L59.1152 115.484ZM28.8465 83.5638C32.7746 98.3861 39.6487 107.7 49.295 111.255C67.1708 117.847 88.9082 102.534 89.1281 102.381C89.3429 102.227 89.6038 102.14 89.8697 102.14H108.063C108.334 102.14 108.595 102.227 108.814 102.386C109.009 102.529 128.68 116.559 145.446 110.431C155.128 106.897 162.089 97.3376 166.145 82.0089C160.754 81.1241 138.966 78.8429 114.098 94.2483C110.83 96.2737 107.065 97.3427 103.214 97.3427H94.7236C90.8722 97.3427 87.1078 96.2737 83.8395 94.2483C58.706 78.6741 34.488 82.3925 28.8465 83.5638Z" fill="#232323"/>
<path d="M83.1492 99.6035C72.3061 93.7011 55.1463 86.7707 44.4362 87.3487C44.4362 87.3487 48.0216 103.833 60.0667 106.565C77.4054 110.493 83.1492 99.6035 83.1492 99.6035Z" fill="#232323"/>
<path d="M114.783 99.6033C125.627 93.701 136.823 90.1309 147.533 90.7089C147.533 90.7089 143.001 105.173 133.457 106.953C123.908 108.733 114.783 99.6033 114.783 99.6033Z" fill="#232323"/>
</svg>
