<svg width="194" height="194" viewBox="0 0 194 194" fill="none" xmlns="http://www.w3.org/2000/svg">
<path d="M70.1771 76.2725H35.4639C30.1096 76.2725 25.769 80.613 25.769 85.9673V111.261C25.769 116.616 30.1096 120.956 35.4639 120.956H70.1771C75.5313 120.956 79.8718 116.616 79.8718 111.261V85.9673C79.8718 80.613 75.5313 76.2725 70.1771 76.2725Z" fill="#B898DA"/>
<path d="M70.1769 122.724H35.4638C29.142 122.724 24.0011 117.583 24.0011 111.262V85.9603C24.0011 79.6385 29.142 74.4977 35.4638 74.4977H70.1769C76.4987 74.4977 81.6396 79.6385 81.6396 85.9603V111.262C81.6396 117.583 76.4987 122.724 70.1769 122.724ZM35.4567 78.0404C31.0866 78.0404 27.5297 81.5973 27.5297 85.9674V111.269C27.5297 115.639 31.0866 119.196 35.4567 119.196H70.1699C74.54 119.196 78.0968 115.639 78.0968 111.269V85.9674C78.0968 81.5973 74.54 78.0404 70.1699 78.0404H35.4567Z" fill="#232323"/>
<path d="M68.4733 83.3225H37.1614C34.7674 83.3225 32.8267 85.2633 32.8267 87.6573V109.571C32.8267 111.965 34.7674 113.906 37.1614 113.906H68.4733C70.8673 113.906 72.808 111.965 72.808 109.571V87.6573C72.808 85.2633 70.8673 83.3225 68.4733 83.3225Z" fill="#232323"/>
<path d="M68.4733 114.613H37.1614C34.3823 114.613 32.1195 112.35 32.1195 109.571V87.6642C32.1195 84.8851 34.3823 82.6223 37.1614 82.6223H68.4733C71.2523 82.6223 73.5151 84.8851 73.5151 87.6642V109.571C73.5151 112.35 71.2523 114.613 68.4733 114.613ZM37.1614 84.0295C35.1602 84.0295 33.5338 85.6559 33.5338 87.6571V109.564C33.5338 111.565 35.1602 113.192 37.1614 113.192H68.4733C70.4744 113.192 72.1009 111.565 72.1009 109.564V87.6571C72.1009 85.6559 70.4744 84.0295 68.4733 84.0295H37.1614Z" fill="#232323"/>
<path d="M120.483 95.2658H80.4235V99.5369H120.483V95.2658Z" fill="#B898DA"/>
<path d="M120.482 92.9465H80.4233C79.1423 92.9465 78.1039 93.985 78.1039 95.2659V99.537C78.1039 100.818 79.1423 101.856 80.4233 101.856H120.482C121.763 101.856 122.802 100.818 122.802 99.537V95.2659C122.802 93.985 121.763 92.9465 120.482 92.9465Z" fill="#232323"/>
<path d="M142.595 123.742C157.307 123.742 169.233 111.816 169.233 97.1044C169.233 82.3928 157.307 70.4666 142.595 70.4666C127.883 70.4666 115.957 82.3928 115.957 97.1044C115.957 111.816 127.883 123.742 142.595 123.742Z" fill="#FBF7FF"/>
<path d="M142.595 125.51C126.932 125.51 114.189 112.767 114.189 97.1044C114.189 81.4414 126.932 68.6988 142.595 68.6988C158.258 68.6988 171 81.4414 171 97.1044C171 112.767 158.258 125.51 142.595 125.51ZM142.595 72.2345C128.884 72.2345 117.725 83.3931 117.725 97.1044C117.725 110.816 128.884 121.974 142.595 121.974C156.306 121.974 167.465 110.816 167.465 97.1044C167.465 83.3931 156.306 72.2345 142.595 72.2345Z" fill="#232323"/>
<path d="M142.594 115.101C152.534 115.101 160.591 107.044 160.591 97.1049C160.591 87.1657 152.534 79.1083 142.594 79.1083C132.655 79.1083 124.598 87.1657 124.598 97.1049C124.598 107.044 132.655 115.101 142.594 115.101Z" fill="#232323"/>
<path d="M142.594 115.809C132.284 115.809 123.891 107.422 123.891 97.1049C123.891 86.7878 132.277 78.4012 142.594 78.4012C152.911 78.4012 161.298 86.7878 161.298 97.1049C161.298 107.422 152.911 115.809 142.594 115.809ZM142.594 79.8225C133.062 79.8225 125.305 87.5798 125.305 97.1119C125.305 106.644 133.062 114.401 142.594 114.401C152.127 114.401 159.884 106.644 159.884 97.1119C159.884 87.5798 152.127 79.8225 142.594 79.8225Z" fill="#232323"/>
</svg>
