<svg width="194" height="194" viewBox="0 0 194 194" fill="none" xmlns="http://www.w3.org/2000/svg">
<path d="M173.795 104.096L172.373 98.3529C169.297 85.9177 158.63 76.8315 145.86 75.7796L121.234 73.7497C116.952 73.3972 112.659 73.2209 108.366 73.2209L101.139 78.6794C99.1946 80.1521 96.5279 80.2374 94.4924 78.8955L89.2045 75.427L86.4809 73.2209C82.188 73.2209 77.8952 73.3972 73.6136 73.7497L48.9877 75.7796C36.2227 76.8315 25.5502 85.9177 22.474 98.3529L21.0526 104.096C20.0234 108.252 21.6382 112.608 25.118 115.098L27.3696 116.707C29.6952 118.367 32.4188 119.363 35.2675 119.601L64.9595 122.041C68.8771 122.365 72.6982 120.721 75.1659 117.662L80.9426 110.492L94.6631 104.88C94.6631 104.88 111.931 109.321 115.485 112.46L119.676 117.657C122.143 120.716 125.964 122.359 129.882 122.035L159.574 119.596C162.417 119.363 165.146 118.362 167.472 116.707L169.723 115.098C173.203 112.613 174.818 108.252 173.789 104.096H173.795Z" fill="#232323"/>
<path d="M74.9347 73.6473L72.3418 69.9059C71.0227 68.0068 68.4581 67.4268 66.4737 68.6038C62.2149 71.1341 55.6933 76.2685 55.011 84.2118C53.9932 96.1012 56.1596 100.297 56.1596 100.297L65.439 82.7505L74.9347 73.6416V73.6473Z" fill="white"/>
<path d="M56.1578 102.16H56.1465C55.4528 102.16 54.816 101.768 54.4976 101.148C54.2531 100.671 52.1151 96.1275 53.1499 84.0505C53.9119 75.1634 61.224 69.5513 65.5169 66.9983C68.3258 65.3266 71.9989 66.1341 73.8696 68.8406L76.4624 72.5819C76.9855 73.3382 76.8832 74.356 76.2237 74.9928L66.944 83.8913L57.8067 101.171C57.4826 101.785 56.8515 102.166 56.1578 102.166V102.16ZM68.6953 69.8641C68.2575 69.8641 67.8197 69.9778 67.4273 70.2109C63.7485 72.4 57.4884 77.1478 56.8686 84.3746C56.4592 89.1338 56.5841 92.5909 56.8514 94.9904L63.7825 81.8842C63.8735 81.7079 63.9988 81.5487 64.141 81.4123L72.4878 73.4064L70.7992 70.9785C70.3045 70.2621 69.4971 69.8697 68.6897 69.8697L68.6953 69.8641Z" fill="#232323"/>
<path d="M58.3559 74.5747L54.069 70.8163C52.9488 69.8383 51.3113 69.7302 50.0774 70.5661C46.4952 72.9883 44.8519 77.4234 45.9948 81.5969L47.9279 88.6475L53.8585 80.255L58.3504 74.5747H58.3559Z" fill="white"/>
<path d="M47.9323 90.5124C47.8242 90.5124 47.716 90.501 47.608 90.484C46.8973 90.3589 46.3229 89.8358 46.1296 89.1421L44.1964 82.0915C42.8432 77.1447 44.7821 71.8965 49.0295 69.0251C50.9627 67.7174 53.5385 67.8766 55.2954 69.4175L59.5827 73.1759C60.3276 73.8298 60.4357 74.9556 59.8159 75.7346L55.3524 81.375L49.4504 89.7277C49.0979 90.2281 48.5235 90.5181 47.9264 90.5181L47.9323 90.5124ZM51.9066 71.8681C51.6337 71.8681 51.3608 71.9477 51.122 72.1069C48.1994 74.0799 46.8632 77.6962 47.7957 81.0964L48.6827 84.3374L52.3389 79.1689C52.3389 79.1689 52.3786 79.112 52.4014 79.0893L55.7902 74.8021L52.8334 72.2093C52.5718 71.9761 52.2364 71.8624 51.9066 71.8624V71.8681Z" fill="#232323"/>
<path d="M41.6262 73.9368C40.5856 72.5721 38.5273 72.6006 37.5266 73.988L36.0312 76.0633C34.5813 78.0705 34.3483 80.7088 35.4229 82.9434L38.4875 89.323L42.3938 80.8566C43.44 78.5879 43.15 75.9269 41.6375 73.9368H41.6262Z" fill="white"/>
<path d="M38.4829 91.1871C37.7665 91.1871 37.1126 90.7777 36.7999 90.1295L33.735 83.7498C32.3647 80.9011 32.6662 77.5351 34.5141 74.9707L36.0094 72.8953C36.8396 71.7467 38.1247 71.0815 39.5348 71.0644C39.5576 71.0644 39.5744 71.0644 39.5915 71.0644C40.9845 71.0644 42.264 71.6956 43.1055 72.81C45.0387 75.3573 45.4084 78.7405 44.0722 81.6403L40.1659 90.1067C39.8646 90.7606 39.2106 91.1871 38.4884 91.1928H38.4715L38.4829 91.1871ZM39.5915 74.7944H39.5801C39.4493 74.7944 39.2049 74.8342 39.0343 75.0787L37.5389 77.1541C36.487 78.6097 36.3223 80.5202 37.0955 82.135L38.4429 84.9382L40.689 80.071C41.4452 78.4221 41.2405 76.5059 40.1431 75.0617C39.9669 74.8285 39.7281 74.7887 39.5973 74.7887L39.5915 74.7944Z" fill="#232323"/>
<path d="M30.7842 122.646C29.3627 123.232 27.4294 122.356 26.9404 120.906L26.2127 118.74C25.5076 116.648 26.1503 114.584 27.8902 113.372L32.8596 109.898L33.758 117.807C33.9968 119.928 32.8538 121.788 30.7784 122.641L30.7842 122.646Z" fill="white"/>
<path d="M29.8175 124.694C29.1181 124.694 28.4017 124.54 27.7308 124.233C26.5026 123.67 25.5703 122.675 25.1779 121.504L24.45 119.337C23.4834 116.472 24.4215 113.526 26.8324 111.843L31.8076 108.369C32.3478 107.994 33.0414 107.926 33.6442 108.199C34.2412 108.471 34.6563 109.034 34.7303 109.688L35.6287 117.597C35.9642 120.543 34.3435 123.198 31.5005 124.364C30.9774 124.58 30.4033 124.688 29.8233 124.688L29.8175 124.694ZM31.3642 113.225L28.9591 114.902C27.8958 115.647 27.5374 116.83 27.981 118.149L28.7089 120.315C28.7715 120.509 28.9932 120.713 29.2775 120.838C29.5618 120.969 29.8745 121.003 30.0735 120.924C31.3699 120.389 32.0522 119.309 31.91 118.03L31.3642 113.231V113.225Z" fill="#232323"/>
<path d="M33.6757 82.1001L27.0347 80.7184L25.636 87.8372L33.6757 93.7677V82.1001Z" fill="white"/>
<path d="M33.6763 95.6398C33.284 95.6398 32.8975 95.5147 32.5677 95.2759L24.5332 89.3454C23.9532 88.919 23.6689 88.1912 23.8111 87.4861L25.2101 80.3673C25.3067 79.8783 25.5908 79.4461 26.0116 79.1732C26.4267 78.9003 26.9327 78.7979 27.4217 78.9003L34.063 80.282C34.9273 80.4639 35.547 81.2259 35.547 82.1072V93.7748C35.547 94.4798 35.1491 95.1224 34.5236 95.4408C34.2564 95.5772 33.9721 95.6398 33.6821 95.6398H33.6763ZM27.6946 87.0369L31.8056 90.0732V83.6196L28.502 82.9316L27.6946 87.0426V87.0369Z" fill="#232323"/>
<path d="M86.4847 73.2204L82.9651 70.4797C80.9978 68.9445 78.1321 69.4222 76.7675 71.5146C74.2713 75.3469 74.2088 80.2824 76.6139 84.1772L81.1455 91.5292L86.4791 73.2204H86.4847Z" fill="white"/>
<path d="M81.1495 93.3948C80.507 93.3948 79.9042 93.065 79.5631 92.5078L75.0312 85.1558C72.2622 80.6696 72.3363 74.9154 75.2134 70.4974C76.1459 69.0645 77.6525 68.0809 79.3413 67.7966C81.03 67.5123 82.77 67.9558 84.1232 69.0077L87.6428 71.7483C88.2455 72.2203 88.5013 73.0106 88.2853 73.7441L82.9519 92.0529C82.7472 92.7637 82.1445 93.2811 81.411 93.3778C81.3257 93.3891 81.2462 93.3948 81.1609 93.3948H81.1495ZM80.3535 71.4413C80.217 71.4413 80.086 71.4527 79.9496 71.4754C79.2786 71.5891 78.7044 71.9644 78.3348 72.533C76.2424 75.7456 76.1912 79.9304 78.2041 83.1999L80.5354 86.9754L84.3392 73.9147L81.8203 71.953C81.3938 71.6175 80.8823 71.447 80.3535 71.447V71.4413Z" fill="#232323"/>
<path d="M62.6381 122.076C54.945 118.483 53.7397 107.929 53.7397 107.929L50.7487 112.916C49.2362 115.435 48.7188 118.426 49.2931 121.309L49.3386 121.542C49.9982 124.84 53.3075 126.898 56.5599 126.022L58.3565 125.539L62.6381 122.076Z" fill="white"/>
<path d="M55.0575 128.084C53.636 128.084 52.2201 127.692 50.9976 126.93C49.2008 125.816 47.9272 123.985 47.5122 121.904L47.4666 121.671C46.7957 118.327 47.3984 114.876 49.1497 111.953L52.1406 106.967C52.55 106.279 53.3573 105.932 54.1363 106.102C54.9152 106.273 55.5068 106.921 55.5977 107.711C55.6091 107.802 56.7974 117.281 63.4329 120.38C64.0185 120.653 64.4166 121.204 64.4962 121.847C64.5758 122.484 64.32 123.12 63.8196 123.524L59.5379 126.987C59.3332 127.152 59.1001 127.271 58.85 127.339L57.0534 127.823C56.3995 127.999 55.7286 128.084 55.0633 128.084H55.0575ZM52.9877 112.8L52.3452 113.875C51.0716 116.002 50.6338 118.509 51.1228 120.943L51.1683 121.176C51.3844 122.262 52.0212 123.177 52.9594 123.763C53.8976 124.349 55.0062 124.508 56.0694 124.224L57.4854 123.843L59.3902 122.302C55.9104 119.709 54.0055 115.842 52.9877 112.806V112.8Z" fill="#232323"/>
<path d="M66.5627 124.364L62.5598 120.634C62.0594 120.168 61.8605 119.463 62.0481 118.803L63.9585 112.037C64.3451 110.672 66.0681 110.246 67.0461 111.281L71.3844 115.869C71.8677 116.381 72.0155 117.12 71.7653 117.774L69.5137 123.682C69.0531 124.893 67.5123 125.251 66.5627 124.37V124.364Z" fill="white"/>
<path d="M67.8061 126.724C66.8849 126.724 65.9809 126.377 65.2929 125.735L61.29 122.005C60.2722 121.061 59.8742 119.64 60.2552 118.303L62.1656 111.537C62.5295 110.241 63.5304 109.274 64.8381 108.956C66.1459 108.632 67.4764 109.024 68.4032 110.002L72.7416 114.59C73.7082 115.614 74.0096 117.126 73.5092 118.44L71.2576 124.353C70.8198 125.502 69.8417 126.36 68.642 126.639C68.3634 126.702 68.0847 126.736 67.8061 126.736V126.724ZM65.7363 112.612L63.8431 119.31L67.7891 122.96L70.018 117.104L65.7363 112.606V112.612Z" fill="#232323"/>
<path d="M44.5758 119.048L42.3528 112.248L37.0305 118.292L37.6391 121.141C38.1793 123.682 41.5681 124.222 42.8759 121.976L44.5758 119.048Z" fill="white"/>
<path d="M40.4366 125.251C40.1865 125.251 39.9306 125.234 39.6804 125.188C37.7415 124.881 36.229 123.443 35.8196 121.521L35.2113 118.672C35.0862 118.092 35.2454 117.49 35.6377 117.046L40.9597 111.008C41.4032 110.507 42.0799 110.28 42.7338 110.416C43.3877 110.553 43.9221 111.025 44.1325 111.662L46.3558 118.462C46.5207 118.968 46.4637 119.52 46.1965 119.98L44.4965 122.908C43.6379 124.381 42.1025 125.251 40.4422 125.251H40.4366ZM39.0549 118.82L39.4644 120.748C39.5895 121.339 40.0672 121.476 40.2662 121.51C40.4652 121.544 40.9599 121.561 41.2612 121.038L42.5406 118.832L41.5908 115.932L39.0493 118.82H39.0549Z" fill="#232323"/>
<path d="M31.0387 99.6573L21.6397 95.5918L16.8635 98.8328L20.9972 103.723L31.0387 99.6573Z" fill="white"/>
<path d="M20.9979 105.589C20.4577 105.589 19.9345 105.356 19.5706 104.93L15.4369 100.04C15.0957 99.6361 14.9423 99.1073 15.0162 98.5842C15.0902 98.0611 15.3802 97.5891 15.8181 97.2935L20.5942 94.0524C21.123 93.6942 21.7996 93.6317 22.3852 93.8819L31.784 97.9473C32.472 98.2487 32.9155 98.931 32.9098 99.6816C32.8985 100.432 32.4437 101.109 31.7443 101.387L21.6973 105.453C21.4698 105.544 21.231 105.589 20.9979 105.589ZM19.6275 99.2153L21.5493 101.49L26.2119 99.602L21.845 97.7142L19.6333 99.2153H19.6275Z" fill="#232323"/>
<path d="M120.067 73.6421L122.66 69.9008C123.979 68.0017 126.544 67.4217 128.528 68.5987C132.787 71.1289 139.308 76.2634 139.991 84.2067C141.009 96.096 138.842 100.292 138.842 100.292L129.563 82.7454L120.067 73.6364V73.6421Z" fill="white"/>
<path d="M138.844 102.159C138.15 102.159 137.519 101.778 137.195 101.164L128.058 83.8846L118.778 74.9861C118.119 74.3493 118.016 73.3315 118.539 72.5752L121.132 68.8339C123.009 66.133 126.676 65.3199 129.491 66.9916C133.784 69.5446 141.096 75.1567 141.858 84.0438C142.893 96.1208 140.755 100.664 140.51 101.142C140.192 101.761 139.555 102.148 138.861 102.154H138.85L138.844 102.159ZM122.508 73.3997L130.855 81.4055C130.997 81.542 131.122 81.7012 131.213 81.8775L138.145 94.9893C138.412 92.5955 138.537 89.1328 138.128 84.3736C137.508 77.1468 131.247 72.399 127.569 70.2099C126.437 69.5332 124.948 69.8687 124.186 70.9661L122.503 73.394L122.508 73.3997Z" fill="#232323"/>
<path d="M136.642 74.5694L140.929 70.811C142.049 69.833 143.687 69.725 144.921 70.5608C148.503 72.983 150.146 77.4181 149.003 81.5916L147.07 88.6422L141.14 80.2497L136.648 74.5694H136.642Z" fill="white"/>
<path d="M147.071 90.5084C146.474 90.5084 145.9 90.2184 145.548 89.7181L139.646 81.3654L135.182 75.7249C134.568 74.9459 134.67 73.8201 135.415 73.1662L139.702 69.4078C141.459 67.8669 144.035 67.7077 145.968 69.0154C150.216 71.8869 152.16 77.1407 150.801 82.0818L148.868 89.1324C148.675 89.8261 148.101 90.3492 147.39 90.4743C147.282 90.4914 147.174 90.5027 147.066 90.5027L147.071 90.5084ZM139.208 74.8038L142.602 79.091C142.602 79.091 142.642 79.1422 142.665 79.1706L146.321 84.3391L147.208 81.0981C148.14 77.6979 146.804 74.0816 143.882 72.1086C143.353 71.7504 142.648 71.7959 142.165 72.2167L139.208 74.8095V74.8038Z" fill="#232323"/>
<path d="M153.376 73.9361C154.417 72.5714 156.475 72.5999 157.476 73.9872L158.971 76.0626C160.421 78.0698 160.654 80.7081 159.58 82.9427L156.515 89.3223L152.608 80.8559C151.562 78.5872 151.852 75.9262 153.365 73.9361H153.376Z" fill="white"/>
<path d="M156.521 91.1875H156.503C155.781 91.1875 155.127 90.761 154.826 90.1014L150.92 81.635C149.584 78.7295 149.953 75.3463 151.886 72.8047C152.739 71.6789 154.03 71.0534 155.457 71.0591C156.873 71.0762 158.158 71.7471 158.982 72.89L160.478 74.9654C162.326 77.5298 162.627 80.8958 161.257 83.7445L158.192 90.1242C157.879 90.7724 157.226 91.1818 156.509 91.1818L156.521 91.1875ZM154.86 75.0677C153.763 76.512 153.552 78.4338 154.314 80.0771L156.56 84.9443L157.908 82.1411C158.687 80.5263 158.516 78.6158 157.464 77.1602L155.969 75.0848C155.793 74.8403 155.548 74.8005 155.423 74.8005C155.321 74.8005 155.048 74.8289 154.866 75.0734L154.86 75.0677Z" fill="#232323"/>
<path d="M164.213 122.645C165.635 123.231 167.568 122.355 168.057 120.905L168.785 118.739C169.49 116.647 168.847 114.583 167.107 113.371L162.138 109.897L161.24 117.807C161.001 119.927 162.144 121.787 164.219 122.64L164.213 122.645Z" fill="white"/>
<path d="M165.187 124.691C164.607 124.691 164.038 124.583 163.51 124.367C160.667 123.202 159.046 120.546 159.382 117.601L160.28 109.692C160.354 109.038 160.769 108.475 161.366 108.202C161.963 107.929 162.662 107.997 163.203 108.373L168.172 111.847C170.583 113.53 171.515 116.469 170.554 119.341L169.827 121.507C169.429 122.684 168.502 123.679 167.274 124.236C166.597 124.543 165.886 124.697 165.187 124.697V124.691ZM164.925 120.916C165.124 120.995 165.437 120.961 165.721 120.831C166 120.7 166.222 120.495 166.29 120.302L167.018 118.135C167.461 116.816 167.103 115.634 166.04 114.889L163.635 113.211L163.089 118.01C162.941 119.29 163.629 120.376 164.925 120.904V120.916Z" fill="#232323"/>
<path d="M161.326 82.0997L167.962 80.718L169.361 87.8368L161.326 93.7673V82.0997Z" fill="white"/>
<path d="M161.325 95.6394C161.041 95.6394 160.751 95.5712 160.484 95.4404C159.853 95.122 159.46 94.4795 159.46 93.7744V82.1068C159.46 81.2255 160.08 80.4578 160.944 80.2816L167.58 78.8999C168.069 78.7975 168.575 78.8999 168.99 79.1728C169.405 79.4457 169.695 79.8779 169.792 80.3669L171.191 87.4857C171.333 88.1908 171.048 88.9186 170.468 89.345L162.434 95.2755C162.104 95.5143 161.718 95.6394 161.325 95.6394ZM163.19 83.6192V90.0728L167.301 87.0365L166.494 82.9256L163.19 83.6136V83.6192Z" fill="#232323"/>
<path d="M108.514 73.2182L111.971 70.523C113.961 68.9708 116.861 69.4825 118.203 71.6204L118.419 71.9616C120.881 75.8792 120.83 80.8658 118.299 84.7323L113.847 91.5213L108.514 73.2125V73.2182Z" fill="white"/>
<path d="M113.845 93.3928C113.754 93.3928 113.663 93.3871 113.567 93.3701C112.845 93.262 112.253 92.7446 112.049 92.0452L106.715 73.7364C106.499 73.0029 106.755 72.2126 107.358 71.7406L110.814 69.0455C112.179 67.9822 113.942 67.5444 115.642 67.8458C117.348 68.1471 118.854 69.1592 119.77 70.6205L119.986 70.9617C122.829 75.482 122.772 81.2874 119.844 85.7509L115.392 92.5399C115.045 93.0687 114.454 93.3814 113.834 93.3814L113.845 93.3928ZM110.661 73.9127L114.51 87.1155L116.739 83.7096C118.866 80.4629 118.906 76.2382 116.842 72.9518L116.626 72.6106C116.262 72.0306 115.688 71.644 115.011 71.5246C114.334 71.4052 113.663 71.5701 113.123 71.9965L110.667 73.9127H110.661Z" fill="#232323"/>
<path d="M132.369 122.071C140.062 118.477 141.268 107.924 141.268 107.924L144.258 112.911C145.771 115.43 146.288 118.42 145.714 121.303L145.668 121.536C145.009 124.834 141.7 126.893 138.447 126.017L136.651 125.534L132.369 122.071Z" fill="white"/>
<path d="M139.947 128.079C139.282 128.079 138.611 127.994 137.957 127.818L136.16 127.334C135.91 127.266 135.677 127.147 135.472 126.982L131.19 123.519C130.69 123.115 130.434 122.478 130.514 121.842C130.593 121.205 130.992 120.648 131.577 120.375C138.247 117.259 139.401 107.803 139.412 107.706C139.503 106.91 140.089 106.262 140.874 106.097C141.653 105.927 142.46 106.273 142.869 106.961L145.86 111.948C147.612 114.871 148.214 118.322 147.543 121.665L147.498 121.904C147.083 123.98 145.815 125.81 144.012 126.931C142.79 127.692 141.374 128.085 139.953 128.085L139.947 128.079ZM137.513 123.832L138.929 124.213C139.998 124.503 141.101 124.338 142.039 123.752C142.977 123.172 143.614 122.251 143.83 121.165L143.876 120.932C144.359 118.498 143.927 115.991 142.653 113.864L142.011 112.79C140.988 115.826 139.083 119.692 135.603 122.285L137.508 123.826L137.513 123.832Z" fill="#232323"/>
<path d="M128.438 124.359L132.441 120.629C132.941 120.163 133.14 119.458 132.952 118.799L131.042 112.032C130.655 110.668 128.932 110.241 127.954 111.276L123.616 115.865C123.133 116.376 122.985 117.116 123.235 117.769L125.487 123.677C125.947 124.888 127.488 125.246 128.438 124.365V124.359Z" fill="white"/>
<path d="M127.191 126.721C126.913 126.721 126.634 126.687 126.355 126.624C125.156 126.345 124.177 125.493 123.74 124.338L121.488 118.431C120.988 117.111 121.289 115.605 122.256 114.581L126.594 109.993C127.521 109.015 128.851 108.622 130.159 108.946C131.467 109.271 132.462 110.231 132.832 111.528L134.742 118.294C135.117 119.63 134.725 121.052 133.707 121.996L129.71 125.726C129.016 126.368 128.118 126.715 127.197 126.715L127.191 126.721ZM129.261 112.608L124.968 117.146L127.203 122.962L131.16 119.272L129.255 112.614L129.261 112.608Z" fill="#232323"/>
<path d="M150.417 119.047L152.64 112.247L157.963 118.291L157.354 121.14C156.814 123.681 153.425 124.221 152.117 121.975L150.417 119.047Z" fill="white"/>
<path d="M154.562 125.25C152.902 125.25 151.367 124.38 150.508 122.907L148.808 119.979C148.541 119.519 148.484 118.967 148.649 118.461L150.872 111.661C151.082 111.024 151.611 110.546 152.271 110.415C152.93 110.279 153.607 110.506 154.045 111.007L159.367 117.045C159.759 117.489 159.913 118.091 159.793 118.666L159.185 121.514C158.776 123.431 157.257 124.869 155.324 125.182C155.068 125.222 154.818 125.244 154.568 125.244L154.562 125.25ZM152.453 118.831L153.732 121.037C154.033 121.56 154.534 121.543 154.727 121.509C154.926 121.475 155.404 121.338 155.529 120.747L155.938 118.819L153.396 115.931L152.447 118.831H152.453Z" fill="#232323"/>
<path d="M163.327 99.0294L173.357 95.595L178.133 98.836L174.005 103.726L163.327 99.0294Z" fill="white"/>
<path d="M174 105.59C173.744 105.59 173.494 105.539 173.249 105.431L162.577 100.729C161.872 100.422 161.434 99.7108 161.462 98.9432C161.497 98.1756 161.997 97.5046 162.719 97.2545L172.749 93.8201C173.301 93.6325 173.915 93.7121 174.404 94.0419L179.18 97.2829C179.618 97.5786 179.908 98.0505 179.982 98.5736C180.056 99.0967 179.902 99.6255 179.561 100.029L175.427 104.919C175.063 105.351 174.54 105.579 174 105.579V105.59ZM168.451 99.2446L173.477 101.456L175.37 99.2161L173.079 97.6639L168.451 99.2502V99.2446Z" fill="#232323"/>
</svg>
