<svg width="194" height="194" viewBox="0 0 194 194" fill="none" xmlns="http://www.w3.org/2000/svg">
<path d="M171.123 65.7471C161.015 43.9753 127.566 83.0006 112.771 105.683C110.823 108.667 107.531 110.488 103.972 110.559L96.3651 110.713L90.845 110.439C87.3985 110.271 84.2393 108.464 82.3619 105.578C67.6232 82.9165 34.0339 43.646 23.8976 65.4739C13.0397 88.8638 24.7311 128.548 46.2437 133.977C61.3467 137.787 75.5249 128.162 82.628 122.096C86.0535 119.175 90.4107 117.578 94.908 117.578H96.3931L100.33 117.676C104.687 117.781 108.897 119.364 112.203 122.208C119.244 128.267 133.541 138.103 148.777 134.257C170.29 128.828 181.981 89.144 171.123 65.7541V65.7471Z" fill="#FF8FF8"/>
<path d="M141.723 136.87C128.743 136.87 117.282 128.884 111.062 123.532C108.099 120.982 104.274 119.518 100.288 119.42L96.3511 119.322H94.9081C90.8101 119.322 86.8523 120.779 83.763 123.42C76.4007 129.71 61.6759 139.672 45.8094 135.672C37.3052 133.528 29.7398 126.285 24.5 115.287C16.7244 98.9651 15.8418 78.6504 22.3005 64.7383C24.43 60.143 27.6593 57.6632 31.8834 57.362C48.5204 56.1781 75.0066 91.0774 83.819 104.625C85.3811 107.035 88.0361 108.555 90.9222 108.695L96.3862 108.961L103.931 108.807C106.915 108.744 109.668 107.224 111.293 104.73C120.098 91.2315 146.578 56.4583 163.124 57.6422C167.348 57.9434 170.57 60.4232 172.699 65.0185C179.158 78.9306 178.275 99.2453 170.5 115.567C165.26 126.572 157.695 133.808 149.19 135.952C146.662 136.589 144.154 136.877 141.709 136.877L141.723 136.87ZM94.9081 115.826H96.3932L100.372 115.924C105.164 116.044 109.773 117.802 113.345 120.884C119.16 125.893 129.842 133.374 141.723 133.374C143.902 133.374 146.115 133.122 148.35 132.561C155.824 130.677 162.57 124.106 167.355 114.061C174.591 98.8671 175.488 79.3089 169.54 66.4896C167.964 63.0921 165.785 61.3409 162.892 61.1377C149.66 60.192 126.046 88.5486 114.242 106.65C111.98 110.117 108.162 112.233 104.015 112.317L96.4071 112.471C96.365 112.471 96.3231 112.471 96.288 112.471L90.7681 112.198C86.7682 112.002 83.0765 109.886 80.9049 106.538C68.2187 87.0355 44.6886 59.9398 32.1565 60.8575C29.2564 61.0607 27.0778 62.8119 25.5017 66.2094C19.5544 79.0217 20.4511 98.5869 27.6873 113.781C32.4718 123.826 39.2176 130.39 46.692 132.281C61.0244 135.896 74.6565 126.621 81.5074 120.765C85.2341 117.585 89.9975 115.833 94.9291 115.833L94.9081 115.826Z" fill="#232323"/>
<path d="M70.2428 103.063C53.2134 84.4016 26.8182 61.8172 27.9671 88.4435C29.1159 115.07 40.4991 131.364 58.25 127.392C76.0009 123.42 80.246 114.026 70.2428 103.063Z" fill="#232323"/>
<path d="M122.746 103.063C139.776 84.4016 166.171 61.8172 165.022 88.4435C163.873 115.07 152.49 131.364 134.739 127.392C116.988 123.427 112.743 114.026 122.746 103.063Z" fill="#232323"/>
</svg>
