<svg width="194" height="194" viewBox="0 0 194 194" fill="none" xmlns="http://www.w3.org/2000/svg">
<path d="M79.0796 77.7246C45.7773 93.0818 29.1012 86.827 31.1795 73.1184C31.1795 73.1184 9.1377 104.392 38.6232 112.286C68.1087 120.179 104.758 121.049 137.821 121.049C170.883 121.049 171.713 103.583 171.713 96.2392C171.713 88.8953 79.0696 77.7146 79.0696 77.7146L79.0796 77.7246Z" fill="#91372D"/>
<path d="M25.2245 83.8411C36.695 107.372 87.183 81.0134 87.183 81.0134C87.183 81.0134 71.3961 78.6254 70.9465 78.9251C70.4969 79.2249 45.3578 86.2591 45.3578 86.2591L30.8798 78.9052L25.2245 83.851V83.8411Z" fill="#B74239"/>
<path d="M137.831 124.337C103.09 124.337 66.9297 123.258 37.7839 115.464C29.1111 113.146 23.5258 108.69 21.1877 102.225C16.3118 88.7762 28.0021 71.9501 28.5017 71.2407C29.3809 70.0017 30.9996 69.5221 32.4084 70.0917C33.8172 70.6612 34.6566 72.12 34.4267 73.6287C33.9272 76.886 34.7864 79.364 36.9546 81.0026C41.9605 84.7695 55.2894 85.0992 77.7108 74.7678C78.2603 74.518 78.8798 74.4181 79.4793 74.488C79.7091 74.518 102.97 77.3356 125.921 81.0126C139.449 83.1808 150.251 85.2291 158.014 87.0876C170.714 90.125 175 92.4431 175 96.2699C175 99.4973 175 107.061 169.714 113.506C163.799 120.71 153.078 124.357 137.831 124.357V124.337ZM29.6807 82.5813C27.3726 87.6871 25.3543 94.4814 27.3626 99.9968C28.9313 104.323 33.0179 107.391 39.4825 109.129C67.899 116.733 103.539 117.782 137.831 117.782C166.967 117.782 168.376 104.113 168.435 97.2391C162.111 93.1026 119.166 85.8985 79.5992 81.0925C58.4168 90.7046 41.4609 92.583 33.0079 86.2283C31.629 85.1891 30.51 83.9701 29.6707 82.5813H29.6807Z" fill="#232323"/>
</svg>
