<svg width="194" height="194" viewBox="0 0 194 194" fill="none" xmlns="http://www.w3.org/2000/svg">
<path d="M164.587 97.2375L163.536 123.869L40.0382 120.556L36.2428 120.449C26.658 107.026 25.7789 71.6566 56.8598 70.3486C65.5655 69.984 78.9671 72.2462 91.972 75.5055C104.409 78.6254 116.481 82.6566 123.739 86.1731C138.609 93.3671 164.587 97.2375 164.587 97.2375Z" fill="#487ECF"/>
<path d="M99.1874 81.0805C42.0752 66.3495 37.4436 84.254 41.4319 109.663C42.2467 114.863 41.5928 118.337 40.0382 120.556L36.2428 120.449C26.658 107.026 25.7789 71.6566 56.8598 70.3486C65.5655 69.984 78.9671 72.2462 91.972 75.5055L99.1874 81.0805Z" fill="#B7B7B7"/>
<path d="M30.3569 109.514L164.834 114.521L163.226 120.46L35.5246 118.177L30.3569 109.514Z" fill="#B7B7B7"/>
<path d="M163.547 127.386C163.547 127.386 163.483 127.386 163.451 127.386L36.1571 123.977C35.0529 123.945 34.0343 123.398 33.391 122.508C27.0119 113.577 24.0635 95.8549 30.432 82.8179C33.8092 75.8919 41.1103 67.5079 56.7312 66.8539C73.853 66.1249 109.319 75.2916 125.294 83.0216C139.499 89.8939 164.866 93.7428 165.123 93.7857C166.903 94.0538 168.189 95.6083 168.114 97.3988L167.074 124.02C166.999 125.907 165.445 127.397 163.558 127.397L163.547 127.386ZM38.1834 116.987L160.159 120.257L160.942 100.218C153.48 98.9319 134.45 95.2653 122.206 89.3471C107.078 82.0245 72.7273 73.2116 56.9992 73.8763C47.2429 74.2838 40.4242 78.3364 36.7361 85.9056C31.9758 95.6512 33.6269 109.31 38.1834 116.997V116.987Z" fill="#232323"/>
<path d="M75.3218 86.4958C85.3247 91.2775 99.0908 99.104 110.262 97.2492C111.227 96.8633 111.495 97.0884 112.342 96.3058C112.836 95.8555 113.425 94.7405 113.886 93.722C114.412 92.5426 116.03 92.2103 116.974 93.0894C119.429 95.2765 119.708 99.3506 117.714 102.181C115.762 105.054 112.396 106.309 109.287 106.63C104.098 107.016 99.6912 105.247 95.2633 103.285C91.1892 101.377 87.4261 99.1469 83.9095 96.6381C80.4037 94.1401 77.0479 91.4705 73.8851 88.565C72.813 87.5894 74.0352 85.8097 75.3325 86.4851L75.3218 86.4958Z" fill="#232323"/>
<path d="M163.226 116.077C163.226 116.077 163.183 116.077 163.161 116.077L33.3911 111.123C32.5013 111.091 31.8151 110.341 31.8473 109.451C31.8794 108.561 32.6085 107.853 33.5198 107.907L163.29 112.86C164.18 112.892 164.866 113.643 164.834 114.533C164.802 115.401 164.083 116.077 163.226 116.077Z" fill="#232323"/>
</svg>
