<svg width="194" height="194" viewBox="0 0 194 194" fill="none" xmlns="http://www.w3.org/2000/svg">
<path d="M66.6416 77.405C67.9223 57.5484 92.0589 58.8182 105.129 61.9488C128.959 67.6628 119.917 95.357 119.917 95.357" fill="#6B6B6B"/>
<path d="M65.1533 77.3714C65.6459 67.257 68.9845 61.2475 81.7917 60.0872C94.5989 58.9269 110.263 63.2507 110.263 63.2507L118.582 70.4315L121.768 78.1814L121.527 87.7266L118.757 94.5352L108.555 90.7478L76.4937 76.638L65.1533 77.3714Z" fill="#487ECF"/>
<path d="M119.907 98.9465C119.534 98.9465 119.162 98.8917 118.79 98.7713C116.907 98.1583 115.878 96.1223 116.491 94.2395C116.524 94.1191 120.399 81.8264 115.583 73.2445C113.361 69.2819 109.661 66.7315 104.286 65.4398C94.7411 63.152 82.109 62.5062 75.2676 67.5524C72.1698 69.8402 70.5169 73.1351 70.2323 77.6449C70.1009 79.6262 68.4043 81.1259 66.412 80.9945C64.4307 80.8631 62.9311 79.1555 63.0625 77.1742C63.4894 70.5189 66.1603 65.3303 71.0095 61.7618C82.12 53.574 100.575 57.1534 105.972 58.4451C113.317 60.2075 118.67 64.0058 121.877 69.7526C128.226 81.1149 123.541 95.8377 123.333 96.4616C122.84 97.9722 121.428 98.9355 119.918 98.9355L119.907 98.9465Z" fill="#232323"/>
<path d="M57.6768 77.2938C9.04232 79.0015 30.716 129.803 30.716 129.803C30.716 129.803 87.1771 134.072 124.384 134.072C161.59 134.072 169.088 128.72 169.088 128.72L167.304 104.222L113.941 96.2419C113.941 96.2419 93.4493 76.035 57.6768 77.2938Z" fill="#487ECF"/>
<path d="M94.1063 111.93V116.747L35.259 114.317L27.6951 113.999L27.29 94.5368L35.04 85.3638L48.099 79.6498L56.0022 77.373C67.3317 78.1392 74.8299 80.4927 79.8104 83.1745C85.5573 86.2723 87.9545 89.797 89.0491 91.8112C91.0852 95.5658 92.9679 102.418 92.9679 102.418L94.1063 111.93Z" fill="#D3D3D3"/>
<path d="M79.8104 83.1745C52.6636 79.212 30.7381 84.3239 35.259 114.306C35.8391 118.159 36.8571 122.406 38.3458 127.102C38.5428 127.737 38.7399 128.35 38.926 128.963C35.664 128.646 30.7162 128.197 30.7162 128.197L27.6951 113.999L27.29 94.5368L35.04 85.3638L48.099 79.6498L56.0022 77.373C67.3316 78.1392 74.8299 80.4927 79.8104 83.1745Z" fill="white"/>
<path d="M169.088 127.101L160.605 130.812L69.9583 131.545C69.9583 131.545 43.4463 129.421 41.0819 129.181C40.5674 129.126 39.8121 129.049 38.9255 128.962C35.6635 128.644 30.7158 128.195 30.7158 128.195L27.6946 113.998L35.2585 114.305L94.1059 116.669L166.154 119.57L169.088 127.101Z" fill="#D3D3D3"/>
<path d="M124.383 137.663C87.4725 137.663 31.0114 133.427 30.4532 133.383C29.1177 133.285 27.9465 132.442 27.4211 131.216C26.9613 130.143 16.3543 104.802 27.1255 87.8575C32.7629 78.9801 43.0086 74.2184 57.5563 73.7039C90.6907 72.4998 111.117 88.8865 115.572 92.86L167.84 100.676C169.504 100.927 170.774 102.296 170.894 103.97L172.679 128.468C172.766 129.716 172.197 130.931 171.179 131.654C169.767 132.661 160.889 137.663 124.383 137.663ZM33.2664 126.389C44.1799 127.177 91.9496 130.482 124.383 130.482C150.381 130.482 161.437 127.801 165.323 126.465L163.933 107.353L113.404 99.789C112.649 99.6795 111.959 99.3293 111.412 98.7929C111.226 98.6068 91.457 79.6697 57.7971 80.8738C45.7671 81.3007 37.4917 84.9349 33.1898 91.6778C25.9652 103.018 31.1647 120.499 33.2554 126.378L33.2664 126.389Z" fill="#232323"/>
<path d="M164.523 121.145C164.523 121.145 164.48 121.145 164.458 121.145L29.8401 115.639C28.9315 115.606 28.231 114.84 28.2638 113.931C28.2966 113.023 29.0738 112.333 29.9714 112.355L164.589 117.861C165.498 117.894 166.198 118.66 166.165 119.569C166.133 120.455 165.399 121.145 164.523 121.145Z" fill="#232323"/>
<path d="M94.1171 118.399C94.0624 118.399 93.9967 118.399 93.942 118.399C93.0444 118.301 92.3876 117.491 92.4861 116.593C92.6284 115.214 95.7153 82.8784 63.9929 79.3975C63.0953 79.299 62.4385 78.489 62.537 77.5914C62.6355 76.6938 63.4456 76.0479 64.3432 76.1355C99.3495 79.9777 95.781 116.582 95.7372 116.954C95.6496 117.797 94.9381 118.421 94.1062 118.421L94.1171 118.399Z" fill="#232323"/>
</svg>
