<svg width="194" height="194" viewBox="0 0 194 194" fill="none" xmlns="http://www.w3.org/2000/svg">
<path d="M69.7168 79.4411C70.8675 61.5994 92.555 62.7403 104.299 65.5533C125.711 70.6874 117.587 95.5714 117.587 95.5714" fill="#6B6B6B"/>
<path d="M68.3778 79.4102C68.8204 70.3222 71.8202 64.9224 83.3279 63.8799C94.8355 62.8373 108.91 66.7223 108.91 66.7223L116.385 73.1745L119.247 80.1381L119.031 88.7147L116.543 94.8324L107.376 91.4293L78.5674 78.7512L68.3778 79.4102Z" fill="#FF402C"/>
<path d="M117.576 98.7969C117.241 98.7969 116.907 98.7477 116.573 98.6396C114.881 98.0888 113.956 96.2593 114.507 94.5676C114.537 94.4594 118.018 83.4141 113.691 75.703C111.694 72.1425 108.37 69.8508 103.54 68.6902C94.9638 66.6346 83.6136 66.0543 77.4663 70.5885C74.6829 72.6441 73.1977 75.6046 72.942 79.6569C72.824 81.4371 71.2994 82.7846 69.5094 82.6666C67.7291 82.5486 66.3817 81.0142 66.4997 79.234C66.8833 73.2539 69.2832 68.5919 73.6403 65.3855C83.6234 58.0285 100.206 61.2447 105.055 62.4053C111.655 63.9888 116.464 67.4018 119.346 72.5655C125.051 82.7748 120.841 96.0036 120.654 96.5642C120.212 97.9216 118.943 98.7871 117.586 98.7871L117.576 98.7969Z" fill="#232323"/>
<path d="M61.6602 79.3411C17.9608 80.8754 37.4352 126.522 37.4352 126.522C37.4352 126.522 88.1671 130.358 121.598 130.358C155.029 130.358 161.767 125.549 161.767 125.549L160.163 103.537L112.215 96.3665C112.215 96.3665 93.8029 78.21 61.6602 79.3411Z" fill="#FF402C"/>
<path d="M94.3943 110.463V114.791L41.5182 112.607L34.7218 112.322L34.3579 94.8344L41.3215 86.5922L53.0553 81.458L60.1566 79.4122C70.3364 80.1007 77.0738 82.2154 81.549 84.6251C86.7127 87.4086 88.8667 90.5756 89.8502 92.3854C91.6796 95.759 93.3714 101.916 93.3714 101.916L94.3943 110.463Z" fill="#D3D3D3"/>
<path d="M81.549 84.6251C57.1568 81.0646 37.4561 85.6578 41.5182 112.597C42.0395 116.06 42.9542 119.876 44.2918 124.095C44.4689 124.666 44.6459 125.216 44.8131 125.767C41.8821 125.482 37.4364 125.079 37.4364 125.079L34.7218 112.322L34.3579 94.8344L41.3215 86.5922L53.0553 81.458L60.1566 79.4122C70.3364 80.1007 77.0738 82.2154 81.549 84.6251Z" fill="white"/>
<path d="M161.767 124.094L154.144 127.428L72.696 128.087C72.696 128.087 48.8742 126.179 46.7498 125.962C46.2875 125.913 45.6088 125.844 44.8121 125.766C41.8811 125.481 37.4355 125.077 37.4355 125.077L34.7208 112.321L41.5172 112.596L94.3933 114.72L159.131 117.327L161.767 124.094Z" fill="#D3D3D3"/>
<path d="M121.598 133.585C88.4325 133.585 37.7006 129.778 37.199 129.739C35.9991 129.651 34.9467 128.893 34.4746 127.792C34.0615 126.828 24.5308 104.058 34.209 88.8329C39.2743 80.8563 48.4804 76.5778 61.5519 76.1155C91.3242 75.0336 109.677 89.7574 113.68 93.3278L160.645 100.35C162.14 100.577 163.281 101.806 163.389 103.311L164.993 125.323C165.071 126.444 164.56 127.536 163.645 128.185C162.376 129.09 154.4 133.585 121.598 133.585ZM39.7267 123.454C49.5328 124.162 92.4553 127.133 121.598 127.133C144.958 127.133 154.891 124.723 158.383 123.523L157.134 106.35L111.733 99.5537C111.054 99.4553 110.435 99.1406 109.943 98.6586C109.776 98.4914 92.0126 81.4759 61.7683 82.5578C50.959 82.9414 43.5233 86.2068 39.6579 92.2655C33.1664 102.455 37.8383 118.163 39.7169 123.444L39.7267 123.454Z" fill="#232323"/>
<path d="M157.665 118.743C157.665 118.743 157.625 118.743 157.606 118.743L36.6478 113.795C35.8315 113.766 35.202 113.077 35.2315 112.261C35.261 111.445 35.9593 110.825 36.7659 110.845L157.724 115.792C158.54 115.821 159.17 116.51 159.14 117.326C159.111 118.123 158.452 118.743 157.665 118.743Z" fill="#232323"/>
<path d="M94.4032 116.275C94.3541 116.275 94.295 116.275 94.2459 116.275C93.4394 116.187 92.8492 115.459 92.9377 114.652C93.0656 113.413 95.8392 84.3586 67.3357 81.2309C66.5292 81.1424 65.9391 80.4146 66.0276 79.6081C66.1161 78.8015 66.844 78.2212 67.6505 78.2999C99.1046 81.7522 95.8982 114.642 95.8589 114.977C95.7802 115.734 95.1409 116.295 94.3934 116.295L94.4032 116.275Z" fill="#232323"/>
</svg>
