<svg width="194" height="194" viewBox="0 0 194 194" fill="none" xmlns="http://www.w3.org/2000/svg">
<path d="M34.5274 101.031C21.4087 111.235 17.8982 121.207 65.1377 120.806C112.377 120.406 155.778 117.466 166.54 101.031C177.303 84.5964 151.782 99.5371 112.936 103.606C74.09 107.676 34.5153 101.031 34.5153 101.031H34.5274Z" fill="#D3D3D3"/>
<path d="M62.5011 124.803C30.4088 124.803 24.2139 119.665 22.4526 114.6C20.1933 108.089 26.862 101.943 32.073 97.8855C32.9476 97.2053 34.0772 96.9137 35.1826 97.096C35.5713 97.1567 74.6967 103.607 112.522 99.6347C127.244 98.092 140.217 94.9095 149.692 92.5773C162.92 89.3341 168.957 87.8521 171.969 92.0914C174.654 95.8934 171.423 100.825 169.868 103.194C158.559 120.467 119.823 124.305 65.1613 124.767C64.2503 124.767 63.3635 124.767 62.4889 124.767L62.5011 124.803ZM35.6442 105.247C29.8136 110.057 29.9838 111.964 29.9838 111.988C29.9959 112.037 32.1459 117.09 65.1127 116.823C91.095 116.604 151.927 116.094 163.224 98.8451C163.527 98.3835 163.782 97.9705 164.001 97.6061C160.989 98.0313 156.093 99.2338 151.623 100.327C141.93 102.708 128.641 105.963 113.385 107.567C78.6322 111.211 43.9041 106.498 35.6685 105.234L35.6442 105.247Z" fill="#232323"/>
<path d="M81.1588 110.712C79.0938 110.712 77.3446 109.12 77.1867 107.019C77.0895 105.853 74.4657 78.1455 43.0658 77.3803C40.8672 77.3317 39.1303 75.4975 39.1789 73.2989C39.2274 71.1003 41.0981 69.3268 43.2602 69.4119C81.9726 70.3472 85.1186 106.059 85.1429 106.424C85.3129 108.622 83.6611 110.529 81.4625 110.699C81.3653 110.699 81.256 110.699 81.1588 110.699V110.712Z" fill="#232323"/>
</svg>
