<svg width="194" height="194" viewBox="0 0 194 194" fill="none" xmlns="http://www.w3.org/2000/svg">
<path d="M164.587 97.2375L163.536 123.869L40.0377 120.556L36.2423 120.449C26.6575 107.026 25.7784 71.6566 56.8594 70.3486C65.565 69.984 78.9666 72.2462 91.9715 75.5055C104.408 78.6254 116.48 82.6566 123.739 86.1731C138.609 93.3671 164.587 97.2375 164.587 97.2375Z" fill="#EB5747"/>
<path d="M99.1869 81.0805C42.0747 66.3495 37.4431 84.254 41.4314 109.663C42.2463 114.863 41.5923 118.337 40.0377 120.556L36.2423 120.449C26.6575 107.026 25.7784 71.6566 56.8594 70.3486C65.565 69.984 78.9666 72.2462 91.9715 75.5055L99.1869 81.0805Z" fill="#B7B7B7"/>
<path d="M30.3564 109.514L164.833 114.521L163.225 120.46L35.5241 118.177L30.3564 109.514Z" fill="#B7B7B7"/>
<path d="M163.547 127.386C163.547 127.386 163.482 127.386 163.45 127.386L36.1567 123.977C35.0524 123.945 34.0339 123.398 33.3906 122.508C27.0115 113.577 24.0631 95.8549 30.4315 82.8179C33.8087 75.8919 41.1099 67.5079 56.7308 66.8539C73.8526 66.1249 109.319 75.2916 125.293 83.0216C139.499 89.8939 164.865 93.7428 165.123 93.7857C166.903 94.0538 168.189 95.6083 168.114 97.3988L167.074 124.02C166.999 125.907 165.444 127.397 163.557 127.397L163.547 127.386ZM38.183 116.987L160.159 120.257L160.941 100.218C153.479 98.9319 134.449 95.2653 122.206 89.3471C107.078 82.0245 72.7269 73.2116 56.9988 73.8763C47.2424 74.2838 40.4238 78.3364 36.7356 85.9056C31.9754 95.6512 33.6264 109.31 38.183 116.997V116.987Z" fill="#232323"/>
<path d="M75.3213 86.4958C85.3242 91.2775 99.0903 99.104 110.262 97.2492C111.227 96.8633 111.495 97.0884 112.342 96.3058C112.835 95.8555 113.425 94.7405 113.886 93.722C114.411 92.5426 116.03 92.2103 116.973 93.0894C119.429 95.2765 119.707 99.3506 117.713 102.181C115.762 105.054 112.395 106.309 109.286 106.63C104.097 107.016 99.6907 105.247 95.2628 103.285C91.1887 101.377 87.4256 99.1469 83.909 96.6381C80.4031 94.1401 77.0474 91.4705 73.8846 88.565C72.8125 87.5894 74.0347 85.8097 75.332 86.4851L75.3213 86.4958Z" fill="#232323"/>
<path d="M163.225 116.077C163.225 116.077 163.182 116.077 163.161 116.077L33.3907 111.123C32.5008 111.091 31.8146 110.341 31.8468 109.451C31.879 108.561 32.608 107.853 33.5193 107.907L163.289 112.86C164.179 112.892 164.865 113.643 164.833 114.533C164.801 115.401 164.083 116.077 163.225 116.077Z" fill="#232323"/>
</svg>
