<svg width="713" height="937" viewBox="0 0 713 937" fill="none" xmlns="http://www.w3.org/2000/svg">
<path d="M486.02 331.851L489.149 310.611L498.169 307.101L499.66 315.301L499.219 306.691L516.429 300.541L517.739 321.111L531.08 330.971L512.739 337.101L507.379 334.641L508.049 339.791L498.209 343.251L486.02 331.851Z" fill="#DCA353"/>
<path d="M498.209 346.531C497.389 346.531 496.589 346.221 495.969 345.641L483.779 334.241C482.989 333.501 482.619 332.431 482.779 331.371L485.91 310.131C486.08 308.961 486.869 307.981 487.969 307.551L496.989 304.051C497.159 303.981 497.34 303.931 497.52 303.891C497.71 303.781 497.91 303.681 498.12 303.601L515.339 297.451C516.309 297.101 517.39 297.231 518.25 297.801C519.11 298.371 519.659 299.301 519.719 300.331L520.929 319.371L533.04 328.331C534.02 329.061 534.52 330.271 534.33 331.481C534.14 332.691 533.289 333.691 532.129 334.081L513.79 340.211C513 340.471 512.139 340.431 511.379 340.081L511.319 340.051C511.209 341.321 510.38 342.441 509.14 342.871L499.299 346.341C498.939 346.461 498.579 346.531 498.209 346.531ZM489.52 330.631L499 339.501L504.449 337.581L504.12 335.071C503.97 333.891 504.469 332.711 505.429 332.001C506.389 331.291 507.659 331.161 508.739 331.661L512.929 333.581L524.049 329.861L515.779 323.751C514.999 323.171 514.519 322.291 514.459 321.321L513.429 305.101L502.609 308.961L502.929 315.131C503.019 316.861 501.749 318.361 500.029 318.561C498.309 318.761 496.729 317.591 496.419 315.891L495.64 311.601L492.109 312.971L489.509 330.621L489.52 330.631Z" fill="#232323"/>
<path d="M447.339 342.661C466.449 335.091 485.889 328.291 505.779 323.061C507.789 322.561 508.849 325.421 506.969 326.331C488.359 335.091 469.09 342.361 449.58 348.831C445.58 350.021 443.499 344.321 447.339 342.661Z" fill="#232323"/>
<path d="M244.759 382.221C244.309 372.771 257.729 371.191 260.409 378.131C262.529 383.601 261.309 399.351 260.689 405.771C260.539 407.351 259.209 408.551 257.629 408.551C255.949 408.551 254.579 407.201 254.549 405.511L254.369 391.191L251.689 391.431C247.959 391.761 244.739 388.821 244.749 385.071V382.221H244.759Z" fill="#232323"/>
<path d="M228.449 388.511L210.259 378.121L186.5 403.961L219.419 405.341L228.449 388.511Z" fill="#DCA353"/>
<path d="M219.42 408.621C219.42 408.621 219.329 408.621 219.279 408.621L186.359 407.241C185.079 407.191 183.949 406.401 183.469 405.221C182.979 404.041 183.219 402.681 184.089 401.741L207.85 375.911C208.89 374.781 210.56 374.531 211.89 375.281L230.08 385.671C231.62 386.551 232.179 388.501 231.339 390.071L222.31 406.901C221.74 407.971 220.62 408.631 219.42 408.631V408.621ZM193.699 400.981L217.5 401.981L224.049 389.781L210.91 382.271L193.699 400.981Z" fill="#232323"/>
<path d="M252.429 385.382C240.419 388.752 228.07 390.872 215.83 393.252C214.34 393.512 213.75 391.372 215.17 390.842C226.93 386.682 238.65 382.242 250.71 379.052C254.82 378.152 256.44 384.062 252.44 385.382H252.429Z" fill="#232323"/>
<path d="M448.459 339.971C439.789 339.641 440.559 345.631 441.299 350.551C441.899 354.501 442.399 366.251 442.579 370.711C442.619 371.691 443.419 372.461 444.399 372.461C445.409 372.461 446.219 371.641 446.219 370.641V355.711C446.219 354.921 446.86 354.271 447.66 354.271C448.44 354.271 449.07 354.891 449.1 355.661L450.169 392.071C450.219 393.681 451.539 394.971 453.149 394.971C454.829 394.971 456.179 393.591 456.129 391.911C455.899 383.151 455.23 358.171 454.87 351.591C454.43 343.571 452.339 340.111 448.459 339.961V339.971Z" fill="#232323"/>
</svg>
