<svg width="713" height="937" viewBox="0 0 713 937" fill="none" xmlns="http://www.w3.org/2000/svg">
<path d="M319.154 369.484H270.064C262.492 369.484 256.354 375.623 256.354 383.194V418.964C256.354 426.536 262.492 432.674 270.064 432.674H319.154C326.726 432.674 332.864 426.536 332.864 418.964V383.194C332.864 375.623 326.726 369.484 319.154 369.484Z" fill="#B898DA"/>
<path d="M319.154 435.175H270.064C261.124 435.175 253.854 427.905 253.854 418.965V383.185C253.854 374.245 261.124 366.975 270.064 366.975H319.154C328.094 366.975 335.364 374.245 335.364 383.185V418.965C335.364 427.905 328.094 435.175 319.154 435.175ZM270.054 371.985C263.874 371.985 258.844 377.015 258.844 383.195V418.975C258.844 425.155 263.874 430.185 270.054 430.185H319.144C325.324 430.185 330.354 425.155 330.354 418.975V383.195C330.354 377.015 325.324 371.985 319.144 371.985H270.054Z" fill="#232323"/>
<path d="M316.744 379.455H272.464C269.078 379.455 266.334 382.2 266.334 385.585V416.575C266.334 419.961 269.078 422.705 272.464 422.705H316.744C320.13 422.705 322.874 419.961 322.874 416.575V385.585C322.874 382.2 320.13 379.455 316.744 379.455Z" fill="#232323"/>
<path d="M316.744 423.705H272.464C268.534 423.705 265.334 420.505 265.334 416.575V385.595C265.334 381.665 268.534 378.465 272.464 378.465H316.744C320.674 378.465 323.874 381.665 323.874 385.595V416.575C323.874 420.505 320.674 423.705 316.744 423.705ZM272.464 380.455C269.634 380.455 267.334 382.755 267.334 385.585V416.565C267.334 419.395 269.634 421.695 272.464 421.695H316.744C319.574 421.695 321.874 419.395 321.874 416.565V385.585C321.874 382.755 319.574 380.455 316.744 380.455H272.464Z" fill="#232323"/>
<path d="M390.295 396.345H333.645V402.385H390.295V396.345Z" fill="#B898DA"/>
<path d="M390.294 393.064H333.644C331.833 393.064 330.364 394.533 330.364 396.344V402.384C330.364 404.196 331.833 405.664 333.644 405.664H390.294C392.106 405.664 393.574 404.196 393.574 402.384V396.344C393.574 394.533 392.106 393.064 390.294 393.064Z" fill="#232323"/>
<path d="M421.564 436.614C442.369 436.614 459.234 419.749 459.234 398.944C459.234 378.14 442.369 361.274 421.564 361.274C400.76 361.274 383.894 378.14 383.894 398.944C383.894 419.749 400.76 436.614 421.564 436.614Z" fill="#B898DA"/>
<path d="M421.564 439.114C399.414 439.114 381.394 421.094 381.394 398.944C381.394 376.794 399.414 358.774 421.564 358.774C443.714 358.774 461.734 376.794 461.734 398.944C461.734 421.094 443.714 439.114 421.564 439.114ZM421.564 363.774C402.174 363.774 386.394 379.554 386.394 398.944C386.394 418.334 402.174 434.114 421.564 434.114C440.954 434.114 456.734 418.334 456.734 398.944C456.734 379.554 440.954 363.774 421.564 363.774Z" fill="#232323"/>
<path d="M421.564 424.394C435.62 424.394 447.014 413 447.014 398.944C447.014 384.888 435.62 373.494 421.564 373.494C407.509 373.494 396.114 384.888 396.114 398.944C396.114 413 407.509 424.394 421.564 424.394Z" fill="#232323"/>
<path d="M421.564 425.394C406.984 425.394 395.114 413.534 395.114 398.944C395.114 384.354 406.974 372.494 421.564 372.494C436.154 372.494 448.014 384.354 448.014 398.944C448.014 413.534 436.154 425.394 421.564 425.394ZM421.564 374.504C408.084 374.504 397.114 385.474 397.114 398.954C397.114 412.434 408.084 423.404 421.564 423.404C435.044 423.404 446.014 412.434 446.014 398.954C446.014 385.474 435.044 374.504 421.564 374.504Z" fill="#232323"/>
</svg>
