<svg width="388" height="179" viewBox="0 0 388 179" fill="none" xmlns="http://www.w3.org/2000/svg">
<path d="M386.086 46.5562V177.34H1.30859V46.5562H386.086Z" fill="#0069C3" stroke="#2C2C2C" stroke-width="2.61811"/>
<path d="M193.697 1.30957C246.533 1.30958 294.409 6.37921 329.112 14.5967C346.454 18.703 360.579 23.612 370.4 29.1104C380.113 34.5477 386.086 40.8334 386.086 47.8643C386.086 54.8951 380.113 61.1808 370.4 66.6182C360.579 72.1166 346.454 77.0255 329.112 81.1318C294.409 89.3493 246.533 94.4199 193.697 94.4199C140.861 94.4199 92.9849 89.3494 58.2812 81.1318C40.9401 77.0256 26.8155 72.1165 16.9941 66.6182C7.28178 61.1808 1.30859 54.8951 1.30859 47.8643C1.30863 40.8334 7.28181 34.5477 16.9941 29.1104C26.8155 23.612 40.9401 18.7029 58.2812 14.5967C92.9849 6.37915 140.861 1.30957 193.697 1.30957Z" fill="#2A9CFF" stroke="#2C2C2C" stroke-width="2.61811"/>
</svg>
