<svg width="102" height="102" viewBox="0 0 102 102" fill="none" xmlns="http://www.w3.org/2000/svg">
<path d="M33.9707 80.6304C32.7045 80.6304 31.548 80.3699 30.556 80.0179C21.3358 76.7129 13.6058 59.7216 13.4458 50.3825C13.3316 43.8548 13.8207 37.3225 18.1268 33.7524C21.4729 30.9776 26.6704 30.3651 34.0119 31.8782C35.1227 32.1067 35.8403 33.1947 35.6118 34.3101C35.3832 35.4255 34.2907 36.1386 33.1799 35.91C27.1413 34.6666 23.0775 34.9957 20.7553 36.9248C17.784 39.3887 17.464 44.8148 17.56 50.3185C17.6971 58.1582 24.4762 73.4764 31.9456 76.1506C34.6061 77.1014 37.07 76.1872 39.4928 73.3439C40.2287 72.4799 41.527 72.3748 42.3909 73.1108C43.2549 73.8467 43.36 75.1449 42.6241 76.0089C39.607 79.5516 36.5626 80.635 33.9753 80.635L33.9707 80.6304Z" fill="#232323"/>
<path d="M48.7548 26.5112L27.2197 32.9841L39.9872 82.3489L86.9384 72.6122L71.4008 25.2542L48.7548 26.5112Z" fill="#2A9CFF"/>
<path d="M39.9808 84.4061C39.0619 84.4061 38.23 83.789 37.9923 82.8656L25.2248 33.5008C24.946 32.4311 25.5676 31.334 26.6236 31.014L48.1587 24.5411C48.3141 24.4954 48.4741 24.468 48.6387 24.4589L71.2892 23.2018C72.2171 23.1515 73.0674 23.7275 73.3599 24.6143L88.8976 71.9723C89.0804 72.53 89.0164 73.138 88.7239 73.6454C88.4313 74.1528 87.933 74.5094 87.3616 74.6282L40.4105 84.365C40.2687 84.3924 40.127 84.4061 39.9899 84.4061H39.9808ZM29.7046 34.383L41.4847 79.9354L84.2623 71.0626L69.9361 27.3936L49.1095 28.5501L29.7046 34.383Z" fill="#232323"/>
<path d="M44.7628 34.6529C43.6428 34.6529 42.7286 33.7569 42.7057 32.6324C42.5595 24.3859 44.5525 19.3072 48.6346 17.5336C51.6608 16.2171 57.0732 16.3953 65.6808 24.715C66.499 25.5058 66.5219 26.8086 65.7311 27.6223C64.9402 28.4406 63.642 28.4634 62.8238 27.6726C57.4617 22.4934 52.8905 20.1712 50.2757 21.3094C47.9718 22.3105 46.7102 26.4155 46.8199 32.5638C46.8381 33.6975 45.9376 34.6346 44.7994 34.6575C44.7857 34.6575 44.7765 34.6575 44.7628 34.6575V34.6529Z" fill="#232323"/>
<path d="M72.5058 21.3962L28.9922 30.0039L36.9644 48.0694H62.4125L76.9308 35.9328L72.5058 21.3962Z" fill="#2A9CFF"/>
<path d="M62.4126 50.1265H36.96C36.1463 50.1265 35.4058 49.6465 35.0766 48.9014L27.1044 30.8405C26.853 30.2691 26.8758 29.6154 27.1638 29.0577C27.4518 28.5046 27.9775 28.1114 28.5901 27.988L72.1082 19.3804C73.1459 19.1701 74.1699 19.7872 74.4761 20.7975L78.8965 35.334C79.1388 36.1248 78.8828 36.9796 78.2474 37.5099L63.7337 49.642C63.3635 49.9528 62.8972 50.1219 62.4126 50.1219V50.1265ZM38.3039 46.0124H61.6675L74.563 35.2289L71.0797 23.7779L31.9088 31.5261L38.3039 46.0124Z" fill="#232323"/>
<path d="M57.7132 43.1463C55.5419 43.1463 53.7773 41.3818 53.7773 39.2105C53.7773 37.0391 55.5419 35.2747 57.7132 35.2747C59.8845 35.2747 61.649 37.0391 61.649 39.2105C61.649 41.3818 59.8845 43.1463 57.7132 43.1463ZM57.7132 39.0322C57.6126 39.0322 57.5349 39.1145 57.5349 39.2105C57.5349 39.3065 57.6172 39.3888 57.7132 39.3888C57.8092 39.3888 57.8915 39.3065 57.8915 39.2105C57.8915 39.1145 57.8092 39.0322 57.7132 39.0322Z" fill="#232323"/>
</svg>
