<svg width="102" height="102" viewBox="0 0 102 102" fill="none" xmlns="http://www.w3.org/2000/svg">
<path d="M70.6216 38.9825C64.1676 21.8499 27.4491 18.9538 16.0986 38.4252C4.74817 57.8966 18.9897 77.8159 18.9897 77.8159L90.7548 23.5168" fill="#2A9CFF"/>
<path d="M18.9942 80.0552C18.8797 80.0552 18.7702 80.0452 18.6558 80.0303C18.0587 79.9407 17.5212 79.6123 17.1729 79.1196C16.5559 78.2588 2.22475 57.7872 14.1674 37.3006C19.9794 27.3285 32.9969 21.6608 47.328 22.865C58.3799 23.7906 67.2671 28.4979 71.3625 35.3848L89.4107 21.7305C90.396 20.984 91.7992 21.1781 92.5457 22.1634C93.2921 23.1486 93.098 24.5519 92.1127 25.2983L72.5717 40.0823C72.3229 40.5201 71.9248 40.8784 71.4122 41.0725C71.3277 41.1024 71.2431 41.1322 71.1585 41.1521L20.3477 79.5973C19.9546 79.8909 19.4818 80.0502 18.9991 80.0502L18.9942 80.0552ZM43.7452 27.1942C34.5892 27.1942 23.398 30.349 18.0338 39.5548C9.54457 54.1198 16.5708 69.2571 19.5963 74.5516L67.7548 38.1167C64.5552 32.3046 56.6432 28.1446 46.9498 27.3335C45.9198 27.2489 44.8449 27.1992 43.7452 27.1992V27.1942Z" fill="#232323"/>
<path d="M57.215 47.208C56.9463 47.208 56.6776 47.0986 56.4836 46.8846C56.3243 46.7154 40.5053 29.7469 23.7907 32.7276C23.2483 32.8271 22.7308 32.4639 22.6362 31.9215C22.5417 31.3791 22.8999 30.8616 23.4423 30.767C41.2418 27.5923 57.2797 44.8046 57.9515 45.5361C58.3247 45.9391 58.2949 46.5711 57.8918 46.9443C57.7027 47.1185 57.4589 47.208 57.22 47.208H57.215Z" fill="#232323"/>
<path d="M37.6989 64.6542C37.4401 64.6542 37.1863 64.5547 36.9923 64.3606C36.2011 63.5595 17.6005 44.6006 18.0035 34.4544C18.0234 33.907 18.4663 33.4791 19.0386 33.499C19.5859 33.5189 20.0139 33.9816 19.994 34.534C19.6257 43.8243 38.2263 62.7733 38.4105 62.9624C38.7986 63.3555 38.7936 63.9825 38.4005 64.3706C38.2064 64.5597 37.9527 64.6592 37.6989 64.6592V64.6542Z" fill="#232323"/>
</svg>
