<svg width="37" height="40" viewBox="0 0 37 40" fill="none" xmlns="http://www.w3.org/2000/svg">
<path d="M33.9258 31.9348C34.768 31.9348 35.4502 32.6171 35.4502 33.4592V36.926C35.4502 37.7682 34.7679 38.4504 33.9258 38.4504H2.67383C1.83165 38.4504 1.14941 37.7681 1.14941 36.926V33.4592C1.14941 32.617 1.83175 31.9348 2.67383 31.9348H33.9258ZM22.2988 1.14966C23.5946 1.14966 24.6299 2.21217 24.6299 3.48071V14.2415H28.4521C29.9912 14.2418 30.8082 16.1217 29.6924 17.2375L20.1914 26.7395C19.1475 27.7833 17.4514 27.7849 16.4072 26.7395L6.90625 17.2385C6.14111 16.4733 6.26857 15.2687 7.03613 14.6379L7.19336 14.509L7.38574 14.4417L7.76562 14.3079L7.95117 14.2434H11.9688V3.48071C11.9688 2.19521 13.0143 1.14966 14.2998 1.14966H22.2988Z" fill="#2A9CFF" stroke="black" stroke-width="2.3"/>
</svg>
