<svg width="693" height="815" viewBox="0 0 693 815" fill="none" xmlns="http://www.w3.org/2000/svg">
<g clip-path="url(#clip0_1135_1843)">
<rect x="8" y="8" width="677" height="799" rx="32" fill="#2A9CFF"/>
<path d="M-118.91 377.28L207.55 603.42L247.8 585.9L-169 103.44L-145.74 -208.88L287.76 575.52L324.3 574.62L-21.87 -341L169.09 -336.11H229.91L347.08 564.78L321.49 655.12L243.52 698.05L-146.64 524.01L-118.91 377.28Z" fill="black" fill-opacity="0.04"/>
<path d="M790.29 377.28L463.83 603.42L423.58 585.9L840.37 103.44L817.12 -208.88L383.61 575.52L347.08 574.62L693.24 -341L502.29 -336.11H441.47L324.3 564.78L349.88 655.12L427.86 698.05L818.01 524.01L790.29 377.28Z" fill="black" fill-opacity="0.04"/>
</g>
<rect x="4" y="4" width="685" height="807" rx="36" stroke="black" stroke-width="8"/>
<defs>
<clipPath id="clip0_1135_1843">
<rect x="8" y="8" width="677" height="799" rx="32" fill="white"/>
</clipPath>
</defs>
</svg>
