<svg width="49" height="48" viewBox="0 0 49 48" fill="none" xmlns="http://www.w3.org/2000/svg">
<path d="M10.2534 34.366C8.53167 34.3532 6.86636 33.7506 5.5352 32.6586C2.24898 30.1067 2.02868 24.6817 2.0195 24.4523C1.93689 16.8701 8.59192 16.0072 8.65618 16.0072C9.63837 15.8787 18.4322 14.9057 21.5899 18.4673C22.1155 19.0774 22.4759 19.8121 22.6366 20.6011C22.7973 21.3902 22.753 22.2073 22.5078 22.9744C20.5159 31.0247 12.7777 33.8886 12.4105 33.9896C11.7194 34.2418 10.989 34.3692 10.2534 34.366ZM3.82783 24.3972C3.82783 24.6358 4.08486 29.2347 6.63672 31.2174C7.3257 31.8192 8.15767 32.234 9.05293 32.4221C9.94819 32.6101 10.8767 32.5651 11.7496 32.2914C11.869 32.2914 18.9462 29.6019 20.6995 22.5246C20.8656 22.0461 20.9056 21.5328 20.8155 21.0344C20.7255 20.5359 20.5085 20.0691 20.1855 19.679C18.0558 17.274 11.2815 17.5218 8.84894 17.8431C8.66536 17.8431 3.8003 18.5224 3.85537 24.388L3.82783 24.3972Z" fill="black"/>
<path d="M37.9475 34.3659C37.1807 34.3744 36.4187 34.2437 35.6985 33.9803C35.4232 33.8794 27.6758 31.0154 25.6839 22.9651C25.4387 22.198 25.3944 21.3809 25.5551 20.5919C25.7158 19.8028 26.0762 19.0681 26.6018 18.458C29.7595 14.8964 38.535 15.8695 39.5447 15.998C39.609 15.998 46.264 16.9159 46.1814 24.4338C46.1814 24.6633 45.9519 30.0883 42.6657 32.6401C41.3359 33.7368 39.671 34.3457 37.9475 34.3659ZM35.9464 17.6227C33.0274 17.6227 29.429 18.0358 27.9695 19.6697C27.6504 20.062 27.4366 20.5291 27.3482 21.0271C27.2599 21.525 27.3 22.0372 27.4647 22.5153C29.2179 29.5926 36.3411 32.2363 36.3411 32.2638C37.2204 32.5482 38.1584 32.6005 39.0639 32.4156C39.9694 32.2306 40.8117 31.8147 41.5091 31.2082C44.0701 29.2071 44.3088 24.6266 44.318 24.3879C44.373 18.5223 39.4988 17.8338 39.2969 17.8063C38.1843 17.6832 37.0657 17.622 35.9464 17.6227Z" fill="black"/>
<path d="M32.6694 17.843H16.6422C16.3988 17.843 16.1653 17.7462 15.9932 17.5741C15.821 17.4019 15.7243 17.1685 15.7243 16.925C15.7243 16.6816 15.821 16.4481 15.9932 16.2759C16.1653 16.1038 16.3988 16.0071 16.6422 16.0071H32.6694C32.9129 16.0071 33.1463 16.1038 33.3185 16.2759C33.4906 16.4481 33.5873 16.6816 33.5873 16.925C33.5873 17.1685 33.4906 17.4019 33.3185 17.5741C33.1463 17.7462 32.9129 17.843 32.6694 17.843Z" fill="black"/>
<path d="M26.3998 21.9187C26.2311 21.9175 26.0659 21.8699 25.9225 21.781C25.3538 21.4916 24.7247 21.3407 24.0866 21.3407C23.4485 21.3407 22.8195 21.4916 22.2508 21.781C22.0365 21.9027 21.7827 21.9343 21.5452 21.8689C21.3076 21.8035 21.1057 21.6464 20.984 21.4322C20.8623 21.2179 20.8307 20.9641 20.8961 20.7265C20.9615 20.489 21.1186 20.2871 21.3328 20.1654C22.1797 19.7114 23.1257 19.4739 24.0866 19.4739C25.0475 19.4739 25.9935 19.7114 26.8405 20.1654C26.9571 20.2262 27.0593 20.3114 27.1401 20.4151C27.221 20.5189 27.2786 20.6388 27.3091 20.7668C27.3395 20.8947 27.3422 21.0277 27.3167 21.1568C27.2913 21.2858 27.2384 21.4079 27.1617 21.5148C27.0775 21.6393 26.964 21.7413 26.8312 21.8117C26.6983 21.8822 26.5502 21.9189 26.3998 21.9187Z" fill="black"/>
<path d="M3.52487 21.9186H0.917936C0.674484 21.9186 0.441004 21.8219 0.268857 21.6498C0.096711 21.4776 0 21.2442 0 21.0007C0 20.7572 0.096711 20.5238 0.268857 20.3516C0.441004 20.1795 0.674484 20.0828 0.917936 20.0828H3.52487C3.76833 20.0828 4.00181 20.1795 4.17395 20.3516C4.3461 20.5238 4.44281 20.7572 4.44281 21.0007C4.44281 21.2442 4.3461 21.4776 4.17395 21.6498C4.00181 21.8219 3.76833 21.9186 3.52487 21.9186Z" fill="black"/>
<path d="M47.3012 21.9186H44.6943C44.4509 21.9186 44.2174 21.8219 44.0452 21.6498C43.8731 21.4776 43.7764 21.2442 43.7764 21.0007C43.7764 20.7572 43.8731 20.5238 44.0452 20.3516C44.2174 20.1795 44.4509 20.0828 44.6943 20.0828H47.3012C47.5447 20.0828 47.7782 20.1795 47.9503 20.3516C48.1225 20.5238 48.2192 20.7572 48.2192 21.0007C48.2192 21.2442 48.1225 21.4776 47.9503 21.6498C47.7782 21.8219 47.5447 21.9186 47.3012 21.9186Z" fill="black"/>
</svg>
