<svg width="102" height="102" viewBox="0 0 102 102" fill="none" xmlns="http://www.w3.org/2000/svg">
<path d="M88.9036 63.2191C88.7886 63.2191 88.6737 63.2027 88.5588 63.1644L13.1772 38.0391C12.6026 37.8475 12.2961 37.2291 12.4877 36.6545C12.6792 36.0798 13.2976 35.7679 13.8723 35.9649L89.2538 61.0902C89.8285 61.2818 90.1349 61.9002 89.9434 62.4748C89.7902 62.9346 89.3633 63.2246 88.9036 63.2246V63.2191Z" fill="#232323"/>
<path d="M31.2527 61.3857C39.7671 61.3857 46.6694 54.4834 46.6694 45.969C46.6694 37.4545 39.7671 30.5522 31.2527 30.5522C22.7382 30.5522 15.8359 37.4545 15.8359 45.969C15.8359 54.4834 22.7382 61.3857 31.2527 61.3857Z" fill="#2A9CFF"/>
<path d="M31.2529 63.854C29.8574 63.854 28.4454 63.6898 27.0334 63.345C22.3926 62.2176 18.4686 59.3499 15.984 55.2727C13.4994 51.1955 12.7496 46.3905 13.877 41.7496C16.2029 32.1668 25.8896 26.2672 35.4724 28.5931C40.1133 29.7205 44.0373 32.5882 46.5219 36.6654C49.0065 40.7426 49.7563 45.5477 48.6289 50.1886C46.6477 58.3594 39.3088 63.854 31.2529 63.854ZM31.2529 33.0151C25.4135 33.0151 20.0995 36.9938 18.6601 42.9153C16.9745 49.8602 21.2542 56.8762 28.1937 58.5618C35.1386 60.2474 42.1546 55.9732 43.8402 49.0283C44.6557 45.6681 44.1139 42.1874 42.3133 39.2321C40.5128 36.2768 37.667 34.1972 34.3067 33.3818C33.2833 33.1355 32.2599 33.0151 31.2529 33.0151Z" fill="#232323"/>
<path d="M69.945 70.7824C78.4595 70.7824 85.3617 63.8801 85.3617 55.3657C85.3617 46.8513 78.4595 39.949 69.945 39.949C61.4306 39.949 54.5283 46.8513 54.5283 55.3657C54.5283 63.8801 61.4306 70.7824 69.945 70.7824Z" fill="#2A9CFF"/>
<path d="M69.9394 73.2453C68.5439 73.2453 67.1319 73.0811 65.72 72.7363C61.0791 71.6089 57.1551 68.7412 54.6705 64.664C52.1859 60.5868 51.4361 55.7818 52.5635 51.1409C53.6909 46.5 56.5586 42.576 60.6358 40.0914C64.713 37.6068 69.518 36.857 74.1589 37.9844C83.7417 40.3103 89.6413 49.9971 87.3154 59.5798C85.3343 67.7506 77.9953 73.2453 69.9394 73.2453ZM69.9176 42.4009C67.5698 42.4009 65.2603 43.0467 63.2025 44.2999C60.2472 46.1005 58.1676 48.9463 57.3521 52.3066C56.5367 55.6668 57.0785 59.1475 58.879 62.1028C60.6796 65.058 63.5254 67.1377 66.8857 67.9531C73.8251 69.6387 80.8466 65.359 82.5322 58.4196C83.3477 55.0539 82.8059 51.5787 81.0053 48.6234C79.2048 45.6681 76.359 43.5885 72.9987 42.773C71.9753 42.5268 70.941 42.4009 69.9176 42.4009Z" fill="#232323"/>
</svg>
