<svg width="48" height="48" viewBox="0 0 48 48" fill="none" xmlns="http://www.w3.org/2000/svg">
<path d="M21.9057 6.19189C22.0443 6.18851 22.1802 6.23265 22.2895 6.31787C22.3715 6.38183 22.4346 6.46608 22.4741 6.56104L22.5053 6.65967L22.5102 6.68799C22.5252 6.8162 22.4984 6.94583 22.4331 7.05713C22.3675 7.16859 22.2665 7.25591 22.1469 7.30518L22.146 7.30615C22.063 7.33963 21.9882 7.37327 21.9214 7.40674C25.6758 5.95048 29.888 6.26192 34.7563 8.29736L34.7602 8.29932C34.8865 8.3543 34.9898 8.4514 35.0532 8.57373C35.1165 8.69603 35.1358 8.83636 35.1079 8.97119L35.1059 8.97998C35.0737 9.11279 34.9978 9.23083 34.8901 9.31494C34.7823 9.39905 34.6489 9.44493 34.5122 9.44385H34.5063V9.44287C33.9185 9.42696 33.3309 9.45662 32.7485 9.52881C36.2145 10.581 39 12.6569 41.0532 15.6958C43.3358 19.0743 44.7054 23.6284 45.1216 29.2612L45.1206 29.3667C45.1105 29.4707 45.073 29.571 45.0112 29.6567C44.9287 29.7711 44.8083 29.8527 44.6714 29.8862C44.5343 29.9198 44.3892 29.9028 44.2632 29.8394C44.1683 29.7916 44.0887 29.7195 44.0317 29.6313C43.8734 33.2789 42.7982 36.8341 40.893 39.9644L40.894 39.9653C40.8299 40.0736 40.7332 40.1589 40.6176 40.2085C40.5019 40.2581 40.3731 40.27 40.2505 40.2417C40.1278 40.2134 40.0173 40.1465 39.935 40.0513C39.8527 39.956 39.8026 39.8369 39.7924 39.7114V39.7104C39.7535 39.1974 39.7082 38.6709 39.6626 38.1362V38.1343C39.3979 34.8669 39.1186 31.4388 38.271 28.7808C37.4235 26.1234 36.0446 24.339 33.6352 24.1685V24.1675C32.6377 24.1045 31.6421 24.32 30.7592 24.7886L30.7553 24.7905C24.9796 27.7278 18.9025 27.3294 12.7387 23.647C10.2149 24.4826 8.90764 26.8922 8.46628 30.1011C8.04712 33.1488 8.42375 36.8452 9.23386 40.3784L9.40085 41.0835L9.40182 41.0864C9.4333 41.2212 9.41686 41.363 9.35495 41.4868C9.29305 41.6106 9.18964 41.7085 9.06296 41.7642C9.05816 41.7663 9.05322 41.7682 9.04831 41.77C8.97519 41.7973 8.89768 41.809 8.81979 41.8062V41.8071C8.81523 41.8071 8.81067 41.8073 8.80612 41.8071V41.8062C8.71377 41.8032 8.62302 41.7796 8.54147 41.7358C8.45636 41.6901 8.38386 41.6243 8.32956 41.5444V41.5454C5.89707 38.0182 4.53457 33.1887 4.15085 26.8315L4.01022 26.9897L4.00925 26.9907C3.93112 27.0774 3.82853 27.1392 3.7153 27.1675C3.60404 27.1953 3.48751 27.1888 3.37936 27.1509V27.1519L3.3735 27.1499V27.1489C3.26162 27.11 3.16373 27.0394 3.09225 26.9448C3.0195 26.8485 2.97693 26.7324 2.97116 26.6118L2.97214 26.6108C2.64564 22.6754 3.16435 19.5192 4.56882 17.1812C5.95328 14.8765 8.17685 13.403 11.2026 12.7515C11.7817 10.0166 13.4396 8.41235 15.4497 7.479C17.4881 6.53253 19.8903 6.27367 21.9018 6.19189H21.9057ZM20.2798 7.48486C17.8621 7.73768 16.053 8.30612 14.7671 9.2085C13.4015 10.1668 12.6007 11.5185 12.2983 13.3384C12.2784 13.4596 12.2219 13.5717 12.1362 13.6597C12.0504 13.7476 11.9395 13.8076 11.8188 13.8306C8.99174 14.3672 6.97196 15.6092 5.70358 17.5649C4.50835 19.408 3.95728 21.9187 4.07272 25.1479L4.23679 24.9722C4.29155 24.9127 4.35821 24.8654 4.4321 24.8325C4.50703 24.7992 4.5884 24.7812 4.67038 24.7808C4.68928 24.7789 4.70805 24.7759 4.72702 24.7759L4.83249 24.7856L4.86569 24.7935C4.98192 24.8306 5.08396 24.9047 5.15573 25.0034C5.22513 25.099 5.2623 25.2136 5.26413 25.3315H5.26511C5.44824 30.2328 6.17441 34.2102 7.46432 37.3813C7.02177 34.3547 6.95807 31.3436 7.49362 28.8071C8.14978 25.6999 9.7214 23.2521 12.646 22.4272L12.7671 22.4038C12.8082 22.4004 12.8499 22.4015 12.8911 22.4067C12.9732 22.4173 13.0519 22.4455 13.1225 22.4888L13.6762 22.8169C19.3932 26.1167 24.9417 26.4082 30.2133 23.729C31.2922 23.1686 32.5039 22.9131 33.7173 22.9897H33.7192C35.2134 23.0972 36.384 23.682 37.2993 24.6089C38.2087 25.5299 38.8558 26.778 39.3315 28.2036C40.2426 30.9344 40.5486 34.3943 40.813 37.6431C42.449 34.2662 43.1423 30.5034 42.8032 26.7544C42.7907 26.6134 42.8295 26.4715 42.9126 26.3569C42.9945 26.2441 43.114 26.1641 43.2495 26.1313C43.3559 26.1044 43.4671 26.108 43.5708 26.1401C43.0381 22.7435 42.0006 19.2781 40.0991 16.4312C37.9763 13.253 34.7729 10.8358 29.9594 10.144H29.9575C29.8259 10.1241 29.7048 10.0604 29.6137 9.96338C29.5225 9.86597 29.4667 9.73991 29.4555 9.60693C29.4444 9.47408 29.4777 9.34118 29.5512 9.22998C29.6249 9.11872 29.7341 9.03535 29.8608 8.99365C30.4836 8.78694 31.1191 8.62181 31.7632 8.50049C27.6726 7.2713 24.1643 7.48403 21.0639 9.12451L21.0512 9.13135C20.9701 9.16922 20.881 9.18896 20.7915 9.18896C20.7021 9.18889 20.6137 9.16915 20.5327 9.13135L20.5317 9.13037C20.4493 9.0915 20.3765 9.03471 20.3198 8.96338C20.2663 8.89601 20.2287 8.81737 20.2085 8.73389V8.73486C20.2077 8.73198 20.2073 8.72896 20.2065 8.72607C20.206 8.72377 20.2051 8.72155 20.2046 8.71924V8.71826C20.1254 8.42519 20.1154 8.11742 20.1762 7.81982C20.1998 7.70464 20.2362 7.59324 20.2798 7.48486Z" fill="black" stroke="black" stroke-width="0.547945" stroke-linejoin="round"/>
</svg>
