<svg width="99" height="74" viewBox="0 0 99 74" fill="none" xmlns="http://www.w3.org/2000/svg">
<path d="M78.0059 2.50684C80.4996 1.47698 83.3793 2.04343 85.293 3.95703L94.6699 13.334C97.2767 15.9467 97.2769 20.1794 94.6699 22.792L94.668 22.793L85.293 32.168C83.3792 34.0816 80.4996 34.648 78.0059 33.6182L78.0039 33.6172C75.5028 32.5811 73.875 30.1447 73.875 27.4375V24.75H71.1875C67.3918 24.75 63.8161 26.5397 61.5371 29.5762L61.5361 29.5752L56.1084 36.8125L61.5371 44.0498L61.7549 44.3311C64.0401 47.1963 67.5106 48.875 71.1875 48.875H73.875V46.1875C73.8751 43.4803 75.5028 41.0439 78.0039 40.0078L78.0059 40.0068C80.4996 38.977 83.3793 39.5434 85.293 41.457L94.6699 50.834C97.2767 53.4467 97.2769 57.6794 94.6699 60.292L94.668 60.293L85.293 69.668C83.3792 71.5816 80.4996 72.148 78.0059 71.1182L78.0039 71.1172C75.5028 70.0811 73.875 67.6447 73.875 64.9375V62.25H71.1875C63.1791 62.25 55.6405 58.4813 50.8369 52.0752L47.75 47.958L44.6621 52.0752C39.8583 58.4811 32.3207 62.25 24.3125 62.25H8.6875C4.99703 62.25 2 59.253 2 55.5625C2.00008 51.8721 4.99708 48.875 8.6875 48.875H24.3125C28.1082 48.875 31.6839 47.0862 33.9629 44.0498L39.3906 36.8125L33.9629 29.5752C31.6839 26.5389 28.1081 24.75 24.3125 24.75H8.6875C4.99703 24.75 2 21.753 2 18.0625C2.00008 14.3721 4.99708 11.375 8.6875 11.375H24.3125C32.3207 11.375 39.8585 15.144 44.6621 21.5498L47.75 25.667L50.8379 21.5498C55.6417 15.1441 63.1794 11.375 71.1875 11.375H73.875V8.6875C73.8751 5.98026 75.5028 3.54394 78.0039 2.50781L78.0059 2.50684Z" fill="#2A9CFF" stroke="black" stroke-width="4"/>
</svg>
