<svg width="58" height="53" viewBox="0 0 58 53" fill="none" xmlns="http://www.w3.org/2000/svg">
<path d="M16 21.3333C14.7393 21.3333 13.6376 21.3333 12.6667 21.3537C9.78719 21.4142 8.05864 21.6543 6.74809 22.6065C6.18213 23.0177 5.68441 23.5154 5.27323 24.0813C4 25.8338 4 28.3336 4 33.3333C4 38.3329 4 40.8327 5.27321 42.5851C5.68441 43.1511 6.18213 43.6489 6.74809 44.0601C8.50053 45.3333 11.0004 45.3333 16 45.3333C20.9996 45.3333 23.4995 45.3333 25.2519 44.0601C25.8179 43.6489 26.3156 43.1511 26.7268 42.5851C27.4349 41.6106 27.7491 40.4049 27.8887 38.6666" stroke="#030303" stroke-width="2" stroke-linecap="round" stroke-linejoin="round"/>
<path d="M14 34.3401V34.3264C14 33.2256 14.8954 32.3333 16 32.3333C17.1046 32.3333 18 33.2256 18 34.3264V34.3401L17.9893 34.5435C17.8868 35.5486 17.0355 36.3333 16 36.3333C14.9645 36.3333 14.1132 35.5486 14.0107 34.5435L14 34.3401Z" fill="#030303"/>
<path d="M9 29.3401V29.3264C9 28.2256 9.89543 27.3333 11 27.3333C12.1046 27.3333 13 28.2256 13 29.3264V29.3401L12.9893 29.5435C12.8868 30.5486 12.0355 31.3333 11 31.3333C9.96446 31.3333 9.11316 30.5486 9.01074 29.5435L9 29.3401Z" fill="#030303"/>
<path d="M19 39.3401V39.3264C19 38.2256 19.8954 37.3333 21 37.3333C22.1046 37.3333 23 38.2256 23 39.3264V39.3401L22.9893 39.5435C22.8868 40.5486 22.0355 41.3333 21 41.3333C19.9645 41.3333 19.1132 40.5486 19.0107 39.5435L19 39.3401Z" fill="#030303"/>
<path d="M41.3813 32.2445C45.681 29.6933 47.8309 28.4176 48.6883 26.4285C48.9652 25.786 49.1393 25.104 49.2041 24.4074C49.4049 22.2506 48.1292 20.1007 45.578 15.801C43.0268 11.5013 41.7511 9.35144 39.7619 8.49403C39.1195 8.21713 38.4375 8.04307 37.7409 7.97827C35.5841 7.77751 33.4342 9.05315 29.1345 11.6044C24.8348 14.1556 22.6849 15.4312 21.8275 17.4204C21.5506 18.0629 21.3766 18.7449 21.3117 19.4415C21.111 21.5983 22.3866 23.7481 24.9379 28.0479C27.4891 32.3475 28.7647 34.4974 30.7539 35.3548C31.3964 35.6317 32.0784 35.8058 32.775 35.8707C34.9318 36.0714 37.0816 34.7957 41.3813 32.2445Z" stroke="#030303" stroke-width="2" stroke-linecap="round" stroke-linejoin="round"/>
<path d="M30.5227 20.7178L30.5271 20.7252" stroke="#030303" stroke-width="4" stroke-linecap="round" stroke-linejoin="round"/>
<path d="M39.9956 23.1353L40 23.1427" stroke="#030303" stroke-width="4" stroke-linecap="round" stroke-linejoin="round"/>
</svg>
