<svg width="102" height="102" viewBox="0 0 102 102" fill="none" xmlns="http://www.w3.org/2000/svg">
<path d="M58.9202 29.2614C26.7201 23.6787 16.5579 32.7176 13.697 45.0879C10.836 57.4582 78.2413 73.7695 78.2413 73.7695L88.8307 51.0162C57.0577 45.7215 58.9202 29.2614 58.9202 29.2614Z" fill="#2A9CFF"/>
<path d="M78.2413 75.9296C78.0733 75.9296 77.9005 75.9104 77.7325 75.8672C77.5644 75.824 60.5955 71.7006 44.1978 66.1082C12.9721 55.4613 10.6344 48.7313 11.5944 44.5983C13.3945 36.8122 17.5947 31.5367 24.4255 28.4694C32.4084 24.8836 43.8138 24.4467 59.2946 27.1301C60.4131 27.3221 61.1907 28.3542 61.0755 29.4822C61.0179 30.1255 60.1539 44.0414 89.1955 48.8801C89.8627 48.9905 90.4339 49.4081 90.7508 50.0034C91.0676 50.5986 91.082 51.309 90.7988 51.9235L80.2094 74.6767C79.8494 75.4496 79.0765 75.9248 78.2509 75.9248L78.2413 75.9296ZM41.6681 29.7462C22.1214 29.7462 17.4603 38.3915 15.7994 45.5775C15.6602 46.1727 15.3242 51.7027 45.5899 62.028C58.781 66.5259 72.3418 70.0636 77.0316 71.2493L85.6913 52.6435C61.1379 47.7664 57.3169 35.9338 56.8081 31.1047C50.9614 30.1638 45.9547 29.751 41.6681 29.751V29.7462Z" fill="#232323"/>
<path d="M80.6699 67.1453C80.5403 67.1453 80.4107 67.1213 80.2859 67.0637L16.0823 38.9342C15.5975 38.723 15.3767 38.1565 15.5879 37.6717C15.7991 37.1869 16.3655 36.966 16.8504 37.1773L81.0539 65.3068C81.5387 65.518 81.7596 66.0844 81.5483 66.5693C81.3899 66.9293 81.0395 67.1453 80.6699 67.1453Z" fill="#232323"/>
<path d="M38.4519 47.5026C38.3222 47.5026 38.1878 47.4738 38.063 47.421C37.5782 47.205 37.3622 46.6385 37.5734 46.1537C37.6262 46.0337 42.7721 34.177 36.2581 28.6711C35.8549 28.3303 35.8021 27.7255 36.1429 27.3175C36.4837 26.9142 37.0886 26.8614 37.4966 27.2023C45.1146 33.6394 39.5703 46.3889 39.3303 46.9265C39.1719 47.2865 38.8215 47.4978 38.4519 47.4978V47.5026Z" fill="#232323"/>
</svg>
