<svg width="194" height="194" viewBox="0 0 194 194" fill="none" xmlns="http://www.w3.org/2000/svg">
<path d="M20.8423 78.5273C89.0551 108.732 173.081 82.8 173.081 82.8L177.734 104.152C84.0653 132.584 17.5037 99.6438 17.5037 99.6438L20.8423 78.5273Z" fill="#494949"/>
<path d="M101.331 117.659C86.0781 117.659 72.8502 116.279 62.1774 114.513C33.8654 109.837 17.323 101.761 16.636 101.418C15.8586 101.032 15.4247 100.188 15.5572 99.3386L18.8959 78.2221C18.9923 77.6135 19.3659 77.0892 19.9022 76.7939C20.4446 76.4986 21.0895 76.4745 21.6499 76.7216C56.4704 92.1371 95.5878 92.4685 122.273 90.0339C151.284 87.3823 172.292 80.9822 172.503 80.9159C173.033 80.7532 173.606 80.8195 174.082 81.0967C174.558 81.374 174.901 81.844 175.016 82.3804L179.668 103.726C179.885 104.732 179.294 105.739 178.312 106.04C149.524 114.778 123.327 117.653 101.331 117.653V117.659ZM19.6913 98.4769C24.1328 100.448 39.6266 106.799 62.985 110.638C88.2958 114.796 128.227 116.767 175.407 102.786L171.593 85.2911C165.56 86.9664 146.854 91.7514 122.713 93.9631C96.1302 96.3978 57.4045 96.1266 22.3912 81.3559L19.6853 98.4769H19.6913Z" fill="#232323"/>
<path d="M23.7773 86.3994L11.5015 87.0623L21.4149 95.0714C26.3264 92.0642 23.7773 86.3994 23.7773 86.3994Z" fill="white"/>
<path d="M21.4206 96.5777C21.0831 96.5777 20.7457 96.4632 20.4745 96.2402L10.561 88.2311C10.0789 87.8394 9.88007 87.1885 10.0729 86.5979C10.2658 86.0074 10.8021 85.5915 11.4228 85.5554L23.6986 84.8925C24.3374 84.8563 24.8979 85.2119 25.157 85.7784C26.2297 88.1588 26.989 93.4259 22.2101 96.3547C21.969 96.5053 21.6978 96.5777 21.4206 96.5777ZM15.5027 88.3516L21.4628 93.1667C23.2888 91.5095 23.0598 89.2435 22.7284 87.9599L15.5027 88.3516Z" fill="#232323"/>
<path d="M41.3803 92.1411L33.7027 94.0153L38.2406 100.729C45.2734 98.1916 41.3803 92.1411 41.3803 92.1411Z" fill="white"/>
<path d="M38.2402 102.235C37.7521 102.235 37.2759 101.994 36.9927 101.572L32.4549 94.8585C32.1777 94.4487 32.1174 93.9304 32.2982 93.4724C32.473 93.0144 32.8647 92.6709 33.3468 92.5504L41.0244 90.6762C41.6511 90.5255 42.302 90.7846 42.6515 91.327C42.7359 91.4596 44.7186 94.5933 43.6459 97.7572C42.9769 99.7399 41.3317 101.216 38.7585 102.144C38.5897 102.205 38.415 102.235 38.2462 102.235H38.2402ZM36.1671 94.9669L38.7947 98.854C39.8372 98.3116 40.5061 97.6246 40.7894 96.811C41.1449 95.7805 40.8677 94.6656 40.5724 93.9003L36.1731 94.973L36.1671 94.9669Z" fill="#232323"/>
<path d="M58.3687 105.304C60.8949 105.304 62.9427 103.256 62.9427 100.73C62.9427 98.2034 60.8949 96.1556 58.3687 96.1556C55.8425 96.1556 53.7946 98.2034 53.7946 100.73C53.7946 103.256 55.8425 105.304 58.3687 105.304Z" fill="white"/>
<path d="M58.3688 106.81C55.0181 106.81 52.2881 104.08 52.2881 100.729C52.2881 97.3783 55.0181 94.6483 58.3688 94.6483C61.7195 94.6483 64.4494 97.3783 64.4494 100.729C64.4494 104.08 61.7195 106.81 58.3688 106.81ZM58.3688 97.6615C56.6814 97.6615 55.3013 99.0355 55.3013 100.729C55.3013 102.422 56.6754 103.796 58.3688 103.796C60.0622 103.796 61.4362 102.422 61.4362 100.729C61.4362 99.0355 60.0622 97.6615 58.3688 97.6615Z" fill="#232323"/>
<path d="M82.751 108.19C85.2772 108.19 87.325 106.142 87.325 103.616C87.325 101.09 85.2772 99.0418 82.751 99.0418C80.2248 99.0418 78.177 101.09 78.177 103.616C78.177 106.142 80.2248 108.19 82.751 108.19Z" fill="white"/>
<path d="M82.7506 109.696C79.3999 109.696 76.67 106.966 76.67 103.615C76.67 100.265 79.3999 97.5345 82.7506 97.5345C86.1013 97.5345 88.8312 100.265 88.8312 103.615C88.8312 106.966 86.1013 109.696 82.7506 109.696ZM82.7506 100.548C81.0572 100.548 79.6832 101.922 79.6832 103.615C79.6832 105.309 81.0572 106.683 82.7506 106.683C84.444 106.683 85.818 105.309 85.818 103.615C85.818 101.922 84.444 100.548 82.7506 100.548Z" fill="#232323"/>
<path d="M171.225 89.0025L183.501 89.6654L173.587 97.6745C168.676 94.6673 171.225 89.0025 171.225 89.0025Z" fill="white"/>
<path d="M173.581 99.1807C173.31 99.1807 173.039 99.1084 172.792 98.9577C168.013 96.0349 168.772 90.7618 169.845 88.3814C170.098 87.8149 170.677 87.4533 171.303 87.4955L183.579 88.1584C184.2 88.1946 184.742 88.6044 184.929 89.201C185.116 89.7976 184.929 90.4424 184.441 90.8341L174.528 98.8432C174.25 99.0662 173.919 99.1807 173.581 99.1807ZM172.28 90.569C171.942 91.8526 171.713 94.1185 173.545 95.7758L179.505 90.9607L172.28 90.569Z" fill="#232323"/>
<path d="M153.621 94.7502L161.299 96.6244L156.761 103.338C149.728 100.801 153.621 94.7502 153.621 94.7502Z" fill="white"/>
<path d="M156.761 104.839C156.592 104.839 156.417 104.809 156.248 104.749C153.675 103.821 152.03 102.344 151.361 100.361C150.288 97.1975 152.271 94.0577 152.355 93.9312C152.705 93.3888 153.356 93.1297 153.982 93.2803L161.66 95.1546C162.136 95.2691 162.528 95.6126 162.709 96.0766C162.883 96.5346 162.829 97.0529 162.552 97.4627L158.014 104.176C157.731 104.598 157.255 104.839 156.767 104.839H156.761ZM154.44 96.4984C154.145 97.2638 153.868 98.3847 154.224 99.4092C154.507 100.223 155.17 100.91 156.218 101.452L158.846 97.5651L154.446 96.4924L154.44 96.4984Z" fill="#232323"/>
<path d="M134.633 106.823C137.159 106.823 139.207 104.775 139.207 102.249C139.207 99.7225 137.159 97.6746 134.633 97.6746C132.106 97.6746 130.059 99.7225 130.059 102.249C130.059 104.775 132.106 106.823 134.633 106.823Z" fill="white"/>
<path d="M134.633 108.329C131.282 108.329 128.552 105.599 128.552 102.248C128.552 98.8973 131.282 96.1674 134.633 96.1674C137.984 96.1674 140.714 98.8973 140.714 102.248C140.714 105.599 137.984 108.329 134.633 108.329ZM134.633 99.1806C132.939 99.1806 131.565 100.555 131.565 102.248C131.565 103.941 132.939 105.315 134.633 105.315C136.326 105.315 137.7 103.941 137.7 102.248C137.7 100.555 136.326 99.1806 134.633 99.1806Z" fill="#232323"/>
<path d="M108.189 109.13C110.715 109.13 112.763 107.082 112.763 104.556C112.763 102.03 110.715 99.9822 108.189 99.9822C105.662 99.9822 103.615 102.03 103.615 104.556C103.615 107.082 105.662 109.13 108.189 109.13Z" fill="white"/>
<path d="M108.189 110.636C104.838 110.636 102.108 107.906 102.108 104.556C102.108 101.205 104.838 98.475 108.189 98.475C111.54 98.475 114.27 101.205 114.27 104.556C114.27 107.906 111.54 110.636 108.189 110.636ZM108.189 101.488C106.495 101.488 105.121 102.862 105.121 104.556C105.121 106.249 106.495 107.623 108.189 107.623C109.882 107.623 111.256 106.249 111.256 104.556C111.256 102.862 109.882 101.488 108.189 101.488Z" fill="#232323"/>
</svg>
