<svg width="194" height="194" viewBox="0 0 194 194" fill="none" xmlns="http://www.w3.org/2000/svg">
<g clip-path="url(#clip0_66_3692)">
<path d="M91.2613 42.3699C80.0983 29.1234 60.3105 27.4344 47.0639 38.5973C33.8174 49.7603 32.1283 69.5481 43.2913 82.7946L101.953 152.405C113.116 165.652 132.903 167.341 146.15 156.178C159.397 145.015 161.086 125.227 149.923 111.981L91.2613 42.3699Z" fill="#FF158B"/>
<path d="M135.739 163.318C123.511 167.164 109.604 163.6 100.839 153.196L42.1742 83.5883C30.5391 69.7835 32.3026 49.0872 46.1073 37.4521C52.7933 31.818 61.2746 29.1213 69.9897 29.8648C78.7049 30.6082 86.6041 34.7009 92.2435 41.3852L150.909 110.993C162.544 124.798 160.78 145.495 146.975 157.13C143.569 160.001 139.743 162.053 135.742 163.311L135.739 163.318ZM58.2033 33.8665C54.4653 35.0423 50.9653 36.9567 47.8835 39.5589C41.7591 44.7221 38.012 51.9589 37.3262 59.9404C36.6458 67.9204 39.1125 75.6892 44.2774 81.819L102.942 151.427C113.6 164.068 132.555 165.687 145.202 155.033C157.849 144.374 159.463 125.421 148.809 112.773L90.1436 43.1651C84.9804 37.0406 77.7436 33.2935 69.762 32.6077C65.8008 32.2671 61.8889 32.7072 58.2086 33.8648L58.2033 33.8665Z" fill="#232323"/>
<path d="M157.231 143.346C155.38 147.055 152.758 150.459 149.383 153.303C136.139 164.462 116.349 162.777 105.191 149.532L46.5185 79.9202C36.5435 68.0916 36.8318 51.0325 46.4524 39.5769C47.5967 38.2073 48.8754 36.9166 50.2899 35.7273C53.5641 32.9666 57.2356 30.9924 61.0787 29.7835C72.7918 26.0992 86.083 29.5227 94.4881 39.497L153.153 109.105C161.473 118.974 162.658 132.482 157.231 143.346Z" fill="#F23BD0"/>
<path d="M157.231 143.346C160.233 129.593 153.276 116.042 145.342 105.879C135.831 93.691 108.117 60.1346 94.7104 44.4581C81.3159 28.7836 64.4283 27.8298 46.4527 39.5768C47.597 38.2072 48.8757 36.9164 50.2902 35.7272C53.5644 32.9665 57.236 30.9923 61.0791 29.7834C72.7921 26.099 86.0833 29.5226 94.4884 39.4969L153.153 109.105C161.473 118.973 162.659 132.482 157.231 143.346Z" fill="white"/>
<path d="M150.274 154.356C140.929 162.598 126.694 164.168 115.654 158.565C110.126 155.959 105.816 151.539 102.126 146.815C89.7169 131.869 72.71 111.919 60.1437 96.9877C55.7799 91.7541 49.0301 84.144 44.7868 78.8898C34.3634 65.6905 36.1486 45.3566 49.3312 34.5865C62.2927 23.609 82.6791 24.6622 94.2352 37.1706C98.768 42.1894 105.165 50.0895 109.627 55.2864C122.205 70.2543 139.084 90.2214 151.609 105.114C155.641 109.603 159.296 114.841 160.772 120.815C164.113 132.815 159.858 146.397 150.28 154.354L150.274 154.356ZM148.498 152.249C157.277 144.959 161.165 132.519 158.101 121.534C156.676 115.884 153.338 111.216 149.488 106.9C134.052 88.5849 115.303 66.3614 99.8489 48.0286C97.679 45.5322 94.4291 41.4368 92.199 39.0977C89.6067 36.359 86.4923 34.125 83.0692 32.542C72.7775 27.6672 59.8568 29.3832 51.2559 36.8716C42.5319 44.2257 38.3722 56.4791 41.1736 67.6044C42.0624 71.3289 43.7448 74.8615 45.9911 77.986C47.9198 80.6507 51.3077 84.5064 53.4353 87.1432C68.8412 105.526 87.4721 127.832 103.018 146.055C106.672 150.589 110.939 154.745 116.379 156.963C126.9 161.576 139.692 159.525 148.486 152.247L148.498 152.249Z" fill="#232323"/>
<path d="M93.9783 36.3909L84.283 45.4814L98.93 61.1023L108.625 52.0119C110.037 50.6851 107.907 46.1162 103.862 41.8036C99.8171 37.491 95.3968 35.0677 93.9783 36.3909Z" fill="#515151"/>
<path d="M99.3377 62.4169C98.8494 62.5705 98.2963 62.4445 97.9219 62.043L83.2802 46.4203C82.7604 45.8684 82.7858 44.995 83.3429 44.4736L93.0382 35.3831C95.4898 33.0888 100.885 36.6131 104.864 40.8602C106.915 43.0535 108.573 45.3881 109.537 47.4445C111.04 50.6643 110.379 52.251 109.564 53.0152L99.8687 62.1056C99.7131 62.2527 99.532 62.3558 99.343 62.4153L99.3377 62.4169ZM86.223 45.5408L98.9858 59.1524L107.68 51.0058C107.938 50.4514 106.942 47.101 102.852 42.739C98.8159 38.4353 95.5713 37.2 94.8993 37.4113L94.894 37.413L86.2283 45.5392L86.223 45.5408Z" fill="#232323"/>
<path d="M98.8886 61.0573C100.301 59.733 98.1684 55.1631 94.125 50.8499C90.0816 46.5367 85.6587 44.1136 84.2461 45.4379C82.8335 46.7621 84.9661 51.3322 89.0096 55.6454C93.053 59.9586 97.476 62.3815 98.8886 61.0573Z" fill="#6B6B6B"/>
<path d="M94.7491 50.3424C96.1338 51.8281 97.4779 53.3497 98.6794 55.0603C99.5892 56.43 100.508 57.9008 100.66 59.6702C100.836 61.017 99.9675 62.5306 98.5328 62.7569C94.7521 63.2653 90.4889 59.0848 88.0786 56.5947C85.6583 53.8712 82.9284 50.7315 82.5302 46.9161C82.3942 45.6031 83.2814 44.0951 84.6909 43.9171C88.3723 43.5149 92.3544 47.9569 94.7508 50.3476L94.7491 50.3424ZM93.5763 51.4382C91.637 49.4 89.287 47.5602 86.6711 46.6175C86.1622 46.4487 85.4915 46.2789 85.167 46.4214C85.4729 50.9524 92.4264 58.0542 96.6237 59.7687C97.1198 59.9704 97.5732 60.1278 98.0072 60.0951C98.0666 60.0822 98.0387 60.0852 98.0138 60.1161C97.982 60.1434 97.9866 60.1766 98.0138 60.1161C98.1843 58.7874 97.4594 57.4 96.8838 56.1386C96.0404 54.448 94.9048 52.8551 93.5885 51.4402L93.5763 51.4382Z" fill="#232323"/>
<path d="M59.3193 76.7816L84.9407 52.7626C86.6994 51.1139 89.4689 51.2033 91.1176 52.962C92.7663 54.7207 92.6769 57.4901 90.9182 59.1388L65.2967 83.1579L59.3193 76.7816Z" fill="#CCCCCC"/>
<path d="M65.7411 84.5184C65.2529 84.672 64.6997 84.5459 64.3254 84.1444L58.3501 77.7677C58.0988 77.5005 57.9638 77.1449 57.9769 76.7831C57.99 76.4212 58.1456 76.0722 58.4128 75.8209L84.0384 51.8016C86.352 49.6372 89.995 49.7548 92.1577 52.0632C94.3221 54.3768 94.2045 58.0198 91.8962 60.1825L66.2705 84.2018C66.1148 84.3489 65.9337 84.452 65.7447 84.5115L65.7411 84.5184ZM61.2997 76.8918L65.3909 81.2591L90.0084 58.18C91.2112 57.0516 91.2714 55.1518 90.143 53.9489C89.0146 52.7461 87.1148 52.6859 85.9119 53.8143L61.2945 76.8934L61.2997 76.8918Z" fill="#232323"/>
<path d="M146.46 93.2208L136.765 102.311L151.412 117.932L161.107 108.842C162.519 107.515 160.389 102.946 156.344 98.6335C152.299 94.321 147.879 91.8976 146.46 93.2208Z" fill="#515151"/>
<path d="M151.82 119.246C151.673 119.293 151.517 119.313 151.361 119.31C150.999 119.297 150.65 119.141 150.399 118.874L135.757 103.251C135.237 102.7 135.263 101.826 135.82 101.305L145.515 92.2143C146.33 91.4501 147.957 90.8981 151.072 92.6012C153.065 93.6934 155.289 95.498 157.339 97.6861C159.39 99.8794 161.048 102.214 162.012 104.27C163.515 107.49 162.855 109.077 162.039 109.841L152.344 118.932C152.192 119.072 152.012 119.18 151.818 119.241L151.82 119.246ZM138.707 102.376L151.471 115.992L160.165 107.846C160.424 107.291 159.427 103.941 155.338 99.579C151.301 95.2753 148.057 94.04 147.385 94.2514L147.379 94.253L138.714 102.379L138.707 102.376Z" fill="#232323"/>
<path d="M151.375 117.887C152.788 116.562 150.655 111.992 146.612 107.679C142.568 103.366 138.145 100.943 136.733 102.267C135.32 103.591 137.453 108.162 141.496 112.475C145.539 116.788 149.963 119.211 151.375 117.887Z" fill="#6B6B6B"/>
<path d="M147.222 107.18C149.618 109.934 153.883 113.572 153.164 117.669C151.017 123.278 142.725 115.922 140.511 113.468C138.059 110.697 135.412 107.601 134.915 103.747C134.735 100.59 137.729 99.8557 140.14 101.007C143.085 102.227 145.112 104.947 147.228 107.178L147.222 107.18ZM146.064 108.266C144.761 106.858 143.096 105.783 141.435 104.887C140.22 104.271 138.996 103.461 137.702 103.418C137.658 103.426 137.702 103.418 137.743 103.365C137.787 103.322 137.788 103.27 137.77 103.322C137.575 107.307 146.436 116.861 150.457 116.859C150.504 116.844 150.459 116.847 150.415 116.89C150.369 116.927 150.36 116.971 150.369 116.927C150.461 115.623 149.759 114.309 149.234 113.044C148.44 111.344 147.385 109.679 146.055 108.274L146.064 108.266Z" fill="#232323"/>
<path d="M112.572 133.597L137.559 110.172C139.318 108.524 142.087 108.613 143.736 110.372C145.384 112.13 145.295 114.9 143.536 116.549L118.549 139.973L112.572 133.597Z" fill="#CCCCCC"/>
<path d="M118.996 141.33C118.849 141.376 118.694 141.396 118.537 141.394C118.175 141.38 117.826 141.225 117.575 140.958L111.6 134.581C111.348 134.314 111.213 133.958 111.226 133.596C111.24 133.234 111.395 132.885 111.662 132.634L136.649 109.208C137.767 108.158 139.232 107.605 140.766 107.659C142.299 107.708 143.724 108.35 144.771 109.475C145.817 110.6 146.372 112.052 146.319 113.592C146.271 115.125 145.628 116.55 144.504 117.596L119.517 141.022C119.364 141.162 119.185 141.27 118.991 141.332L118.996 141.33ZM114.555 133.703L118.646 138.071L142.632 115.588C143.215 115.041 143.548 114.302 143.579 113.502C143.605 112.703 143.319 111.939 142.773 111.361C142.226 110.777 141.487 110.444 140.687 110.413C139.888 110.388 139.124 110.674 138.546 111.219L114.56 133.702L114.555 133.703Z" fill="#232323"/>
<path d="M64.5173 63.2956L54.8221 72.386L69.4691 88.007L79.1643 78.9166C80.576 77.5898 78.4465 73.0208 74.4013 68.7083C70.3561 64.3957 65.9359 61.9724 64.5173 63.2956Z" fill="#515151"/>
<path d="M69.8822 89.3199C69.3939 89.4734 68.8408 89.3474 68.4664 88.9459L53.8194 73.325C53.2996 72.773 53.325 71.8996 53.8822 71.3782L63.5774 62.2877C66.029 59.9934 71.4244 63.5177 75.4028 67.7648C79.3812 72.0118 82.5496 77.6271 80.1032 79.9198L70.408 89.0102C70.2523 89.1573 70.0712 89.2604 69.8822 89.3199ZM56.7692 72.449L69.532 86.0606L78.226 77.914C78.4843 77.3596 77.4882 74.0092 73.3986 69.6472C69.362 65.3435 66.1174 64.1082 65.4454 64.3195L65.4401 64.3212L56.7744 72.4474L56.7692 72.449Z" fill="#232323"/>
<path d="M69.4317 87.967C70.8443 86.6428 68.7115 82.0728 64.6681 77.7596C60.6247 73.4464 56.2018 71.0234 54.7892 72.3476C53.3766 73.6719 55.5092 78.2419 59.5526 82.5551C63.5961 86.8683 68.0191 89.2913 69.4317 87.967Z" fill="#6B6B6B"/>
<path d="M65.3077 77.2347C67.5712 79.8633 71.8992 83.9196 71.2041 87.7442C69.1546 93.3162 60.7079 85.9974 58.5577 83.564C56.2172 80.9654 52.3554 76.4105 53.046 72.645C53.3424 71.1843 55.0025 70.2987 56.3853 70.5676C60.2419 71.3277 62.7177 74.6684 65.3094 77.2399L65.3077 77.2347ZM64.0997 78.3648C62.7798 76.9567 61.2089 75.7777 59.5619 74.8706C58.3437 74.2442 57.0658 73.5384 55.7761 73.5286C55.7341 73.5418 55.7919 73.5236 55.8328 73.4704C55.8807 73.4207 55.8867 73.3669 55.8704 73.4066C55.8541 73.4464 55.8382 73.561 55.8411 73.6986C56.3501 76.7291 58.6053 79.3314 60.615 81.6302C62.5184 83.6278 64.6611 85.579 67.1542 86.6815C67.6418 86.8743 68.1142 87.0372 68.5281 86.959C68.5806 86.9424 68.5336 86.9399 68.493 86.9758C68.4454 87.008 68.4361 87.0514 68.456 87.0047C68.6036 85.6947 67.9165 84.3358 67.3583 83.0747C66.5307 81.3792 65.4179 79.7675 64.0892 78.3681L64.0997 78.3648Z" fill="#232323"/>
<path d="M65.2423 83.4981C65.8477 82.9306 64.9363 80.9748 63.2067 79.1298C61.4771 77.2848 59.5842 76.2492 58.9788 76.8167C58.3734 77.3842 59.2848 79.34 61.0144 81.185C62.744 83.03 64.6369 84.0656 65.2423 83.4981Z" fill="#232323"/>
<path d="M117.403 120.454L107.708 129.544L122.355 145.165L132.05 136.075C133.461 134.748 131.332 130.179 127.287 125.867C123.242 121.554 118.821 119.131 117.403 120.454Z" fill="#515151"/>
<path d="M122.763 146.48C122.616 146.526 122.46 146.546 122.304 146.543C121.942 146.53 121.593 146.374 121.342 146.107L106.695 130.486C106.443 130.219 106.309 129.863 106.322 129.502C106.335 129.14 106.49 128.791 106.758 128.539L116.453 119.449C117.268 118.685 118.895 118.133 122.009 119.836C124.003 120.928 126.227 122.733 128.276 124.921C132.255 129.168 135.423 134.783 132.977 137.076L123.282 146.166C123.13 146.306 122.95 146.415 122.756 146.476L122.763 146.48ZM109.655 129.607L122.419 143.224L131.113 135.077C131.372 134.523 130.376 131.173 126.286 126.81C122.232 122.489 118.965 121.255 118.328 121.484L109.662 129.611L109.655 129.607Z" fill="#232323"/>
<path d="M122.318 145.119C123.731 143.795 121.598 139.225 117.555 134.912C113.511 130.599 109.088 128.175 107.676 129.5C106.263 130.824 108.396 135.394 112.439 139.707C116.483 144.02 120.906 146.443 122.318 145.119Z" fill="#6B6B6B"/>
<path d="M118.269 134.323C120.684 137.065 123.755 139.838 124.228 143.728C124.4 145.099 123.443 146.698 121.974 146.889C118.235 147.292 113.884 143.162 111.474 140.69C109.166 138.104 105.344 133.548 106.025 129.826C106.323 128.405 107.92 127.597 109.253 127.835C113.111 128.526 115.673 131.753 118.263 134.319L118.269 134.323ZM116.909 135.593C114.995 133.541 112.572 131.874 110.027 130.846C109.525 130.663 109.061 130.527 108.634 130.563C108.576 130.581 108.608 130.571 108.638 130.539C108.673 130.504 108.67 130.476 108.654 130.534C108.574 130.957 108.689 131.434 108.854 131.942C110.344 136.164 116.641 143.195 121.099 144.107C121.24 144.114 121.358 144.106 121.404 144.086C121.451 144.071 121.404 144.068 121.36 144.111C121.309 144.15 121.299 144.194 121.309 144.15C121.318 144.107 121.341 143.996 121.336 143.853C120.871 140.797 118.973 137.915 116.908 135.588L116.909 135.593Z" fill="#232323"/>
<path d="M118.193 140.719C118.809 140.141 117.878 138.146 116.113 136.263C114.348 134.38 112.418 133.323 111.801 133.901C111.185 134.479 112.116 136.473 113.881 138.356C115.646 140.239 117.576 141.296 118.193 140.719Z" fill="#232323"/>
<path d="M85.6258 91.11L85.6217 91.1137C83.5638 92.9575 83.3904 96.1204 85.2342 98.1783L95.6392 109.791C97.4831 111.849 100.646 112.022 102.704 110.178L102.708 110.174C104.766 108.331 104.939 105.168 103.095 103.11L92.6903 91.4974C90.8465 89.4396 87.6836 89.2661 85.6258 91.11Z" fill="#232323"/>
<path d="M101.869 75.4823L101.865 75.486C99.8075 77.3299 99.6341 80.4927 101.478 82.5505L111.883 94.163C113.727 96.2208 116.89 96.3943 118.948 94.5504L118.952 94.5468C121.009 92.7029 121.183 89.54 119.339 87.4822L108.934 75.8697C107.09 73.8119 103.927 73.6385 101.869 75.4823Z" fill="#232323"/>
<path d="M112.84 109.046C112.368 109.195 111.833 109.092 111.446 108.723C110.879 108.186 110.852 107.294 111.389 106.727L115.263 102.624C115.794 102.059 116.691 102.03 117.258 102.567C117.825 103.105 117.852 103.996 117.315 104.563L113.442 108.666C113.268 108.848 113.061 108.977 112.84 109.046Z" fill="#232323"/>
</g>
<defs>
<clipPath id="clip0_66_3692">
<rect width="193.507" height="193.507" rx="24" fill="white"/>
</clipPath>
</defs>
</svg>
