<svg width="194" height="194" viewBox="0 0 194 194" fill="none" xmlns="http://www.w3.org/2000/svg">
<path d="M86.4915 59.151L79.6942 66.9052C80.0699 66.8201 80.4526 67.054 80.5448 67.4368C80.6369 67.8195 80.3959 68.1952 80.0132 68.2873C79.9778 68.2944 79.4745 68.4149 78.6169 68.6559L76.4763 72.1219L74.6618 75.0633C69.6507 76.5731 64.7033 78.7774 60.968 81.9811C58.9125 83.7389 57.2185 85.8015 56.0773 88.2256C55.2197 90.0472 54.3762 91.408 53.5399 92.3933C52.746 93.343 51.9664 93.9384 51.215 94.2503C50.407 94.5905 49.6274 94.6047 48.8902 94.385C48.7697 94.3566 48.6492 94.3141 48.5358 94.2645C47.8483 93.988 47.1962 93.5202 46.5937 92.9319C46.3457 92.698 46.1118 92.4429 45.8849 92.1735C45.6369 91.8829 45.403 91.5782 45.1761 91.2663C43.5034 88.9415 42.2985 85.9929 41.7881 84.6391C41.618 84.1713 41.5259 83.8949 41.5259 83.8949C41.7456 83.3562 41.9866 82.8246 42.2559 82.3072C42.6529 81.5133 43.1136 80.7337 43.6239 79.9824C52.5405 66.7492 76.8307 59.1439 89.2416 56.004L86.4915 59.151Z" fill="#DBDBDB"/>
<path d="M40.8815 79.9831C40.4208 80.7627 40.0097 81.5637 39.6553 82.3788C39.5561 82.5914 39.4568 82.8111 39.3718 83.0308C39.1662 83.5412 39.152 84.1011 39.3222 84.6256C39.4143 84.895 39.5561 85.3202 39.7616 85.8518C40.6122 88.1058 42.4479 92.2735 45.1768 94.7755C45.4036 94.9881 45.6446 95.1866 45.8856 95.378C46.1124 95.5552 46.3534 95.7182 46.5943 95.86C47.1968 96.2427 47.8418 96.5262 48.5152 96.6892C48.6427 96.7247 48.7632 96.7459 48.8908 96.7672C49.0964 96.8097 49.309 96.831 49.5287 96.8452C49.6492 96.8523 49.7626 96.8594 49.8831 96.8594C50.3509 96.8594 50.7904 96.8026 51.2157 96.7034C52.0662 96.4979 52.8459 96.1009 53.5405 95.5906C56.0283 93.7974 57.5522 90.5653 58.1831 89.2186C59.4872 86.4543 61.6278 84.1933 64.2574 82.3504C66.9154 80.4792 70.0766 79.0262 73.3654 77.9063L73.0535 77.6724L74.6624 75.064L76.4769 72.1226C69.63 73.9087 62.5279 76.8786 57.7791 81.7976C56.2268 83.3923 54.9297 85.1997 53.9729 87.234C53.824 87.5458 53.6822 87.8365 53.5405 88.1129C52.6758 89.7856 51.889 90.863 51.2157 91.4867C50.6557 92.0183 50.1737 92.2239 49.8123 92.2026C49.5287 92.1884 49.2169 92.0608 48.8908 91.834C48.7845 91.7631 48.6711 91.6781 48.5577 91.5859C47.9269 91.0544 47.2464 90.2109 46.5943 89.1902C46.3534 88.8217 46.1195 88.4318 45.8856 88.0207C45.6446 87.5884 45.4036 87.1347 45.1768 86.6669C44.8507 86.0078 44.5459 85.3273 44.2695 84.6398C44.1845 84.4201 44.0994 84.2004 44.0214 83.9806C44.2837 83.4136 44.5743 82.8537 44.9003 82.3079C45.3681 81.514 45.8926 80.7415 46.4809 79.9831C54.7667 69.2732 74.2372 62.5043 86.4921 59.1517L89.2423 56.0047L91.9144 52.964C80.4745 55.5865 50.4147 63.8439 40.8815 79.9831Z" fill="#232323"/>
<path d="M55.7663 81.6768L62.7479 82.0879C66.7029 82.3218 69.6161 85.8728 69.0774 89.7924L63.1732 132.653C62.7124 136.013 59.8348 138.515 56.4467 138.515H55.0504C51.2797 138.515 48.2319 135.446 48.2602 131.675L48.5792 88.4032C48.6075 84.5119 51.8892 81.4429 55.7734 81.6768H55.7663Z" fill="#232323"/>
<path d="M48.4934 139.463H40.2502C38.7475 139.463 37.5284 138.244 37.5284 136.741C34.594 119.631 34.594 102.138 37.5284 85.0277C37.5284 83.5251 38.7475 82.3059 40.2502 82.3059H48.4934C49.9961 82.3059 51.2152 83.5251 51.2152 85.0277V136.741C51.2152 138.244 49.9961 139.463 48.4934 139.463Z" fill="#DBDBDB"/>
<path d="M53.142 83.0651C53.0145 82.7674 52.8585 82.4838 52.6813 82.2145C52.575 82.0586 52.4616 81.9097 52.3269 81.768C51.4126 80.6764 50.0375 79.9818 48.4924 79.9818H40.2562C37.5487 79.9818 35.3301 82.1224 35.2167 84.8016C32.2611 102.11 32.2611 119.66 35.2167 136.969C35.3301 139.648 37.5487 141.788 40.2562 141.788H48.4924C50.7322 141.788 52.6388 140.321 53.2909 138.294C53.4539 137.805 53.539 137.28 53.539 136.742V85.0284C53.539 84.3338 53.3972 83.6675 53.142 83.0651ZM40.2562 137.139C40.0365 137.139 39.8593 136.961 39.8593 136.742C39.8593 136.614 39.8522 136.479 39.831 136.352C36.9462 119.596 36.9249 102.606 39.7601 85.8506C39.7814 85.7088 39.8097 85.5671 39.831 85.4253C39.8522 85.2907 39.8593 85.1631 39.8593 85.0284C39.8593 84.8158 40.0365 84.6386 40.2562 84.6386H48.4924C48.7121 84.6386 48.8893 84.8158 48.8893 85.0284V136.742C48.8893 136.961 48.7121 137.139 48.4924 137.139H40.2562Z" fill="#232323"/>
<path d="M45.8772 138.812C45.4874 138.812 45.1685 138.493 45.1685 138.104V83.2645C45.1685 82.8747 45.4874 82.5557 45.8772 82.5557C46.2671 82.5557 46.586 82.8747 46.586 83.2645V138.104C46.586 138.493 46.2671 138.812 45.8772 138.812Z" fill="#232323"/>
<path d="M80.013 68.2875C80.013 68.2875 79.4743 68.415 78.6167 68.656C74.2505 69.861 60.7339 74.0924 54.1563 81.7686C53.7948 82.1868 53.4546 82.6192 53.1428 83.0657C52.8663 83.4343 52.6182 83.8171 52.3843 84.2069C52.2497 84.4266 52.0158 84.5542 51.7748 84.5542C51.6472 84.5542 51.5267 84.5188 51.4062 84.4479C51.0731 84.2494 50.9668 83.8171 51.1652 83.4768C51.2999 83.25 51.4417 83.0303 51.5905 82.8106H51.5976C51.8244 82.4562 52.0654 82.1089 52.3276 81.7686C60.0676 71.5975 78.8506 67.1038 79.694 66.9053C80.0697 66.8203 80.4524 67.0542 80.5446 67.4369C80.6367 67.8197 80.3957 68.1953 80.013 68.2875Z" fill="#232323"/>
<path d="M168.171 83.8951C168.171 83.8951 168.079 84.1715 167.909 84.6393C167.398 85.9931 166.2 88.9346 164.528 91.2594C164.301 91.5784 164.067 91.8831 163.819 92.1737C163.592 92.4431 163.351 92.6982 163.11 92.9321C162.501 93.5204 161.856 93.9882 161.168 94.2647C161.055 94.3143 160.934 94.3568 160.814 94.3852C160.077 94.6049 159.297 94.5907 158.489 94.2505C157.738 93.9386 156.951 93.3432 156.157 92.3864C155.328 91.4082 154.484 90.0403 153.627 88.2258C152.485 85.8017 150.791 83.7391 148.736 81.9813C145.142 78.8981 140.436 76.7434 135.623 75.2407L133.589 72.2213L131.215 68.6915C130.272 68.4293 129.719 68.2946 129.684 68.2875C129.308 68.1954 129.067 67.8197 129.159 67.437C129.244 67.0542 129.627 66.8203 130.01 66.9054L123.184 59.137L121.915 57.6911L118.619 55.5576C130.286 58.3644 156.696 66.0619 166.073 79.9826C166.583 80.7339 167.044 81.5135 167.441 82.3074C167.71 82.8248 167.958 83.3564 168.171 83.8951Z" fill="#DBDBDB"/>
<path d="M170.332 83.0307C170.247 82.811 170.155 82.5912 170.048 82.3786C169.694 81.5635 169.283 80.7626 168.822 79.9829C157.219 60.3494 115.237 52.3755 113.366 52.0282C113.288 52.014 113.203 51.9999 113.125 51.9999L118.618 55.558L121.914 57.6914L123.183 59.1374C135.431 62.49 154.923 69.2518 163.215 79.9829C163.804 80.7342 164.335 81.5139 164.796 82.3077C165.122 82.8535 165.413 83.4134 165.675 83.9805C165.597 84.2002 165.512 84.4199 165.427 84.6397C165.15 85.3201 164.853 86.0076 164.527 86.6597C164.3 87.1275 164.059 87.5882 163.818 88.0206C163.584 88.4317 163.35 88.8215 163.109 89.1901C162.457 90.2107 161.777 91.0542 161.146 91.5858C161.032 91.6779 160.926 91.763 160.813 91.8339C160.487 92.0607 160.175 92.1883 159.891 92.2024C159.537 92.2166 159.055 92.004 158.488 91.4653C157.814 90.8416 157.014 89.7642 156.156 88.0915C156.014 87.8221 155.872 87.5386 155.731 87.2338C154.774 85.1996 153.477 83.3922 151.924 81.7974C147.261 76.9635 140.322 74.0149 133.588 72.2216L135.622 75.2411L137.749 78.4023C140.527 79.4442 143.171 80.7342 145.453 82.3432C148.076 84.1931 150.216 86.4542 151.52 89.2184C152.151 90.5651 153.675 93.7901 156.156 95.5905C156.858 96.1008 157.63 96.4977 158.488 96.7033C158.913 96.8025 159.36 96.8592 159.82 96.8592C159.934 96.8592 160.054 96.8521 160.175 96.845C160.394 96.8308 160.607 96.8096 160.813 96.7671C160.94 96.7458 161.061 96.7245 161.188 96.6891C161.862 96.5261 162.507 96.2426 163.109 95.8598C163.35 95.718 163.591 95.555 163.818 95.3778C164.059 95.1864 164.3 94.988 164.527 94.7754C167.256 92.2733 169.091 88.1056 169.942 85.8517C170.147 85.3201 170.289 84.8948 170.381 84.6255C170.551 84.101 170.537 83.541 170.332 83.0307Z" fill="#232323"/>
<path d="M161.444 131.683C161.444 132.725 161.224 133.717 160.813 134.596C160.303 135.687 159.516 136.616 158.545 137.296C157.907 137.75 157.184 138.09 156.404 138.296C155.844 138.445 155.256 138.523 154.654 138.523H153.257C149.862 138.523 146.992 136.02 146.531 132.661L140.627 89.7932C140.549 89.2191 140.542 88.6591 140.605 88.1134C140.726 86.9722 141.137 85.909 141.775 85.0018C142.64 83.7472 143.93 82.7833 145.453 82.3438C145.928 82.2091 146.432 82.117 146.949 82.0886L148.735 81.9823L151.925 81.798L153.931 81.6775C154.491 81.6421 155.029 81.6775 155.554 81.7768C156.064 81.8689 156.553 82.0178 157.014 82.2162C157.404 82.3792 157.779 82.5848 158.127 82.8187C158.424 83.0242 158.701 83.244 158.963 83.492C159.806 84.2788 160.459 85.2782 160.813 86.4123C161.011 87.0431 161.118 87.7093 161.125 88.404L161.146 91.5864L161.167 94.2657L161.189 96.6897L161.444 131.683Z" fill="#232323"/>
<path d="M174.373 110.886C174.373 119.54 173.636 128.188 172.169 136.743C172.169 138.245 170.95 139.465 169.447 139.465H161.204C159.701 139.465 158.489 138.245 158.489 136.743V85.0295C158.489 83.5268 159.701 82.3077 161.204 82.3077H169.447C170.198 82.3077 170.879 82.6125 171.368 83.1016C171.864 83.5977 172.169 84.2782 172.169 85.0295C173.636 93.5917 174.373 102.239 174.373 110.886Z" fill="#DBDBDB"/>
<path d="M174.372 110.886C174.372 119.54 173.635 128.188 172.168 136.743C172.168 138.245 170.949 139.465 169.446 139.465H168.773C169.949 126.097 171.849 94.4493 164.917 82.3077H169.446C170.197 82.3077 170.878 82.6125 171.367 83.1016C171.863 83.5977 172.168 84.2782 172.168 85.0295C173.635 93.5917 174.372 102.239 174.372 110.886Z" fill="white"/>
<path d="M174.486 84.8034C174.365 82.1242 172.154 79.9836 169.446 79.9836H161.203C159.672 79.9836 158.29 80.6782 157.369 81.7627C157.241 81.9115 157.12 82.0604 157.014 82.2163C156.837 82.4856 156.681 82.7692 156.561 83.0598C156.298 83.6693 156.156 84.3356 156.156 85.0302V136.744C156.156 137.282 156.242 137.807 156.405 138.296C157.064 140.323 158.963 141.79 161.203 141.79H169.446C172.154 141.79 174.365 139.65 174.486 136.97C177.441 119.662 177.441 102.112 174.486 84.8034ZM169.843 136.744C169.843 136.963 169.666 137.14 169.446 137.14H161.203C160.99 137.14 160.813 136.963 160.813 136.744V85.0302C160.813 84.8176 160.99 84.6404 161.203 84.6404H169.446C169.666 84.6404 169.843 84.8176 169.843 85.0302C169.843 85.1649 169.85 85.2925 169.872 85.4271C169.893 85.5689 169.921 85.7106 169.942 85.8524C172.771 102.608 172.749 119.598 169.872 136.354C169.85 136.481 169.843 136.616 169.843 136.744Z" fill="#232323"/>
<path d="M163.818 138.812C163.428 138.812 163.109 138.493 163.109 138.103V83.2638C163.109 82.874 163.428 82.555 163.818 82.555C164.208 82.555 164.527 82.874 164.527 83.2638V138.103C164.527 138.493 164.208 138.812 163.818 138.812Z" fill="#232323"/>
<path d="M158.289 84.4486C158.175 84.5195 158.055 84.5549 157.927 84.5549C157.686 84.5549 157.453 84.4274 157.318 84.2076C157.084 83.8178 156.829 83.4351 156.559 83.0594C156.248 82.6199 155.914 82.1947 155.553 81.7765C149.039 74.1783 135.721 69.9468 131.213 68.6922C130.27 68.43 129.718 68.2953 129.682 68.2882C129.306 68.1961 129.065 67.8204 129.158 67.4377C129.243 67.0549 129.625 66.821 130.008 66.9061C130.852 67.1045 149.627 71.5983 157.367 81.7623C157.637 82.1096 157.885 82.464 158.126 82.8184C158.268 83.0381 158.402 83.2579 158.537 83.4776C158.735 83.8178 158.629 84.2502 158.289 84.4486Z" fill="#232323"/>
</svg>
