<svg width="194" height="194" viewBox="0 0 194 194" fill="none" xmlns="http://www.w3.org/2000/svg">
<path d="M25.6052 116.177C29.2514 105.628 75.8775 35.4266 99.974 49.2316C99.974 49.2316 110.004 42.7194 121.461 52.3596C132.918 61.9998 148.423 77.4998 155.972 88.8293C163.521 100.159 169.386 120.342 169.386 120.342L94.2368 102.762L25.5994 116.177H25.6052Z" fill="#C7C3BA"/>
<mask id="mask0_66_4232" style="mask-type:alpha" maskUnits="userSpaceOnUse" x="25" y="47" width="145" height="74">
<path d="M25.6048 116.177C29.251 105.628 75.8772 35.4268 99.9737 49.2318C99.9737 49.2318 110.004 42.7195 121.461 52.3597C132.918 61.9999 148.423 77.5 155.972 88.8294C163.52 100.159 169.386 120.342 169.386 120.342L94.2364 102.763L25.599 116.177H25.6048Z" fill="#C7C3BA"/>
</mask>
<g mask="url(#mask0_66_4232)">
<path d="M130.459 66.3707C118.422 51.3241 105.215 49.903 100.115 51.0733C100.115 47.8967 99.2126 40.5906 95.6015 36.7788C91.0875 32.014 69.2699 20.4783 63.5021 15.4628C58.8878 11.4504 54.2233 4.42863 52.4679 1.41931L130.459 13.9581L183.373 81.1662C179.361 94.3738 168.929 117.077 159.299 102.231C147.261 83.674 147.512 84.9281 130.459 66.3707Z" fill="white"/>
</g>
<path d="M169.392 122.251C169.246 122.251 169.101 122.233 168.955 122.198L94.2075 104.712L25.972 118.051C25.3022 118.185 24.609 117.946 24.1605 117.428C23.712 116.909 23.5722 116.193 23.7994 115.546C25.5351 110.525 35.0584 95.3398 45.9447 81.5814C56.1261 68.72 71.142 52.3054 84.894 47.1446C90.6021 45.001 95.6695 44.9777 99.9739 47.0572C103.044 45.5893 112.474 42.2866 122.696 50.8783C133.978 60.3671 149.705 75.9545 157.568 87.75C165.198 99.1959 170.988 118.954 171.227 119.793C171.419 120.445 171.244 121.15 170.778 121.639C170.411 122.024 169.91 122.233 169.392 122.233V122.251ZM94.2425 100.85C94.3881 100.85 94.5337 100.868 94.6794 100.903L166.579 117.719C164.621 111.644 159.933 98.2056 154.388 89.8877C147.072 78.9136 131.672 63.4368 120.232 53.8199C109.975 45.1932 101.104 50.7793 101.017 50.8317C100.417 51.222 99.6478 51.2453 99.0245 50.89C95.5589 48.9037 91.2545 48.8513 86.2395 50.7327C64.2049 58.9982 35.9962 99.9182 28.8844 113.589L93.8756 100.885C93.9979 100.862 94.1202 100.85 94.2425 100.85Z" fill="#232323"/>
<path d="M24.7616 140.158C21.8609 127.425 38.2398 115.787 57.4844 114.919C76.729 114.051 104.344 114.919 122.056 114.919C139.769 114.919 162.567 119.887 168.275 137.024L169.422 147.101C169.422 147.101 175.975 142.005 174.979 132.283C173.983 122.561 174.851 110.597 163.912 104.69C152.973 98.7838 146.194 89.563 121.188 88.864C96.1832 88.165 81.7323 86.0855 65.4292 88.3456C49.1261 90.6057 36.3642 97.8635 29.3281 106.752C22.9792 114.773 20.4746 120.243 19.9504 127.04C19.4262 133.838 24.7616 140.152 24.7616 140.152V140.158Z" fill="#A8A8A8"/>
<mask id="mask1_66_4232" style="mask-type:alpha" maskUnits="userSpaceOnUse" x="19" y="87" width="157" height="61">
<path d="M24.7617 140.158C21.861 127.425 38.2399 115.787 57.4845 114.919C76.7291 114.051 104.344 114.919 122.056 114.919C139.769 114.919 162.567 119.887 168.275 137.024L169.422 147.101C169.422 147.101 175.975 142.005 174.979 132.283C173.983 122.561 174.851 110.597 163.912 104.69C152.973 98.7838 146.194 89.563 121.188 88.864C96.1834 88.165 81.7325 86.0855 65.4293 88.3456C49.1262 90.6057 36.3643 97.8635 29.3282 106.752C22.9793 114.773 20.4748 120.243 19.9506 127.04C19.4263 133.838 24.7617 140.152 24.7617 140.152V140.158Z" fill="#A8A8A8"/>
</mask>
<g mask="url(#mask1_66_4232)">
<path d="M154.534 105.492C138.893 90.9949 88.1618 89.6093 66.0098 90.4452L52.2172 91.1974C51.2141 92.3677 48.957 94.0061 47.9539 91.1974C46.7 87.6866 40.1799 79.4109 40.4306 78.4078C40.6814 77.4047 66.0098 58.3457 66.0098 57.8442C66.0098 57.4429 83.5642 53.163 92.3414 51.0732C113.407 56.9247 157.744 69.6808 166.571 73.8939C177.605 79.1602 186.884 102.733 188.138 105.492C189.392 108.25 189.392 127.811 188.89 134.08C188.389 140.35 173.075 154.584 171.336 142.607C169.079 127.058 175.098 124.551 154.534 105.492Z" fill="white"/>
</g>
<path d="M169.423 149.017C169.172 149.017 168.922 148.97 168.683 148.865C168.048 148.597 167.605 148.009 167.524 147.322L166.4 137.449C159.853 118.325 130.823 116.834 122.057 116.834C116.512 116.834 109.994 116.747 103.092 116.659C87.9302 116.461 70.7475 116.24 57.5722 116.834C45.6957 117.37 34.6173 122.193 29.3344 129.125C26.754 132.515 25.8163 136.185 26.6201 139.738C26.8182 140.6 26.3987 141.479 25.6124 141.875C24.8261 142.266 23.8709 142.074 23.3001 141.398C23.0612 141.118 17.4696 134.402 18.0404 126.905C18.5937 119.671 21.244 113.887 27.8258 105.575C35.7007 95.62 49.307 88.6534 65.1617 86.4574C76.7061 84.8614 87.4758 85.4089 101.111 86.1079C107.006 86.4108 113.681 86.7486 121.241 86.9583C141.103 87.5117 150.015 93.4531 157.884 98.6955C160.208 100.245 162.41 101.713 164.821 103.012C175.125 108.575 175.876 118.832 176.534 127.884C176.639 129.352 176.744 130.738 176.884 132.09C177.979 142.743 170.902 148.376 170.599 148.615C170.255 148.883 169.842 149.017 169.428 149.017H169.423ZM78.8496 112.623C86.94 112.623 95.31 112.734 103.144 112.833C110.029 112.92 116.535 113.007 122.057 113.007C131.498 113.007 162.858 114.697 170.087 136.423C170.127 136.552 170.156 136.68 170.174 136.814L170.826 142.563C172.207 140.367 173.535 137 173.075 132.486C172.929 131.076 172.824 129.597 172.719 128.164C172.102 119.7 171.461 110.945 163.004 106.379C160.435 104.992 158.059 103.408 155.764 101.876C147.965 96.6801 139.903 91.3037 121.136 90.7795C113.535 90.5698 106.831 90.2261 100.919 89.9232C86.9575 89.2067 76.875 88.6942 65.6917 90.2436C50.804 92.3056 38.0946 98.7596 30.8255 107.945C24.7737 115.594 22.3448 120.807 21.8556 127.197C21.6866 129.387 22.24 131.56 22.9972 133.424C23.5796 131.152 24.6863 128.927 26.2997 126.812C32.235 119.019 44.4435 113.601 57.4033 113.019C63.8512 112.728 71.2309 112.629 78.8554 112.629L78.8496 112.623Z" fill="#232323"/>
<path d="M36.0694 120.946C33.2037 118.401 34.59 102.079 34.59 102.079Z" fill="#C7C3BA"/>
<path d="M36.072 121.528C35.9322 121.528 35.7983 121.481 35.6876 121.382C32.6879 118.72 33.8703 103.727 34.0159 102.026C34.045 101.706 34.3188 101.467 34.645 101.496C34.9653 101.525 35.2041 101.805 35.175 102.125C34.6275 108.568 34.5168 118.784 36.4622 120.509C36.7011 120.724 36.7244 121.091 36.5089 121.33C36.3924 121.458 36.2351 121.528 36.072 121.528Z" fill="#232323"/>
<path d="M54.7015 90.684C53.1696 103.289 53.519 114.49 53.519 114.49Z" fill="#C7C3BA"/>
<path d="M53.5194 115.072C53.2049 115.072 52.9486 114.822 52.9369 114.507C52.9369 114.396 52.6049 103.119 54.1252 90.6134C54.1659 90.293 54.4513 90.0658 54.7717 90.1066C55.0921 90.1474 55.3192 90.4328 55.2784 90.7532C53.7699 103.166 54.096 114.361 54.096 114.472C54.1077 114.793 53.8514 115.06 53.5311 115.072C53.5252 115.072 53.5194 115.072 53.5136 115.072H53.5194Z" fill="#232323"/>
<path d="M77.119 115.069C76.8044 115.069 76.5482 114.819 76.5365 114.504L75.5929 87.3426C75.5813 87.0222 75.8317 86.7484 76.1521 86.7426C76.4841 86.7309 76.7404 86.9814 76.752 87.3018L77.6956 114.463C77.7073 114.784 77.4568 115.057 77.1365 115.063C77.1306 115.063 77.1248 115.063 77.1131 115.063L77.119 115.069Z" fill="#232323"/>
<path d="M106.219 88.2829C106.219 93.304 105.089 114.775 105.089 114.775Z" fill="#C7C3BA"/>
<path d="M105.094 115.357C105.094 115.357 105.071 115.357 105.065 115.357C104.744 115.34 104.5 115.066 104.511 114.746C104.523 114.53 105.641 93.2344 105.641 88.2832C105.641 87.9629 105.903 87.7008 106.224 87.7008C106.544 87.7008 106.806 87.9629 106.806 88.2832C106.806 93.2635 105.688 114.594 105.676 114.804C105.659 115.113 105.403 115.357 105.094 115.357Z" fill="#232323"/>
<path d="M129.307 114.776C130.018 109.627 130.798 90.1779 130.798 90.1779Z" fill="#C7C3BA"/>
<path d="M129.308 115.358C129.308 115.358 129.256 115.358 129.227 115.358C128.907 115.311 128.685 115.02 128.732 114.699C129.431 109.638 130.211 90.3514 130.217 90.1592C130.229 89.8388 130.502 89.5883 130.823 89.6C131.143 89.6116 131.394 89.8854 131.382 90.2058C131.353 91.0038 130.59 109.742 129.885 114.857C129.844 115.148 129.594 115.358 129.308 115.358Z" fill="#232323"/>
<path d="M153.69 98.2258C155.979 107.977 153.69 120.943 153.69 120.943Z" fill="#C7C3BA"/>
<path d="M153.689 121.526C153.654 121.526 153.619 121.526 153.59 121.515C153.276 121.456 153.06 121.159 153.118 120.839C153.142 120.711 155.361 107.879 153.124 98.3549C153.048 98.0403 153.246 97.7258 153.561 97.6559C153.875 97.5802 154.19 97.7782 154.26 98.0928C156.549 107.849 154.359 120.507 154.266 121.043C154.219 121.322 153.969 121.526 153.695 121.526H153.689Z" fill="#232323"/>
<path d="M165.595 131.491C169.171 126.645 169.387 109.584 169.387 109.584Z" fill="#C7C3BA"/>
<path d="M165.596 132.073C165.474 132.073 165.358 132.038 165.253 131.956C164.996 131.764 164.938 131.403 165.13 131.141C168.555 126.498 168.806 109.74 168.812 109.571C168.812 109.251 169.074 108.994 169.394 108.994H169.4C169.72 108.994 169.977 109.262 169.977 109.583C169.965 110.287 169.714 126.888 166.068 131.828C165.952 131.985 165.777 132.067 165.596 132.067V132.073Z" fill="#232323"/>
<path d="M57.5135 90.1783C64.1129 81.9303 75.832 55.9687 80.5208 51.9728Z" fill="#C7C3BA"/>
<path d="M57.5147 90.7578C57.3866 90.7578 57.2584 90.7171 57.1536 90.6297C56.9031 90.4316 56.8623 90.0647 57.0604 89.8084C60.1882 85.8999 64.5043 77.9256 68.6747 70.2134C73.2762 61.7091 77.6213 53.6765 80.1492 51.5271C80.3939 51.3174 80.7608 51.3466 80.9705 51.5912C81.1802 51.8359 81.1511 52.2028 80.9065 52.4125C78.5475 54.4221 74.0509 62.7342 69.7057 70.7668C65.5061 78.5255 61.1668 86.5464 57.9749 90.5365C57.8584 90.6821 57.6895 90.7578 57.5205 90.7578H57.5147Z" fill="#232323"/>
<path d="M90.926 47.576C87.5535 55.0901 80.5232 87.3251 80.5232 87.3251Z" fill="#C7C3BA"/>
<path d="M80.5237 87.9095C80.4829 87.9095 80.4422 87.9095 80.4014 87.8979C80.0869 87.828 79.8888 87.5193 79.9587 87.2047C80.2441 85.8883 87.0415 54.8241 90.3965 47.345C90.5305 47.0537 90.8741 46.9197 91.1653 47.0537C91.4565 47.1877 91.5905 47.5314 91.4565 47.8226C88.1482 55.1969 81.1644 87.1348 81.0887 87.4552C81.0304 87.729 80.7858 87.9154 80.5179 87.9154L80.5237 87.9095Z" fill="#232323"/>
<path d="M98.236 88.6982C99.3659 71.8526 99.2611 49.3627 99.2611 49.3627Z" fill="#C7C3BA"/>
<path d="M98.2341 89.2792C98.2341 89.2792 98.2109 89.2792 98.1934 89.2792C97.873 89.2559 97.6284 88.9821 97.6517 88.6617C98.7642 72.0316 98.6768 49.5941 98.6768 49.367C98.6768 49.0466 98.9331 48.7845 99.2593 48.7845C99.5796 48.7845 99.8417 49.0408 99.8417 49.367C99.8417 49.5941 99.9349 72.0724 98.8166 88.7433C98.7933 89.052 98.537 89.285 98.2341 89.285V89.2792Z" fill="#232323"/>
<path d="M108.478 48.1456C115.164 54.1395 119.131 89.8228 119.131 89.8228Z" fill="#C7C3BA"/>
<path d="M119.131 90.4079C118.84 90.4079 118.584 90.1865 118.555 89.8895C118.514 89.5341 114.536 54.3576 108.094 48.5793C107.855 48.3638 107.832 47.9968 108.047 47.758C108.263 47.5192 108.63 47.4959 108.868 47.7114C115.642 53.7809 119.545 88.2934 119.708 89.7613C119.743 90.0817 119.516 90.3671 119.195 90.4021C119.172 90.4021 119.155 90.4021 119.131 90.4021V90.4079Z" fill="#232323"/>
<path d="M141.908 93.3844C138.087 82.2705 127.236 58.2195 127.236 58.2195Z" fill="#C7C3BA"/>
<path d="M141.906 93.9691C141.662 93.9691 141.44 93.8177 141.353 93.573C137.584 82.6106 126.809 58.6993 126.698 58.4547C126.564 58.1635 126.698 57.814 126.989 57.6858C127.281 57.5518 127.624 57.6858 127.758 57.9771C127.869 58.2159 138.668 82.1795 142.454 93.1944C142.559 93.4973 142.396 93.8293 142.093 93.9342C142.029 93.9575 141.964 93.9633 141.9 93.9633L141.906 93.9691Z" fill="#232323"/>
</svg>
