<svg width="194" height="194" viewBox="0 0 194 194" fill="none" xmlns="http://www.w3.org/2000/svg">
<path d="M152.639 55.6591L127.511 69.4547C127.511 69.4547 109.583 63.9206 97.1092 64.2425C84.6412 63.9206 66.7072 69.4547 66.7072 69.4547L41.5793 55.6591C41.5793 55.6591 28.1967 72.5775 37.2879 98.2091L97.1092 90.7833L156.93 98.2091C166.022 72.5775 152.639 55.6591 152.639 55.6591Z" fill="#BC96DA"/>
<path d="M117.508 70.7479C107.928 66.326 84.0987 67.3086 70.0962 70.7479L81.1508 67.3087L92.2055 65.0978H103.014L114.069 67.3087L128.072 69.274L146.25 60.4303C142.238 63.5419 133.624 70.1584 131.265 71.7306C128.317 73.6958 127.089 75.1697 117.508 70.7479Z" fill="#D9D9D9"/>
<path d="M156.931 100.061C156.857 100.061 156.778 100.061 156.699 100.044L97.1094 92.6464L37.5196 100.044C36.6613 100.151 35.8369 99.643 35.5432 98.8242C26.2149 72.5263 39.5581 55.2239 40.1284 54.5011C40.6875 53.7896 41.6812 53.5919 42.4718 54.0268L66.9164 67.4496C70.5134 66.388 85.799 62.1019 97.1038 62.3786C108.42 62.1019 123.694 66.388 127.291 67.4496L151.736 54.0268C152.532 53.5919 153.52 53.7896 154.079 54.5011C154.649 55.2239 167.993 72.5263 158.664 98.8242C158.399 99.5696 157.693 100.061 156.919 100.061H156.931ZM97.1094 88.9307C97.1828 88.9307 97.2618 88.9307 97.3352 88.942L155.66 96.1814C162.069 76.5074 154.7 62.2939 152.052 58.0869L128.398 71.075C127.957 71.3178 127.438 71.3686 126.958 71.2218C126.789 71.171 110.136 66.0774 98.1711 66.0774C97.8266 66.0774 97.4878 66.0774 97.1546 66.0887C97.1264 66.0887 97.0924 66.0887 97.0585 66.0887C85.0536 65.7838 67.4303 71.1653 67.2553 71.2218C66.7753 71.3686 66.2558 71.3178 65.8154 71.075L42.1612 58.0869C39.5129 62.2883 32.144 76.5017 38.553 96.1814L96.878 88.942C96.9514 88.9307 97.0304 88.9307 97.1038 88.9307H97.1094Z" fill="#232323"/>
<path d="M39.8536 114.451C89.9174 91.9643 130.529 101.705 154.584 117.28C160.885 121.363 165.154 127.924 166.306 135.344L166.803 138.552C166.803 138.552 178.074 130.155 172.523 113.112C166.973 96.0697 147.22 87.8872 136.537 83.7819C125.853 79.6765 84.3667 73.7641 64.5693 81.6473C44.7719 89.5305 41.2878 89.4966 33.7325 96.0641C26.1772 102.631 11.829 115.444 28.8538 132.713L31.7844 123.474C33.0606 119.454 36.0026 116.179 39.8536 114.451Z" fill="#9E52DA"/>
<path d="M96.3824 80.8194C81.1516 79.8368 72.0622 82.7847 56.5857 86.2239L64.4468 80.8194L74.7644 77.6262H94.1715L116.772 79.1001L135.442 83.2763L151.41 90.1548C156.733 94.1672 167.525 102.241 168.115 102.438C168.704 102.634 171.963 111.363 173.519 115.703C171.063 112.592 164.97 105.042 160.254 99.7355C154.358 93.1027 148.708 92.3657 132.986 86.2239C117.263 80.0821 111.613 81.8021 96.3824 80.8194Z" fill="#D9D9D9"/>
<path d="M39.0917 112.756C75.7615 95.8097 121.223 93.1274 156.007 116.009C162.416 120.278 166.894 127.28 168.102 134.881C168.255 135.745 168.492 137.411 168.633 138.258L165.697 137.055L165.94 136.846C169.508 133.605 171.569 128.884 172.021 124.118L172.032 123.711L172.055 122.898C172.157 120.724 171.829 118.516 171.389 116.387C168.04 101.474 153.726 92.766 140.541 87.1021C132.076 83.1887 122.765 81.6979 113.566 80.4612C104.289 79.2979 94.887 78.7332 85.5473 79.1963C78.6244 79.569 71.6564 80.433 65.2191 82.9572L58.6464 85.6112C52.2204 88.3274 45.3935 90.2305 39.5152 93.8784C37.6405 95.0869 35.9296 96.5269 34.1848 98.0854C22.0104 108.465 17.9617 118.872 30.1755 131.391C30.2151 131.414 27.0925 132.131 27.0981 132.142L28.7752 126.862L29.6109 124.22C30.904 119.194 34.3203 114.851 39.103 112.745L39.0917 112.756ZM40.6107 116.139C37.2791 117.624 34.6477 120.555 33.5523 124.033L33.1344 125.355C32.5528 127.15 31.2089 131.459 30.6216 133.277C30.2772 134.616 28.4307 135.039 27.5273 134.011C25.8107 132.261 24.19 130.369 22.8065 128.269C12.4956 112.745 25.0539 99.5819 37.6179 90.9138C41.7795 88.3105 46.3816 86.8084 50.899 85.1425C54.8855 83.6913 60.2613 81.7487 64.1463 80.2466C75.5301 76.2316 87.8964 76.2881 99.698 76.7116C109.201 77.1408 118.637 78.2137 127.994 79.9869C131.5 80.6814 135.097 81.5172 138.463 82.8499C154.522 88.7114 172.603 98.9042 175.579 117.381C176.036 119.708 176.07 122.113 175.923 124.485L175.855 124.959L175.59 126.862C174.856 130.646 173.201 134.249 170.751 137.236C170.011 138.106 169.237 138.947 168.356 139.692C167.521 140.579 166.109 140.726 165.33 139.681C165.138 139.427 165.019 139.139 164.98 138.84L164.63 136.598C163.856 130.279 160.626 124.327 155.646 120.346C152.15 117.697 148.232 115.591 144.318 113.609C111.844 97.4417 72.8817 101.344 40.6163 116.15L40.6107 116.139Z" fill="#232323"/>
<path d="M38.7125 91.0384C38.1309 84.1999 37.391 77.2993 38.91 70.5286C39.2771 68.8232 39.8079 67.1404 40.5081 65.5423C40.7904 64.8816 41.1688 64.1418 41.8069 63.7183C42.9644 62.86 44.6697 62.9673 45.7256 63.9329C45.8216 64.0289 46.104 64.2717 46.2057 64.3677C48.6733 66.6604 51.0844 69.0152 53.4899 71.3756C53.8795 71.7596 54.9185 72.7704 55.3025 73.1375C57.6515 75.001 57.8209 78.6546 55.4549 80.5632L52.9704 82.839C52.8123 82.9858 52.5695 82.9745 52.4227 82.8164C52.2815 82.6639 52.2872 82.4267 52.434 82.2799L54.8056 79.8856C56.3415 78.5868 56.4769 76.0457 54.9806 74.696C54.3199 74.0918 53.1397 73.1488 52.4395 72.5502C49.7404 70.3027 47.0469 68.0552 44.4156 65.7343C43.8735 65.147 42.9813 65.339 42.7329 66.1183C41.9762 67.6994 41.3607 69.3371 40.8807 71.0311C39.678 75.2494 39.2941 79.7218 39.678 84.1039C39.87 86.3175 40.3105 88.5085 40.9485 90.6431C41.3551 92.2468 38.9214 92.7155 38.7238 91.0497L38.7125 91.0384Z" fill="#232323"/>
<path d="M152.438 90.6098C154.775 82.7322 154.199 73.9512 150.811 66.4689C150.738 66.3391 150.563 65.9042 150.495 65.8195C150.173 65.2605 149.366 65.2548 148.954 65.7235C148.005 66.5593 147.056 67.3894 146.091 68.2082C143.967 70.0152 141.782 71.8392 139.636 73.6237L138.993 74.1658C137.553 75.1427 136.853 77.0514 137.66 78.6721C137.886 79.1464 138.174 79.4965 138.564 79.8805L140.935 82.2748C141.285 82.6249 140.76 83.1727 140.399 82.8339L137.914 80.5582C136.971 79.7676 136.294 78.5704 136.22 77.3224C136.051 75.7469 136.858 74.1432 138.067 73.138C138.445 72.7766 139.49 71.7545 139.879 71.3762C142.528 68.8068 145.131 66.181 147.892 63.7302C149.484 62.5104 151.991 63.2784 152.675 65.1476C154.453 68.9593 155.142 73.2227 155.312 77.3789C155.532 81.9699 155.024 86.4762 154.657 91.0502C154.465 92.7104 151.997 92.253 152.438 90.6211V90.6098Z" fill="#232323"/>
<path d="M172.268 131.385C172.268 131.385 172.251 131.385 172.246 131.385C172.087 131.374 171.975 131.233 171.986 131.08C172.635 123.44 166.972 119.605 157.587 113.253C156.243 112.343 154.825 111.383 153.34 110.356C141.245 101.981 127.608 98.435 109.516 95.4195C92.9713 92.6638 73.8345 94.9282 54.184 101.97C33.6807 109.322 24.0418 116.94 23.8442 125.941C23.8442 126.1 23.703 126.212 23.5562 126.218C23.3981 126.218 23.2738 126.088 23.2795 125.93C23.4771 116.663 33.2346 108.882 53.9919 101.439C73.7329 94.3635 92.9657 92.0878 109.607 94.8604C127.772 97.8872 141.482 101.462 153.662 109.893C155.147 110.92 156.565 111.88 157.909 112.79C167.468 119.261 173.234 123.163 172.556 131.131C172.545 131.278 172.421 131.391 172.274 131.391L172.268 131.385Z" fill="#232323"/>
</svg>
