<svg width="194" height="194" viewBox="0 0 194 194" fill="none" xmlns="http://www.w3.org/2000/svg">
<path d="M85.7312 100.11C88.7503 90.0724 82.9423 79.2412 72.8702 76.3586C67.9834 74.9599 63.0284 75.6251 58.875 77.7999C56.3932 74.0047 52.5554 71.0709 47.8221 69.8343C37.9546 67.2672 27.8995 72.9898 24.9742 82.6611H24.9401C24.906 82.7805 24.889 82.9085 24.8549 83.0449C24.8208 83.1643 24.778 83.2667 24.7439 83.3861C24.0275 86.1493 23.9763 88.9211 24.4624 91.5564C26.2022 105.134 38.1082 118.131 43.3959 123.308C44.931 124.809 47.1653 125.355 49.2207 124.732C54.7898 123.035 66.4654 118.89 77.2283 111.351C81.2794 109.04 84.2984 104.912 85.7398 100.119L85.7312 100.11Z" fill="#F0463F"/>
<path d="M47.4973 127.12C45.4334 127.12 43.4123 126.318 41.8943 124.835C36.6322 119.683 24.206 106.166 22.3468 91.8889C21.7925 88.8443 21.9034 85.8081 22.671 82.8573C22.7051 82.7379 22.7391 82.6355 22.7732 82.5246C22.8073 82.3541 22.833 82.2432 22.8586 82.1323C22.9012 81.9618 22.9694 81.7997 23.0462 81.6462C26.4832 71.0368 37.5105 64.9559 48.3502 67.7789C52.8021 68.9387 56.7253 71.5144 59.5653 75.1219C63.966 73.2798 68.8358 72.9898 73.4497 74.3117C78.8312 75.8554 83.3001 79.4629 86.0293 84.4606C88.784 89.5095 89.4066 95.2918 87.7691 100.733C86.1572 106.106 82.7287 110.626 78.3621 113.15C67.5054 120.741 55.8297 124.945 49.8341 126.771C49.0666 127.001 48.2734 127.12 47.4973 127.12ZM26.9267 83.4969C26.9267 83.4969 26.9182 83.5395 26.9096 83.5566C26.867 83.7186 26.8413 83.8039 26.8072 83.8977C26.1761 86.2942 26.0995 88.7334 26.543 91.1811C26.543 91.2152 26.5515 91.2578 26.56 91.2919C28.2231 104.264 39.9242 116.937 44.8707 121.79C45.8515 122.745 47.2756 123.095 48.589 122.694C54.3628 120.937 65.595 116.886 75.9912 109.603C76.0424 109.569 76.102 109.534 76.1532 109.5C79.6243 107.522 82.362 103.871 83.6754 99.5049C84.9802 95.1639 84.4855 90.55 82.2766 86.5075C80.1018 82.5161 76.5454 79.642 72.2641 78.4139C68.1108 77.2199 63.7017 77.6805 59.8468 79.6932C58.8746 80.2049 57.672 79.8893 57.075 78.9683C54.7809 75.4631 51.2927 72.9471 47.2673 71.8981C38.517 69.621 29.6133 74.6273 26.995 83.2837C26.9694 83.3519 26.9523 83.4287 26.9182 83.4969H26.9267Z" fill="#232323"/>
<path d="M76.6387 99.411C78.4979 92.2642 74.1312 84.9467 66.8905 83.0619C63.4962 82.1835 60.0849 82.6611 57.2193 84.1365C55.4369 81.45 52.6907 79.3605 49.2963 78.4821C42.2347 76.6485 35.0538 80.6654 32.9814 87.5053H32.9558C32.9302 87.5905 32.9216 87.6843 32.896 87.7696C32.8704 87.8549 32.8448 87.9317 32.8192 88.0084C32.316 89.9615 32.2819 91.923 32.6316 93.7822C34.2776 106.183 48.0512 117.943 48.0512 117.943C48.0512 117.943 59.8631 115.189 70.4129 107.897C73.4661 106.183 75.6921 103.036 76.6302 99.4025L76.6387 99.411Z" fill="#232323"/>
<path d="M109.261 100.111C106.242 90.0727 112.05 79.2415 122.122 76.3589C127.009 74.9602 131.964 75.6254 136.117 77.8002C138.599 74.005 142.437 71.0712 147.17 69.8346C157.037 67.2675 167.093 72.9901 170.018 82.6614H170.052C170.086 82.7808 170.103 82.9088 170.137 83.0452C170.171 83.1646 170.214 83.267 170.248 83.3864C170.965 86.1496 171.016 88.9214 170.529 91.5567C168.79 105.134 156.884 118.131 151.596 123.308C150.061 124.809 147.827 125.355 145.771 124.733C140.202 123.035 128.527 118.891 117.764 111.351C113.713 109.04 110.694 104.912 109.252 100.119L109.261 100.111Z" fill="#F0463F"/>
<path d="M147.494 127.12C146.709 127.12 145.924 127.009 145.157 126.771C139.153 124.937 127.486 120.741 116.629 113.151C112.262 110.618 108.834 106.098 107.222 100.733C105.585 95.292 106.199 89.5097 108.962 84.4608C111.691 79.4631 116.16 75.8555 121.541 74.3119C126.164 72.99 131.025 73.2799 135.426 75.1221C138.266 71.5145 142.18 68.9389 146.641 67.779C157.481 64.9561 168.508 71.0454 171.945 81.6634C172.022 81.8084 172.09 81.9705 172.133 82.1325C172.158 82.2434 172.184 82.3542 172.209 82.4651C172.261 82.6357 172.295 82.7466 172.329 82.866C173.096 85.8083 173.207 88.853 172.653 91.8891C170.794 106.166 158.368 119.683 153.105 124.835C151.587 126.327 149.566 127.12 147.502 127.12H147.494ZM111.307 99.4965C112.621 103.863 115.367 107.513 118.829 109.492C118.889 109.526 118.94 109.56 118.991 109.594C129.388 116.878 140.62 120.92 146.394 122.686C147.707 123.086 149.131 122.737 150.112 121.781C155.059 116.929 166.76 104.255 168.423 91.2836C168.423 91.2495 168.431 91.2068 168.44 91.1727C168.892 88.7336 168.806 86.2944 168.192 83.932C168.15 83.8041 168.124 83.7188 168.099 83.625C168.09 83.5823 168.073 83.5397 168.065 83.4971C168.039 83.4288 168.013 83.3606 167.988 83.2838C165.369 74.6274 156.457 69.6212 147.715 71.8983C143.69 72.9473 140.202 75.4547 137.908 78.9599C137.311 79.881 136.108 80.188 135.136 79.6848C131.281 77.6636 126.872 77.2116 122.719 78.4055C118.437 79.6336 114.881 82.5078 112.706 86.4991C110.497 90.5416 110.002 95.1555 111.307 99.4965Z" fill="#232323"/>
<path d="M117.925 99.5644C116.083 92.4687 120.569 85.1513 127.955 83.2324C131.418 82.3369 134.889 82.7889 137.797 84.2387C139.63 81.5523 142.445 79.4628 145.907 78.5587C153.114 76.6825 160.397 80.6397 162.461 87.4284H162.487C162.512 87.5137 162.521 87.6075 162.547 87.6928C162.572 87.7781 162.598 87.8548 162.623 87.9316C163.126 89.8675 163.144 91.8206 162.777 93.6712C161.02 106.021 146.914 117.815 146.914 117.815C146.914 117.815 134.897 115.155 124.202 107.965C121.107 106.276 118.864 103.163 117.925 99.5559V99.5644Z" fill="#232323"/>
<path d="M86.5662 98.5663C96.3398 91.0356 108.425 97.9608 108.425 97.9608Z" fill="#F0463F"/>
<path d="M86.5749 101.364C85.7391 101.364 84.9035 100.989 84.3576 100.272C83.411 99.0441 83.6411 97.2872 84.8692 96.3491C95.9989 87.7779 109.269 95.2148 109.824 95.5389C111.163 96.3064 111.632 98.0206 110.856 99.3596C110.088 100.699 108.374 101.168 107.035 100.392C106.608 100.153 96.4253 94.5069 88.2806 100.784C87.7689 101.176 87.1719 101.364 86.5749 101.364Z" fill="#232323"/>
</svg>
