<svg width="44" height="27" viewBox="0 0 44 27" fill="none" xmlns="http://www.w3.org/2000/svg">
<path d="M41.289 12.7827L25.7519 0.614849C25.5874 0.486284 25.368 0.46445 25.182 0.556631C24.996 0.648812 24.8792 0.840446 24.8792 1.05149V6.558C19.3567 6.38092 13.9202 8.14446 9.50866 11.5478C4.94714 15.0677 1.75199 20.14 0.51222 25.8283C0.462146 26.0539 0.557524 26.2868 0.748283 26.4129C0.838894 26.4711 0.939041 26.5002 1.04157 26.5002C1.15603 26.5002 1.27048 26.4639 1.36825 26.3887C8.14031 21.2121 16.4714 18.8783 24.8769 19.7955V25.3869C24.8769 25.598 24.9938 25.7896 25.1798 25.8818C25.3658 25.974 25.5875 25.9521 25.7497 25.8236L41.2868 13.6557C41.4203 13.5514 41.499 13.3889 41.499 13.2191C41.499 13.0469 41.4203 12.8868 41.2868 12.7825L41.289 12.7827Z" fill="#2A9CFF"/>
<path d="M25.501 0.253906C25.6452 0.268661 25.7855 0.323648 25.9053 0.416992H25.9062L41.4434 12.585L42.0137 13.0322H41.7246C41.7389 13.0928 41.749 13.1553 41.749 13.2188C41.749 13.2814 41.7407 13.3422 41.7275 13.3994C41.6923 13.5516 41.6129 13.6851 41.5078 13.7891C41.5075 13.7894 41.5061 13.7906 41.5039 13.793C41.5022 13.7948 41.4957 13.8019 41.4922 13.8057C41.4824 13.8161 41.464 13.8351 41.4404 13.8535L25.9043 26.0195C25.8474 26.0645 25.7828 26.1023 25.7119 26.1309L25.7129 26.1318C25.5066 26.2149 25.2713 26.2061 25.0684 26.1055C24.9694 26.0563 24.8861 25.9884 24.8193 25.9102C24.8097 25.8989 24.8013 25.8875 24.7969 25.8818C24.7832 25.8642 24.7666 25.8423 24.751 25.8174C24.7467 25.8106 24.7436 25.8042 24.7422 25.8018L24.7412 25.8008L24.7012 25.7266V25.7246L24.6992 25.7227C24.6977 25.7195 24.6947 25.7127 24.6914 25.7051C24.6778 25.6732 24.666 25.6399 24.6562 25.6055L24.6338 25.499C24.6283 25.4595 24.627 25.4212 24.627 25.3867V20.0215C24.4402 20.0022 24.2536 19.9836 24.0674 19.9678C22.7654 19.8571 21.4663 19.8256 20.1758 19.8701C19.6593 19.888 19.1441 19.9176 18.6309 19.96C16.8344 20.1082 15.0589 20.4056 13.3203 20.8486C13.0717 20.912 12.8239 20.9777 12.5771 21.0469C11.8367 21.2545 11.103 21.4895 10.3779 21.75C9.8951 21.9235 9.41588 22.1089 8.94043 22.3057C8.46463 22.5026 7.99253 22.7108 7.52539 22.9307C7.05828 23.1506 6.59555 23.3823 6.1377 23.625C4.99308 24.2317 3.87829 24.9099 2.79883 25.6572C2.36691 25.9563 1.93935 26.265 1.51953 26.5859C1.37693 26.6955 1.20961 26.7499 1.04199 26.75H1.03418L1.02637 26.749L0.950195 26.7441H0.94043L0.930664 26.7422C0.870729 26.7336 0.817625 26.7164 0.780273 26.7031H0.779297C0.778179 26.7028 0.775334 26.7018 0.773438 26.7012C0.768351 26.6995 0.759306 26.6965 0.749023 26.6924L0.748047 26.6914C0.743371 26.6898 0.729477 26.6849 0.713867 26.6777L0.706055 26.6748L0.699219 26.6709L0.628906 26.6328L0.619141 26.627L0.610352 26.6211C0.575597 26.5981 0.544598 26.574 0.518555 26.5508L0.491211 26.5234C0.474216 26.5067 0.454136 26.4866 0.43457 26.4629L0.435547 26.4619L0.433594 26.4609C0.431267 26.4583 0.425882 26.452 0.419922 26.4443C0.377559 26.3898 0.342924 26.3308 0.316406 26.2695C0.315882 26.2683 0.306905 26.2487 0.300781 26.2324C0.29136 26.2073 0.284071 26.1792 0.282227 26.1729C0.279927 26.1649 0.281712 26.17 0.277344 26.1553C0.274779 26.1466 0.2709 26.1335 0.267578 26.1182V26.1172C0.264103 26.1009 0.262385 26.0866 0.261719 26.0811C0.261205 26.0768 0.260967 26.077 0.260742 26.0752C0.260742 26.0752 0.26048 26.0765 0.260742 26.0781L0.25 25.9287C0.250976 25.8778 0.256981 25.8256 0.268555 25.7734C1.52096 20.0289 4.74821 14.9055 9.35645 11.3496C12.6993 8.7708 16.6251 7.123 20.7334 6.53613C21.7602 6.38943 22.7986 6.31006 23.8418 6.29785C24.0149 6.29583 24.1888 6.29511 24.3633 6.29688C24.4516 6.29777 24.5404 6.29992 24.6289 6.30176V1.0498C24.629 1.00987 24.6319 0.972039 24.6367 0.9375C24.6627 0.752957 24.7517 0.584545 24.8867 0.459961C24.9391 0.411624 25.0004 0.366751 25.0703 0.332031C25.138 0.298471 25.2095 0.275725 25.2812 0.262695C25.3541 0.249467 25.4284 0.246585 25.501 0.253906ZM26.2148 7.14844L26.2129 7.16211L26.2012 7.27344L26.2002 7.28516L26.1982 7.29785L26.1543 7.4375C26.1484 7.45212 26.1424 7.46423 26.1396 7.46973L26.1367 7.47559C26.1234 7.5039 26.108 7.53356 26.0898 7.5625L26.0889 7.56152L26.0605 7.60547C26.0415 7.6319 26.0186 7.66154 25.9912 7.69043C25.9964 7.68493 25.9997 7.68031 26.001 7.67871C26.0019 7.67761 26.0032 7.67673 26.001 7.67969C25.9996 7.68152 25.9957 7.68603 25.9912 7.69141C25.9863 7.69728 25.9782 7.70563 25.9688 7.71484C25.815 7.86414 25.6005 7.95384 25.3721 7.93555V7.93457C24.9427 7.91082 24.5175 7.90039 24.0928 7.90039C23.455 7.90039 22.8222 7.92617 22.1963 7.97852C22.0233 7.99299 21.8507 8.00897 21.6787 8.02734C19.6713 8.24182 17.7327 8.7222 15.9014 9.43652C15.1913 9.71349 14.4976 10.0263 13.8223 10.3721C13.6874 10.4411 13.5526 10.5111 13.4189 10.583C13.1513 10.7269 12.8867 10.8753 12.626 11.0293C12.3653 11.1833 12.1081 11.3433 11.8535 11.5078C11.7264 11.59 11.5997 11.6737 11.4736 11.7588C7.25974 14.6032 3.99899 18.8643 2.37793 24.0127C3.28009 23.41 4.20396 22.8516 5.14844 22.3408C5.37784 22.2168 5.60858 22.0944 5.84082 21.9756C7.00196 21.3814 8.19171 20.8561 9.4043 20.4014C9.64702 20.3103 9.89117 20.2221 10.1357 20.1367C11.1128 19.7957 12.104 19.4998 13.1064 19.25L13.8613 19.0713C14.8696 18.8445 15.8889 18.664 16.916 18.5303C17.1725 18.4969 17.4299 18.466 17.6875 18.4385C18.4607 18.3558 19.2381 18.2999 20.0186 18.2705C21.8398 18.202 23.6777 18.2797 25.5176 18.5068H25.5186C25.9178 18.5569 26.2145 18.9008 26.2148 19.3027V23.75L39.6611 13.2178L26.2148 2.68555V7.14844Z" fill="black" stroke="black" stroke-width="0.5"/>
<path d="M41.999 13.5002V12.5002V12.0002H42.499C42.6657 12.1669 43.099 12.5002 43.499 12.5002C43.899 12.5002 43.3324 13.1669 42.999 13.5002H41.999Z" fill="white"/>
</svg>
