<svg width="194" height="194" viewBox="0 0 194 194" fill="none" xmlns="http://www.w3.org/2000/svg">
<path d="M96.8412 154.617C92.4081 165.621 79.0931 168.739 60.7638 156.223C40.2306 142.202 33.7185 128.923 43.7607 116.314C53.806 103.706 74.8977 104.59 73.3754 89.0396C71.8547 73.4934 81.0664 61.3982 87.8172 60.3288C92.9637 59.5159 95.7746 64.7719 89.5632 69.8125C83.6907 74.5784 86.4818 86.3647 102.234 83.8721L103.281 98.479L103.287 98.561C103.287 98.561 103.26 98.5554 103.215 98.5455C102.974 98.4978 102.255 98.3791 102.919 98.8484C102.927 98.8559 102.936 98.8603 102.947 98.8692C115.307 107.363 121.888 100.717 124.718 103.008C127.549 105.304 129.119 111.962 114.22 118.102C99.3247 124.243 100.571 135.997 98.0524 150.32C97.7832 151.857 97.377 153.294 96.8412 154.617Z" fill="#E25247"/>
<path d="M98.0532 150.32C97.784 151.857 97.3778 153.295 96.8419 154.617L95.8076 155.588C95.8076 155.588 96.5112 144.854 98.5271 134.584C100.544 124.311 105.787 120.811 109.549 118.121C113.313 115.428 120.251 113.023 123.149 110.028C126.047 107.033 124.691 105.992 123.695 104.783C122.702 103.576 120.683 104.972 116.972 105.802C113.257 106.633 107.896 106.092 101.645 100.156L102.92 98.8487C102.92 98.8487 102.937 98.8605 102.948 98.8695C115.308 107.364 121.889 100.717 124.719 103.008C127.55 105.304 129.12 111.963 114.221 118.102C99.3254 124.243 100.571 135.997 98.0532 150.32Z" fill="white"/>
<path d="M60.1332 157.146C46.6485 147.939 39.4731 139.355 38.2004 130.905C37.4117 125.661 38.9859 120.52 42.8857 115.623C47.134 110.29 53.3124 107.269 58.7669 104.602C66.767 100.69 73.0886 97.5981 72.2615 89.1541C70.6709 72.8809 80.4624 60.37 87.6408 59.2342C90.4385 58.7921 92.8622 59.8933 93.8179 62.0362C94.998 64.6862 93.6685 67.9164 90.2621 70.6828C87.9806 72.5333 87.209 75.669 88.3859 78.31C90.1141 82.1838 95.2247 83.8528 102.056 82.773C102.362 82.7237 102.675 82.8097 102.923 83.0001C103.17 83.1937 103.319 83.4801 103.342 83.7929L104.399 98.4832C104.399 98.4832 104.4 98.4954 104.399 98.4984C111.755 103.245 116.859 102.332 120.28 101.722C122.311 101.361 124.06 101.046 125.418 102.145C127.118 103.521 127.942 105.65 127.621 107.837C127.198 110.725 124.606 115.032 114.644 119.138C102.843 124.003 101.677 132.603 100.199 143.49C99.8917 145.751 99.5736 148.09 99.149 150.518C97.9982 157.064 94.4832 161.881 89.249 164.088C81.6929 167.271 71.3541 164.808 60.1332 157.146ZM90.9352 61.94C90.2047 61.443 89.1599 61.2476 87.9938 61.4313C81.5705 62.4465 73.0689 74.4447 74.4867 88.9314C75.4643 98.9175 67.8337 102.649 59.7506 106.6C54.2524 109.287 48.5702 112.067 44.6345 117.008C41.0876 121.459 39.7038 125.896 40.4085 130.569C41.5681 138.264 48.6281 146.585 61.3916 155.299C71.965 162.518 81.5515 164.908 88.3814 162.029C92.8924 160.128 95.9368 155.899 96.9531 150.129C97.3723 147.744 97.6878 145.426 97.9924 143.186C99.5056 132.045 100.81 122.425 113.797 117.074C123.262 113.173 125.14 109.411 125.417 107.512C125.718 105.436 124.424 104.205 124.015 103.877C123.473 103.444 122.448 103.601 120.674 103.92C117.021 104.574 110.914 105.661 102.407 99.8545C102.376 99.8322 102.347 99.8144 102.316 99.7922C101.361 99.1346 101.474 98.4501 101.625 98.104C101.731 97.8604 101.889 97.6799 102.097 97.5609L101.205 85.1392C93.9089 85.9927 88.4036 83.818 86.3501 79.2152C84.7625 75.6537 85.7941 71.4326 88.8586 68.9472C91.8916 66.4882 92.3586 64.2317 91.7821 62.9415C91.6004 62.534 91.309 62.1983 90.9337 61.9431L90.9352 61.94Z" fill="#232323"/>
<path d="M81.1408 123.157C87.2015 126.062 94.4693 123.503 97.3739 117.442C100.278 111.382 97.7199 104.114 91.6591 101.209C85.5984 98.3048 78.3306 100.863 75.426 106.924C72.5215 112.985 75.0801 120.253 81.1408 123.157Z" fill="#232323"/>
<path d="M128.594 60.6913L126.727 63.4227L73.9521 140.714L72.2004 139.516L64.3645 134.167L119.003 54.1425L128.594 60.6913Z" fill="#C1C1C1"/>
<path d="M126.726 63.423L73.9516 140.714L72.1999 139.517L125.286 61.3231L125.621 61.4833L126.726 63.423Z" fill="white"/>
<path d="M73.3219 141.637L63.7343 135.09C63.2253 134.744 63.0951 134.048 63.4408 133.539L118.082 53.5165C118.428 53.0074 119.124 52.8772 119.633 53.2229L129.22 59.7703C129.729 60.116 129.86 60.8116 129.514 61.3207L74.8724 141.343C74.5266 141.853 73.831 141.983 73.3219 141.637ZM65.9109 133.875L73.6591 139.164L127.042 60.9804L119.294 55.6916L65.9109 133.875Z" fill="#232323"/>
<path d="M86.5273 131.186L69.0722 119.268L65.7984 124.063L83.2534 135.981L86.5273 131.186Z" fill="#878787"/>
<path d="M82.6245 136.902L65.1702 124.982C64.6612 124.637 64.531 123.941 64.8767 123.432L68.1504 118.638C68.4961 118.129 69.1918 117.999 69.7008 118.345L87.155 130.264C87.6641 130.61 87.7943 131.305 87.4486 131.814L84.175 136.608C83.8292 137.117 83.1336 137.248 82.6245 136.902ZM67.3468 123.768L82.9617 134.429L84.9769 131.474L69.362 120.813L67.3468 123.768Z" fill="#232323"/>
<path d="M146.974 40.0277L144.246 40.1904L140.859 53.9046C140.191 56.5962 137.915 58.585 135.16 58.882L133.454 59.0671C132.823 59.1339 132.262 59.4945 131.933 60.0382L130.566 62.3006C130.106 63.064 129.101 63.283 128.365 62.7799L127.749 62.36L116.905 54.958C116.846 54.9149 116.8 54.8548 116.776 54.7868C115.796 51.9388 116.661 48.7802 118.953 46.8292L138.252 30.416C139.971 28.952 142.231 28.2862 144.467 28.5848L145.18 28.6778L147.174 28.9439C149.265 29.2221 150.858 30.9544 150.962 33.0584L151.08 35.4556C151.196 37.8482 149.364 39.8843 146.974 40.0277Z" fill="#E0CE48"/>
<path d="M146.974 40.0275L144.246 40.1902L140.859 53.9045C140.191 56.5961 137.914 58.5848 135.16 58.8818L133.454 59.0669C132.823 59.1338 132.262 59.4943 131.933 60.0381L130.566 62.3004C130.106 63.0638 129.1 63.2828 128.365 62.7797L127.749 62.3598C128.177 60.7973 129.215 58.1436 131.406 57.403C134.565 56.3314 138.254 53.9982 138.643 52.7222C139.028 51.4478 141.449 41.7073 141.867 39.3102C142.284 36.9132 147.978 37.8138 148.18 36.6929C148.374 35.595 150.637 31.4247 145.059 28.9137C144.952 28.8623 144.841 28.817 144.728 28.7703L145.18 28.6776L147.174 28.9437C149.265 29.2219 150.858 30.9542 150.962 33.0582L151.08 35.4554C151.196 37.8481 149.364 39.8841 146.974 40.0275Z" fill="white"/>
<path d="M127.735 63.7027L116.276 55.8777C116.017 55.7011 115.821 55.4413 115.72 55.1481C114.583 51.8436 115.568 48.2451 118.234 45.9792L137.529 29.5645C139.484 27.9004 142.068 27.1411 144.612 27.4785L147.32 27.8376C149.946 28.1875 151.946 30.36 152.074 33.0033L152.192 35.4005C152.339 38.3886 150.027 40.9633 147.04 41.141L145.131 41.2551L141.94 54.1739C141.165 57.3082 138.487 59.6472 135.276 59.9929L133.572 60.175C133.289 60.2056 133.034 60.3695 132.887 60.6122L131.523 62.876C131.145 63.5012 130.52 63.948 129.808 64.1043C129.093 64.2592 128.341 64.1137 127.736 63.6996L127.735 63.7027ZM117.754 54.185L128.995 61.8602C129.128 61.9507 129.265 61.9408 129.333 61.9245C129.401 61.9081 129.528 61.8634 129.614 61.7236L130.978 59.4598C131.484 58.6242 132.364 58.0622 133.334 57.9577L135.038 57.7756C137.319 57.5307 139.224 55.869 139.772 53.64L143.161 39.9228C143.279 39.4479 143.688 39.1051 144.177 39.0756L146.908 38.9144C148.681 38.8102 150.049 37.2836 149.963 35.5123L149.846 33.1151C149.768 31.5474 148.585 30.2567 147.026 30.0486L144.318 29.6895C142.398 29.4328 140.449 30.0067 138.973 31.2629L119.678 47.6776C117.783 49.2875 117.044 51.8206 117.754 54.185Z" fill="#232323"/>
<path d="M118.538 43.1737C119.543 43.6556 120.749 43.2311 121.231 42.2255C121.713 41.2199 121.288 40.014 120.283 39.5321C119.277 39.0502 118.071 39.4747 117.589 40.4803C117.107 41.4859 117.532 42.6918 118.538 43.1737Z" fill="#232323"/>
<path d="M122.841 48.4209C123.593 48.7811 124.494 48.4638 124.855 47.7121C125.215 46.9605 124.898 46.0591 124.146 45.6989C123.394 45.3386 122.493 45.656 122.133 46.4076C121.772 47.1593 122.09 48.0607 122.841 48.4209Z" fill="#232323"/>
<path d="M122.274 47.4022C122.174 47.3354 122.081 47.2457 122.007 47.1421L118.811 42.8139C118.446 42.3183 118.551 41.6187 119.047 41.2531C119.542 40.8875 120.242 40.9929 120.608 41.4885L123.803 45.8167C124.169 46.3123 124.063 47.0119 123.568 47.3774C123.176 47.6683 122.659 47.6618 122.274 47.4022Z" fill="#232323"/>
<path d="M123.349 39.2705C124.355 39.7524 125.56 39.3279 126.042 38.3223C126.524 37.3167 126.1 36.1108 125.094 35.6289C124.089 35.147 122.883 35.5715 122.401 36.5771C121.919 37.5827 122.343 38.7886 123.349 39.2705Z" fill="#232323"/>
<path d="M127.653 44.5154C128.405 44.8756 129.306 44.5583 129.666 43.8067C130.027 43.055 129.709 42.1536 128.958 41.7934C128.206 41.4332 127.305 41.7505 126.944 42.5021C126.584 43.2538 126.901 44.1552 127.653 44.5154Z" fill="#232323"/>
<path d="M127.085 43.4976C126.985 43.4309 126.893 43.3412 126.818 43.2375L123.623 38.9093C123.257 38.4137 123.362 37.7141 123.858 37.3485C124.354 36.9829 125.053 37.0883 125.419 37.5839L128.614 41.9121C128.98 42.4077 128.874 43.1073 128.379 43.4729C127.987 43.7638 127.47 43.7572 127.085 43.4976Z" fill="#232323"/>
<path d="M127.823 35.3996C128.829 35.8815 130.035 35.457 130.517 34.4514C130.999 33.4458 130.574 32.2399 129.569 31.758C128.563 31.276 127.357 31.7006 126.875 32.7062C126.393 33.7118 126.818 34.9177 127.823 35.3996Z" fill="#232323"/>
<path d="M132.127 40.6466C132.879 41.0068 133.78 40.6895 134.14 39.9378C134.501 39.1862 134.183 38.2848 133.432 37.9246C132.68 37.5644 131.779 37.8817 131.418 38.6333C131.058 39.385 131.375 40.2864 132.127 40.6466Z" fill="#232323"/>
<path d="M131.56 39.6285C131.46 39.5617 131.367 39.4721 131.292 39.3684L128.097 35.0402C127.732 34.5446 127.837 33.845 128.333 33.4794C128.828 33.1138 129.528 33.2192 129.893 33.7148L133.089 38.043C133.454 38.5386 133.349 39.2382 132.853 39.6038C132.461 39.8946 131.944 39.8881 131.56 39.6285Z" fill="#232323"/>
<path d="M132.235 31.8716C133.241 32.3536 134.447 31.929 134.929 30.9234C135.411 29.9178 134.986 28.712 133.981 28.23C132.975 27.7481 131.769 28.1726 131.287 29.1782C130.805 30.1838 131.23 31.3897 132.235 31.8716Z" fill="#232323"/>
<path d="M136.539 37.1195C137.291 37.4797 138.192 37.1624 138.552 36.4107C138.913 35.6591 138.595 34.7577 137.844 34.3975C137.092 34.0373 136.191 34.3546 135.83 35.1062C135.47 35.8579 135.787 36.7593 136.539 37.1195Z" fill="#232323"/>
<path d="M135.971 36.1017C135.871 36.035 135.779 35.9453 135.704 35.8416L132.509 31.5134C132.143 31.0178 132.248 30.3182 132.744 29.9527C133.24 29.5871 133.939 29.6924 134.305 30.188L137.5 34.5162C137.866 35.0118 137.76 35.7114 137.265 36.077C136.873 36.3679 136.356 36.3613 135.971 36.1017Z" fill="#232323"/>
<path d="M120.88 65.698L116.694 62.8398C116.537 62.7345 116.498 62.5238 116.604 62.367C116.709 62.2101 116.92 62.1716 117.077 62.2769L121.263 65.1351C121.42 65.2404 121.458 65.4511 121.353 65.6079C121.248 65.7648 121.037 65.8033 120.88 65.698Z" fill="#232323"/>
<path d="M117.383 70.815L113.196 67.9568C113.039 67.8515 113.001 67.6408 113.106 67.484C113.212 67.3271 113.422 67.2887 113.579 67.394L117.765 70.2521C117.922 70.3574 117.961 70.5681 117.855 70.7249C117.75 70.8818 117.539 70.9203 117.383 70.815Z" fill="#232323"/>
<path d="M113.547 76.4362L109.361 73.5781C109.204 73.4728 109.165 73.2621 109.271 73.1053C109.376 72.9484 109.587 72.9099 109.744 73.0153L113.93 75.8734C114.087 75.9787 114.125 76.1894 114.02 76.3462C113.915 76.5031 113.704 76.5416 113.547 76.4362Z" fill="#232323"/>
<path d="M110.051 81.5535L105.865 78.6954C105.708 78.59 105.67 78.3793 105.775 78.2225C105.88 78.0657 106.091 78.0272 106.248 78.1325L110.434 80.9906C110.591 81.096 110.629 81.3066 110.524 81.4635C110.419 81.6203 110.208 81.6588 110.051 81.5535Z" fill="#232323"/>
<path d="M106.618 86.5838L102.431 83.7256C102.274 83.6203 102.236 83.4096 102.341 83.2528C102.446 83.0959 102.657 83.0575 102.814 83.1628L107 86.0209C107.157 86.1262 107.196 86.3369 107.09 86.4937C106.985 86.6506 106.774 86.6891 106.618 86.5838Z" fill="#232323"/>
<path d="M103.122 91.7005L98.9356 88.8424C98.7788 88.7371 98.7403 88.5264 98.8456 88.3695C98.9509 88.2127 99.1616 88.1742 99.3185 88.2795L103.505 91.1377C103.662 91.243 103.7 91.4537 103.595 91.6105C103.489 91.7673 103.279 91.8058 103.122 91.7005Z" fill="#232323"/>
<path d="M99.2855 97.3219L95.0992 94.4637C94.9423 94.3584 94.9038 94.1477 95.0091 93.9909C95.1145 93.834 95.3252 93.7956 95.482 93.9009L99.6683 96.759C99.8252 96.8643 99.8636 97.075 99.7583 97.2318C99.653 97.3887 99.4423 97.4272 99.2855 97.3219Z" fill="#232323"/>
<path d="M95.7897 102.439L91.6034 99.5806C91.4465 99.4753 91.408 99.2646 91.5133 99.1078C91.6187 98.9509 91.8294 98.9124 91.9862 99.0178L96.1725 101.876C96.3294 101.981 96.3679 102.192 96.2626 102.349C96.1573 102.506 95.9465 102.544 95.7897 102.439Z" fill="#232323"/>
<path d="M91.9834 108.013L87.7971 105.155C87.6403 105.05 87.6017 104.839 87.7071 104.682C87.8124 104.525 88.0231 104.487 88.18 104.592L92.3663 107.45C92.5231 107.556 92.5616 107.766 92.4563 107.923C92.351 108.08 92.1403 108.118 91.9834 108.013Z" fill="#232323"/>
<path d="M88.4895 113.132L84.3032 110.273C84.1464 110.168 84.1079 109.957 84.2133 109.801C84.3186 109.644 84.5292 109.605 84.6861 109.711L88.8724 112.569C89.0292 112.674 89.0677 112.885 88.9624 113.042C88.8571 113.198 88.6464 113.237 88.4895 113.132Z" fill="#232323"/>
<path d="M84.6496 118.755L80.4633 115.896C80.3064 115.791 80.268 115.581 80.3733 115.424C80.4786 115.267 80.6893 115.228 80.8461 115.334L85.0324 118.192C85.1893 118.297 85.2278 118.508 85.1225 118.665C85.0171 118.821 84.8064 118.86 84.6496 118.755Z" fill="#232323"/>
<path d="M81.1558 123.873L76.9695 121.015C76.8127 120.909 76.7742 120.699 76.8796 120.542C76.9849 120.385 77.1955 120.346 77.3524 120.452L81.5387 123.31C81.6955 123.415 81.734 123.626 81.6287 123.783C81.5234 123.94 81.3127 123.978 81.1558 123.873Z" fill="#232323"/>
<path d="M74.2281 134.017L70.0418 131.159C69.8849 131.054 69.8465 130.843 69.9518 130.686C70.0571 130.53 70.2678 130.491 70.4246 130.596L74.6109 133.455C74.7678 133.56 74.8063 133.771 74.701 133.927C74.5957 134.084 74.3849 134.123 74.2281 134.017Z" fill="#232323"/>
<path d="M120.738 57.9864C120.718 57.973 120.697 57.9551 120.68 57.9357C120.554 57.7964 120.563 57.5819 120.699 57.4549L133.407 45.7877C135.421 43.9371 138.407 43.7245 140.664 45.2663L142.76 46.6968C142.917 46.8022 142.956 47.0129 142.851 47.1697C142.745 47.3265 142.534 47.365 142.378 47.2597L140.281 45.8292C138.285 44.4654 135.646 44.6555 133.867 46.2908L121.159 57.9581C121.039 58.0665 120.865 58.077 120.737 57.9894L120.738 57.9864Z" fill="#232323"/>
<path d="M80.7948 153.719C82.5182 154.545 84.5849 153.817 85.4108 152.094C86.2368 150.37 85.5092 148.304 83.7857 147.478C82.0623 146.652 79.9957 147.379 79.1698 149.103C78.3438 150.826 79.0714 152.893 80.7948 153.719Z" fill="#6B6B6B"/>
<path d="M79.7099 154.379C77.626 152.954 77.0887 150.104 78.5103 148.018C79.9319 145.933 82.7857 145.397 84.8711 146.818C86.9565 148.24 87.4924 151.094 86.0708 153.179C84.6492 155.265 81.7953 155.801 79.7099 154.379ZM83.6143 148.662C82.5469 147.932 81.0844 148.208 80.3542 149.275C79.6241 150.342 79.8994 151.805 80.9668 152.535C82.0342 153.265 83.4967 152.99 84.2268 151.922C84.957 150.855 84.6816 149.393 83.6143 148.662Z" fill="#232323"/>
</svg>
