<svg width="194" height="194" viewBox="0 0 194 194" fill="none" xmlns="http://www.w3.org/2000/svg">
<path d="M126.935 33.7269C126.966 36.4927 124.751 38.7626 121.986 38.7933L121.611 38.7974L122.661 133.607L91.9462 133.948L90.8955 39.1378L90.5204 39.142C89.1375 39.1573 87.8771 38.6113 86.9601 37.7144C86.043 36.8174 85.4693 35.5695 85.454 34.1866C85.4433 33.2236 85.702 32.3248 86.1639 31.5582C87.0326 30.1151 88.6066 29.1457 90.4094 29.1257L121.875 28.777C123.258 28.7617 124.512 29.3077 125.429 30.2047C126.346 31.0961 126.92 32.344 126.935 33.7269Z" fill="#F4764E"/>
<path d="M126.935 33.7269C126.966 36.4927 124.751 38.7626 121.986 38.7933L121.61 38.7975L122.29 100.143C120.558 98.9196 119.317 98.1102 119.317 98.1102L119.126 96.5445L118.495 39.6159C118.45 35.5176 119.014 35.3825 121.264 35.3576C123.515 35.3327 124.116 32.4423 120.734 32.4797L86.5591 32.8585L86.1638 31.5582C87.0325 30.1151 88.6065 29.1457 90.4093 29.1258L121.875 28.777C123.257 28.7617 124.512 29.3078 125.429 30.2047C126.346 31.0961 126.92 32.344 126.935 33.7269Z" fill="white"/>
<path d="M122.676 135.445L91.961 135.785C90.9476 135.796 90.1155 134.982 90.1042 133.969L89.0721 40.8386C85.991 40.2008 83.6483 37.483 83.612 34.2077C83.5702 30.4341 86.6043 27.3263 90.3835 27.2845L121.849 26.9358C125.622 26.8939 128.73 29.928 128.772 33.7072C128.808 36.9825 126.532 39.7515 123.46 40.4575L124.492 133.588C124.503 134.601 123.689 135.433 122.676 135.445ZM93.7623 132.092L120.799 131.792L119.769 38.8185C119.757 37.8051 120.571 36.973 121.585 36.9618L121.96 36.9576C123.707 36.9383 125.113 35.5004 125.093 33.7536C125.074 32.0067 123.636 30.6004 121.89 30.6198L90.4243 30.9685C88.6775 30.9878 87.271 32.4257 87.2904 34.1725C87.3098 35.9193 88.7477 37.3257 90.4945 37.3063L90.8696 37.3022C91.883 37.2909 92.7151 38.1048 92.7264 39.1182L93.7567 132.092L93.7623 132.092Z" fill="#232323"/>
<path d="M101.555 123.411L75.3737 97.8036L76.2484 96.9092C76.9959 96.145 76.9823 94.9189 76.2181 94.1714C75.4538 93.424 74.2278 93.4375 73.4803 94.2018L66.7144 101.119C65.967 101.884 65.9805 103.11 66.7448 103.857C67.509 104.605 68.735 104.591 69.4825 103.827L70.3574 102.932L96.5388 128.54L101.55 123.417L101.555 123.411Z" fill="#F4764E"/>
<path d="M96.5544 129.933C96.1961 129.937 95.8363 129.807 95.5589 129.536L70.3794 104.908C69.7698 105.48 68.9782 105.797 68.1384 105.807C67.2482 105.816 66.4101 105.479 65.7705 104.853C65.1364 104.233 64.78 103.397 64.7702 102.507C64.7603 101.616 65.0981 100.773 65.7182 100.139L72.4841 93.2211C73.7686 91.9078 75.8849 91.8844 77.1983 93.1689C78.4776 94.4202 78.5337 96.4578 77.3501 97.7756L102.53 122.403C103.084 122.946 103.094 123.83 102.552 124.385L97.5408 129.508C97.2695 129.785 96.9127 129.924 96.5543 129.928L96.5544 129.933ZM70.3476 101.532C70.706 101.528 71.0658 101.658 71.3432 101.93L96.5226 126.557L99.5789 123.432L74.3995 98.805C73.8447 98.2624 73.8349 97.3778 74.3775 96.823L75.2522 95.9286C75.4571 95.7191 75.4533 95.3776 75.2438 95.1728C75.108 95.0399 74.9454 95.0193 74.867 95.0202C74.7886 95.021 74.6266 95.0452 74.4937 95.1811L67.7278 102.099C67.5949 102.234 67.5743 102.397 67.5752 102.475C67.576 102.554 67.6002 102.716 67.7361 102.849C67.872 102.982 68.0345 103.002 68.1129 103.001C68.1913 103.001 68.3534 102.976 68.4862 102.841L69.3611 101.946C69.6324 101.669 69.9892 101.53 70.3476 101.526L70.3476 101.532Z" fill="#232323"/>
<path d="M142.725 129.13C142.849 140.283 137.808 150.294 129.829 156.884C123.798 161.867 116.087 164.898 107.65 164.991C88.0595 165.208 71.9997 149.501 71.7827 129.916C71.6099 114.329 81.5186 100.976 95.4405 96.0625L118.902 96.0041C120.886 96.6932 122.788 97.5513 124.591 98.5616C135.291 104.569 142.579 115.973 142.725 129.13Z" fill="#F4764E"/>
<path d="M142.725 129.129C142.849 140.282 137.808 150.294 129.829 156.883C130.219 156.151 130.669 155.385 131.175 154.567C148.835 126.2 133.714 107.772 122.283 99.421C122.283 99.421 123.203 99.0692 124.591 98.5611C135.291 104.568 142.579 115.972 142.725 129.129Z" fill="white"/>
<path d="M79.7677 152.656L103.954 124.508L101.923 137.342L122.336 126.471L120 141.565L142.677 124.745C142.677 124.745 141.237 140.871 140.054 143.303C138.872 145.735 132.334 154.492 132.334 154.492L123.587 160.054L113.872 164.546L103.852 164.322L94.8585 162.265L84.3438 156.312L79.7677 152.65L79.7677 152.656Z" fill="#F2DE51"/>
<path d="M142.725 129.129C142.849 140.282 137.808 150.294 129.829 156.883C130.219 156.151 130.669 155.385 131.175 154.567C148.835 126.2 133.714 107.772 122.283 99.421C122.283 99.421 123.203 99.0692 124.591 98.5611C135.291 104.568 142.579 115.972 142.725 129.129Z" fill="white"/>
<path d="M107.664 166.828C87.0944 167.056 70.1686 150.506 69.9406 129.931C69.7635 113.952 79.7624 99.6463 94.8164 94.3279C95.7758 93.9925 96.8229 94.4905 97.1639 95.4498C97.4993 96.4092 97.0014 97.4562 96.042 97.7972C82.466 102.59 73.4538 115.49 73.6135 129.896C73.819 148.439 89.0749 163.36 107.618 163.155C126.161 162.949 141.083 147.693 140.877 129.15C140.721 115.008 131.644 102.386 118.288 97.7411C117.327 97.4102 116.823 96.363 117.154 95.4019C117.484 94.4407 118.532 93.9363 119.493 94.2672C134.304 99.417 144.376 113.416 144.55 129.104C144.778 149.674 128.229 166.6 107.659 166.828L107.664 166.828Z" fill="#232323"/>
<path d="M81.3366 152.27C81.1407 152.273 80.944 152.208 80.7857 152.069C80.4296 151.771 80.3845 151.239 80.6886 150.883L103.841 123.497C104.084 123.209 104.498 123.12 104.841 123.279C105.185 123.443 105.379 123.811 105.31 124.187L103.185 136.042L122.052 125.608C122.336 125.454 122.677 125.472 122.943 125.654C123.208 125.842 123.34 126.159 123.288 126.479L121.122 139.74L140.983 125.04C141.355 124.767 141.882 124.845 142.155 125.217C142.434 125.589 142.35 126.117 141.978 126.39L120.451 142.318C120.173 142.523 119.804 142.538 119.516 142.362C119.223 142.186 119.068 141.846 119.126 141.509L121.35 127.917L102.455 138.368C102.171 138.522 101.824 138.504 101.559 138.316C101.293 138.129 101.161 137.806 101.219 137.486L103.102 126.977L81.9717 151.972C81.8059 152.164 81.5774 152.268 81.3366 152.27Z" fill="#232323"/>
<path d="M159.324 60.0396C159.238 52.3637 152.949 46.2123 145.273 46.2974C137.597 46.3825 131.446 52.6717 131.531 60.3476C131.581 64.8323 133.753 68.795 137.078 71.3003C134.566 72.9744 132.918 75.8372 132.954 79.0845C133.01 84.1794 137.188 88.26 142.277 88.2036C147.367 88.1472 151.453 83.9695 151.396 78.8801C151.374 76.8478 150.687 74.9796 149.556 73.4691C155.27 71.6923 159.399 66.3382 159.329 60.0452L159.324 60.0396Z" fill="white"/>
<path d="M142.287 89.6033C136.431 89.6682 131.613 84.9564 131.548 79.1001C131.515 76.1047 132.732 73.2859 134.871 71.2688C131.884 68.435 130.177 64.5454 130.131 60.3687C130.038 51.9369 136.826 44.9967 145.258 44.9033C153.689 44.8099 160.63 51.5979 160.723 60.0297C160.791 66.1436 157.129 71.7277 151.641 74.1795C152.385 75.6271 152.777 77.2186 152.796 78.8702C152.861 84.7266 148.149 89.544 142.293 89.6089L142.287 89.6033ZM145.289 47.6971C138.396 47.7735 132.854 53.44 132.93 60.3321C132.974 64.2345 134.794 67.826 137.917 70.1823C138.278 70.4583 138.485 70.8872 138.473 71.3409C138.461 71.7946 138.225 72.2115 137.847 72.4677C135.623 73.9426 134.313 76.4153 134.342 79.0691C134.39 83.3802 137.939 86.8518 142.25 86.804C146.561 86.7562 150.033 83.2068 149.985 78.8958C149.967 77.2329 149.428 75.6487 148.422 74.3047C148.15 73.9382 148.071 73.4687 148.212 73.036C148.353 72.6032 148.697 72.2635 149.126 72.1299C154.361 70.5041 157.973 65.5421 157.912 60.0552C157.836 53.1631 152.169 47.6208 145.277 47.6972L145.289 47.6971Z" fill="#232323"/>
<path d="M55.3027 70.2792C56.217 68.3989 56.7254 66.2878 56.7007 64.0539C56.6156 56.378 50.3265 50.2266 42.6506 50.3117C34.9746 50.3968 28.8232 56.686 28.9083 64.3619C28.9934 72.0379 35.2826 78.1892 42.9586 78.1041C44.2967 78.0893 45.5878 77.8846 46.81 77.5127C47.5498 80.1027 49.945 81.9911 52.7724 81.9598C56.1596 81.9223 58.8782 79.1428 58.8406 75.7555C58.8137 73.3256 57.374 71.2474 55.3138 70.2735L55.3027 70.2792Z" fill="white"/>
<path d="M52.7769 83.365C49.8599 83.3973 47.2152 81.73 45.9495 79.1794C44.9663 79.3863 43.9709 79.4981 42.9687 79.5092C34.5369 79.6027 27.5967 72.8146 27.5032 64.3828C27.4098 55.951 34.1979 49.0108 42.6297 48.9174C51.0615 48.824 58.0016 55.612 58.095 64.0438C58.1167 66.0034 57.7739 67.9054 57.0771 69.705C59.0242 71.0832 60.2022 73.2988 60.2293 75.7455C60.2754 79.8998 56.9312 83.3189 52.7769 83.365ZM46.7891 76.1184C47.0243 76.1158 47.2657 76.1747 47.4741 76.29C47.8009 76.4711 48.045 76.7708 48.1498 77.1336C48.7324 79.1766 50.6239 80.5891 52.7459 80.5656C55.3549 80.5367 57.4589 78.3911 57.4299 75.7765C57.4097 73.9513 56.367 72.3278 54.7065 71.5455C54.3688 71.3868 54.108 71.0985 53.9808 70.7416C53.8593 70.3902 53.8775 69.998 54.0418 69.6658C54.8958 67.9093 55.3173 66.0288 55.2955 64.0692C55.2192 57.1771 49.5527 51.6348 42.6606 51.7112C35.7685 51.7876 30.2262 57.4541 30.3026 64.3462C30.3789 71.2383 36.0455 76.7806 42.9376 76.7042C44.1078 76.6913 45.2705 76.516 46.3978 76.1731C46.5261 76.1325 46.6547 76.1143 46.7834 76.1129L46.7891 76.1184Z" fill="#232323"/>
</svg>
