<svg width="194" height="194" viewBox="0 0 194 194" fill="none" xmlns="http://www.w3.org/2000/svg">
<path d="M25.558 49.5659C40.6582 76.2522 123.771 127.343 172.115 128.868L173.727 131.993C174.264 133.037 174.448 134.224 174.248 135.374L173.558 139.39C173.231 141.277 171.926 142.853 170.125 143.523L168.56 144.106C47.6713 116.98 20.678 60.4 20.678 60.4V59.2491C20.678 56.9319 21.4658 54.6863 22.9134 52.8755L25.558 49.571V49.5659Z" fill="#383838"/>
<path d="M168.56 145.784C168.438 145.784 168.315 145.769 168.192 145.743C105.433 131.661 68.3165 109.496 48.2339 93.3884C26.3253 75.8123 19.4452 61.7147 19.1638 61.1213C19.0564 60.8962 19 60.6507 19 60.4V59.2491C19 56.5636 19.926 53.9292 21.6038 51.8269L24.2484 48.5224C24.5962 48.0876 25.1384 47.8472 25.6908 47.8983C26.2484 47.9444 26.7445 48.2615 27.0156 48.7424C34.2486 61.5305 57.8711 80.5491 87.1969 97.1993C119.571 115.578 150.544 126.515 172.166 127.195C172.775 127.216 173.328 127.563 173.604 128.106L175.215 131.231C175.916 132.587 176.156 134.162 175.9 135.671L175.21 139.687C174.786 142.157 173.062 144.234 170.709 145.109L169.143 145.692C168.954 145.764 168.76 145.799 168.56 145.799V145.784ZM22.3556 59.9908C23.5117 62.1699 30.934 75.2548 50.5613 90.9484C70.3062 106.734 106.778 128.448 168.443 142.357L169.542 141.948C170.775 141.487 171.68 140.398 171.905 139.103L172.596 135.093C172.734 134.305 172.606 133.477 172.238 132.766L171.077 130.51C148.984 129.518 117.894 118.479 85.5446 100.115C57.2572 84.053 34.0951 65.6637 25.3838 52.4816L24.2279 53.9241C23.0258 55.428 22.3609 57.3207 22.3609 59.2491V59.9959L22.3556 59.9908Z" fill="#232323"/>
<path d="M77.6769 98.2281C77.6309 98.2281 77.59 98.2179 77.5491 98.1923C77.2677 98.0286 29.4759 68.7744 23.1432 52.8659C23.092 52.7329 23.1535 52.5846 23.2865 52.5335C23.4144 52.4823 23.5678 52.5437 23.619 52.6767C29.8852 68.4215 77.5235 97.5836 77.8048 97.7524C77.9276 97.824 77.9686 97.9826 77.897 98.1002C77.8509 98.1821 77.7639 98.2281 77.6769 98.2281Z" fill="#232323"/>
<path d="M173.414 133.318C173.414 133.318 173.399 133.318 173.389 133.318C173.072 133.288 141.367 130.147 119.09 120.029C118.962 119.972 118.906 119.819 118.962 119.691C119.024 119.563 119.172 119.507 119.3 119.563C141.495 129.645 173.118 132.776 173.435 132.807C173.573 132.822 173.68 132.945 173.665 133.088C173.65 133.221 173.542 133.318 173.409 133.318H173.414Z" fill="#232323"/>
<path d="M144.185 121.303L133.74 144.634C133.05 144.593 132.364 144.547 131.684 144.496C90.6389 141.283 70.6433 113.983 70.6433 113.983L81.6821 92.6475L82.874 90.3405L89.9792 91.9262C91.6212 92.2945 93.2221 92.8368 94.7465 93.5478L132.799 111.277C135.761 112.658 138.395 114.643 140.538 117.109L144.185 121.303Z" fill="#565656"/>
<path d="M144.185 121.303L133.74 144.634C133.049 144.593 132.364 144.547 131.684 144.496L130.911 144.102L140.625 121.702C140.625 121.702 134.83 116.214 128.195 112.658C121.561 109.103 103.187 101.722 98.6085 98.75C94.0354 95.778 88.4647 94.1002 81.6819 92.6526L82.8738 90.3405L89.979 91.9262C91.621 92.2945 93.2219 92.8368 94.7463 93.5478L132.799 111.277C135.761 112.658 138.395 114.643 140.538 117.109L144.185 121.303Z" fill="white"/>
<path d="M133.74 146.316C133.709 146.316 133.673 146.316 133.643 146.316C111.33 145.032 95.0429 136.613 85.3137 129.774C74.7404 122.341 69.5075 115.277 69.2875 114.98C68.909 114.464 68.8578 113.783 69.1494 113.215L81.3851 89.5778C81.738 88.9025 82.5004 88.5445 83.2421 88.7082L90.347 90.2939C92.1067 90.6878 93.8255 91.2709 95.4573 92.0331L133.51 109.768C136.702 111.256 139.495 113.359 141.802 116.013L145.449 120.208C145.878 120.699 145.981 121.4 145.715 121.993L135.274 145.329C135.003 145.938 134.4 146.321 133.745 146.321L133.74 146.316ZM72.6279 113.793C74.2904 115.819 79.2163 121.4 87.3598 127.103C96.5468 133.538 111.816 141.436 132.686 142.889L142.216 121.599L139.269 118.213C137.269 115.911 134.855 114.095 132.093 112.806L94.0403 95.0716C92.6285 94.4117 91.14 93.9053 89.6157 93.5677L83.7741 92.2633L72.6329 113.793H72.6279Z" fill="#232323"/>
<path d="M80.6283 95.5636C82.3163 98.0445 83.9481 100.556 85.6054 103.052C87.1247 105.457 89.2526 107.365 91.7335 108.623C101.11 112.608 115.468 118.736 124.65 122.874C127.157 124.097 129.96 125.094 132.789 125.017C135.684 124.941 138.702 124.296 141.582 124.025C142.017 123.974 142.416 124.286 142.467 124.721C142.518 125.135 142.237 125.514 141.833 125.595C140.365 125.892 138.891 126.178 137.418 126.45L135.208 126.864C132.073 127.468 128.758 127.156 125.781 125.989C117.55 122.603 107.054 118.076 98.8949 114.495C97.5905 113.917 94.0048 112.337 92.7311 111.764C89.0378 110.301 85.7538 107.605 83.8253 104.162C82.3112 101.574 80.7717 99.0062 79.2883 96.3974C78.8228 95.5381 80.035 94.7247 80.6335 95.5585L80.6283 95.5636Z" fill="#232323"/>
<path d="M110.834 114.28C111.729 114.28 112.455 113.554 112.455 112.658C112.455 111.762 111.729 111.036 110.834 111.036C109.938 111.036 109.212 111.762 109.212 112.658C109.212 113.554 109.938 114.28 110.834 114.28Z" fill="#232323"/>
</svg>
