<svg width="194" height="194" viewBox="0 0 194 194" fill="none" xmlns="http://www.w3.org/2000/svg">
<path d="M45.293 123.323C36.9556 110.81 22.3597 107.991 22.3597 107.991C22.3597 107.991 25.5794 130.541 43.1648 126.318L45.2985 123.323H45.293Z" fill="#8E75DD"/>
<path d="M38.9411 128.648C35.7926 128.648 32.9239 127.781 30.3843 126.054C22.4308 120.65 20.6481 108.747 20.5768 108.242C20.4946 107.667 20.6975 107.085 21.1199 106.685C21.5422 106.284 22.1346 106.109 22.7051 106.218C23.3304 106.339 38.1402 109.329 46.7958 122.318C47.2072 122.938 47.1962 123.75 46.7629 124.359L44.6291 127.354C44.3768 127.71 44.0038 127.957 43.5815 128.061C41.9743 128.445 40.4275 128.637 38.9411 128.637V128.648ZM24.751 110.513C25.6945 114.035 27.8885 120.009 32.4138 123.08C35.1234 124.918 38.3761 125.467 42.095 124.71L43.0933 123.311C37.3998 115.483 29.0294 111.912 24.751 110.519V110.513Z" fill="#232323"/>
<path d="M45.7662 121.222C31.2964 123.927 18.8013 137.668 18.8013 137.668C18.8013 137.668 36.2988 145.001 46.2324 124.837L45.7662 121.217V121.222Z" fill="#8E75DD"/>
<path d="M26.236 140.72C21.5626 140.72 18.1893 139.359 18.107 139.326C17.5695 139.102 17.1745 138.624 17.0429 138.054C16.9167 137.483 17.0758 136.885 17.4707 136.452C17.9973 135.871 30.5418 122.228 45.4339 119.447C45.9221 119.354 46.4212 119.469 46.8217 119.76C47.2221 120.051 47.4854 120.495 47.5457 120.983L48.0119 124.604C48.0558 124.955 47.9955 125.311 47.8419 125.629C41.704 138.087 32.7139 140.72 26.2305 140.72H26.236ZM22.2209 136.787C27.1191 137.785 37.5024 137.983 44.3808 124.521L44.2382 123.402C34.6172 125.876 26.033 133.166 22.2263 136.787H22.2209Z" fill="#232323"/>
<path d="M37.6068 124.014L32.341 118.441C32.1161 118.21 32.4398 117.832 32.6976 118.024L39.0055 122.385C40.2616 123.328 38.7367 125.117 37.6068 124.014Z" fill="#232323"/>
<path d="M41.0053 135.218C76.0992 95.1805 148.305 109.152 171.321 132.58C171.321 132.58 173.894 119.87 160.488 102.207C147.077 84.5443 115.192 65.8995 104.726 57.2326C94.2604 48.5657 92.017 70.8419 82.0396 80.551C72.0621 90.2601 50.2697 101.061 46.1833 107.929C42.0968 114.796 41.9323 121.011 41.9323 121.011C36.864 125.262 41.0163 135.213 41.0163 135.213L41.0053 135.218Z" fill="#8E75DD"/>
<mask id="mask0_66_4282" style="mask-type:alpha" maskUnits="userSpaceOnUse" x="39" y="55" width="133" height="81">
<path d="M41.0053 135.218C76.0992 95.1805 148.305 109.152 171.321 132.58C171.321 132.58 173.894 119.87 160.488 102.207C147.077 84.5443 115.192 65.8995 104.726 57.2326C94.2605 48.5656 92.0171 70.8418 82.0396 80.5509C72.0622 90.2601 50.2697 101.061 46.1833 107.928C42.0969 114.796 41.9323 121.011 41.9323 121.011C36.8641 125.262 41.0163 135.213 41.0163 135.213L41.0053 135.218Z" fill="#8E75DD"/>
</mask>
<g mask="url(#mask0_66_4282)">
<path d="M60.5492 108.849C61.4605 113.633 56.904 113.633 50.5248 102.697L56.2205 100.191C57.3596 101.482 59.8201 105.021 60.5492 108.849Z" fill="#7F66D2"/>
<path d="M76.9527 98.5964C72.8518 98.5964 74.2188 105.431 78.5475 115.456L85.3823 114.089C83.9394 108.925 80.2334 98.5964 76.9527 98.5964Z" fill="#7F66D2"/>
<path d="M91.7615 98.1408C86.5214 100.875 83.5597 93.8121 81.0536 83.1042L84.471 76.4972C88.6478 82.8004 95.9535 95.9536 91.7615 98.1408Z" fill="#7F66D2"/>
<path d="M108.848 89.0277C103.381 88.3442 104.52 76.4972 106.798 63.5111L117.05 71.0294C116.139 77.2567 113.223 89.5745 108.848 89.0277Z" fill="#7F66D2"/>
<path d="M116.139 100.191C111.81 98.5964 109.76 101.33 108.848 111.81L117.962 114.772C118.797 110.443 119.602 101.467 116.139 100.191Z" fill="#7F66D2"/>
<path d="M133.909 102.697C129.353 101.786 130.948 98.5964 135.049 84.4712L142.339 89.7112C141.048 94.3437 137.555 103.426 133.909 102.697Z" fill="#7F66D2"/>
<path d="M149.174 116.139C148.718 111.355 143.706 109.76 139.605 118.19L148.035 121.607C148.566 121.379 149.538 119.967 149.174 116.139Z" fill="#7F66D2"/>
<path d="M50.0692 121.151C52.5753 119.329 53.4866 119.784 55.537 122.974L48.7022 126.619C48.3225 125.404 48.0643 122.609 50.0692 121.151Z" fill="#7F66D2"/>
<path d="M160.304 110.445C147.91 92.0364 113.675 67.993 98.1071 58.2724C94.4619 57.2092 87.0347 54.855 86.4879 53.9437C85.9411 53.0324 79.4253 39.2869 76.2357 32.528L88.994 21.8202C103.651 23.1112 133.329 25.7843 134.787 26.1489C136.61 26.6045 178.53 68.069 184.681 73.5368C190.833 79.0047 184.909 134.822 184.681 135.961C184.453 137.1 170.556 143.707 172.151 133C173.746 122.292 160.532 110.9 160.304 110.445Z" fill="white"/>
</g>
<path d="M41.0057 137.019C40.907 137.019 40.8137 137.013 40.715 136.997C40.1007 136.898 39.5851 136.487 39.3437 135.916C39.1627 135.477 35.0544 125.423 40.1775 120.189C40.3585 118.22 41.1593 112.85 44.6314 107.019C47.0339 102.982 54.192 98.2479 62.4855 92.7735C69.2651 88.292 76.2806 83.6568 80.7839 79.274C84.2779 75.8731 86.8779 70.5961 89.1761 65.9445C92.1984 59.8173 94.8039 54.5294 99.0823 53.6188C101.232 53.1581 103.52 53.9151 105.878 55.8624C108.868 58.3418 113.744 61.7153 119.383 65.6209C133.255 75.2313 152.255 88.3907 161.931 101.133C175.677 119.235 173.208 132.4 173.099 132.948C172.967 133.601 172.484 134.128 171.848 134.314C171.206 134.506 170.521 134.325 170.054 133.848C156.737 120.294 127.66 111.001 100.909 111.764C83.6362 112.252 59.4577 116.931 42.3825 136.41C42.0369 136.805 41.5433 137.024 41.0277 137.024L41.0057 137.019ZM100.322 57.0746C100.152 57.0746 99.9873 57.0911 99.8228 57.124C97.2557 57.6725 94.8917 62.4558 92.3959 67.5243C89.9715 72.4392 87.2234 78.0124 83.2851 81.8412C78.535 86.4598 71.3824 91.1937 64.4601 95.7631C57.2033 100.557 49.6997 105.522 47.714 108.851C43.9074 115.242 43.7154 121.001 43.7154 121.062C43.7044 121.577 43.4686 122.06 43.0736 122.395C40.6602 124.419 41.0112 128.637 41.7627 131.72C59.5235 113.201 83.4826 108.648 100.777 108.16C114.797 107.76 129.251 109.882 142.568 114.293C153.55 117.93 163.001 122.938 169.659 128.599C169.407 123.793 167.614 114.594 159.04 103.3C149.716 91.0127 130.984 78.0453 117.309 68.572C111.599 64.617 106.668 61.1996 103.558 58.627C102.308 57.5903 101.238 57.0801 100.311 57.0801L100.322 57.0746Z" fill="#232323"/>
<path d="M171.521 131.256C181.949 125.683 171.938 119.402 165.438 114.74C158.939 110.077 149.493 104.438 149.493 104.438" fill="#8E75DD"/>
<mask id="mask1_66_4282" style="mask-type:alpha" maskUnits="userSpaceOnUse" x="149" y="104" width="28" height="28">
<path d="M171.521 131.256C181.948 125.683 171.938 119.402 165.438 114.74C158.938 110.077 149.493 104.438 149.493 104.438" fill="#8E75DD"/>
</mask>
<g mask="url(#mask1_66_4282)">
<path d="M162.126 110.445C149.732 92.0363 113.674 67.993 98.1062 58.2724C94.461 57.2092 87.0339 54.855 86.4871 53.9437C85.9403 53.0324 79.4244 39.2868 76.2349 32.528L88.9932 21.8201C103.65 23.1111 133.328 25.7843 134.786 26.1488C136.609 26.6045 178.529 68.0689 184.68 73.5368C190.832 79.0046 184.908 134.822 184.68 135.961C184.453 137.1 163.778 140.782 169.188 131.405C176.023 119.558 150.279 110.445 162.126 110.445Z" fill="white"/>
</g>
<path d="M170.672 129.668C172.811 128.368 175.29 126.607 173.343 124.018C171.05 120.831 167.101 118.395 163.931 115.949C159.093 112.361 153.734 108.933 149.225 104.879C149.006 104.687 148.984 104.347 149.181 104.128C149.329 103.963 149.56 103.914 149.763 103.985C153.131 105.23 156.268 106.871 159.34 108.637C162.346 110.403 165.384 112.422 168.27 114.402C171.297 116.525 174.534 118.659 176.684 121.829C178.993 125.181 178.176 128.977 174.912 131.308C173.327 132.389 171.166 134.133 169.953 132.043C169.52 131.182 169.844 130.134 170.672 129.668Z" fill="#232323"/>
<path d="M40.8779 119.55C45.0904 117.362 49.1714 114.97 53.2743 112.6C53.4882 112.469 53.724 112.787 53.5211 112.946C51.7329 114.493 49.9722 116.078 48.206 117.652C46.4343 119.221 44.6791 120.812 42.9732 122.474C40.8943 124.295 38.4754 120.944 40.8724 119.55H40.8779Z" fill="#232323"/>
</svg>
