<svg width="194" height="194" viewBox="0 0 194 194" fill="none" xmlns="http://www.w3.org/2000/svg">
<path d="M104.717 64.5204C106.005 59.0759 124.609 61.4917 124.115 71.8604C123.62 82.2291 106.119 70.2482 106.119 70.2482L104.717 64.5204Z" fill="white"/>
<path d="M119.974 77.764C114.442 77.764 106.865 72.8037 105.166 71.6447C104.82 71.4078 104.578 71.0575 104.481 70.6506L103.079 64.9228C103.018 64.6653 103.018 64.3923 103.079 64.1296C103.816 61.0133 107.931 59.4268 113.324 60.1892C119.567 61.0648 126.139 65.1186 125.814 71.9383C125.665 75.1164 124.136 76.5278 122.879 77.1562C122.024 77.5837 121.04 77.764 119.979 77.764H119.974ZM107.607 69.2084C112.006 72.1083 118.851 75.3843 121.364 74.1275C121.606 74.009 122.338 73.6433 122.431 71.7787C122.652 67.0759 117.62 64.2069 112.845 63.5372C109.595 63.0788 107.092 63.7072 106.484 64.6344L107.602 69.2084H107.607Z" fill="#232323"/>
<path d="M28.6567 115.968C17.9073 110.74 23.8355 95.3642 29.4034 87.88C35.9602 79.175 45.695 73.0557 55.4401 68.595C65.7568 63.8923 77.5362 61.7392 88.7646 62.8209C111.505 64.9225 133.91 73.7408 152.736 86.2574C159.365 90.7645 165.7 96.6622 169.378 103.487C173.57 111.167 174.322 121.938 164.248 124.05C160.302 124.966 156.609 124.868 152.293 124.513C139.746 123.251 128.239 113.202 115.44 110.93C99.6789 107.788 83.336 113.083 67.4359 114.52C54.41 115.504 40.5135 120.846 28.7186 116.004L28.6567 115.973V115.968Z" fill="#449DD7"/>
<mask id="mask0_66_3385" style="mask-type:alpha" maskUnits="userSpaceOnUse" x="22" y="62" width="151" height="63">
<path d="M28.6567 115.968C17.9073 110.74 23.8355 95.3642 29.4034 87.8799C35.9601 79.1749 45.695 73.0557 55.44 68.595C65.7568 63.8922 77.5362 61.7392 88.7646 62.8208C111.505 64.9224 133.91 73.7407 152.736 86.2574C159.365 90.7644 165.7 96.6622 169.378 103.487C173.57 111.167 174.322 121.938 164.248 124.049C160.302 124.966 156.609 124.868 152.293 124.513C139.746 123.251 128.239 113.202 115.44 110.93C99.6788 107.788 83.336 113.083 67.4359 114.52C54.4099 115.504 40.5135 120.846 28.7185 116.004L28.6567 115.973V115.968Z" fill="#449DD7"/>
</mask>
<g mask="url(#mask0_66_3385)">
<path d="M172.028 117.587C172.028 90.25 100.771 61.7922 71.1931 69.4108L64.0227 63.3607V59.3273C64.5455 57.1612 65.5463 52.6946 65.3671 52.1568C65.1878 51.619 75.4506 37.1436 80.6043 29.9731C123.403 43.4925 209.628 71.7412 212.138 76.5813C215.275 82.6314 224.686 118.036 172.028 117.587Z" fill="white"/>
</g>
<path d="M157.568 126.455C155.868 126.455 154.096 126.352 152.159 126.192C145.242 125.497 138.67 122.277 132.314 119.166C126.751 116.441 120.993 113.624 115.147 112.588C104.562 110.477 93.4421 112.31 82.6824 114.082C77.7275 114.896 72.6076 115.741 67.5909 116.199C63.7433 116.493 59.7362 117.183 55.8578 117.853C46.4836 119.47 36.79 121.139 28.0803 117.564C28.0494 117.554 28.0235 117.538 27.9978 117.528L27.9361 117.497C27.9361 117.497 27.9258 117.497 27.9258 117.492C24.4904 115.818 22.2961 113.134 21.4153 109.513C19.6847 102.415 23.6455 92.8039 28.0596 86.8752C33.9314 79.0819 42.6567 72.6021 54.7505 67.0649C65.5102 62.1561 77.6502 60.0545 88.9404 61.1414C110.712 63.1502 133.71 71.5719 153.689 84.8509C159.159 88.5698 166.566 94.6736 170.882 102.683C173.437 107.36 175.301 114.257 172.86 119.563C171.387 122.756 168.539 124.878 164.614 125.703C162.25 126.249 159.994 126.46 157.583 126.46L157.568 126.455ZM104.871 108.257C108.518 108.257 112.16 108.545 115.775 109.266C122.054 110.379 128.024 113.304 133.803 116.132C140.169 119.249 146.18 122.195 152.468 122.823C156.805 123.184 160.241 123.24 163.872 122.396C166.782 121.783 168.755 120.356 169.78 118.141C171.361 114.711 170.625 109.271 167.905 104.29C163.908 96.8731 156.939 91.1453 151.799 87.6478C132.293 74.683 109.852 66.4571 88.621 64.4997C77.9025 63.4644 66.3805 65.4681 56.1513 70.1297C44.5881 75.4248 36.2801 81.5646 30.7637 88.8943C26.6896 94.3697 23.2902 102.936 24.6964 108.705C25.3402 111.337 26.8752 113.217 29.3938 114.443H29.4092C37.2072 117.631 45.9891 116.117 55.2912 114.515C59.2469 113.835 63.3365 113.129 67.318 112.825C72.1905 112.382 77.2483 111.548 82.1415 110.744C89.615 109.513 97.2638 108.251 104.876 108.251L104.871 108.257Z" fill="#232323"/>
<path d="M35.9187 132.533C36.5934 111.384 123.336 103.394 153.096 130.195C153.096 130.195 160.745 129.489 157.752 122.855C154.76 116.22 128.311 98.4857 92.8178 98.7123C57.3247 98.939 40.0494 110.688 32.9106 118.291C25.7718 125.894 35.9237 132.528 35.9237 132.528L35.9187 132.533Z" fill="#3D3939"/>
<path d="M35.1412 131.034C34.9558 130.972 34.7446 130.988 34.5952 131.055C34.4459 131.117 34.3584 131.245 34.3533 131.271C34.5027 130.483 34.7242 129.715 35.0281 128.969C36.7072 125.193 40.1065 122.679 43.5626 120.722C68.6308 107.917 114.745 108.921 140.333 120.228C145.298 122.437 150.099 125.224 154.24 128.938L152.952 128.51C154.095 128.361 155.589 127.835 156.285 126.975C158.402 123.684 152.246 119.079 149.924 117.261C133.56 105.486 113.107 99.6188 93.0088 99.6034C73.2149 99.897 51.9271 103.987 36.6142 117.209C34.6106 119.063 31.9789 121.34 32.1746 124.225C32.3497 126.872 34.5542 129.365 36.6608 130.977L36.7689 131.06L36.8205 131.096L36.8461 131.111C36.8873 130.993 35.5636 130.617 35.1515 131.034H35.1412ZM36.702 134.032C36.2694 134.434 34.9248 134.047 34.9403 133.913L34.8993 133.888L34.8168 133.831L34.6624 133.728C33.9928 133.254 33.3386 132.739 32.7462 132.172C26.9981 126.774 27.2197 120.609 33.2356 115.437C37.7631 111.244 43.0784 107.974 48.7029 105.522C56.2589 102.235 64.3815 100.324 72.4628 99.2068C96.264 96.0029 121.276 98.1457 142.919 109.225C145.999 110.812 149.012 112.563 151.87 114.608C154.415 116.457 156.985 118.507 158.783 121.17C161.106 124.832 160.642 129.355 156.243 131.117C155.522 131.42 154.811 131.626 154.059 131.771C153.39 131.925 152.499 132.002 151.968 131.462C130.681 113.212 88.0127 112.29 61.6105 117.946C54.0854 119.743 42.7436 122.803 38.4892 129.576L38.1288 130.308L37.8609 131.06L37.6856 131.822C37.629 132.543 37.1759 133.512 36.702 134.042V134.032Z" fill="#232323"/>
<path d="M57.2485 92.9492C65.6458 92.9492 72.4532 86.1415 72.4532 77.7438C72.4532 69.346 65.6458 62.5383 57.2485 62.5383C48.8512 62.5383 42.0438 69.346 42.0438 77.7438C42.0438 86.1415 48.8512 92.9492 57.2485 92.9492Z" fill="#F2BA3D"/>
<path d="M74.1427 77.744C74.0552 86.8405 66.2363 94.1805 57.2485 94.2217C48.2245 94.3608 40.3749 86.8508 40.3698 77.744C40.2616 71.0582 44.5572 64.6092 50.7792 62.1368C61.8325 57.5422 74.1684 65.7682 74.1375 77.744H74.1427ZM70.7586 77.744C70.429 62.9404 50.7586 59.0205 44.7684 72.5777C40.1689 83.8427 51.1709 95.2931 62.5744 90.6161C67.622 88.5454 70.9492 83.1061 70.7586 77.744Z" fill="#232323"/>
<path d="M60.678 85.5148C60.1217 85.5148 59.5655 85.3706 59.0556 85.0821L57.2476 84.0623L55.4398 85.0821C54.3015 85.726 52.9418 85.6487 51.8859 84.8813C50.8301 84.1138 50.3355 82.8415 50.593 81.5641L51.0052 79.5295L49.4753 78.1233C48.5122 77.2425 48.1672 75.9187 48.569 74.6773C48.9707 73.436 50.0264 72.5706 51.3243 72.4213L53.3899 72.1843L54.25 70.2939C54.7908 69.1041 55.9393 68.3675 57.2476 68.3675C58.5559 68.3675 59.6995 69.1041 60.2454 70.2939L61.1056 72.1843L63.1658 72.4213C64.4638 72.5706 65.5197 73.4308 65.9215 74.6773C66.3232 75.9239 65.978 77.2373 65.0148 78.1233L63.4852 79.5295L63.8972 81.5641C64.1547 82.8415 63.6604 84.1138 62.6045 84.8813C62.0225 85.3036 61.3529 85.5148 60.673 85.5148H60.678ZM57.2476 82.9548C57.3352 82.9548 57.4228 82.9754 57.5001 83.0218L59.5604 84.1859C60.3381 84.6289 61.2754 84.5722 62.0016 84.0468C62.7279 83.5214 63.0679 82.6458 62.8877 81.765L62.4189 79.4471C62.3828 79.2719 62.4448 79.0865 62.5735 78.9629L64.3194 77.361C64.9787 76.7532 65.2208 75.8466 64.9426 74.9967C64.6645 74.1417 63.9384 73.5493 63.0474 73.4463L60.6934 73.1784C60.5131 73.1578 60.3587 73.0445 60.2814 72.8797L59.2975 70.7266C58.9267 69.9128 58.1386 69.4028 57.2373 69.4028C56.3359 69.4028 55.553 69.9076 55.177 70.7266L54.1934 72.8797C54.1162 73.0445 53.9615 73.1578 53.7812 73.1784L51.4275 73.4463C50.5364 73.5493 49.8101 74.1417 49.5319 74.9967C49.2538 75.8517 49.4907 76.7583 50.1551 77.361L51.9013 78.9629C52.0352 79.0865 52.092 79.2668 52.056 79.4471L51.5872 81.765C51.4069 82.6458 51.7467 83.5163 52.4729 84.0468C53.1992 84.5722 54.1367 84.6289 54.9145 84.1859L56.9747 83.0218C57.052 82.9754 57.1394 82.9548 57.227 82.9548H57.2476Z" fill="#232323"/>
<path d="M53.6703 72.6634L50.7573 72.8875L49.4386 74.6459L48.9647 75.3524L48.7406 76.4728L50.3092 77.8172L51.6537 79.6098L51.2055 80.9543V83.1951L52.1018 84.0914L54.3426 84.9877L57.2556 83.4192L58.6001 84.0914L60.3927 84.9877L62.6334 84.3155L63.3057 82.0747L62.8575 79.3858L65.0983 77.3691L65.5465 75.5765L64.8742 74.0079L63.3057 72.8875L60.6168 72.6634L59.7204 69.9745L57.0315 68.6301L55.0148 69.9745L53.6703 72.6634Z" fill="#F4D93B"/>
<path d="M60.678 85.5148C60.1217 85.5148 59.5655 85.3706 59.0556 85.0821L57.2476 84.0623L55.4398 85.0821C54.3015 85.726 52.9418 85.6487 51.8859 84.8813C50.8301 84.1138 50.3355 82.8415 50.593 81.5641L51.0052 79.5295L49.4753 78.1233C48.5122 77.2425 48.1672 75.9187 48.569 74.6773C48.9707 73.436 50.0264 72.5706 51.3243 72.4213L53.3899 72.1843L54.25 70.2939C54.7908 69.1041 55.9393 68.3675 57.2476 68.3675C58.5559 68.3675 59.6995 69.1041 60.2454 70.2939L61.1056 72.1843L63.1658 72.4213C64.4638 72.5706 65.5197 73.4308 65.9215 74.6773C66.3232 75.9239 65.978 77.2373 65.0148 78.1233L63.4852 79.5295L63.8972 81.5641C64.1547 82.8415 63.6604 84.1138 62.6045 84.8813C62.0225 85.3036 61.3529 85.5148 60.673 85.5148H60.678ZM57.2476 82.9548C57.3352 82.9548 57.4228 82.9754 57.5001 83.0218L59.5604 84.1859C60.3381 84.6289 61.2754 84.5722 62.0016 84.0468C62.7279 83.5214 63.0679 82.6458 62.8877 81.765L62.4189 79.4471C62.3828 79.2719 62.4448 79.0865 62.5735 78.9629L64.3194 77.361C64.9787 76.7532 65.2208 75.8466 64.9426 74.9967C64.6645 74.1417 63.9384 73.5493 63.0474 73.4463L60.6934 73.1784C60.5131 73.1578 60.3587 73.0445 60.2814 72.8797L59.2975 70.7266C58.9267 69.9128 58.1386 69.4028 57.2373 69.4028C56.3359 69.4028 55.553 69.9076 55.177 70.7266L54.1934 72.8797C54.1162 73.0445 53.9615 73.1578 53.7812 73.1784L51.4275 73.4463C50.5364 73.5493 49.8101 74.1417 49.5319 74.9967C49.2538 75.8517 49.4907 76.7583 50.1551 77.361L51.9013 78.9629C52.0352 79.0865 52.092 79.2668 52.056 79.4471L51.5872 81.765C51.4069 82.6458 51.7467 83.5163 52.4729 84.0468C53.1992 84.5722 54.1367 84.6289 54.9145 84.1859L56.9747 83.0218C57.052 82.9754 57.1394 82.9548 57.227 82.9548H57.2476Z" fill="#232323"/>
<path d="M165.789 124.143C165.655 124.143 165.516 124.091 165.418 123.983C149.801 107.603 133.469 98.1618 114.004 94.2677C97.3368 90.9351 74.5196 94.1596 58.7225 98.2906C49.9355 100.588 43.7494 104.997 38.3 108.886C34.54 111.57 31.2901 113.882 27.8855 114.985C27.6126 115.072 27.324 114.923 27.2364 114.655C27.1489 114.382 27.2983 114.094 27.5661 114.006C30.8162 112.95 34.0044 110.678 37.6974 108.046C43.2241 104.106 49.4873 99.6401 58.4597 97.2965C74.3649 93.1345 97.3626 89.8895 114.205 93.2582C133.886 97.1934 150.394 106.733 166.16 123.272C166.356 123.478 166.351 123.803 166.145 123.999C166.047 124.091 165.918 124.143 165.789 124.143Z" fill="#232323"/>
</svg>
