<svg width="194" height="194" viewBox="0 0 194 194" fill="none" xmlns="http://www.w3.org/2000/svg">
<g clip-path="url(#clip0_66_4116)">
<path d="M168.374 152.114L163.88 152.412L142.056 153.862C142.056 153.862 141.871 127.613 132.043 105.55L105.638 106.014L108.305 122.978L96.4207 128.463L83.4036 122.978L84.6541 106.136L60.9059 108.271C53.1884 121.786 53.4766 154.317 53.4766 154.317L26.6121 152.509C26.6121 152.509 24.4874 59.2261 99.0534 62.2301C104.099 62.4352 108.773 63.0458 113.111 64.008C171.021 76.8395 168.374 152.114 168.374 152.114Z" fill="#DDA458"/>
<path d="M168.374 152.113L163.88 152.411C161.091 109.931 153.549 84.2635 111.128 67.1435L113.111 64.0077C171.021 76.8391 168.374 152.113 168.374 152.113Z" fill="#F9C68A"/>
<path d="M53.4767 155.919C53.4425 155.919 53.4035 155.919 53.3693 155.919L26.4999 154.111C25.6744 154.058 25.0248 153.379 25.0053 152.548C24.9955 152.055 24.7659 140.298 27.8138 125.137C30.6419 111.084 36.9477 91.439 50.9612 77.6746C63.27 65.5758 79.4766 59.8415 99.1121 60.6377C115.993 61.3166 130.246 66.5869 141.465 76.3021C150.423 84.0537 157.452 94.6237 162.356 107.714C170.655 129.865 170.01 151.283 169.976 152.182C169.946 153.003 169.302 153.672 168.481 153.726L142.159 155.474C141.714 155.508 141.284 155.352 140.962 155.049C140.64 154.746 140.454 154.326 140.449 153.887C140.449 153.633 140.156 128.473 131.003 107.186L107.509 107.597L109.892 122.743C110.004 123.452 109.633 124.15 108.979 124.448L97.0949 129.928C96.6846 130.119 96.2157 130.124 95.8005 129.948L82.7834 124.468C82.1484 124.199 81.7577 123.559 81.8065 122.87L82.9153 107.914L61.9024 109.805C54.8932 123.212 55.0788 153.999 55.0837 154.312C55.0837 154.756 54.903 155.186 54.5806 155.494C54.2827 155.777 53.887 155.928 53.4816 155.928L53.4767 155.919ZM28.2143 151.01L51.8746 152.602C51.9332 145.588 52.6122 119.559 59.509 107.48C59.7679 107.025 60.2368 106.727 60.7594 106.678L84.5076 104.544C84.9765 104.505 85.4406 104.666 85.7776 104.998C86.1146 105.33 86.2856 105.79 86.2514 106.258L85.084 121.952L96.3866 126.715L106.527 122.035L104.045 106.268C103.972 105.809 104.104 105.345 104.402 104.988C104.7 104.632 105.14 104.427 105.604 104.417L132.009 103.953H132.038C132.668 103.953 133.245 104.324 133.504 104.905C142.037 124.052 143.395 145.93 143.614 152.158L166.786 150.619C166.776 145.432 166.215 127.095 159.323 108.749C148.567 80.1266 128.267 65.0141 98.9851 63.837C80.2728 63.0848 64.8721 68.5065 53.2178 79.9508C30.0411 102.712 28.3218 142.863 28.2143 151.01Z" fill="#232323"/>
<path d="M77.8599 59.9438L75.4666 92.2301H116.095L111.23 59.3186L77.8599 59.9438Z" fill="#F45A4E"/>
<path d="M92.7771 91.6632L113.38 89.5873L110.854 72.101L111.128 67.1433L116.095 92.2298L92.7771 91.6632Z" fill="#FF948F"/>
<path d="M116.095 93.207H75.4665C75.193 93.207 74.9341 93.0947 74.7485 92.8944C74.5629 92.6942 74.4701 92.4304 74.4896 92.1569L76.8781 59.8707C76.9172 59.3676 77.3275 58.9768 77.8355 58.967L111.206 58.3418C111.69 58.3516 112.119 58.6886 112.193 59.1771L117.062 92.0885C117.102 92.3718 117.023 92.6551 116.838 92.87C116.652 93.0849 116.384 93.207 116.1 93.207H116.095ZM76.5167 91.2533H114.962L110.385 60.3103L78.7635 60.9013L76.5167 91.2484V91.2533Z" fill="#232323"/>
<path d="M114.054 45.6275C114.054 45.6275 109.472 73.2979 109.472 86.4029H80.3508C80.3508 86.4029 80.9321 60.6374 76.199 48.4702C75.9206 47.7669 75.6324 47.1075 75.3198 46.5018L80.3508 40.0934L102.99 39.5122L102.116 49.2664L102.56 48.5533L104.446 45.5396L107.215 41.1143L114.054 45.6275Z" fill="#C47670"/>
<path d="M102.99 39.5122L102.116 49.2664L102.56 48.5533L99.4148 60.5544L100.26 41.969L81.7478 42.4038L86.2659 57.6823C85.0741 54.0141 83.0763 48.6852 80.3264 44.0449L76.7803 48.5191L76.199 48.4702C75.9206 47.7669 75.6324 47.1075 75.3198 46.5018L80.3508 40.0934L102.99 39.5122Z" fill="#E28F8A"/>
<path d="M114.054 45.6273C114.054 45.6273 109.472 73.2977 109.472 86.4027H108.07C108.07 86.4027 108.124 72.6041 109.218 64.0075C110.307 55.4109 111.621 46.9901 111.621 46.9901L106.761 43.3902L104.446 45.5394L107.215 41.1141L114.054 45.6273Z" fill="#E28F8A"/>
<path d="M79.6915 87.0475C79.5156 86.8423 79.4033 86.5053 79.4375 86.2269C79.4375 86.1683 79.457 85.8312 79.457 85.758C79.6426 79.2616 79.2421 72.736 78.6315 66.269C77.8793 59.7483 77.1271 52.9491 74.216 47.0194C74.0109 46.5896 74.0841 46.0962 74.3577 45.7445L79.3886 39.3361C79.6231 39.0382 79.9699 38.8819 80.3167 38.8672L102.956 38.2909C103.679 38.2664 104.275 38.9014 104.202 39.6194L103.327 49.3737L101.076 48.6166L106.17 40.4596C106.532 39.8783 107.308 39.7074 107.88 40.0883C107.889 40.0932 114.718 44.6016 114.728 44.6065C115.138 44.88 115.328 45.3636 115.25 45.8178C114.669 49.1734 114.127 52.5535 113.609 55.9237C112.124 66.015 110.581 76.1893 110.288 86.3881C110.288 86.8423 109.916 87.2135 109.462 87.2135C99.5614 87.2575 89.5629 87.1793 79.6817 87.0377L79.6915 87.0475ZM81.0152 85.758C90.5496 85.6163 99.9619 85.5382 109.472 85.5821L108.646 86.4076C108.832 72.6432 110.908 59.0351 112.847 45.4319C112.847 45.4319 113.38 46.653 113.38 46.6482L106.541 42.1349L108.251 41.7637L103.156 49.9207C102.8 50.4922 102.048 50.6681 101.471 50.3115C101.071 50.0575 100.866 49.6081 100.9 49.1685L101.774 39.4143L103.02 40.7429L80.3802 41.3241L81.3082 40.8552L76.2772 47.2636L76.4042 45.9497C77.977 49.2027 78.7048 52.5877 79.3398 55.953C81.0835 65.8099 81.1812 75.8181 81.2643 85.7873V86.1048V86.2659V86.305V86.3246C81.2936 86.178 81.1568 85.885 81.0005 85.758H81.0152Z" fill="#232323"/>
<path d="M81.5281 40.4111C81.9433 41.1633 82.9349 42.9657 83.3256 43.6886C83.648 44.3822 84.5418 46.3604 84.8691 47.0882L85.7434 49.418C89.0404 58.7131 90.2811 68.824 89.2309 78.6319C89.2163 78.754 89.1039 78.842 88.9818 78.8273C88.8695 78.8127 88.7815 78.715 88.7864 78.6026C88.8255 72.1454 88.1026 65.6149 86.7154 59.3188C85.8802 55.4503 84.5907 51.4988 83.096 47.8306C82.7786 47.137 81.9042 45.2321 81.5965 44.5531C81.196 43.8205 80.2631 42.0718 79.8577 41.3196C79.2959 40.2157 80.898 39.3317 81.5281 40.4111Z" fill="#232323"/>
<path d="M102.238 49.0709C100.26 55.1276 98.9849 71.8764 98.9849 71.8764Z" fill="#6B6B6B"/>
<path d="M102.472 49.1493C102.585 49.2128 102.995 49.3789 103 49.501L102.951 49.667C101.217 55.8898 100.255 65.4341 99.2292 71.8962C99.1901 72.1795 98.7359 72.1697 98.7408 71.8571C98.7554 69.9277 98.8726 68.0033 98.9654 66.0788C99.3318 60.7743 99.8056 55.4405 101.027 50.2483C101.124 49.838 101.266 49.3984 101.378 48.9881C101.378 48.9197 101.637 48.9441 101.706 48.949C101.95 48.993 102.253 49.0223 102.468 49.1493H102.472Z" fill="#232323"/>
<path d="M122.103 105.481L122.758 97.3439L124.067 105.481H122.103Z" fill="#232323"/>
<path d="M54.224 128.526L49.4714 128.199L54.0042 130.764L54.224 128.526Z" fill="#232323"/>
<path d="M142.252 147.527L145.969 146.652L141.763 149.984L142.252 147.527Z" fill="#232323"/>
<path d="M42.2278 91.2528L46.5798 91.6436L51.2396 87.7116L56.0459 91.6436L51.5327 85.6748L49.1344 87.2378L46.5066 85.6748L42.2278 91.2528Z" fill="#232323"/>
</g>
<defs>
<clipPath id="clip0_66_4116">
<rect width="145" height="117.627" fill="white" transform="translate(25.0002 38.291)"/>
</clipPath>
</defs>
</svg>
