<svg width="194" height="194" viewBox="0 0 194 194" fill="none" xmlns="http://www.w3.org/2000/svg">
<path d="M38.4789 106.932C44.171 98.0145 55.2355 74.9302 61.5097 71.2848C67.7838 67.6394 82.861 64.6906 89.4023 62.0854C95.9437 59.4802 104.336 49.7607 110.315 56.1831C116.293 62.6055 127.458 69.8963 132.401 72.1532C137.344 74.4101 152.278 92.2887 154.84 108.431C157.402 124.572 133.026 106.522 133.026 106.522L41.7519 110.105L38.4789 106.932Z" fill="#514C4C"/>
<mask id="mask0_66_4311" style="mask-type:alpha" maskUnits="userSpaceOnUse" x="38" y="54" width="118" height="62">
<path d="M38.4789 106.932C44.171 98.0145 55.2355 74.9302 61.5097 71.2848C67.7838 67.6394 82.861 64.6906 89.4023 62.0854C95.9437 59.4802 104.336 49.7607 110.315 56.1831C116.293 62.6055 127.458 69.8963 132.401 72.1532C137.344 74.4101 152.278 92.2887 154.84 108.431C157.402 124.572 133.026 106.522 133.026 106.522L41.7519 110.105L38.4789 106.932Z" fill="#514C4C"/>
</mask>
<g mask="url(#mask0_66_4311)">
<path d="M117.337 66.9506C112.8 62.5816 105.924 58.1285 103.053 56.4481C104.104 52.5972 104.356 42.9629 96.9618 35.2331C87.7196 25.5708 88.3498 23.0502 87.5096 20.1095C86.8374 17.7569 89.47 2.88538 90.8704 -4.25632C102.003 -1.59568 124.688 3.93563 126.369 4.77583C128.469 5.82608 181.192 52.2471 188.123 59.5989C195.055 66.9506 202.197 122.404 202.617 124.084C203.037 125.765 186.233 138.788 181.192 128.915C176.151 119.043 148.424 103.499 148.424 102.869C140.705 78.3926 128.469 73.1932 121.118 68.2109C120.312 67.6651 117.924 67.5166 117.337 66.9506Z" fill="white"/>
</g>
<path d="M151.047 116.683C144.863 116.683 135.473 110.237 132.544 108.109L41.8139 111.673C41.3892 111.688 40.9694 111.53 40.664 111.234L37.3909 108.061C36.8566 107.546 36.7611 106.721 37.1619 106.096C38.808 103.519 40.9694 99.6303 43.2548 95.5125C49.1902 84.834 55.9224 72.7288 60.7223 69.9375C64.711 67.6186 71.9919 65.6003 78.4093 63.8205C82.4887 62.6897 86.339 61.6256 88.8201 60.6332C90.5568 59.9413 92.5035 58.6626 94.5599 57.3075C99.7939 53.8672 106.302 49.5825 111.455 55.1174C117.137 61.2248 128.035 68.444 133.045 70.7296C138.637 73.2823 153.733 91.4902 156.381 108.186C156.992 112.046 156.233 114.646 154.129 115.925C153.256 116.454 152.206 116.683 151.042 116.683H151.047ZM133.026 104.955C133.36 104.955 133.689 105.065 133.956 105.261C139.887 109.65 149.568 115.033 152.507 113.248C153.647 112.556 153.561 110.38 153.289 108.677C150.76 92.7451 135.907 75.4819 131.747 73.5781C126.379 71.1304 115.195 63.7346 109.165 57.2502C106.049 53.9006 102.041 56.1337 96.2823 59.9222C94.0875 61.368 92.0168 62.7326 89.9795 63.539C87.3362 64.5887 83.4047 65.6814 79.2442 66.8313C73.0035 68.5586 65.9325 70.5196 62.292 72.6382C58.2317 74.9953 51.1559 87.7303 45.9887 97.0298C43.9752 100.656 42.0572 104.106 40.4731 106.687L42.3578 108.515L132.964 104.955C132.964 104.955 133.007 104.955 133.026 104.955Z" fill="#232323"/>
<path d="M38.2857 136.382C-11.0251 131.511 30.1936 118.017 77.7343 112.396C128.519 106.389 228.596 129.192 157.9 137.537L158.086 140.181C158.086 140.181 183.995 138.63 183.708 129.24C183.422 119.849 154.69 103.207 136.764 98.9408C118.839 94.6752 75.5967 96.9511 60.0902 99.084C45.1896 101.131 20.5128 110.345 12.0105 126.968C6.60464 137.537 38.0805 138.873 38.0805 138.873" fill="#514C4C"/>
<mask id="mask1_66_4311" style="mask-type:alpha" maskUnits="userSpaceOnUse" x="11" y="96" width="173" height="45">
<path d="M38.2853 136.383C-11.0254 131.511 30.1933 118.017 77.7339 112.397C128.519 106.389 228.595 129.192 157.9 137.537L158.086 140.181C158.086 140.181 183.994 138.63 183.708 129.24C183.422 119.85 154.689 103.207 136.764 98.941C118.838 94.6754 75.5964 96.9513 60.0898 99.0842C45.1893 101.131 20.5124 110.345 12.0101 126.969C6.60427 137.537 38.0801 138.873 38.0801 138.873" fill="#514C4C"/>
</mask>
<g mask="url(#mask1_66_4311)">
<path d="M179.721 124.504C153.255 101.189 121.117 95.9375 77.8469 98.038H73.8559C66.9242 97.4779 52.5148 96.0215 50.3303 94.6772C47.5997 92.9968 38.3576 86.6953 37.7274 83.7546C37.0973 80.8139 46.7596 55.3979 56.8419 49.0964C64.9079 44.0552 78.6871 38.4538 84.5685 36.2833L171.109 48.0461C182.872 64.29 206.524 96.9037 207.028 97.4078C207.658 98.038 202.244 144.346 179.721 124.504Z" fill="white"/>
</g>
<path d="M38.1327 137.945C33.4474 137.463 28.762 136.9 24.0719 135.84C21.4715 135.211 18.9094 134.566 16.5715 133.054C15.2499 132.185 14.1382 130.62 14.5008 128.969C15.4932 124.165 26.448 121.135 30.6753 119.751C44.2399 115.791 58.1862 113.424 72.1469 111.525C76.7988 110.9 81.5176 110.351 86.2173 110.113C100.321 109.383 114.463 110.194 128.471 111.768C141.545 113.343 171.995 117.647 181.518 125.739C183.584 127.576 184.171 130.439 181.828 132.529C178.817 135.091 175.024 135.864 171.436 136.799C166.78 137.863 164.209 138.531 159.533 139.095L160.912 137.429C160.912 137.429 161.098 140.068 161.098 140.073L159.447 138.622C164.581 138.283 167.753 137.568 172.725 136.217C175.125 135.53 177.577 134.69 179.638 133.335C183.245 131.021 182.94 128.287 180.54 125.047C178.226 121.975 175.225 119.479 172.133 117.146C163.678 110.952 154.241 105.962 144.45 102.202C139.627 100.307 134.369 99.0286 129.22 98.3701C118.724 97.0723 108.084 96.9769 97.5108 97.1343C84.2945 97.5494 71.0209 98.1459 57.9668 100.269C41.9402 103.485 21.4572 112.303 13.432 127.276C10.4261 132.171 19.2148 134.366 22.6835 135.258C27.7028 136.423 32.975 137.033 38.147 137.31C39.0249 137.339 39.712 138.083 39.6643 138.961C39.6166 139.825 38.877 140.488 38.0134 140.44C35.2843 140.287 32.6315 140.025 29.9548 139.667C22.8934 138.66 4.73406 135.726 11.4758 125.066C21.5765 108.032 46.7066 98.9809 65.6437 97.6926C86.8471 96.1085 108.174 95.1017 129.387 96.9912C140.089 98.0361 150.243 102.135 159.766 106.935C167.338 110.9 182.539 119.512 184.853 127.967C186.633 136.828 171.861 139.624 165.582 140.755C162.91 141.199 162.367 141.533 159.633 141.747C158.775 141.814 158.026 141.156 157.983 140.297C157.983 140.297 157.792 137.658 157.797 137.654C157.246 135.006 158.35 136.084 159.175 135.988C164.815 135.22 176.503 133.722 180.053 129.847C180.817 128.907 178.894 127.605 178.192 127.085C175.406 125.253 172.2 124.088 169.003 122.996C155.772 118.749 141.917 116.545 128.118 114.879C114.272 113.324 100.302 112.522 86.389 113.238C72.4952 114.173 58.6634 116.506 45.051 119.336C39.2635 120.639 20.1404 124.904 17.583 129.542C17.5639 129.609 17.583 129.623 17.583 129.671C17.6021 129.719 17.6355 129.804 17.7309 129.914C18.6756 130.902 20.1308 131.422 21.5383 131.904C26.9919 133.598 32.7221 134.209 38.4572 134.829C40.5279 135.11 40.1843 138.097 38.1375 137.945H38.1327Z" fill="#232323"/>
<path d="M38.4769 119.519C23.1135 121.628 9.42006 129.439 19.2727 133.719C29.1253 137.999 37.3366 137.537 37.3366 137.537L41.1774 119.519H38.4769Z" fill="#232323"/>
<path d="M154.697 118.709C154.697 118.709 157.683 136.492 157.683 136.774C157.683 137.055 169.702 137.914 174.182 135.209C178.663 132.503 185.633 130.232 180.228 127.526C174.822 124.821 161.806 119.515 161.806 119.515L154.692 118.709H154.697Z" fill="#232323"/>
<path d="M129.741 70.791C121.978 66.363 104.763 66.9308 104.763 66.9308Z" fill="#514C4C"/>
<path d="M128.963 72.1502C127.212 71.2388 125.337 70.5327 123.423 70.0364C117.369 68.4285 111.018 67.8129 104.777 67.2356C104.429 67.2117 104.396 66.6726 104.758 66.6248C111.195 65.8662 117.741 65.8614 124.125 67.1736C126.277 67.6507 128.452 68.2662 130.523 69.4305C132.298 70.4993 130.805 73.1283 128.972 72.1502H128.963Z" fill="#232323"/>
</svg>
