<svg width="194" height="194" viewBox="0 0 194 194" fill="none" xmlns="http://www.w3.org/2000/svg">
<path d="M49.9085 98.41C49.7485 98.41 49.5822 98.3908 49.4222 98.3524L19.5835 91.2303L19.1356 93.0156C18.8541 94.1419 17.715 94.8202 16.5888 94.5386C15.4626 94.2571 14.7779 93.118 15.0658 91.9918L16.0193 88.1908C16.3008 87.0773 17.4271 86.3926 18.5405 86.6614L50.4013 94.2635C51.5275 94.5322 52.225 95.6648 51.9562 96.7911C51.7259 97.7573 50.862 98.4036 49.9149 98.4036L49.9085 98.41Z" fill="#232323"/>
<path d="M145.088 98.4102C144.141 98.4102 143.277 97.7639 143.046 96.7976C142.778 95.6714 143.475 94.5388 144.601 94.27L176.462 86.668C177.582 86.3992 178.708 87.0839 178.983 88.1973L179.937 91.9984C180.218 93.1246 179.534 94.2636 178.414 94.5452C177.288 94.8267 176.149 94.142 175.867 93.0222L175.419 91.2369L145.58 98.359C145.414 98.3974 145.254 98.4166 145.094 98.4166L145.088 98.4102Z" fill="#232323"/>
<path d="M86.0051 97.1046C86.0051 106.473 79.3373 114.273 70.4875 116.046C69.2589 116.289 67.9855 116.417 66.6865 116.417C63.167 116.417 59.8587 115.47 57.0175 113.819C51.8087 110.805 48.1421 105.423 47.483 99.1459C47.4126 98.474 47.3742 97.7957 47.3742 97.1046C47.3742 93.3292 48.4556 89.8098 50.3369 86.8342C53.7412 81.4014 59.7947 77.786 66.6865 77.786C77.3536 77.786 86.0051 86.4375 86.0051 97.1046Z" fill="#232323"/>
<path d="M66.6864 118.516C62.9174 118.516 59.206 117.518 55.9616 115.636C50.0553 112.219 46.1071 106.134 45.3904 99.3699C45.3137 98.6084 45.2689 97.8469 45.2689 97.111C45.2689 93.0604 46.4079 89.1186 48.558 85.7208C52.4934 79.4433 59.2699 75.6935 66.68 75.6935C78.4926 75.6935 88.0975 85.3048 88.0975 97.111C88.0975 107.285 80.8602 116.116 70.8906 118.113C69.5084 118.388 68.0942 118.522 66.68 118.522L66.6864 118.516ZM66.6864 79.8848C60.7289 79.8848 55.2769 82.8988 52.1158 87.9476C50.3881 90.6864 49.473 93.8475 49.473 97.1046C49.473 97.7061 49.505 98.3012 49.569 98.9283C50.1385 104.368 53.3188 109.256 58.0669 112.002C60.6777 113.518 63.6533 114.318 66.6864 114.318C67.8318 114.318 68.9709 114.209 70.0779 113.985C78.0895 112.379 83.9062 105.283 83.9062 97.1046C83.9062 87.6085 76.1826 79.8848 66.6864 79.8848Z" fill="#232323"/>
<path d="M151.781 97.1048C151.781 100.957 150.655 104.54 148.71 107.548C146.246 111.381 142.464 114.28 138.004 115.604C136.251 116.135 134.389 116.417 132.463 116.417C121.796 116.417 113.15 107.772 113.15 97.1048C113.15 89.8163 117.182 83.4748 123.139 80.1857C125.904 78.6564 129.078 77.7861 132.463 77.7861C133.602 77.7861 134.715 77.8821 135.803 78.0805C144.877 79.6546 151.781 87.5766 151.781 97.1048Z" fill="#232323"/>
<path d="M132.463 118.516C120.656 118.516 111.051 108.911 111.051 97.1049C111.051 89.3045 115.294 82.1184 122.128 78.3494C125.276 76.6088 128.847 75.6874 132.469 75.6874C133.736 75.6874 134.99 75.7962 136.187 76.0137C146.438 77.7927 153.886 86.6617 153.886 97.1049C153.886 101.239 152.709 105.244 150.476 108.687C147.711 112.994 143.494 116.168 138.606 117.614C136.641 118.209 134.568 118.516 132.469 118.516H132.463ZM132.463 79.8851C129.557 79.8851 126.684 80.6274 124.157 82.0224C118.66 85.0556 115.249 90.8339 115.249 97.1049C115.249 106.595 122.973 114.318 132.463 114.318C134.152 114.318 135.816 114.075 137.396 113.595C141.332 112.424 144.717 109.877 146.944 106.416C148.735 103.645 149.682 100.426 149.682 97.1049C149.682 88.7094 143.693 81.5809 135.444 80.1475C134.478 79.9747 133.48 79.8851 132.463 79.8851Z" fill="#232323"/>
<path d="M113.15 104.233C112.165 104.233 111.288 103.542 111.09 102.538C110.085 97.4695 104.089 95.2746 98.9634 95.3706C94.0809 95.4666 88.8209 97.6934 88.0786 102.454C87.8995 103.6 86.8244 104.387 85.679 104.201C84.5336 104.016 83.7529 102.947 83.9321 101.802C85.0519 94.6411 92.2508 91.3072 98.8802 91.1728C105.708 91.0449 113.739 94.2764 115.21 101.718C115.434 102.857 114.699 103.958 113.56 104.188C113.419 104.214 113.284 104.227 113.15 104.227V104.233Z" fill="#232323"/>
<path d="M69.0801 114.51C67.9987 114.728 66.8853 114.843 65.7398 114.843C62.6491 114.843 59.744 113.998 57.2483 112.52L48.8784 99.4085C48.8144 98.807 48.7824 98.199 48.7824 97.5847C48.7824 94.2124 49.7295 91.0641 51.3868 88.4021L69.0801 114.51Z" fill="#606060"/>
<path d="M147.199 106.345C145.024 109.756 141.69 112.334 137.754 113.512L124.643 82.0159C127.081 80.6529 129.884 79.885 132.866 79.885C133.87 79.885 134.849 79.9682 135.809 80.1473L147.193 106.351L147.199 106.345Z" fill="#606060"/>
</svg>
