<svg width="463" height="531" viewBox="0 0 463 531" fill="none" xmlns="http://www.w3.org/2000/svg">
<g clip-path="url(#clip0_1117_23991)">
<path d="M235.812 531.459C331.253 531.459 408.624 524.193 408.624 515.23C408.624 506.266 331.253 499 235.812 499C140.37 499 63 506.266 63 515.23C63 524.193 140.37 531.459 235.812 531.459Z" fill="#232323"/>
<path d="M126.934 443.074C84.3692 481.435 86.7346 511.002 139.943 515.721C193.152 520.451 231.338 509.573 219.043 476.294C206.747 443.015 126.946 443.074 126.946 443.074H126.934Z" fill="#FF814A"/>
<path d="M162.17 520.614C155.144 520.614 147.614 520.263 139.605 519.548C114.148 517.288 99.0191 509.525 94.663 496.48C89.7098 481.656 99.9793 462.194 124.371 440.215C125.073 439.583 125.987 439.231 126.947 439.231H126.982C130.799 439.231 209.617 439.688 222.662 474.958C226.784 486.117 225.941 495.614 220.156 503.166C211.409 514.607 191.163 520.602 162.181 520.602L162.17 520.614ZM128.399 446.936C107.544 466.012 98.1643 482.71 101.946 494.045C105.202 503.787 118.457 509.958 140.284 511.902C178.083 515.263 204.968 510.38 214.043 498.518C218.177 493.108 218.634 486.281 215.437 477.639C205.074 449.595 139.113 447.159 128.399 446.948V446.936Z" fill="#232323"/>
<path d="M332.056 443.075C374.621 481.436 372.256 511.003 319.047 515.722C265.838 520.453 227.653 509.575 239.948 476.296C252.243 443.017 332.045 443.075 332.045 443.075H332.056Z" fill="#FF814A"/>
<path d="M296.821 520.613C267.828 520.613 247.594 514.618 238.847 503.177C233.062 495.613 232.219 486.128 236.341 474.969C249.374 439.687 328.192 439.242 332.021 439.242H332.056C333.004 439.242 333.918 439.594 334.632 440.226C359.023 462.205 369.293 481.666 364.34 496.491C359.984 509.536 344.866 517.299 319.398 519.559C311.388 520.273 303.859 520.625 296.833 520.625L296.821 520.613ZM330.592 446.935C319.89 447.146 253.917 449.582 243.554 477.627C240.357 486.268 240.814 493.107 244.947 498.505C254.023 510.379 280.908 515.25 318.707 511.889C340.534 509.945 353.789 503.774 357.045 494.032C360.838 482.697 351.447 465.999 330.592 446.924V446.935Z" fill="#232323"/>
<path d="M93.114 200.089C5.66596 256.085 -48.7959 449.834 81.5917 344.575C211.979 239.317 93.114 200.089 93.114 200.089Z" fill="#F4D93B"/>
<path d="M22.9171 379.208C19.4862 379.208 16.3948 378.623 13.6313 377.44C8.17461 375.098 1.4064 369.232 0.188587 354.524C-3.25407 312.861 38.8306 230.261 91.0325 196.842C92.0044 196.221 93.2105 196.069 94.3112 196.432C96.1379 197.041 139.206 211.643 145.717 247.392C151.021 276.514 130.26 310.227 83.9949 347.569C57.9174 368.623 37.4372 379.22 22.9054 379.22L22.9171 379.208ZM93.5969 204.347C42.1093 238.458 4.95444 318.751 7.85844 353.892C8.58444 362.639 11.547 368.178 16.6641 370.379C23.2099 373.178 40.0484 373.178 79.1823 341.585C123.082 306.14 142.93 274.922 138.176 248.774C133.152 221.174 101.337 207.333 93.6086 204.359L93.5969 204.347Z" fill="#232323"/>
<path d="M368.992 200.088C456.44 256.083 510.902 449.832 380.514 344.574C250.126 239.315 368.992 200.088 368.992 200.088Z" fill="#F2BA3D"/>
<path d="M439.179 379.209C424.647 379.209 404.179 368.612 378.09 347.558C331.825 310.216 311.063 276.515 316.368 247.382C322.878 211.632 365.947 197.03 367.773 196.421C368.874 196.058 370.08 196.21 371.052 196.831C423.254 230.25 465.339 312.851 461.896 354.514C460.678 369.221 453.922 375.088 448.453 377.43C445.69 378.612 442.598 379.198 439.167 379.198L439.179 379.209ZM368.511 204.348C360.771 207.346 328.932 221.234 323.932 248.798C319.19 274.935 339.038 306.153 382.926 341.586C422.059 373.167 438.886 373.191 445.444 370.38C450.561 368.191 453.523 362.64 454.249 353.893C457.153 318.752 419.999 238.459 368.511 204.348Z" fill="#232323"/>
<path d="M230.226 487.712V487.642C162.672 485.733 79.6037 474.843 57.5309 405.51C46.7814 368.952 52.0508 324.654 62.0977 286.926C70.1189 259.829 81.5241 234.033 83.3391 205.484L83.3626 205.262C84.4398 193.47 84.756 181.363 85.9036 169.477C88.2689 141.058 96.9809 111.479 112.672 89.1486C137.426 51.0921 185.003 31.6891 230.226 30.0263V29.9326C230.671 29.9326 231.127 29.9677 231.572 29.9795C232.017 29.9677 232.474 29.9443 232.919 29.9326V30.0263C278.142 31.6891 325.718 51.1038 350.473 89.1486C366.164 111.479 374.876 141.058 377.241 169.477C378.389 181.363 378.705 193.47 379.782 205.262L379.805 205.484C381.62 234.033 393.026 259.829 401.047 286.926C411.094 324.654 416.363 368.952 405.614 405.51C383.541 474.843 300.472 485.733 232.919 487.642V487.712H230.226Z" fill="#F4D93B"/>
<mask id="mask0_1117_23991" style="mask-type:alpha" maskUnits="userSpaceOnUse" x="51" y="29" width="361" height="459">
<path d="M230.226 487.711V487.641C162.673 485.732 79.6044 474.842 57.5316 405.509C46.7821 368.951 52.0515 324.653 62.0984 286.925C70.1195 259.829 81.5248 234.032 83.3398 205.484L83.3632 205.261C84.4405 193.47 84.7567 181.362 85.9042 169.476C88.2696 141.057 96.9816 111.478 112.673 89.1479C137.427 51.0913 185.003 31.6883 230.226 30.0256V29.9319C230.671 29.9319 231.128 29.967 231.573 29.9787C232.018 29.967 232.475 29.9436 232.92 29.9319V30.0256C278.142 31.6883 325.719 51.103 350.473 89.1479C366.164 111.478 374.876 141.057 377.242 169.476C378.389 181.362 378.705 193.47 379.783 205.261L379.806 205.484C381.621 234.032 393.026 259.829 401.048 286.925C411.094 324.653 416.364 368.951 405.614 405.509C383.542 474.842 300.473 485.732 232.92 487.641V487.711H230.226Z" fill="#F4D93B"/>
</mask>
<g mask="url(#mask0_1117_23991)">
<path d="M355.567 178.403C349.62 79.4142 305.391 62.0702 273.303 41.505C241.215 20.9398 266.118 10.2839 266.118 10.2839C279.911 2.52035 312.18 -13.9732 330.912 -17.8386C354.328 -22.6703 357.921 -22.0509 362.009 -22.0509C365.28 -22.0509 410.946 -16.0215 433.37 -13.0068C452.366 6.56786 491.797 47.7491 497.545 55.8763C504.731 66.0353 535.951 195.625 546.11 220.775C556.269 245.924 537.686 358.665 523.934 398.805C510.182 438.946 394.151 471.335 397.565 443.034C413.052 314.683 359.14 237.878 355.567 178.403Z" fill="#F2BA3D"/>
<path d="M178.899 49.929C99.3609 73.0955 92.9186 171.094 86.1046 210.243L78.1756 216.066C68.7186 222.715 48.0207 233.807 40.8846 224.986C31.9644 213.96 -38.777 97.8746 -49.9271 45.4689C-61.0773 -6.93681 -48.3165 19.8236 -25.3968 10.9034C-2.47703 1.98332 186.332 -18.7067 189.182 -19.2022C191.461 -19.5987 214.125 -1.81696 224.119 5.94685C225.44 18.5837 219.898 37.9872 178.899 49.929Z" fill="white"/>
</g>
<path opacity="0.32" d="M389.959 399.228C387.487 423.374 382.326 441.795 362.256 462.237C356.454 464.584 339.907 472.258 332.894 474.006C292.935 482.992 255.501 483.99 240.272 483.42C240.272 483.42 172.724 485.454 125.129 474.749C119.176 473.264 118.059 470.978 112.988 469.05C110.802 467.183 103.895 463.043 102.352 464.602L102.209 464.467C57.8518 420.203 70.597 334.238 139.02 305.606C161.321 296.372 188.406 292.419 212.699 290.447C245.561 287.904 275.463 290.184 305.508 295.667C353.523 304.519 394.138 336.091 389.959 399.235V399.228Z" fill="#FFF4C5"/>
<path d="M232.919 491.55H230.226C229.933 491.55 229.652 491.515 229.371 491.457C201.185 490.637 160.084 488.049 125.506 475.473C88.1751 461.901 64.0765 438.751 53.8656 406.678C41.8749 365.905 49.7087 318.516 58.3856 285.94C60.5753 278.551 62.9992 271.291 65.3411 264.253C71.9571 244.417 78.2101 225.682 79.5099 205.248C79.5099 205.201 79.5099 205.154 79.5099 205.096L79.5333 204.873C80.0368 199.311 80.3881 193.503 80.7277 187.894C81.0907 181.735 81.4771 175.365 82.0743 169.112C84.6973 137.625 94.4281 108.444 109.487 87.0036C132.578 51.5583 178.433 28.3145 229.3 26.2185C229.628 26.1365 229.956 26.0897 230.296 26.1014C230.589 26.1014 230.881 26.1131 231.174 26.1248H231.56H231.947C232.24 26.1248 232.532 26.1014 232.825 26.1014C233.176 26.1014 233.539 26.1365 233.879 26.2302C284.734 28.3379 330.566 51.5817 353.646 87.0036C368.705 108.456 378.435 137.625 381.058 169.171C381.655 175.365 382.03 181.735 382.405 187.894C382.744 193.515 383.084 199.323 383.599 204.92L383.623 205.096C383.623 205.096 383.623 205.19 383.623 205.248C384.922 225.693 391.175 244.429 397.791 264.253C400.133 271.279 402.557 278.551 404.724 285.834C413.424 318.516 421.258 365.894 409.29 406.597C399.056 438.751 374.946 461.901 337.627 475.473C303.036 488.049 261.924 490.649 233.738 491.457C233.469 491.515 233.188 491.55 232.907 491.55H232.919ZM230.963 483.869H232.181C232.38 483.822 232.591 483.799 232.802 483.799C300.378 481.89 380.684 471.14 401.948 404.348C413.389 365.437 405.754 319.547 397.335 287.919C395.239 280.869 392.838 273.656 390.52 266.689C384.044 247.286 377.358 227.216 375.976 205.81V205.658C375.438 199.897 375.086 194.019 374.747 188.351C374.384 182.262 374.009 175.962 373.424 169.85C370.906 139.568 361.644 111.711 347.334 91.3596C347.311 91.3244 347.287 91.2893 347.252 91.2425C325.39 57.6473 281.537 35.6565 232.778 33.8649C232.591 33.8649 232.392 33.8415 232.216 33.8064L231.701 33.8298C231.619 33.8298 231.549 33.8298 231.467 33.8298L230.94 33.8064C230.752 33.8415 230.577 33.8649 230.389 33.8649C181.63 35.6682 137.766 57.6473 115.915 91.2425C115.892 91.2776 115.869 91.3244 115.833 91.3596C101.536 111.711 92.2618 139.568 89.7559 169.803C89.1587 175.962 88.784 182.262 88.421 188.351C88.0814 194.03 87.7301 199.897 87.2149 205.623L87.1915 205.81C85.8214 227.227 79.1235 247.286 72.648 266.689C70.3178 273.656 67.9173 280.869 65.7978 288.024C57.402 319.558 49.7672 365.449 61.231 404.43C82.4724 471.14 162.766 481.902 230.354 483.799C230.565 483.799 230.788 483.834 230.987 483.869H230.963Z" fill="#232323"/>
<path d="M195.396 51.6078C203.968 2.89546 231.931 -7.86576 236.24 22.2282C236.24 22.2282 247.06 -1.29661 275.315 5.43647C303.571 12.1813 279.214 58.7625 229.799 54.4416" fill="#F4D93B"/>
<mask id="mask1_1117_23991" style="mask-type:alpha" maskUnits="userSpaceOnUse" x="195" y="4" width="93" height="51">
<path d="M195.396 51.6081C203.968 2.89571 231.931 -7.86551 236.24 22.2284C236.24 22.2284 247.06 -1.29637 275.315 5.43671C303.571 12.1815 279.215 58.7627 229.8 54.4418" fill="#F4D93B"/>
</mask>
<g mask="url(#mask1_1117_23991)">
<path d="M223.251 14.9898C214.95 14.9898 205.576 31.8389 200.703 41.0068C199.133 44.7646 197.333 46.9536 194.26 41.0068C190.42 33.5734 188.809 19.0782 189.924 -4.08934C191.039 -27.2569 189.8 -8.79719 196.738 -12.2661C202.288 -15.0413 214.413 -17.2217 219.782 -17.9651C225.935 -15.9002 238.365 -11.6714 238.861 -11.275C239.48 -10.7794 236.383 23.6621 234.772 24.7772C233.162 25.8922 228.206 14.9898 223.251 14.9898Z" fill="white"/>
</g>
<path d="M193.387 51.2606C192.532 36.0263 201.209 12.5483 214.593 3.94168C220.483 -0.0630342 228.774 0.0306436 233.715 5.5342C237.778 9.83167 239.488 16.19 240.05 21.6819L232.755 20.6163C238.785 7.89957 252.626 -0.695358 266.725 0.0423533C269.055 0.136031 271.666 0.346806 273.914 0.850323L276.268 1.28358L278.762 2.033C288.505 5.19462 293.353 14.4921 290.8 24.2697C287.381 37.2792 276.947 46.2254 265.495 51.729C254.441 57.0218 241.479 58.6143 229.722 55.2419C229.289 55.1131 229.031 54.6564 229.16 54.2232C229.254 53.8953 229.535 53.6728 229.863 53.6377C235.717 52.9468 241.35 52.2442 246.783 50.8742C257.415 48.3332 267.837 43.6844 275.273 35.6281C282.72 28.0168 288.739 12.8645 274.289 9.58576C272.38 9.32815 270.32 8.71924 268.423 8.68412C267.732 8.62557 266.151 8.5436 265.495 8.49676C254.675 8.43821 244.781 14.5858 239.628 24.0121C237.931 27.2791 232.93 26.3658 232.427 22.7826C231.162 16.0144 227.439 5.95575 219.254 11.4476C211.923 16.5179 207.673 25.2299 204.3 33.6375C202.052 39.6329 200.096 45.7805 197.38 51.9866C196.548 53.9773 193.445 53.4386 193.375 51.2606H193.387Z" fill="#232323"/>
<path d="M204.937 158.201C229.878 143.072 242.302 142.123 267.654 158.728C273.567 162.568 271.67 168.482 266.53 170.554C254.235 175.519 219.41 175.871 205.639 171.14C199.258 168.892 198.133 162.334 204.925 158.189L204.937 158.201Z" fill="#FF814A"/>
<path d="M203.357 155.6C212.233 150.471 222.092 145.389 232.561 144.171C243.322 142.93 254.036 147.262 263.053 152.368C264.961 153.387 266.776 154.546 268.627 155.647C271.074 157.052 273.287 159.077 274.2 161.923C275.781 166.677 272.596 171.736 268.228 173.586C266.472 174.394 264.071 175.073 262.186 175.576C247.327 179.218 215.687 180.061 202.069 173.176C194.563 168.574 196.155 159.522 203.345 155.611L203.357 155.6ZM206.518 160.81C203.275 162.801 202.092 166.174 206.261 167.743C213.415 169.944 221.073 170.237 228.767 170.553C239.399 170.811 250.137 170.635 260.594 168.621L262.865 168.094L264.985 167.426L265.242 167.345L265.43 167.263C269.2 165.565 268.545 162.86 265.231 160.916C263.509 159.792 261.788 158.586 260.02 157.555C238.919 144.276 226.425 148.105 206.518 160.81Z" fill="#232323"/>
<path d="M152.946 144.775C153.415 143.885 153.953 143.066 154.539 142.234C155.066 141.403 155.722 140.642 156.307 139.81C156.963 139.038 157.665 138.276 158.38 137.504C159.153 136.789 159.855 136.028 160.686 135.372C161.518 134.717 162.338 134.014 163.345 133.475C164.235 132.89 165.3 132.351 166.295 131.883C168.427 130.993 170.733 130.408 173.157 130.29C175.581 130.173 178.005 130.583 180.195 131.415C182.385 132.246 184.387 133.429 186.108 134.787C187.818 136.145 189.305 137.738 190.605 139.401C191.261 140.232 191.846 141.11 192.373 142C192.607 142.469 192.9 142.89 193.146 143.358L193.497 144.073C193.614 144.307 193.731 144.541 193.848 144.846C194.504 146.262 193.848 147.984 192.373 148.569C191.307 149.038 190.183 148.803 189.364 148.101L188.895 147.691C188.778 147.632 188.661 147.398 188.485 147.281L188.075 146.813C187.783 146.52 187.49 146.157 187.186 145.864C186.6 145.279 185.944 144.682 185.359 144.096C184.773 143.511 184.118 142.972 183.462 142.504C183.169 142.269 182.806 141.977 182.513 141.789L182.045 141.438L181.577 141.145C178.919 139.436 176.202 138.429 173.473 138.429C172.115 138.429 170.698 138.663 169.281 139.143C168.567 139.436 167.865 139.67 167.15 140.033C166.799 140.209 166.436 140.326 166.085 140.56L165.019 141.216C164.668 141.391 164.305 141.684 163.953 141.93C163.602 142.164 163.239 142.398 162.888 142.644L160.815 144.237L158.801 145.946C158.145 146.532 157.501 147.188 156.787 147.785L156.67 147.902C155.663 148.792 154.129 148.675 153.298 147.668C152.525 146.836 152.466 145.712 152.946 144.834V144.775Z" fill="#232323"/>
<path d="M276.073 144.72C276.541 143.83 277.08 143.01 277.666 142.179C278.251 141.347 278.848 140.528 279.492 139.755C280.148 138.982 280.851 138.221 281.565 137.448C281.916 137.097 282.338 136.734 282.689 136.382C283.099 136.031 283.462 135.668 283.872 135.317C284.703 134.661 285.581 133.958 286.53 133.42C287.42 132.834 288.485 132.354 289.481 131.827C291.612 130.937 293.919 130.352 296.343 130.293C298.767 130.235 301.19 130.645 303.38 131.535C305.57 132.366 307.514 133.607 309.176 135.024C310.839 136.441 312.315 138.033 313.497 139.696C314.083 140.586 314.68 141.406 315.148 142.296C315.383 142.764 315.617 143.186 315.863 143.654C316.109 144.122 316.273 144.544 316.518 145.13C316.987 146.312 316.401 147.612 315.219 148.08C314.329 148.432 313.392 148.197 312.795 147.553L312.561 147.319C312.326 147.085 311.975 146.734 311.671 146.371C311.378 146.078 311.085 145.715 310.781 145.422C310.125 144.837 309.539 144.181 308.884 143.654C307.584 142.53 306.284 141.464 304.926 140.645C302.209 138.935 299.364 137.987 296.647 138.162C295.289 138.221 293.872 138.514 292.455 139.052C291.038 139.579 289.621 140.352 288.263 141.242C285.488 143.01 282.83 145.375 280.043 147.858L279.984 147.916C278.919 148.865 277.326 148.748 276.378 147.682C275.663 146.792 275.605 145.61 276.085 144.731L276.073 144.72Z" fill="#232323"/>
</g>
<defs>
<clipPath id="clip0_1117_23991">
<rect width="462.112" height="531" fill="white"/>
</clipPath>
</defs>
</svg>
