<svg width="48" height="48" viewBox="0 0 48 48" fill="none" xmlns="http://www.w3.org/2000/svg">
<path d="M30.6175 7.36035C31.3769 7.4382 31.9041 7.72924 32.2532 8.10059C32.5493 8.41549 32.7081 8.77904 32.7786 9.09863C40.8272 10.5854 44.4091 15.0921 45.9525 18.8516L46.1146 19.2578C47.7195 23.4449 47.3464 27.0738 46.5521 29.6797C46.1424 31.0235 45.6215 32.0955 45.2015 32.832C44.9915 33.2003 44.8061 33.4851 44.6732 33.6787C44.6067 33.7755 44.5532 33.8501 44.5159 33.9004C44.4974 33.9254 44.483 33.9449 44.473 33.958C44.4681 33.9644 44.464 33.9692 44.4612 33.9727C44.4599 33.9744 44.4581 33.9756 44.4573 33.9766L44.4564 33.9785C44.4231 34.0204 44.376 34.0481 44.3245 34.0576L44.2718 34.0615H44.2698C44.2687 34.0615 44.267 34.0607 44.265 34.0605C44.2605 34.0603 44.2539 34.0601 44.2454 34.0596C44.2282 34.0585 44.2024 34.057 44.1693 34.0547C44.1029 34.0501 44.0051 34.0425 43.8802 34.0322C43.6299 34.0117 43.2687 33.9788 42.8245 33.9287C41.9634 33.8316 40.7883 33.6689 39.4984 33.4092C38.7973 34.1827 37.4477 35.9208 35.6585 37.4814C33.7924 39.1092 31.3983 40.5916 28.6458 40.6543C24.5916 40.7483 21.454 38.3115 18.4993 36.1914C16.6894 34.8937 14.8666 33.5873 12.8372 32.75C12.3574 32.836 11.857 33.1095 11.3372 33.5C10.7991 33.9043 10.2617 34.4161 9.72198 34.9307H9.72101C9.08468 35.5352 8.41008 36.1806 7.71124 36.6602C5.98036 37.8497 4.66991 38.3244 3.68683 38.4229C2.82053 38.5096 2.21583 38.3033 1.81671 38.0498L1.65851 37.9385C0.769745 37.2588 0.538471 36.0113 0.995422 34.7432C1.53797 33.2376 2.84531 31.9308 4.45831 30.748C6.04524 29.5845 7.96013 28.518 9.8089 27.4902C9.87458 26.5018 10.1145 24.1267 10.9847 21.3789C11.8926 18.5123 13.4914 15.2253 16.3089 12.6875C19.3776 9.92401 23.3467 8.57023 28.095 8.63281C28.4002 7.98989 29.1702 7.21179 30.6175 7.36035ZM22.0306 27.1318C19.7412 26.4836 17.6397 26.275 15.5921 26.792C13.1243 27.4134 10.0054 28.8989 7.46906 30.4346C7.87672 30.3961 8.30178 30.379 8.74445 30.3887C13.0561 30.4805 16.2861 32.8064 19.3509 35.0059C22.3398 37.1483 25.0958 39.121 28.6673 39.1953H28.6683C30.5946 39.2422 32.5794 38.1343 34.2913 36.7451C35.843 35.4859 37.1376 34.0202 37.9183 33.0615C36.2426 32.6562 34.3386 32.0904 32.3597 31.2949L31.4485 30.915C30.8066 30.6351 30.176 30.359 29.5599 30.0869C26.7864 28.8658 24.3233 27.781 22.0306 27.1318ZM8.48663 31.8467C5.05252 31.8075 2.96094 33.561 2.37628 35.2285C2.12993 35.9317 2.22345 36.468 2.49249 36.7285L2.54816 36.7773L2.64581 36.8398C2.89864 36.9764 3.3286 37.0367 3.97296 36.8877C4.70261 36.719 5.67245 36.2882 6.88507 35.4551C7.48163 35.0451 8.07271 34.4823 8.71613 33.8711C9.36895 33.2479 10.0537 32.5983 10.7825 32.1035C10.0448 31.9518 9.17604 31.8546 8.48663 31.8467ZM36.8441 11.8057C38.3955 15.7967 38.439 20.1346 38.0091 23.7236C37.5922 27.2039 36.7274 29.9967 36.345 31.1162C39.8456 32.1422 42.7284 32.4694 43.7249 32.5566C44.7228 31.2213 45.4536 29.2001 45.6849 26.8916C45.9213 24.5312 45.6359 21.89 44.6038 19.4111C43.5016 16.7661 41.29 13.6868 36.8441 11.8057ZM27.3851 10.0996C26.8276 10.3579 24.1072 11.8583 22.3255 17.2129C21.0117 21.1616 19.8448 23.785 19.2073 25.1104C22.6238 25.4352 26.2147 27.0155 30.1478 28.748C30.7615 29.018 31.3894 29.2936 32.0286 29.5713C33.0152 29.9988 33.9944 30.3639 34.9437 30.6807C35.2965 29.6316 36.1709 26.7809 36.5609 23.2617C36.9776 19.501 36.8394 15.0034 34.9505 11.1279C33.4294 10.6656 31.6897 10.3305 29.6985 10.1689C28.9028 10.1049 28.1321 10.0819 27.3851 10.0996ZM24.6165 10.3428C21.7514 10.8172 19.3008 11.9614 17.2923 13.7695C12.8296 17.7855 11.6523 24.09 11.3499 26.7637C12.7111 26.1604 14.0475 25.6697 15.2347 25.3711C16.0203 25.1737 16.8103 25.0749 17.6058 25.0527C18.0829 24.1095 19.4198 21.3136 20.9378 16.75C22.0135 13.516 23.421 11.535 24.6165 10.3428Z" fill="black" stroke="black" stroke-width="0.438356" stroke-linejoin="round"/>
</svg>
