<svg width="53" height="48" viewBox="0 0 53 48" fill="none" xmlns="http://www.w3.org/2000/svg">
<path d="M10.3359 9.4104C11.8164 8.3697 12.7538 8.62563 13.5957 9.82544C14.0685 10.4949 14.4481 11.4893 14.9297 12.7463L15.4775 14.1545C15.6035 14.4682 15.7564 14.7243 15.9287 14.9231C16.2181 15.2545 16.587 15.4406 17.0156 15.4915C17.5106 15.5489 18.0987 15.4404 18.7461 15.1819C19.6521 14.8195 20.6507 14.1693 21.6826 13.2766C22.4779 12.5852 23.4632 12.2428 24.4463 12.2493C25.4339 12.2537 26.4175 12.6117 27.2041 13.3098C28.0349 14.0478 28.9587 14.923 29.9883 15.9172L29.9814 15.9221C30.0123 15.9486 30.0409 15.9775 30.0674 16.0061C30.9932 16.9054 32.0071 17.9044 33.1074 18.9915L33.1104 18.9934L33.125 19.0061L33.1768 19.0569L33.2471 19.1262L35.8301 21.6711L36.2031 22.0334L36.2607 22.0891L36.2764 22.1047C37.3281 23.1034 38.387 23.989 39.4453 24.7756L39.4932 24.8088L39.5088 24.8196C40.3904 25.4692 41.2681 26.0487 42.1387 26.5657C44.4896 27.9532 46.7944 28.8745 48.9707 29.4446C49.9847 29.7097 50.8374 30.2091 51.4561 30.8342C51.9201 31.3071 52.2609 31.858 52.4443 32.4436C52.632 33.0467 52.6588 33.69 52.4932 34.3284C52.3296 34.9536 51.9802 35.5678 51.4258 36.1223L51.3945 36.1536L51.3877 36.1575C49.3659 38.0732 46.1752 39.1386 41.8467 39.2336C37.8098 39.322 32.7432 38.5704 26.6807 36.8801C23.1607 35.8991 20.0826 34.8227 17.3516 33.8704C14.7576 32.9666 12.4815 32.1692 10.502 31.6897C7.70458 31.0114 5.50576 30.2443 3.85742 29.2942C2.10753 28.2889 0.965609 27.0736 0.386719 25.5579C-0.148005 24.1592 -0.141704 22.9109 0.490234 21.7795C1.04043 20.7918 2.0614 19.9459 3.61035 19.219C4.20475 17.4447 4.96425 15.6829 5.9873 14.0588C6.69213 12.9408 7.5212 11.8851 8.5 10.9329L8.51367 10.9172L8.51758 10.9124L8.57324 10.8616C9.11222 10.3447 9.6976 9.85883 10.3359 9.4104ZM3.90039 20.9573C2.92627 21.4653 2.2902 22.0092 1.96094 22.5989C1.59642 23.2528 1.61371 24.0376 1.96484 24.9543C2.40014 26.0923 3.30009 27.0251 4.69434 27.8293C6.19242 28.6932 8.24742 29.4054 10.8945 30.0461C12.9692 30.5499 15.2781 31.3558 17.9053 32.2727C20.6209 33.2206 23.6843 34.29 27.127 35.2512C33.0328 36.8973 37.9334 37.6313 41.8115 37.5452C44.5358 37.4855 46.7299 37.0214 48.3916 36.1907C44.9228 35.8769 41.6218 35.437 38.5352 34.7786C34.7281 33.9699 31.2391 32.8234 28.1523 31.175L26.9697 30.5403C22.7142 28.2578 18.8474 26.1829 14.9473 25.3499L14.9277 25.3459C14.5433 25.2642 14.1608 25.1954 13.7764 25.1379H13.7734C10.9232 24.7181 8.65381 24.1575 6.97656 23.3997C5.5425 22.7523 4.51464 21.9472 3.90039 20.9573ZM12.2051 10.7913C12.0063 10.5108 11.7521 10.4738 11.3037 10.7874C10.8089 11.1364 10.3468 11.5118 9.91602 11.9094V11.9202C9.5669 14.4656 9.83877 16.7084 10.7314 18.6487C11.6131 20.5622 13.1088 22.2086 15.2168 23.5852C15.2763 23.5656 15.3361 23.548 15.3955 23.5295L18.959 24.5481L19.3506 24.7307C19.152 24.7193 18.9538 24.7122 18.7559 24.7122C21.688 25.7904 24.6227 27.3683 27.7627 29.052L28.9424 29.6858C31.8723 31.2502 35.2134 32.3443 38.8789 33.1243C42.454 33.8844 46.3405 34.3505 50.4551 34.6643C50.6517 34.4124 50.7794 34.1555 50.8457 33.9036C50.9296 33.5855 50.9142 33.2567 50.8193 32.9475C50.7155 32.6184 50.5192 32.3001 50.2432 32.0217C49.83 31.6019 49.2461 31.2657 48.5391 31.0823C48.4279 31.0533 48.3168 31.0222 48.2051 30.9915L42.6699 28.8616C42.6967 28.8536 42.7244 28.8482 42.751 28.8401C42.2604 28.586 41.7672 28.3141 41.2744 28.0247C40.4591 27.543 39.6394 27.0055 38.8174 26.4133L35.9688 27.3899C35.5269 27.5399 35.0435 27.3014 34.8955 26.8596C34.7454 26.4178 34.9839 25.9344 35.4258 25.7864L37.2041 25.176C36.6164 24.6966 36.0308 24.1882 35.4453 23.6448L32.8672 24.5266C32.4253 24.6769 31.941 24.4382 31.793 23.9963C31.6427 23.5544 31.8813 23.0702 32.3232 22.9221L34.0752 22.3215L32.3252 20.5959L29.2783 21.6389C28.8366 21.7889 28.3532 21.5502 28.2051 21.1086C28.0548 20.6667 28.2934 20.1825 28.7354 20.0344L30.9775 19.2659C30.3611 18.6582 29.7756 18.0806 29.2188 17.5393L26.083 18.6135C25.6412 18.7636 25.1573 18.5292 25.0049 18.0852C24.8549 17.6434 25.0892 17.1595 25.5332 17.0071L27.8467 16.2141C27.2148 15.6132 26.6226 15.0652 26.0703 14.5725C25.5975 14.1527 25.0137 13.9383 24.4326 13.9338C23.8494 13.9295 23.2595 14.1348 22.7822 14.55C21.6091 15.5685 20.447 16.3152 19.3711 16.7483C18.4608 17.1128 17.5922 17.2632 16.8145 17.1682C15.9682 17.0688 15.2298 16.6954 14.6465 16.0237C14.3505 15.6834 14.1009 15.2658 13.9043 14.7776L13.3428 13.3411C12.9031 12.1923 12.5542 11.2862 12.2051 10.7913ZM8.07031 13.9934C7.8384 14.3093 7.61975 14.634 7.41211 14.9631C6.4598 16.4767 5.74823 18.1294 5.19141 19.802C5.58251 20.6107 6.41343 21.2869 7.67285 21.8547C8.77015 22.3493 10.172 22.7573 11.876 23.093C10.7178 21.9737 9.8246 20.7283 9.19336 19.3577C8.44442 17.7337 8.07035 15.9465 8.07031 13.9934Z" fill="black"/>
</svg>
