<svg width="48" height="48" viewBox="0 0 48 48" fill="none" xmlns="http://www.w3.org/2000/svg">
<mask id="path-1-outside-1_1112_23717" maskUnits="userSpaceOnUse" x="4.47758" y="4.91577" width="39" height="39" fill="black">
<rect fill="white" x="4.47758" y="4.91577" width="39" height="39"/>
<path d="M16.6847 24.0763C16.6614 23.9581 16.5987 23.8506 16.5073 23.77C16.1347 23.4422 15.3107 23.0516 14.372 23.3544C14.166 22.3906 13.4155 21.8711 12.9443 21.7135C12.8296 21.6741 12.706 21.6741 12.5914 21.7135C12.1203 21.8729 11.3697 22.3906 11.1637 23.3544C10.225 23.0498 9.40091 23.4422 9.02835 23.77C8.93699 23.8506 8.87608 23.9581 8.851 24.0763C8.75248 24.5636 8.82592 25.4718 9.55861 26.1328C8.8277 26.7938 8.75428 27.7021 8.851 28.1893C8.87429 28.3076 8.93699 28.4151 9.02835 28.4957C9.40095 28.8235 10.225 29.214 11.1637 28.9113C11.3697 29.8751 12.1202 30.3945 12.5914 30.5522C12.6487 30.5719 12.7078 30.5808 12.7687 30.5808C12.8279 30.5808 12.8888 30.5719 12.9461 30.5522C13.4172 30.3945 14.1678 29.875 14.3738 28.9113C15.3107 29.214 16.1347 28.8235 16.5091 28.4957C16.6005 28.4151 16.6614 28.3076 16.6865 28.1893C16.785 27.7021 16.7116 26.7938 15.9789 26.1328C16.7098 25.4718 16.785 24.5636 16.6865 24.0763H16.6847ZM14.1893 27.5552C14.0102 27.4083 13.7594 27.3868 13.5587 27.5032C13.3581 27.6179 13.2506 27.8471 13.2882 28.0747C13.4226 28.8808 13.0249 29.2587 12.7669 29.4146C12.5072 29.257 12.1113 28.879 12.2457 28.0747C12.2833 27.8472 12.1758 27.6196 11.9752 27.5032C11.8892 27.453 11.7924 27.4298 11.6975 27.4298C11.5721 27.4298 11.4467 27.4727 11.3446 27.5569C10.714 28.0746 10.1892 27.9206 9.92401 27.7755C9.93118 27.471 10.0602 26.9407 10.8233 26.6541C11.04 26.5735 11.1833 26.3657 11.1833 26.1346C11.1833 25.9035 11.04 25.6957 10.8233 25.6151C10.0583 25.3285 9.93117 24.7946 9.92401 24.4937C10.1802 24.354 10.7122 24.1927 11.3446 24.7122C11.5237 24.8591 11.7745 24.8788 11.9752 24.7642C12.1758 24.6478 12.2833 24.4203 12.2457 24.1927C12.1113 23.3884 12.509 23.0104 12.7669 22.8528C13.0267 23.0104 13.4226 23.3884 13.2882 24.1927C13.2506 24.4202 13.3581 24.6478 13.5587 24.7642C13.7594 24.8788 14.0102 24.8591 14.1893 24.7122C14.8199 24.1945 15.3447 24.3486 15.6099 24.4937C15.6027 24.7982 15.4737 25.3285 14.7106 25.6151C14.4939 25.6957 14.3506 25.9035 14.3506 26.1346C14.3506 26.3657 14.4939 26.5735 14.7106 26.6541C15.4756 26.9407 15.6045 27.4746 15.6099 27.7755C15.3537 27.9152 14.8216 28.0782 14.1893 27.5569V27.5552ZM37.024 33.2591C37.0008 33.1409 36.9381 33.0334 36.8467 32.9528C36.4741 32.625 35.6518 32.2345 34.7114 32.5372C34.5054 31.5734 33.7548 31.0557 33.2837 30.8963C33.169 30.8587 33.0454 30.8569 32.9308 30.8963C32.4596 31.054 31.709 31.5735 31.503 32.5372C30.5661 32.2345 29.7421 32.625 29.3677 32.9528C29.2763 33.0334 29.2154 33.1409 29.1904 33.2591C29.0918 33.7464 29.1653 34.6546 29.898 35.3157C29.1671 35.9767 29.0919 36.8849 29.1904 37.3722C29.2137 37.4904 29.2763 37.5979 29.3677 37.6785C29.7403 38.0063 30.5662 38.3986 31.503 38.0941C31.709 39.0579 32.4596 39.5774 32.9308 39.735C32.9881 39.7547 33.0472 39.7637 33.1081 39.7637C33.1672 39.7637 33.2281 39.7547 33.2855 39.735C33.7566 39.5756 34.5072 39.0578 34.7132 38.0941C35.6519 38.3986 36.4759 38.0063 36.8485 37.6785C36.9399 37.5979 37.0008 37.4904 37.0258 37.3722C37.1244 36.8849 37.0509 35.9767 36.3182 35.3157C37.0491 34.6546 37.1226 33.7464 37.0258 33.2591H37.024ZM34.5287 36.738C34.3495 36.5911 34.0987 36.5696 33.8981 36.686C33.6975 36.8025 33.59 37.03 33.6276 37.2575C33.7619 38.0618 33.3643 38.4398 33.1063 38.5975C32.8466 38.4398 32.4507 38.0618 32.585 37.2575C32.6226 37.03 32.5152 36.8025 32.3145 36.686C32.2285 36.6359 32.1318 36.6126 32.0369 36.6126C31.9115 36.6126 31.7861 36.6556 31.684 36.7398C31.0534 37.2575 30.5285 37.1034 30.2634 36.9583C30.2705 36.6538 30.3995 36.1235 31.1626 35.8369C31.3794 35.7563 31.5227 35.5485 31.5227 35.3174C31.5227 35.0863 31.3794 34.8785 31.1626 34.7979C30.3977 34.5113 30.2687 33.9775 30.2634 33.6765C30.5195 33.5386 31.0516 33.3756 31.684 33.8951C31.8631 34.042 32.1139 34.0635 32.3145 33.947C32.5152 33.8306 32.6226 33.6031 32.585 33.3756C32.4507 32.5695 32.8484 32.1933 33.1063 32.0356C33.3553 32.1879 33.762 32.5677 33.6276 33.3756C33.59 33.6031 33.6975 33.8306 33.8981 33.947C34.0987 34.0635 34.3495 34.042 34.5287 33.8951C35.1592 33.3756 35.6859 33.5314 35.9492 33.6765C35.9439 33.9811 35.8131 34.5113 35.05 34.7979C34.8332 34.8785 34.6899 35.0863 34.6899 35.3174C34.6899 35.5485 34.8332 35.7563 35.05 35.8369C35.8149 36.1235 35.9421 36.6574 35.9492 36.9565C35.6841 37.1034 35.1592 37.2557 34.5287 36.738ZM42.1422 26.4843C42.0007 22.9373 41.5278 19.3834 40.736 15.9224L39.7185 11.478V6.47108C39.7185 6.16476 39.4695 5.91577 39.1632 5.91577L9.0519 5.91756C8.74557 5.91756 8.49659 6.16657 8.49659 6.47287V11.4798L7.47906 15.9242C6.68725 19.3852 6.21435 22.9393 6.07283 26.4861L5.47808 41.4261C5.46554 41.7253 5.69483 41.9815 5.99399 42.0012L22.7794 43.1781C23.0768 43.1978 23.3455 42.9739 23.3706 42.6729L24.1087 34.155L24.8467 42.6729C24.8718 42.9613 25.1136 43.1799 25.3985 43.1799C25.411 43.1799 25.4253 43.1799 25.4379 43.1781L42.2233 42.0012C42.5225 41.9797 42.7518 41.7253 42.7392 41.4261L42.1445 26.4861L42.1422 26.4843ZM39.7239 26.3141C39.5232 26.1995 39.2724 26.2192 39.0933 26.3661C38.4627 26.8838 37.9379 26.7297 37.6727 26.5846C37.6799 26.2801 37.8089 25.7498 38.572 25.4632C38.7887 25.3826 38.9321 25.1748 38.9321 24.9437C38.9321 24.7126 38.7887 24.5048 38.572 24.4242C37.8071 24.1376 37.6781 23.6037 37.6727 23.3028C37.9289 23.1649 38.461 23.0001 39.0933 23.5214C39.2724 23.6683 39.5232 23.688 39.7239 23.5733C39.9245 23.4587 40.032 23.2294 39.9944 23.0019C39.8618 22.2011 40.2541 21.8231 40.5103 21.6655C40.5497 21.6906 40.5927 21.721 40.6375 21.755C40.8363 23.3404 40.9707 24.9347 41.0352 26.5272L41.0638 27.2419C41.0477 27.8009 40.727 28.0911 40.5157 28.2236C40.2559 28.0642 39.8636 27.688 39.9962 26.8854C40.0338 26.6579 39.9263 26.4304 39.7257 26.314L39.7239 26.3141ZM38.6096 10.987H27.3273C27.1088 9.68647 26.935 8.90539 26.9296 8.88393C26.8615 8.58477 26.5642 8.39846 26.2668 8.46475C25.9677 8.53282 25.7796 8.83019 25.8476 9.12755C25.8512 9.14726 26.0053 9.83159 26.2023 10.9852H24.6635V7.02628H38.6094L38.6096 10.987ZM9.60725 7.02805H23.5531V10.987H22.0143C22.2113 9.83336 22.3654 9.14904 22.369 9.12932C22.437 8.83017 22.2489 8.53279 21.9498 8.46652C21.6506 8.39845 21.3532 8.58654 21.287 8.8857C21.2816 8.9072 21.1078 9.68645 20.8893 10.9888H9.60697L9.60725 7.02805ZM13.6737 39.6492C12.9088 39.3626 12.7816 38.8287 12.7744 38.5296C13.0396 38.3827 13.5645 38.2286 14.195 38.7481C14.3742 38.895 14.625 38.9147 14.8256 38.8001C15.0262 38.6836 15.1337 38.4561 15.0961 38.2286C14.9617 37.4243 15.3594 37.0463 15.6174 36.8904C15.8771 37.0481 16.273 37.4261 16.1387 38.2286C16.101 38.4561 16.2085 38.6836 16.4092 38.8001C16.6098 38.9165 16.8606 38.895 17.0397 38.7481C17.6703 38.2304 18.1951 38.3845 18.4603 38.5296C18.4531 38.8341 18.3242 39.3644 17.561 39.651C17.3443 39.7316 17.201 39.9394 17.201 40.1705C17.201 40.4016 17.3443 40.6094 17.561 40.69C18.2883 40.9623 18.4388 41.4567 18.4567 41.763L12.8821 41.3725C12.9967 41.1127 13.2278 40.8583 13.6774 40.6899C13.8942 40.6093 14.0375 40.4015 14.0375 40.1704C14.0375 39.9394 13.8942 39.7316 13.6774 39.651L13.6737 39.6492ZM25.9035 42.0335L24.6603 27.6704C24.6352 27.3837 24.3951 27.1634 24.1067 27.1634C23.8183 27.1634 23.5783 27.3837 23.5532 27.6704L22.31 42.0335L19.562 41.84C19.5602 41.342 19.3901 40.681 18.8222 40.1687C19.5531 39.5077 19.6283 38.5994 19.5298 38.1122C19.5065 37.9939 19.4438 37.8865 19.3525 37.8059C18.9798 37.478 18.1558 37.0857 17.2171 37.3902C17.0111 36.4265 16.2606 35.907 15.7894 35.7494C15.6748 35.7099 15.5512 35.7099 15.4365 35.7494C14.9654 35.9088 14.2148 36.4265 14.0088 37.3902C13.0701 37.0857 12.2479 37.478 11.8735 37.8059C11.7821 37.8865 11.7212 37.9939 11.6961 38.1122C11.5976 38.5994 11.671 39.5077 12.4001 40.1669C12.0043 40.5216 11.8198 40.9354 11.7338 41.2919L6.60302 40.9318L7.17805 26.5311C7.31599 23.0522 7.78174 19.5678 8.55741 16.1733L9.4889 12.0997H20.7066C20.359 14.4069 19.9846 17.7298 19.9846 21.3091C19.9846 21.6155 20.2336 21.8645 20.54 21.8645C20.8463 21.8645 21.0953 21.6154 21.0953 21.3091C21.0953 17.7049 21.4822 14.3656 21.8298 12.0997H26.3763C26.7238 14.3658 27.1108 17.7051 27.1108 21.3091C27.1108 21.6155 27.3598 21.8645 27.6661 21.8645C27.9724 21.8645 28.2214 21.6154 28.2214 21.3091C28.2214 17.73 27.8452 14.4068 27.4995 12.0997H38.7171L39.6486 16.1733C39.9765 17.6046 40.2452 19.052 40.4601 20.5066C40.4171 20.5102 40.3741 20.5138 40.3329 20.5281C39.8618 20.6857 39.1112 21.2053 38.9052 22.169C37.9683 21.8645 37.1425 22.2568 36.7699 22.5846C36.6785 22.6652 36.6176 22.7727 36.5925 22.8909C36.494 23.3782 36.5675 24.2864 37.3002 24.9474C36.5675 25.6085 36.494 26.5167 36.5925 27.004C36.6158 27.1222 36.6785 27.2297 36.7699 27.3103C37.1425 27.6399 37.9683 28.0304 38.9052 27.7259C39.1112 28.6897 39.8618 29.2092 40.3329 29.3668C40.3903 29.3865 40.4494 29.3954 40.5103 29.3954C40.5694 29.3954 40.6303 29.3865 40.6876 29.3668C40.7091 29.3596 40.8972 29.2915 41.1337 29.1393L41.603 40.9338L25.8998 42.0355L25.9035 42.0335Z"/>
</mask>
<path d="M16.6847 24.0763C16.6614 23.9581 16.5987 23.8506 16.5073 23.77C16.1347 23.4422 15.3107 23.0516 14.372 23.3544C14.166 22.3906 13.4155 21.8711 12.9443 21.7135C12.8296 21.6741 12.706 21.6741 12.5914 21.7135C12.1203 21.8729 11.3697 22.3906 11.1637 23.3544C10.225 23.0498 9.40091 23.4422 9.02835 23.77C8.93699 23.8506 8.87608 23.9581 8.851 24.0763C8.75248 24.5636 8.82592 25.4718 9.55861 26.1328C8.8277 26.7938 8.75428 27.7021 8.851 28.1893C8.87429 28.3076 8.93699 28.4151 9.02835 28.4957C9.40095 28.8235 10.225 29.214 11.1637 28.9113C11.3697 29.8751 12.1202 30.3945 12.5914 30.5522C12.6487 30.5719 12.7078 30.5808 12.7687 30.5808C12.8279 30.5808 12.8888 30.5719 12.9461 30.5522C13.4172 30.3945 14.1678 29.875 14.3738 28.9113C15.3107 29.214 16.1347 28.8235 16.5091 28.4957C16.6005 28.4151 16.6614 28.3076 16.6865 28.1893C16.785 27.7021 16.7116 26.7938 15.9789 26.1328C16.7098 25.4718 16.785 24.5636 16.6865 24.0763H16.6847ZM14.1893 27.5552C14.0102 27.4083 13.7594 27.3868 13.5587 27.5032C13.3581 27.6179 13.2506 27.8471 13.2882 28.0747C13.4226 28.8808 13.0249 29.2587 12.7669 29.4146C12.5072 29.257 12.1113 28.879 12.2457 28.0747C12.2833 27.8472 12.1758 27.6196 11.9752 27.5032C11.8892 27.453 11.7924 27.4298 11.6975 27.4298C11.5721 27.4298 11.4467 27.4727 11.3446 27.5569C10.714 28.0746 10.1892 27.9206 9.92401 27.7755C9.93118 27.471 10.0602 26.9407 10.8233 26.6541C11.04 26.5735 11.1833 26.3657 11.1833 26.1346C11.1833 25.9035 11.04 25.6957 10.8233 25.6151C10.0583 25.3285 9.93117 24.7946 9.92401 24.4937C10.1802 24.354 10.7122 24.1927 11.3446 24.7122C11.5237 24.8591 11.7745 24.8788 11.9752 24.7642C12.1758 24.6478 12.2833 24.4203 12.2457 24.1927C12.1113 23.3884 12.509 23.0104 12.7669 22.8528C13.0267 23.0104 13.4226 23.3884 13.2882 24.1927C13.2506 24.4202 13.3581 24.6478 13.5587 24.7642C13.7594 24.8788 14.0102 24.8591 14.1893 24.7122C14.8199 24.1945 15.3447 24.3486 15.6099 24.4937C15.6027 24.7982 15.4737 25.3285 14.7106 25.6151C14.4939 25.6957 14.3506 25.9035 14.3506 26.1346C14.3506 26.3657 14.4939 26.5735 14.7106 26.6541C15.4756 26.9407 15.6045 27.4746 15.6099 27.7755C15.3537 27.9152 14.8216 28.0782 14.1893 27.5569V27.5552ZM37.024 33.2591C37.0008 33.1409 36.9381 33.0334 36.8467 32.9528C36.4741 32.625 35.6518 32.2345 34.7114 32.5372C34.5054 31.5734 33.7548 31.0557 33.2837 30.8963C33.169 30.8587 33.0454 30.8569 32.9308 30.8963C32.4596 31.054 31.709 31.5735 31.503 32.5372C30.5661 32.2345 29.7421 32.625 29.3677 32.9528C29.2763 33.0334 29.2154 33.1409 29.1904 33.2591C29.0918 33.7464 29.1653 34.6546 29.898 35.3157C29.1671 35.9767 29.0919 36.8849 29.1904 37.3722C29.2137 37.4904 29.2763 37.5979 29.3677 37.6785C29.7403 38.0063 30.5662 38.3986 31.503 38.0941C31.709 39.0579 32.4596 39.5774 32.9308 39.735C32.9881 39.7547 33.0472 39.7637 33.1081 39.7637C33.1672 39.7637 33.2281 39.7547 33.2855 39.735C33.7566 39.5756 34.5072 39.0578 34.7132 38.0941C35.6519 38.3986 36.4759 38.0063 36.8485 37.6785C36.9399 37.5979 37.0008 37.4904 37.0258 37.3722C37.1244 36.8849 37.0509 35.9767 36.3182 35.3157C37.0491 34.6546 37.1226 33.7464 37.0258 33.2591H37.024ZM34.5287 36.738C34.3495 36.5911 34.0987 36.5696 33.8981 36.686C33.6975 36.8025 33.59 37.03 33.6276 37.2575C33.7619 38.0618 33.3643 38.4398 33.1063 38.5975C32.8466 38.4398 32.4507 38.0618 32.585 37.2575C32.6226 37.03 32.5152 36.8025 32.3145 36.686C32.2285 36.6359 32.1318 36.6126 32.0369 36.6126C31.9115 36.6126 31.7861 36.6556 31.684 36.7398C31.0534 37.2575 30.5285 37.1034 30.2634 36.9583C30.2705 36.6538 30.3995 36.1235 31.1626 35.8369C31.3794 35.7563 31.5227 35.5485 31.5227 35.3174C31.5227 35.0863 31.3794 34.8785 31.1626 34.7979C30.3977 34.5113 30.2687 33.9775 30.2634 33.6765C30.5195 33.5386 31.0516 33.3756 31.684 33.8951C31.8631 34.042 32.1139 34.0635 32.3145 33.947C32.5152 33.8306 32.6226 33.6031 32.585 33.3756C32.4507 32.5695 32.8484 32.1933 33.1063 32.0356C33.3553 32.1879 33.762 32.5677 33.6276 33.3756C33.59 33.6031 33.6975 33.8306 33.8981 33.947C34.0987 34.0635 34.3495 34.042 34.5287 33.8951C35.1592 33.3756 35.6859 33.5314 35.9492 33.6765C35.9439 33.9811 35.8131 34.5113 35.05 34.7979C34.8332 34.8785 34.6899 35.0863 34.6899 35.3174C34.6899 35.5485 34.8332 35.7563 35.05 35.8369C35.8149 36.1235 35.9421 36.6574 35.9492 36.9565C35.6841 37.1034 35.1592 37.2557 34.5287 36.738ZM42.1422 26.4843C42.0007 22.9373 41.5278 19.3834 40.736 15.9224L39.7185 11.478V6.47108C39.7185 6.16476 39.4695 5.91577 39.1632 5.91577L9.0519 5.91756C8.74557 5.91756 8.49659 6.16657 8.49659 6.47287V11.4798L7.47906 15.9242C6.68725 19.3852 6.21435 22.9393 6.07283 26.4861L5.47808 41.4261C5.46554 41.7253 5.69483 41.9815 5.99399 42.0012L22.7794 43.1781C23.0768 43.1978 23.3455 42.9739 23.3706 42.6729L24.1087 34.155L24.8467 42.6729C24.8718 42.9613 25.1136 43.1799 25.3985 43.1799C25.411 43.1799 25.4253 43.1799 25.4379 43.1781L42.2233 42.0012C42.5225 41.9797 42.7518 41.7253 42.7392 41.4261L42.1445 26.4861L42.1422 26.4843ZM39.7239 26.3141C39.5232 26.1995 39.2724 26.2192 39.0933 26.3661C38.4627 26.8838 37.9379 26.7297 37.6727 26.5846C37.6799 26.2801 37.8089 25.7498 38.572 25.4632C38.7887 25.3826 38.9321 25.1748 38.9321 24.9437C38.9321 24.7126 38.7887 24.5048 38.572 24.4242C37.8071 24.1376 37.6781 23.6037 37.6727 23.3028C37.9289 23.1649 38.461 23.0001 39.0933 23.5214C39.2724 23.6683 39.5232 23.688 39.7239 23.5733C39.9245 23.4587 40.032 23.2294 39.9944 23.0019C39.8618 22.2011 40.2541 21.8231 40.5103 21.6655C40.5497 21.6906 40.5927 21.721 40.6375 21.755C40.8363 23.3404 40.9707 24.9347 41.0352 26.5272L41.0638 27.2419C41.0477 27.8009 40.727 28.0911 40.5157 28.2236C40.2559 28.0642 39.8636 27.688 39.9962 26.8854C40.0338 26.6579 39.9263 26.4304 39.7257 26.314L39.7239 26.3141ZM38.6096 10.987H27.3273C27.1088 9.68647 26.935 8.90539 26.9296 8.88393C26.8615 8.58477 26.5642 8.39846 26.2668 8.46475C25.9677 8.53282 25.7796 8.83019 25.8476 9.12755C25.8512 9.14726 26.0053 9.83159 26.2023 10.9852H24.6635V7.02628H38.6094L38.6096 10.987ZM9.60725 7.02805H23.5531V10.987H22.0143C22.2113 9.83336 22.3654 9.14904 22.369 9.12932C22.437 8.83017 22.2489 8.53279 21.9498 8.46652C21.6506 8.39845 21.3532 8.58654 21.287 8.8857C21.2816 8.9072 21.1078 9.68645 20.8893 10.9888H9.60697L9.60725 7.02805ZM13.6737 39.6492C12.9088 39.3626 12.7816 38.8287 12.7744 38.5296C13.0396 38.3827 13.5645 38.2286 14.195 38.7481C14.3742 38.895 14.625 38.9147 14.8256 38.8001C15.0262 38.6836 15.1337 38.4561 15.0961 38.2286C14.9617 37.4243 15.3594 37.0463 15.6174 36.8904C15.8771 37.0481 16.273 37.4261 16.1387 38.2286C16.101 38.4561 16.2085 38.6836 16.4092 38.8001C16.6098 38.9165 16.8606 38.895 17.0397 38.7481C17.6703 38.2304 18.1951 38.3845 18.4603 38.5296C18.4531 38.8341 18.3242 39.3644 17.561 39.651C17.3443 39.7316 17.201 39.9394 17.201 40.1705C17.201 40.4016 17.3443 40.6094 17.561 40.69C18.2883 40.9623 18.4388 41.4567 18.4567 41.763L12.8821 41.3725C12.9967 41.1127 13.2278 40.8583 13.6774 40.6899C13.8942 40.6093 14.0375 40.4015 14.0375 40.1704C14.0375 39.9394 13.8942 39.7316 13.6774 39.651L13.6737 39.6492ZM25.9035 42.0335L24.6603 27.6704C24.6352 27.3837 24.3951 27.1634 24.1067 27.1634C23.8183 27.1634 23.5783 27.3837 23.5532 27.6704L22.31 42.0335L19.562 41.84C19.5602 41.342 19.3901 40.681 18.8222 40.1687C19.5531 39.5077 19.6283 38.5994 19.5298 38.1122C19.5065 37.9939 19.4438 37.8865 19.3525 37.8059C18.9798 37.478 18.1558 37.0857 17.2171 37.3902C17.0111 36.4265 16.2606 35.907 15.7894 35.7494C15.6748 35.7099 15.5512 35.7099 15.4365 35.7494C14.9654 35.9088 14.2148 36.4265 14.0088 37.3902C13.0701 37.0857 12.2479 37.478 11.8735 37.8059C11.7821 37.8865 11.7212 37.9939 11.6961 38.1122C11.5976 38.5994 11.671 39.5077 12.4001 40.1669C12.0043 40.5216 11.8198 40.9354 11.7338 41.2919L6.60302 40.9318L7.17805 26.5311C7.31599 23.0522 7.78174 19.5678 8.55741 16.1733L9.4889 12.0997H20.7066C20.359 14.4069 19.9846 17.7298 19.9846 21.3091C19.9846 21.6155 20.2336 21.8645 20.54 21.8645C20.8463 21.8645 21.0953 21.6154 21.0953 21.3091C21.0953 17.7049 21.4822 14.3656 21.8298 12.0997H26.3763C26.7238 14.3658 27.1108 17.7051 27.1108 21.3091C27.1108 21.6155 27.3598 21.8645 27.6661 21.8645C27.9724 21.8645 28.2214 21.6154 28.2214 21.3091C28.2214 17.73 27.8452 14.4068 27.4995 12.0997H38.7171L39.6486 16.1733C39.9765 17.6046 40.2452 19.052 40.4601 20.5066C40.4171 20.5102 40.3741 20.5138 40.3329 20.5281C39.8618 20.6857 39.1112 21.2053 38.9052 22.169C37.9683 21.8645 37.1425 22.2568 36.7699 22.5846C36.6785 22.6652 36.6176 22.7727 36.5925 22.8909C36.494 23.3782 36.5675 24.2864 37.3002 24.9474C36.5675 25.6085 36.494 26.5167 36.5925 27.004C36.6158 27.1222 36.6785 27.2297 36.7699 27.3103C37.1425 27.6399 37.9683 28.0304 38.9052 27.7259C39.1112 28.6897 39.8618 29.2092 40.3329 29.3668C40.3903 29.3865 40.4494 29.3954 40.5103 29.3954C40.5694 29.3954 40.6303 29.3865 40.6876 29.3668C40.7091 29.3596 40.8972 29.2915 41.1337 29.1393L41.603 40.9338L25.8998 42.0355L25.9035 42.0335Z" fill="black"/>
<path d="M16.6847 24.0763C16.6614 23.9581 16.5987 23.8506 16.5073 23.77C16.1347 23.4422 15.3107 23.0516 14.372 23.3544C14.166 22.3906 13.4155 21.8711 12.9443 21.7135C12.8296 21.6741 12.706 21.6741 12.5914 21.7135C12.1203 21.8729 11.3697 22.3906 11.1637 23.3544C10.225 23.0498 9.40091 23.4422 9.02835 23.77C8.93699 23.8506 8.87608 23.9581 8.851 24.0763C8.75248 24.5636 8.82592 25.4718 9.55861 26.1328C8.8277 26.7938 8.75428 27.7021 8.851 28.1893C8.87429 28.3076 8.93699 28.4151 9.02835 28.4957C9.40095 28.8235 10.225 29.214 11.1637 28.9113C11.3697 29.8751 12.1202 30.3945 12.5914 30.5522C12.6487 30.5719 12.7078 30.5808 12.7687 30.5808C12.8279 30.5808 12.8888 30.5719 12.9461 30.5522C13.4172 30.3945 14.1678 29.875 14.3738 28.9113C15.3107 29.214 16.1347 28.8235 16.5091 28.4957C16.6005 28.4151 16.6614 28.3076 16.6865 28.1893C16.785 27.7021 16.7116 26.7938 15.9789 26.1328C16.7098 25.4718 16.785 24.5636 16.6865 24.0763H16.6847ZM14.1893 27.5552C14.0102 27.4083 13.7594 27.3868 13.5587 27.5032C13.3581 27.6179 13.2506 27.8471 13.2882 28.0747C13.4226 28.8808 13.0249 29.2587 12.7669 29.4146C12.5072 29.257 12.1113 28.879 12.2457 28.0747C12.2833 27.8472 12.1758 27.6196 11.9752 27.5032C11.8892 27.453 11.7924 27.4298 11.6975 27.4298C11.5721 27.4298 11.4467 27.4727 11.3446 27.5569C10.714 28.0746 10.1892 27.9206 9.92401 27.7755C9.93118 27.471 10.0602 26.9407 10.8233 26.6541C11.04 26.5735 11.1833 26.3657 11.1833 26.1346C11.1833 25.9035 11.04 25.6957 10.8233 25.6151C10.0583 25.3285 9.93117 24.7946 9.92401 24.4937C10.1802 24.354 10.7122 24.1927 11.3446 24.7122C11.5237 24.8591 11.7745 24.8788 11.9752 24.7642C12.1758 24.6478 12.2833 24.4203 12.2457 24.1927C12.1113 23.3884 12.509 23.0104 12.7669 22.8528C13.0267 23.0104 13.4226 23.3884 13.2882 24.1927C13.2506 24.4202 13.3581 24.6478 13.5587 24.7642C13.7594 24.8788 14.0102 24.8591 14.1893 24.7122C14.8199 24.1945 15.3447 24.3486 15.6099 24.4937C15.6027 24.7982 15.4737 25.3285 14.7106 25.6151C14.4939 25.6957 14.3506 25.9035 14.3506 26.1346C14.3506 26.3657 14.4939 26.5735 14.7106 26.6541C15.4756 26.9407 15.6045 27.4746 15.6099 27.7755C15.3537 27.9152 14.8216 28.0782 14.1893 27.5569V27.5552ZM37.024 33.2591C37.0008 33.1409 36.9381 33.0334 36.8467 32.9528C36.4741 32.625 35.6518 32.2345 34.7114 32.5372C34.5054 31.5734 33.7548 31.0557 33.2837 30.8963C33.169 30.8587 33.0454 30.8569 32.9308 30.8963C32.4596 31.054 31.709 31.5735 31.503 32.5372C30.5661 32.2345 29.7421 32.625 29.3677 32.9528C29.2763 33.0334 29.2154 33.1409 29.1904 33.2591C29.0918 33.7464 29.1653 34.6546 29.898 35.3157C29.1671 35.9767 29.0919 36.8849 29.1904 37.3722C29.2137 37.4904 29.2763 37.5979 29.3677 37.6785C29.7403 38.0063 30.5662 38.3986 31.503 38.0941C31.709 39.0579 32.4596 39.5774 32.9308 39.735C32.9881 39.7547 33.0472 39.7637 33.1081 39.7637C33.1672 39.7637 33.2281 39.7547 33.2855 39.735C33.7566 39.5756 34.5072 39.0578 34.7132 38.0941C35.6519 38.3986 36.4759 38.0063 36.8485 37.6785C36.9399 37.5979 37.0008 37.4904 37.0258 37.3722C37.1244 36.8849 37.0509 35.9767 36.3182 35.3157C37.0491 34.6546 37.1226 33.7464 37.0258 33.2591H37.024ZM34.5287 36.738C34.3495 36.5911 34.0987 36.5696 33.8981 36.686C33.6975 36.8025 33.59 37.03 33.6276 37.2575C33.7619 38.0618 33.3643 38.4398 33.1063 38.5975C32.8466 38.4398 32.4507 38.0618 32.585 37.2575C32.6226 37.03 32.5152 36.8025 32.3145 36.686C32.2285 36.6359 32.1318 36.6126 32.0369 36.6126C31.9115 36.6126 31.7861 36.6556 31.684 36.7398C31.0534 37.2575 30.5285 37.1034 30.2634 36.9583C30.2705 36.6538 30.3995 36.1235 31.1626 35.8369C31.3794 35.7563 31.5227 35.5485 31.5227 35.3174C31.5227 35.0863 31.3794 34.8785 31.1626 34.7979C30.3977 34.5113 30.2687 33.9775 30.2634 33.6765C30.5195 33.5386 31.0516 33.3756 31.684 33.8951C31.8631 34.042 32.1139 34.0635 32.3145 33.947C32.5152 33.8306 32.6226 33.6031 32.585 33.3756C32.4507 32.5695 32.8484 32.1933 33.1063 32.0356C33.3553 32.1879 33.762 32.5677 33.6276 33.3756C33.59 33.6031 33.6975 33.8306 33.8981 33.947C34.0987 34.0635 34.3495 34.042 34.5287 33.8951C35.1592 33.3756 35.6859 33.5314 35.9492 33.6765C35.9439 33.9811 35.8131 34.5113 35.05 34.7979C34.8332 34.8785 34.6899 35.0863 34.6899 35.3174C34.6899 35.5485 34.8332 35.7563 35.05 35.8369C35.8149 36.1235 35.9421 36.6574 35.9492 36.9565C35.6841 37.1034 35.1592 37.2557 34.5287 36.738ZM42.1422 26.4843C42.0007 22.9373 41.5278 19.3834 40.736 15.9224L39.7185 11.478V6.47108C39.7185 6.16476 39.4695 5.91577 39.1632 5.91577L9.0519 5.91756C8.74557 5.91756 8.49659 6.16657 8.49659 6.47287V11.4798L7.47906 15.9242C6.68725 19.3852 6.21435 22.9393 6.07283 26.4861L5.47808 41.4261C5.46554 41.7253 5.69483 41.9815 5.99399 42.0012L22.7794 43.1781C23.0768 43.1978 23.3455 42.9739 23.3706 42.6729L24.1087 34.155L24.8467 42.6729C24.8718 42.9613 25.1136 43.1799 25.3985 43.1799C25.411 43.1799 25.4253 43.1799 25.4379 43.1781L42.2233 42.0012C42.5225 41.9797 42.7518 41.7253 42.7392 41.4261L42.1445 26.4861L42.1422 26.4843ZM39.7239 26.3141C39.5232 26.1995 39.2724 26.2192 39.0933 26.3661C38.4627 26.8838 37.9379 26.7297 37.6727 26.5846C37.6799 26.2801 37.8089 25.7498 38.572 25.4632C38.7887 25.3826 38.9321 25.1748 38.9321 24.9437C38.9321 24.7126 38.7887 24.5048 38.572 24.4242C37.8071 24.1376 37.6781 23.6037 37.6727 23.3028C37.9289 23.1649 38.461 23.0001 39.0933 23.5214C39.2724 23.6683 39.5232 23.688 39.7239 23.5733C39.9245 23.4587 40.032 23.2294 39.9944 23.0019C39.8618 22.2011 40.2541 21.8231 40.5103 21.6655C40.5497 21.6906 40.5927 21.721 40.6375 21.755C40.8363 23.3404 40.9707 24.9347 41.0352 26.5272L41.0638 27.2419C41.0477 27.8009 40.727 28.0911 40.5157 28.2236C40.2559 28.0642 39.8636 27.688 39.9962 26.8854C40.0338 26.6579 39.9263 26.4304 39.7257 26.314L39.7239 26.3141ZM38.6096 10.987H27.3273C27.1088 9.68647 26.935 8.90539 26.9296 8.88393C26.8615 8.58477 26.5642 8.39846 26.2668 8.46475C25.9677 8.53282 25.7796 8.83019 25.8476 9.12755C25.8512 9.14726 26.0053 9.83159 26.2023 10.9852H24.6635V7.02628H38.6094L38.6096 10.987ZM9.60725 7.02805H23.5531V10.987H22.0143C22.2113 9.83336 22.3654 9.14904 22.369 9.12932C22.437 8.83017 22.2489 8.53279 21.9498 8.46652C21.6506 8.39845 21.3532 8.58654 21.287 8.8857C21.2816 8.9072 21.1078 9.68645 20.8893 10.9888H9.60697L9.60725 7.02805ZM13.6737 39.6492C12.9088 39.3626 12.7816 38.8287 12.7744 38.5296C13.0396 38.3827 13.5645 38.2286 14.195 38.7481C14.3742 38.895 14.625 38.9147 14.8256 38.8001C15.0262 38.6836 15.1337 38.4561 15.0961 38.2286C14.9617 37.4243 15.3594 37.0463 15.6174 36.8904C15.8771 37.0481 16.273 37.4261 16.1387 38.2286C16.101 38.4561 16.2085 38.6836 16.4092 38.8001C16.6098 38.9165 16.8606 38.895 17.0397 38.7481C17.6703 38.2304 18.1951 38.3845 18.4603 38.5296C18.4531 38.8341 18.3242 39.3644 17.561 39.651C17.3443 39.7316 17.201 39.9394 17.201 40.1705C17.201 40.4016 17.3443 40.6094 17.561 40.69C18.2883 40.9623 18.4388 41.4567 18.4567 41.763L12.8821 41.3725C12.9967 41.1127 13.2278 40.8583 13.6774 40.6899C13.8942 40.6093 14.0375 40.4015 14.0375 40.1704C14.0375 39.9394 13.8942 39.7316 13.6774 39.651L13.6737 39.6492ZM25.9035 42.0335L24.6603 27.6704C24.6352 27.3837 24.3951 27.1634 24.1067 27.1634C23.8183 27.1634 23.5783 27.3837 23.5532 27.6704L22.31 42.0335L19.562 41.84C19.5602 41.342 19.3901 40.681 18.8222 40.1687C19.5531 39.5077 19.6283 38.5994 19.5298 38.1122C19.5065 37.9939 19.4438 37.8865 19.3525 37.8059C18.9798 37.478 18.1558 37.0857 17.2171 37.3902C17.0111 36.4265 16.2606 35.907 15.7894 35.7494C15.6748 35.7099 15.5512 35.7099 15.4365 35.7494C14.9654 35.9088 14.2148 36.4265 14.0088 37.3902C13.0701 37.0857 12.2479 37.478 11.8735 37.8059C11.7821 37.8865 11.7212 37.9939 11.6961 38.1122C11.5976 38.5994 11.671 39.5077 12.4001 40.1669C12.0043 40.5216 11.8198 40.9354 11.7338 41.2919L6.60302 40.9318L7.17805 26.5311C7.31599 23.0522 7.78174 19.5678 8.55741 16.1733L9.4889 12.0997H20.7066C20.359 14.4069 19.9846 17.7298 19.9846 21.3091C19.9846 21.6155 20.2336 21.8645 20.54 21.8645C20.8463 21.8645 21.0953 21.6154 21.0953 21.3091C21.0953 17.7049 21.4822 14.3656 21.8298 12.0997H26.3763C26.7238 14.3658 27.1108 17.7051 27.1108 21.3091C27.1108 21.6155 27.3598 21.8645 27.6661 21.8645C27.9724 21.8645 28.2214 21.6154 28.2214 21.3091C28.2214 17.73 27.8452 14.4068 27.4995 12.0997H38.7171L39.6486 16.1733C39.9765 17.6046 40.2452 19.052 40.4601 20.5066C40.4171 20.5102 40.3741 20.5138 40.3329 20.5281C39.8618 20.6857 39.1112 21.2053 38.9052 22.169C37.9683 21.8645 37.1425 22.2568 36.7699 22.5846C36.6785 22.6652 36.6176 22.7727 36.5925 22.8909C36.494 23.3782 36.5675 24.2864 37.3002 24.9474C36.5675 25.6085 36.494 26.5167 36.5925 27.004C36.6158 27.1222 36.6785 27.2297 36.7699 27.3103C37.1425 27.6399 37.9683 28.0304 38.9052 27.7259C39.1112 28.6897 39.8618 29.2092 40.3329 29.3668C40.3903 29.3865 40.4494 29.3954 40.5103 29.3954C40.5694 29.3954 40.6303 29.3865 40.6876 29.3668C40.7091 29.3596 40.8972 29.2915 41.1337 29.1393L41.603 40.9338L25.8998 42.0355L25.9035 42.0335Z" stroke="black" stroke-width="0.438356" mask="url(#path-1-outside-1_1112_23717)"/>
</svg>
