<svg width="713" height="937" viewBox="0 0 713 937" fill="none" xmlns="http://www.w3.org/2000/svg">
<path d="M221.092 367.262C202.794 339.802 170.761 333.614 170.761 333.614C170.761 333.614 177.828 383.105 216.421 373.835L221.104 367.262H221.092Z" fill="#8E75DD"/>
<path d="M207.152 378.95C200.242 378.95 193.946 377.048 188.372 373.256C170.917 361.398 167.005 335.274 166.849 334.167C166.668 332.903 167.113 331.627 168.04 330.748C168.967 329.869 170.267 329.484 171.519 329.725C172.892 329.99 205.394 336.551 224.39 365.058C225.293 366.418 225.269 368.2 224.318 369.536L219.635 376.109C219.081 376.892 218.263 377.433 217.336 377.662C213.809 378.505 210.414 378.926 207.152 378.926V378.95ZM176.009 339.151C178.08 346.88 182.895 359.99 192.826 366.731C198.773 370.764 205.912 371.968 214.073 370.307L216.264 367.237C203.769 350.058 185.399 342.221 176.009 339.163V339.151Z" fill="#232323"/>
<path d="M222.131 362.653C190.375 368.588 162.952 398.744 162.952 398.744C162.952 398.744 201.353 414.84 223.154 370.586L222.131 362.641V362.653Z" fill="#8E75DD"/>
<path d="M179.269 405.443C169.012 405.443 161.609 402.458 161.428 402.385C160.249 401.892 159.382 400.845 159.093 399.593C158.816 398.341 159.165 397.028 160.032 396.077C161.188 394.801 188.718 364.861 221.401 358.758C222.473 358.553 223.568 358.806 224.447 359.444C225.326 360.082 225.904 361.057 226.036 362.129L227.059 370.074C227.156 370.845 227.023 371.627 226.686 372.325C213.216 399.665 193.485 405.443 179.257 405.443H179.269ZM170.457 396.812C181.207 399.003 203.995 399.436 219.09 369.894L218.777 367.438C197.663 372.867 178.823 388.866 170.469 396.812H170.457Z" fill="#232323"/>
<path d="M204.224 368.78L192.668 356.549C192.174 356.043 192.884 355.213 193.45 355.634L207.294 365.205C210.051 367.275 206.704 371.2 204.224 368.78Z" fill="#232323"/>
<path d="M211.682 393.369C288.7 305.5 447.168 336.162 497.679 387.579C497.679 387.579 503.325 359.686 473.904 320.922C444.471 282.158 374.495 241.239 351.526 222.218C328.558 203.197 323.634 252.085 301.737 273.394C279.84 294.702 232.014 318.405 223.045 333.478C214.077 348.55 213.716 362.19 213.716 362.19C202.593 371.519 211.706 393.357 211.706 393.357L211.682 393.369Z" fill="#8E75DD"/>
<path d="M211.682 397.321C211.466 397.321 211.261 397.309 211.044 397.273C209.696 397.056 208.565 396.153 208.035 394.901C207.638 393.938 198.621 371.871 209.865 360.387C210.262 356.065 212.019 344.279 219.639 331.482C224.912 322.622 240.622 312.233 258.823 300.218C273.702 290.383 289.098 280.21 298.982 270.591C306.65 263.128 312.356 251.547 317.4 241.338C324.032 227.891 329.751 216.286 339.14 214.287C343.859 213.276 348.879 214.937 354.055 219.211C360.616 224.653 371.318 232.056 383.693 240.628C414.136 261.719 455.836 290.599 477.071 318.565C507.238 358.292 501.821 387.184 501.58 388.388C501.291 389.821 500.232 390.976 498.835 391.386C497.427 391.807 495.922 391.41 494.899 390.363C465.671 360.615 401.858 340.222 343.149 341.895C305.241 342.967 252.178 353.236 214.704 395.984C213.945 396.851 212.862 397.333 211.731 397.333L211.682 397.321ZM341.861 221.872C341.487 221.872 341.126 221.908 340.765 221.98C335.131 223.184 329.943 233.681 324.466 244.805C319.145 255.591 313.114 267.823 304.471 276.225C294.046 286.362 278.348 296.751 263.157 306.779C247.23 317.301 230.763 328.196 226.405 335.503C218.05 349.528 217.629 362.168 217.629 362.301C217.605 363.432 217.087 364.492 216.221 365.226C210.924 369.668 211.694 378.926 213.344 385.692C252.322 345.05 304.904 335.058 342.86 333.986C373.629 333.107 405.349 337.766 434.577 347.445C458.677 355.427 479.418 366.418 494.032 378.842C493.479 368.296 489.542 348.107 470.727 323.32C450.262 296.354 409.153 267.895 379.142 247.104C366.611 238.425 355.789 230.925 348.963 225.279C346.218 223.003 343.871 221.884 341.837 221.884L341.861 221.872Z" fill="#232323"/>
<path d="M498.12 384.674C521.004 372.442 499.035 358.658 484.77 348.426C470.505 338.193 449.775 325.817 449.775 325.817" fill="#8E75DD"/>
<path d="M496.255 381.188C500.95 378.335 506.391 374.47 502.118 368.788C497.086 361.794 488.419 356.449 481.461 351.08C470.843 343.206 459.082 335.682 449.187 326.786C448.705 326.365 448.657 325.618 449.091 325.137C449.416 324.775 449.921 324.667 450.367 324.824C457.758 327.556 464.644 331.156 471.385 335.032C477.982 338.909 484.651 343.339 490.983 347.685C497.627 352.344 504.73 357.027 509.449 363.985C514.517 371.34 512.723 379.671 505.561 384.787C502.082 387.159 497.339 390.987 494.678 386.401C493.727 384.51 494.437 382.211 496.255 381.188Z" fill="#232323"/>
<path d="M211.402 358.983C220.648 354.18 229.604 348.931 238.608 343.731C239.078 343.442 239.595 344.14 239.15 344.489C235.225 347.884 231.361 351.363 227.485 354.818C223.597 358.261 219.745 361.752 216.001 365.4C211.439 369.397 206.13 362.041 211.39 358.983H211.402Z" fill="#232323"/>
</svg>
