<svg width="713" height="937" viewBox="0 0 713 937" fill="none" xmlns="http://www.w3.org/2000/svg">
<path d="M468.002 229.788L416.858 257.867C416.858 257.867 380.368 246.603 354.979 247.258C329.603 246.603 293.101 257.867 293.101 257.867L241.957 229.788C241.957 229.788 214.719 264.223 233.223 316.392L354.979 301.278L476.736 316.392C495.24 264.223 468.002 229.788 468.002 229.788Z" fill="#BC96DA"/>
<path d="M476.736 320.162C476.587 320.162 476.426 320.162 476.265 320.127L354.979 305.071L233.693 320.127C231.946 320.346 230.268 319.311 229.671 317.645C210.684 264.119 237.842 228.903 239.003 227.432C240.141 225.984 242.164 225.582 243.773 226.467L293.526 253.787C300.847 251.626 331.959 242.902 354.968 243.466C378 242.902 409.088 251.626 416.409 253.787L466.162 226.467C467.783 225.582 469.794 225.984 470.932 227.432C472.093 228.903 499.251 264.119 480.264 317.645C479.724 319.162 478.287 320.162 476.713 320.162H476.736ZM354.979 297.508C355.128 297.508 355.289 297.508 355.439 297.531L474.15 312.266C487.195 272.222 472.196 243.293 466.806 234.73L418.662 261.166C417.765 261.66 416.708 261.763 415.731 261.464C415.386 261.361 381.494 250.994 357.14 250.994C356.439 250.994 355.749 250.994 355.071 251.017C355.014 251.017 354.944 251.017 354.875 251.017C330.441 250.396 294.572 261.35 294.216 261.464C293.239 261.763 292.181 261.66 291.285 261.166L243.14 234.73C237.75 243.282 222.752 272.211 235.797 312.266L354.508 297.531C354.657 297.508 354.818 297.508 354.968 297.508H354.979Z" fill="#232323"/>
<path d="M238.445 349.454C340.342 303.687 422.999 323.513 471.96 355.213C484.786 363.522 493.474 376.878 495.819 391.98L496.83 398.509C496.83 398.509 519.771 381.418 508.473 346.73C497.175 312.043 456.973 295.389 435.228 287.033C413.483 278.677 329.044 266.643 288.75 282.688C248.455 298.733 241.364 298.664 225.986 312.031C210.609 325.398 181.405 351.477 216.056 386.624L222.021 367.821C224.619 359.638 230.606 352.971 238.445 349.454Z" fill="#9E52DA"/>
<path d="M236.894 346.006C311.529 311.514 404.06 306.054 474.856 352.626C487.901 361.315 497.015 375.567 499.474 391.038C499.785 392.796 500.267 396.187 500.555 397.911L494.578 395.463L495.072 395.037C502.336 388.44 506.531 378.831 507.45 369.131L507.473 368.303L507.52 366.648C507.726 362.223 507.06 357.729 506.163 353.396C499.348 323.042 470.213 305.319 443.377 293.791C426.149 285.826 407.197 282.791 388.475 280.274C369.592 277.907 350.456 276.757 331.447 277.7C317.356 278.458 303.174 280.217 290.072 285.354L276.694 290.756C263.615 296.285 249.72 300.158 237.756 307.583C233.94 310.043 230.458 312.973 226.906 316.146C202.127 337.271 193.887 358.453 218.746 383.935C218.827 383.981 212.471 385.44 212.482 385.463L215.896 374.717L217.597 369.338C220.229 359.109 227.182 350.27 236.917 345.983L236.894 346.006ZM239.985 352.891C233.204 355.913 227.849 361.878 225.619 368.958L224.768 371.648C223.585 375.303 220.849 384.073 219.654 387.773C218.953 390.497 215.195 391.359 213.356 389.268C209.862 385.705 206.563 381.854 203.748 377.579C182.761 345.983 208.322 319.191 233.894 301.549C242.364 296.25 251.731 293.193 260.925 289.802C269.039 286.849 279.981 282.895 287.888 279.838C311.058 271.666 336.228 271.781 360.248 272.643C379.591 273.516 398.796 275.7 417.84 279.309C424.977 280.723 432.298 282.424 439.148 285.136C471.834 297.066 508.634 317.812 514.691 355.419C515.622 360.154 515.691 365.051 515.392 369.878L515.254 370.843L514.714 374.717C513.22 382.417 509.853 389.75 504.865 395.83C503.359 397.6 501.784 399.313 499.992 400.83C498.291 402.635 495.417 402.933 493.831 400.807C493.441 400.29 493.199 399.704 493.119 399.095L492.406 394.532C490.832 381.67 484.258 369.556 474.121 361.453C467.007 356.063 459.031 351.776 451.066 347.741C384.97 314.835 305.668 322.777 239.997 352.914L239.985 352.891Z" fill="#232323"/>
<path d="M236.121 301.798C234.937 287.879 233.431 273.834 236.523 260.054C237.27 256.583 238.35 253.157 239.776 249.905C240.35 248.56 241.12 247.054 242.419 246.192C244.775 244.445 248.246 244.664 250.395 246.629C250.59 246.825 251.165 247.319 251.372 247.514C256.395 252.181 261.302 256.973 266.198 261.778C266.991 262.559 269.106 264.617 269.887 265.364C274.668 269.156 275.013 276.593 270.197 280.478L265.141 285.11C264.819 285.408 264.325 285.385 264.026 285.064C263.739 284.753 263.75 284.271 264.049 283.972L268.876 279.098C272.002 276.455 272.278 271.283 269.232 268.536C267.887 267.306 265.485 265.387 264.06 264.168C258.566 259.594 253.084 255.019 247.729 250.296C246.625 249.1 244.809 249.491 244.304 251.077C242.764 254.295 241.511 257.628 240.534 261.077C238.086 269.662 237.305 278.765 238.086 287.684C238.477 292.19 239.373 296.649 240.672 300.994C241.5 304.258 236.546 305.212 236.144 301.821L236.121 301.798Z" fill="#232323"/>
<path d="M467.59 300.925C472.348 284.891 471.176 267.019 464.28 251.79C464.131 251.526 463.775 250.641 463.637 250.468C462.982 249.33 461.338 249.319 460.499 250.273C458.568 251.974 456.637 253.663 454.672 255.33C450.351 259.008 445.903 262.72 441.536 266.352L440.225 267.456C437.295 269.444 435.87 273.329 437.513 276.627C437.973 277.593 438.559 278.306 439.352 279.087L444.179 283.96C444.892 284.673 443.823 285.788 443.087 285.098L438.03 280.466C436.111 278.857 434.732 276.421 434.582 273.881C434.237 270.674 435.881 267.41 438.341 265.364C439.111 264.628 441.237 262.548 442.03 261.778C447.42 256.548 452.718 251.204 458.338 246.216C461.579 243.733 466.682 245.296 468.073 249.1C471.693 256.859 473.095 265.536 473.44 273.995C473.888 283.34 472.854 292.512 472.107 301.821C471.716 305.2 466.694 304.269 467.59 300.948V300.925Z" fill="#232323"/>
<path d="M507.955 383.92C507.955 383.92 507.92 383.92 507.909 383.92C507.587 383.897 507.357 383.609 507.38 383.299C508.702 367.748 497.174 359.944 478.073 347.014C475.337 345.163 472.453 343.209 469.43 341.118C444.812 324.073 417.056 316.855 380.233 310.717C346.558 305.108 307.608 309.717 267.613 324.05C225.881 339.014 206.263 354.519 205.861 372.84C205.861 373.162 205.573 373.391 205.274 373.403C204.953 373.403 204.7 373.139 204.711 372.817C205.114 353.956 224.973 338.118 267.222 322.969C307.401 308.568 346.547 303.936 380.417 309.579C417.39 315.74 445.294 323.015 470.085 340.175C473.107 342.267 475.992 344.221 478.728 346.071C498.185 359.243 509.92 367.185 508.541 383.402C508.518 383.701 508.265 383.931 507.966 383.931L507.955 383.92Z" fill="#232323"/>
</svg>
