<svg width="462" height="432" viewBox="0 0 462 432" fill="none" xmlns="http://www.w3.org/2000/svg">
<path d="M91.5812 218.365C73.3583 191.017 41.4563 184.854 41.4563 184.854C41.4563 184.854 48.4937 234.142 86.9296 224.911L91.5932 218.365H91.5812Z" fill="#58BF43"/>
<path d="M77.6979 230.004C70.8164 230.004 64.5463 228.11 58.9955 224.334C41.6118 212.524 37.7155 186.507 37.5596 185.404C37.3798 184.145 37.8234 182.875 38.7465 181.999C39.6696 181.124 40.9644 180.741 42.2112 180.98C43.578 181.244 75.9475 187.778 94.8658 216.169C95.7649 217.524 95.7409 219.298 94.7938 220.629L90.1302 227.175C89.5787 227.954 88.7635 228.494 87.8404 228.722C84.3277 229.561 80.9468 229.981 77.6979 229.981V230.004ZM46.683 190.368C48.7451 198.065 53.5406 211.121 63.4313 217.835C69.3537 221.852 76.4631 223.051 84.5914 221.396L86.7734 218.339C74.3291 201.23 56.0343 193.425 46.683 190.38V190.368Z" fill="#232323"/>
<path d="M92.6168 213.774C60.9905 219.684 33.6802 249.718 33.6802 249.718C33.6802 249.718 71.9242 265.747 93.6358 221.675L92.6168 213.762V213.774Z" fill="#58BF43"/>
<path d="M49.9216 256.398C39.7072 256.398 32.3342 253.424 32.1543 253.352C30.9794 252.861 30.1162 251.818 29.8285 250.571C29.5528 249.324 29.9004 248.017 30.7636 247.07C31.9146 245.799 59.3328 215.982 91.8822 209.903C92.9492 209.699 94.0402 209.951 94.9154 210.587C95.7905 211.222 96.366 212.193 96.4979 213.26L97.5169 221.173C97.6128 221.94 97.4809 222.72 97.1453 223.415C83.7299 250.643 64.0803 256.398 49.9096 256.398H49.9216ZM41.1459 247.801C51.8518 249.983 74.5465 250.415 89.5684 220.993L89.2567 218.547C68.2644 223.943 49.49 239.888 41.1459 247.801Z" fill="#232323"/>
<path d="M74.779 219.881L63.2698 207.7C62.7783 207.196 63.4856 206.369 64.0491 206.789L77.8361 216.32C80.5816 218.382 77.2487 222.291 74.779 219.881Z" fill="#232323"/>
<path d="M90.5148 230.291C124.011 193.891 326.681 190.906 373.857 244.234L374.983 236.19C375.403 233.156 374.504 230.099 372.514 227.773L371.351 226.418L373.005 220.831C373.761 218.29 373.185 215.556 371.495 213.518L367.059 208.195L367.155 207.943C368.941 203.255 367.874 197.968 364.433 194.323C353.751 183.017 327.292 159.794 283.426 150.754C226.095 138.944 145.639 140.899 108.354 174.313C106.34 176.123 105.069 178.629 104.721 181.315L103.666 189.527L99.0627 191.685C94.3272 193.915 91.294 198.675 91.294 203.914C85.7193 210.473 84.3885 219.644 87.8533 227.521L89.8674 232.089" fill="#58BF43"/>
<path d="M373.853 248.153C372.738 248.153 371.659 247.686 370.904 246.822C345.944 218.624 276.936 207.977 220.673 207.438C160.586 206.85 108.627 217.161 93.7605 232.567C93.5927 233.886 92.7535 235.085 91.4467 235.66C89.4566 236.535 87.1308 235.636 86.2676 233.646L84.2535 229.078C80.4051 220.314 81.6639 210.003 87.4305 202.426C87.958 196.275 91.7464 190.748 97.3931 188.099L100.043 186.852L100.822 180.785C101.289 177.117 103.04 173.772 105.725 171.362C143.909 137.132 225.013 134.675 284.214 146.88C328.32 155.967 355.199 178.795 367.296 191.6C371.264 195.796 372.798 201.779 371.456 207.318L374.513 210.986C377.054 214.032 377.894 218.132 376.767 221.933L375.712 225.481C378.277 228.623 379.416 232.699 378.853 236.727L377.726 244.772C377.51 246.295 376.431 247.554 374.968 247.997C374.597 248.105 374.213 248.165 373.829 248.165L373.853 248.153ZM216.178 199.549C217.712 199.549 219.235 199.549 220.757 199.573C274.934 200.1 340.896 210.051 371.036 235.96L371.084 235.636C371.348 233.73 370.784 231.788 369.525 230.325L368.363 228.97C367.499 227.951 367.2 226.572 367.571 225.29L369.226 219.703C369.609 218.42 369.322 217.053 368.47 216.022L364.035 210.699C363.123 209.608 362.872 208.109 363.387 206.778L363.483 206.526C364.742 203.229 364.011 199.585 361.577 197.007C350.116 184.886 324.628 163.245 282.631 154.589C252.527 148.39 218.311 146.52 188.759 149.469C154.292 152.91 127.389 162.514 110.976 177.225C109.694 178.375 108.854 179.994 108.627 181.792L107.572 190.005C107.404 191.336 106.564 192.499 105.342 193.062L100.738 195.22C97.3931 196.791 95.2351 200.184 95.2351 203.877C95.2351 204.812 94.8995 205.711 94.3 206.418C90.056 211.406 88.7972 218.36 90.9192 224.498C111.971 207.174 167.144 199.525 216.178 199.525V199.549Z" fill="#232323"/>
<path d="M103.676 189.501C135.278 174.395 168.882 169.839 168.882 169.839L103.676 189.501Z" fill="#6B6B6B"/>
<path d="M101.976 185.952C118.053 179.477 134.742 174.658 151.754 171.469C157.4 170.425 163.035 169.49 168.754 168.843C169.305 168.783 169.797 169.179 169.857 169.73C169.917 170.27 169.545 170.749 169.017 170.833C163.479 171.864 157.928 173.159 152.473 174.658C136.192 179.13 120.163 184.933 105.369 193.049C100.418 195.639 96.8213 188.206 101.976 185.952Z" fill="#232323"/>
<path d="M366.351 210.061C352.684 204.162 336.859 198.803 336.859 198.803L366.351 210.061Z" fill="#6B6B6B"/>
<path d="M365.31 212.49C355.491 208.797 346.02 204.325 336.453 199.997C335.817 199.697 335.53 198.942 335.829 198.295C336.093 197.743 336.692 197.456 337.268 197.587C339.869 198.175 342.423 198.834 344.977 199.566C352.613 201.772 360.25 204.086 367.408 207.61C368.714 208.27 369.254 209.864 368.594 211.171C367.983 212.394 366.556 212.934 365.31 212.478V212.49Z" fill="#232323"/>
</svg>
