<svg width="462" height="432" viewBox="0 0 462 432" fill="none" xmlns="http://www.w3.org/2000/svg">
<path d="M96.0921 194.262C77.7944 166.802 45.7615 160.614 45.7615 160.614C45.7615 160.614 52.8277 210.105 91.4214 200.835L96.1042 194.262H96.0921Z" fill="#8E75DD"/>
<path d="M82.1516 205.95C75.2419 205.95 68.946 204.048 63.3724 200.256C45.9174 188.398 42.0051 162.274 41.8486 161.167C41.668 159.903 42.1135 158.627 43.0404 157.748C43.9673 156.869 45.2674 156.484 46.5193 156.725C47.8916 156.99 80.3941 163.551 99.39 192.058C100.293 193.418 100.269 195.2 99.3178 196.536L94.635 203.109C94.0812 203.892 93.2627 204.433 92.3357 204.662C88.8086 205.505 85.4139 205.926 82.1516 205.926V205.95ZM51.0095 166.151C53.08 173.88 57.8952 186.99 67.8265 193.731C73.7732 197.764 80.9117 198.968 89.0735 197.307L91.2644 194.237C78.769 177.058 60.3991 169.221 51.0095 166.163V166.151Z" fill="#232323"/>
<path d="M97.1309 189.653C65.3748 195.588 37.9524 225.744 37.9524 225.744C37.9524 225.744 76.3535 241.84 98.1542 197.586L97.1309 189.641V189.653Z" fill="#8E75DD"/>
<path d="M54.2686 232.443C44.0123 232.443 36.609 229.458 36.4284 229.385C35.2487 228.892 34.382 227.845 34.0931 226.593C33.8162 225.341 34.1653 224.028 35.032 223.077C36.1877 221.801 63.7184 191.861 96.4014 185.758C97.4728 185.553 98.5683 185.806 99.447 186.444C100.326 187.082 100.904 188.057 101.036 189.129L102.059 197.074C102.156 197.845 102.023 198.627 101.686 199.325C88.2156 226.665 68.4855 232.443 54.2566 232.443H54.2686ZM45.4569 223.812C56.2068 226.003 78.9946 226.436 94.0902 196.894L93.7772 194.438C72.6626 199.867 53.8232 215.866 45.4689 223.812H45.4569Z" fill="#232323"/>
<path d="M79.2242 195.78L67.6677 183.549C67.1742 183.043 67.8844 182.213 68.4502 182.634L82.2938 192.205C85.0505 194.275 81.704 198.2 79.2242 195.78Z" fill="#232323"/>
<path d="M86.6816 220.369C163.7 132.5 322.168 163.162 372.679 214.579C372.679 214.579 378.325 186.686 348.904 147.922C319.471 109.158 249.495 68.2387 226.526 49.2178C203.558 30.197 198.634 79.0854 176.737 100.394C154.84 121.702 107.014 145.405 98.0454 160.478C89.0771 175.55 88.716 189.19 88.716 189.19C77.5929 198.519 86.7057 220.357 86.7057 220.357L86.6816 220.369Z" fill="#8E75DD"/>
<path d="M86.6823 224.321C86.4657 224.321 86.261 224.309 86.0443 224.273C84.6961 224.056 83.5645 223.153 83.0349 221.901C82.6376 220.938 73.6212 198.871 84.8646 187.387C85.2619 183.065 87.0194 171.279 94.6394 158.482C99.9121 149.622 115.622 139.233 133.823 127.218C148.702 117.383 164.098 107.21 173.982 97.5915C181.65 90.1276 187.356 78.5465 192.4 68.3379C199.032 54.8909 204.751 43.2858 214.14 41.2874C218.859 40.2761 223.879 41.9375 229.055 46.2111C235.616 51.6525 246.318 59.0562 258.693 67.6276C289.136 88.7191 330.836 117.599 352.071 145.565C382.238 185.292 376.821 214.184 376.58 215.388C376.291 216.821 375.232 217.976 373.835 218.386C372.427 218.807 370.922 218.41 369.899 217.363C340.671 187.615 276.858 167.222 218.149 168.895C180.241 169.967 127.178 180.236 89.7039 222.984C88.9455 223.851 87.8621 224.333 86.7305 224.333L86.6823 224.321ZM216.861 48.8716C216.487 48.8716 216.126 48.9078 215.765 48.98C210.131 50.1838 204.943 60.6814 199.466 71.805C194.145 82.5915 188.114 94.8226 179.471 103.225C169.046 113.362 153.348 123.751 138.157 133.779C122.23 144.301 105.763 155.196 101.405 162.503C93.0504 176.528 92.6291 189.168 92.6291 189.301C92.605 190.432 92.0874 191.492 91.2207 192.226C85.924 196.668 86.6944 205.926 88.3436 212.692C127.322 172.05 179.904 162.058 217.86 160.986C248.629 160.107 280.349 164.766 309.577 174.445C333.677 182.427 354.418 193.418 369.032 205.842C368.479 195.296 364.542 175.107 345.727 150.32C325.262 123.354 284.153 94.8948 254.142 74.1043C241.611 65.4246 230.789 57.9246 223.963 52.2785C221.218 50.0033 218.871 48.8837 216.837 48.8837L216.861 48.8716Z" fill="#232323"/>
<path d="M373.12 211.674C396.004 199.442 374.035 185.658 359.77 175.426C345.505 165.193 324.775 152.817 324.775 152.817" fill="#8E75DD"/>
<path d="M371.255 208.188C375.95 205.335 381.391 201.47 377.118 195.788C372.086 188.794 363.419 183.449 356.461 178.08C345.843 170.206 334.082 162.682 324.187 153.786C323.705 153.365 323.657 152.618 324.091 152.137C324.416 151.775 324.921 151.667 325.367 151.824C332.758 154.556 339.644 158.156 346.385 162.032C352.982 165.909 359.651 170.339 365.983 174.685C372.627 179.344 379.73 184.027 384.449 190.985C389.517 198.34 387.723 206.671 380.561 211.787C377.082 214.159 372.339 217.987 369.678 213.401C368.727 211.51 369.437 209.211 371.255 208.188Z" fill="#232323"/>
<path d="M86.4024 185.983C95.6475 181.18 104.604 175.931 113.608 170.731C114.078 170.442 114.595 171.14 114.15 171.489C110.225 174.884 106.361 178.363 102.485 181.818C98.5968 185.261 94.7447 188.752 91.0009 192.4C86.4385 196.397 81.1298 189.041 86.3903 185.983H86.4024Z" fill="#232323"/>
</svg>
